%TF.GenerationSoftware,KiCad,Pcbnew,(6.0.9)*%
%TF.CreationDate,2024-03-30T18:33:12+01:00*%
%TF.ProjectId,HBW-IO-12-FM,4842572d-494f-42d3-9132-2d464d2e6b69,rev?*%
%TF.SameCoordinates,Original*%
%TF.FileFunction,Copper,L1,Top*%
%TF.FilePolarity,Positive*%
%FSLAX46Y46*%
G04 Gerber Fmt 4.6, Leading zero omitted, Abs format (unit mm)*
G04 Created by KiCad (PCBNEW (6.0.9)) date 2024-03-30 18:33:12*
%MOMM*%
%LPD*%
G01*
G04 APERTURE LIST*
G04 Aperture macros list*
%AMRoundRect*
0 Rectangle with rounded corners*
0 $1 Rounding radius*
0 $2 $3 $4 $5 $6 $7 $8 $9 X,Y pos of 4 corners*
0 Add a 4 corners polygon primitive as box body*
4,1,4,$2,$3,$4,$5,$6,$7,$8,$9,$2,$3,0*
0 Add four circle primitives for the rounded corners*
1,1,$1+$1,$2,$3*
1,1,$1+$1,$4,$5*
1,1,$1+$1,$6,$7*
1,1,$1+$1,$8,$9*
0 Add four rect primitives between the rounded corners*
20,1,$1+$1,$2,$3,$4,$5,0*
20,1,$1+$1,$4,$5,$6,$7,0*
20,1,$1+$1,$6,$7,$8,$9,0*
20,1,$1+$1,$8,$9,$2,$3,0*%
%AMRotRect*
0 Rectangle, with rotation*
0 The origin of the aperture is its center*
0 $1 length*
0 $2 width*
0 $3 Rotation angle, in degrees counterclockwise*
0 Add horizontal line*
21,1,$1,$2,0,0,$3*%
G04 Aperture macros list end*
%TA.AperFunction,NonConductor*%
%ADD10C,0.200000*%
%TD*%
%TA.AperFunction,SMDPad,CuDef*%
%ADD11RotRect,2.020000X2.950000X225.000000*%
%TD*%
%TA.AperFunction,SMDPad,CuDef*%
%ADD12R,2.700000X1.500000*%
%TD*%
%TA.AperFunction,ComponentPad*%
%ADD13O,1.500000X1.500000*%
%TD*%
%TA.AperFunction,ComponentPad*%
%ADD14C,1.500000*%
%TD*%
%TA.AperFunction,SMDPad,CuDef*%
%ADD15RoundRect,0.250000X-0.548008X-0.088388X-0.088388X-0.548008X0.548008X0.088388X0.088388X0.548008X0*%
%TD*%
%TA.AperFunction,SMDPad,CuDef*%
%ADD16RoundRect,0.250000X-0.475000X0.337500X-0.475000X-0.337500X0.475000X-0.337500X0.475000X0.337500X0*%
%TD*%
%TA.AperFunction,SMDPad,CuDef*%
%ADD17R,3.700000X1.200000*%
%TD*%
%TA.AperFunction,SMDPad,CuDef*%
%ADD18R,1.600000X1.600000*%
%TD*%
%TA.AperFunction,SMDPad,CuDef*%
%ADD19RoundRect,0.250000X0.450000X-0.350000X0.450000X0.350000X-0.450000X0.350000X-0.450000X-0.350000X0*%
%TD*%
%TA.AperFunction,ComponentPad*%
%ADD20R,1.700000X1.700000*%
%TD*%
%TA.AperFunction,SMDPad,CuDef*%
%ADD21RoundRect,0.250000X-0.350000X-0.450000X0.350000X-0.450000X0.350000X0.450000X-0.350000X0.450000X0*%
%TD*%
%TA.AperFunction,SMDPad,CuDef*%
%ADD22RoundRect,0.250000X-0.875000X-1.025000X0.875000X-1.025000X0.875000X1.025000X-0.875000X1.025000X0*%
%TD*%
%TA.AperFunction,SMDPad,CuDef*%
%ADD23RoundRect,0.250000X0.350000X0.450000X-0.350000X0.450000X-0.350000X-0.450000X0.350000X-0.450000X0*%
%TD*%
%TA.AperFunction,SMDPad,CuDef*%
%ADD24RoundRect,0.250000X0.412500X1.100000X-0.412500X1.100000X-0.412500X-1.100000X0.412500X-1.100000X0*%
%TD*%
%TA.AperFunction,SMDPad,CuDef*%
%ADD25RoundRect,0.150000X-0.825000X-0.150000X0.825000X-0.150000X0.825000X0.150000X-0.825000X0.150000X0*%
%TD*%
%TA.AperFunction,ComponentPad*%
%ADD26O,1.700000X1.700000*%
%TD*%
%TA.AperFunction,SMDPad,CuDef*%
%ADD27R,1.000000X0.900000*%
%TD*%
%TA.AperFunction,ComponentPad*%
%ADD28O,2.300000X2.300000*%
%TD*%
%TA.AperFunction,ComponentPad*%
%ADD29C,2.300000*%
%TD*%
%TA.AperFunction,SMDPad,CuDef*%
%ADD30RoundRect,0.250000X-0.412500X-1.100000X0.412500X-1.100000X0.412500X1.100000X-0.412500X1.100000X0*%
%TD*%
%TA.AperFunction,ViaPad*%
%ADD31C,0.800000*%
%TD*%
%TA.AperFunction,Conductor*%
%ADD32C,0.250000*%
%TD*%
%TA.AperFunction,Conductor*%
%ADD33C,1.000000*%
%TD*%
%TA.AperFunction,Conductor*%
%ADD34C,1.200000*%
%TD*%
G04 APERTURE END LIST*
D10*
X173500000Y-75000000D02*
G75*
G03*
X173500000Y-75000000I-23500000J0D01*
G01*
D11*
%TO.P,SI1,1*%
%TO.N,/+24V*%
X166750000Y-85464466D03*
%TO.P,SI1,2*%
%TO.N,Net-(D2-Pad2)*%
X163214466Y-89000000D03*
%TD*%
D12*
%TO.P,D3,1,K*%
%TO.N,Net-(D3-Pad1)*%
X140250000Y-78100000D03*
%TO.P,D3,2,A*%
%TO.N,/GND*%
X140250000Y-82900000D03*
%TD*%
D13*
%TO.P,J4,01,01*%
%TO.N,Net-(C15-Pad1)*%
X168600000Y-70687500D03*
D14*
%TO.P,J4,02,02*%
%TO.N,Net-(C14-Pad1)*%
X168600000Y-74187500D03*
%TO.P,J4,03,03*%
%TO.N,/GND*%
X168600000Y-77687500D03*
%TO.P,J4,04,04*%
%TO.N,/+24V*%
X168600000Y-81187500D03*
%TD*%
D15*
%TO.P,D1,1,K*%
%TO.N,Net-(D1-Pad1)*%
X164425216Y-59305216D03*
%TO.P,D1,2,A*%
%TO.N,/LED*%
X165874784Y-60754784D03*
%TD*%
D16*
%TO.P,C19,1*%
%TO.N,Net-(C19-Pad1)*%
X147750000Y-80250000D03*
%TO.P,C19,2*%
%TO.N,/GND*%
X147750000Y-82325000D03*
%TD*%
D17*
%TO.P,L1,1,1*%
%TO.N,/VCC*%
X145500000Y-73700000D03*
%TO.P,L1,2,2*%
%TO.N,Net-(D3-Pad1)*%
X145500000Y-76500000D03*
%TD*%
D12*
%TO.P,D2,1,K*%
%TO.N,Net-(C17-Pad1)*%
X159000000Y-87200000D03*
%TO.P,D2,2,A*%
%TO.N,Net-(D2-Pad2)*%
X159000000Y-92000000D03*
%TD*%
D18*
%TO.P,C17,1*%
%TO.N,Net-(C17-Pad1)*%
X160794888Y-80400000D03*
%TO.P,C17,2*%
%TO.N,/GND*%
X163294888Y-80400000D03*
%TD*%
D19*
%TO.P,R16,1*%
%TO.N,Net-(C17-Pad1)*%
X157750000Y-80400000D03*
%TO.P,R16,2*%
%TO.N,Net-(IC4-Pad1)*%
X157750000Y-78400000D03*
%TD*%
D20*
%TO.P,J1,1,Pin_1*%
%TO.N,Net-(J1-Pad1)*%
X154300000Y-94000000D03*
%TO.P,J1,2,Pin_2*%
%TO.N,Net-(J1-Pad2)*%
X151760000Y-94000000D03*
%TO.P,J1,3,Pin_3*%
%TO.N,Net-(J1-Pad3)*%
X149220000Y-94000000D03*
%TO.P,J1,4,Pin_4*%
%TO.N,Net-(J1-Pad4)*%
X146680000Y-94000000D03*
%TD*%
D21*
%TO.P,R14,1*%
%TO.N,/GND*%
X160300000Y-58000000D03*
%TO.P,R14,2*%
%TO.N,Net-(D1-Pad1)*%
X162300000Y-58000000D03*
%TD*%
D16*
%TO.P,C21,1*%
%TO.N,/GND*%
X145500000Y-68675000D03*
%TO.P,C21,2*%
%TO.N,/VCC*%
X145500000Y-70750000D03*
%TD*%
D22*
%TO.P,C20,1*%
%TO.N,/VCC*%
X148350000Y-69750000D03*
%TO.P,C20,2*%
%TO.N,/GND*%
X154750000Y-69750000D03*
%TD*%
D23*
%TO.P,R18,1*%
%TO.N,Net-(IC4-Pad5)*%
X153750000Y-83750000D03*
%TO.P,R18,2*%
%TO.N,/GND*%
X151750000Y-83750000D03*
%TD*%
D24*
%TO.P,C22,1*%
%TO.N,/VCC*%
X140875000Y-73500000D03*
%TO.P,C22,2*%
%TO.N,/GND*%
X137750000Y-73500000D03*
%TD*%
D25*
%TO.P,IC4,1,SwC*%
%TO.N,Net-(IC4-Pad1)*%
X150275000Y-77845000D03*
%TO.P,IC4,2,SwE*%
%TO.N,Net-(D3-Pad1)*%
X150275000Y-79115000D03*
%TO.P,IC4,3,TC*%
%TO.N,Net-(C19-Pad1)*%
X150275000Y-80385000D03*
%TO.P,IC4,4,GND*%
%TO.N,/GND*%
X150275000Y-81655000D03*
%TO.P,IC4,5,Vfb*%
%TO.N,Net-(IC4-Pad5)*%
X155225000Y-81655000D03*
%TO.P,IC4,6,Vin*%
%TO.N,Net-(C17-Pad1)*%
X155225000Y-80385000D03*
%TO.P,IC4,7,Ipk*%
%TO.N,Net-(IC4-Pad1)*%
X155225000Y-79115000D03*
%TO.P,IC4,8,DC*%
X155225000Y-77845000D03*
%TD*%
D20*
%TO.P,J2,1,Pin_1*%
%TO.N,Net-(J2-Pad1)*%
X153090000Y-91000000D03*
%TO.P,J2,2,Pin_2*%
%TO.N,Net-(J2-Pad2)*%
X150550000Y-91000000D03*
%TO.P,J2,3,Pin_3*%
%TO.N,Net-(J2-Pad3)*%
X148010000Y-91000000D03*
D26*
%TO.P,J2,4,Pin_4*%
%TO.N,/GND*%
X145470000Y-91000000D03*
%TD*%
D27*
%TO.P,SW1,1,1*%
%TO.N,/Button*%
X140300000Y-64850000D03*
X140300000Y-68950000D03*
%TO.P,SW1,2,2*%
%TO.N,/GND*%
X138700000Y-64850000D03*
X138700000Y-68950000D03*
%TD*%
D28*
%TO.P,J3,1,Pin_1*%
%TO.N,Net-(J3-Pad1)*%
X132050000Y-83750000D03*
D29*
%TO.P,J3,2,Pin_2*%
%TO.N,Net-(J3-Pad2)*%
X132050000Y-80250000D03*
%TO.P,J3,3,Pin_3*%
%TO.N,Net-(J3-Pad3)*%
X132050000Y-76750000D03*
%TO.P,J3,4,Pin_4*%
%TO.N,Net-(J3-Pad4)*%
X132050000Y-73250000D03*
%TO.P,J3,5,Pin_5*%
%TO.N,Net-(J3-Pad5)*%
X132050000Y-69750000D03*
%TO.P,J3,6,Pin_6*%
%TO.N,/GND*%
X132050000Y-66250000D03*
%TD*%
D19*
%TO.P,R17,1*%
%TO.N,/VCC*%
X155750000Y-85750000D03*
%TO.P,R17,2*%
%TO.N,Net-(IC4-Pad5)*%
X155750000Y-83750000D03*
%TD*%
D30*
%TO.P,C18,1*%
%TO.N,Net-(C17-Pad1)*%
X159037500Y-84250000D03*
%TO.P,C18,2*%
%TO.N,/GND*%
X162162500Y-84250000D03*
%TD*%
D31*
%TO.N,/GND*%
X133000000Y-63000000D03*
X137000000Y-61500000D03*
X140000000Y-92000000D03*
X133700000Y-75300000D03*
X134000000Y-89000000D03*
X171000000Y-80000000D03*
X128250000Y-75500000D03*
X165000000Y-66000000D03*
X142000000Y-94000000D03*
X139000000Y-63000000D03*
X171000000Y-73000000D03*
X166000000Y-80000000D03*
X166000000Y-76000000D03*
X144250000Y-94000000D03*
X150750000Y-74250000D03*
X135000000Y-60750000D03*
X142000000Y-92000000D03*
X139000000Y-60750000D03*
X157000000Y-95000000D03*
X133600000Y-68000000D03*
X136250000Y-89000000D03*
X138000000Y-92000000D03*
X149750000Y-83000000D03*
X136250000Y-87000000D03*
X171000000Y-70000000D03*
X134000000Y-87000000D03*
X171000000Y-76000000D03*
X166000000Y-70000000D03*
X128250000Y-72750000D03*
X133500000Y-81900000D03*
X166000000Y-73000000D03*
X149500000Y-73000000D03*
X139000000Y-58000000D03*
X133600000Y-71600000D03*
X137000000Y-59250000D03*
X140000000Y-94000000D03*
%TO.N,/VCC*%
X146250000Y-58250000D03*
X157250000Y-65250000D03*
X157400000Y-82300000D03*
X141387500Y-73700000D03*
X148400000Y-65250000D03*
%TO.N,/LED*%
X154790000Y-66349500D03*
%TO.N,/TXD*%
X154400000Y-59600000D03*
X154100000Y-63900000D03*
%TO.N,/SO7*%
X157400000Y-90600000D03*
X144300000Y-85100000D03*
%TO.N,/SO6*%
X157200000Y-88400000D03*
X145800000Y-85100000D03*
%TO.N,/SO5*%
X157300000Y-85813173D03*
X147000000Y-85100000D03*
%TO.N,/SO4*%
X150443701Y-85162000D03*
X145200000Y-82100000D03*
X141900000Y-85300000D03*
%TO.N,/SO3*%
X151800000Y-85100000D03*
X141900000Y-87400000D03*
%TO.N,/SO2*%
X153700000Y-85100000D03*
X141900000Y-89500000D03*
%TO.N,/Button*%
X140300000Y-63600000D03*
%TD*%
D32*
%TO.N,/GND*%
X140250000Y-82900000D02*
X140250000Y-81000000D01*
X148420000Y-81655000D02*
X147750000Y-82325000D01*
X149750000Y-83000000D02*
X149075000Y-82325000D01*
X140250000Y-81000000D02*
X140750000Y-80500000D01*
X140750000Y-80500000D02*
X145512500Y-80500000D01*
X151750000Y-83750000D02*
X150500000Y-83750000D01*
X149075000Y-82325000D02*
X147750000Y-82325000D01*
X145512500Y-80500000D02*
X147337500Y-82325000D01*
X150500000Y-83750000D02*
X149750000Y-83000000D01*
X150275000Y-81655000D02*
X148420000Y-81655000D01*
D33*
%TO.N,Net-(C17-Pad1)*%
X159037500Y-84250000D02*
X159037500Y-80562500D01*
D32*
X159037500Y-80562500D02*
X159200000Y-80400000D01*
D33*
X159200000Y-80400000D02*
X160594888Y-80400000D01*
D34*
X159037500Y-84250000D02*
X159037500Y-87162500D01*
D32*
X155225000Y-80385000D02*
X157365000Y-80385000D01*
D33*
X157750000Y-80400000D02*
X159200000Y-80400000D01*
D32*
%TO.N,Net-(C19-Pad1)*%
X147750000Y-80250000D02*
X150140000Y-80250000D01*
D33*
%TO.N,/VCC*%
X157250000Y-65250000D02*
X148400000Y-65250000D01*
X141050000Y-73675000D02*
X145500000Y-73675000D01*
X143200000Y-67200000D02*
X143200000Y-70200000D01*
X146250000Y-65250000D02*
X145150000Y-65250000D01*
D32*
X157100000Y-82600000D02*
X157100000Y-84400000D01*
D33*
X143750000Y-70750000D02*
X147350000Y-70750000D01*
X146250000Y-65250000D02*
X146250000Y-58250000D01*
X145150000Y-65250000D02*
X143200000Y-67200000D01*
D32*
X157100000Y-84400000D02*
X155750000Y-85750000D01*
D33*
X143750000Y-70750000D02*
X145500000Y-70750000D01*
X145500000Y-73675000D02*
X145500000Y-70750000D01*
D32*
X157400000Y-82300000D02*
X157100000Y-82600000D01*
D33*
X148400000Y-65250000D02*
X146250000Y-65250000D01*
X143200000Y-70200000D02*
X143750000Y-70750000D01*
X147350000Y-70750000D02*
X148350000Y-69750000D01*
D32*
%TO.N,Net-(D1-Pad1)*%
X162300000Y-58000000D02*
X163130000Y-58000000D01*
X163130000Y-58000000D02*
X164305216Y-59175216D01*
%TO.N,/LED*%
X160304568Y-66075000D02*
X165754784Y-60624784D01*
X155064500Y-66075000D02*
X160304568Y-66075000D01*
X154790000Y-66349500D02*
X155064500Y-66075000D01*
D34*
%TO.N,Net-(D2-Pad2)*%
X160214466Y-92000000D02*
X163214466Y-89000000D01*
D32*
%TO.N,Net-(D3-Pad1)*%
X140250000Y-78100000D02*
X143950000Y-78100000D01*
X143950000Y-78100000D02*
X145500000Y-76550000D01*
X148065000Y-79115000D02*
X145500000Y-76550000D01*
X150275000Y-79115000D02*
X148065000Y-79115000D01*
%TO.N,/TXD*%
X154100000Y-63900000D02*
X154400000Y-63600000D01*
X154400000Y-63600000D02*
X154400000Y-59600000D01*
%TO.N,/SO7*%
X146450000Y-87750000D02*
X154550000Y-87750000D01*
X144300000Y-85100000D02*
X144300000Y-85600000D01*
X144300000Y-85600000D02*
X146450000Y-87750000D01*
X154550000Y-87750000D02*
X157400000Y-90600000D01*
%TO.N,/SO6*%
X156100000Y-87300000D02*
X147900000Y-87300000D01*
X157200000Y-88400000D02*
X156100000Y-87300000D01*
X145800000Y-85200000D02*
X145800000Y-85100000D01*
X147900000Y-87300000D02*
X145800000Y-85200000D01*
%TO.N,/SO5*%
X148750000Y-86850000D02*
X147000000Y-85100000D01*
X157300000Y-85813173D02*
X156263173Y-86850000D01*
X156263173Y-86850000D02*
X148750000Y-86850000D01*
%TO.N,/SO4*%
X148581701Y-83300000D02*
X146500000Y-83300000D01*
X142175000Y-83225000D02*
X143300000Y-82100000D01*
X146500000Y-83300000D02*
X145300000Y-82100000D01*
X141900000Y-85300000D02*
X142175000Y-85025000D01*
X150443701Y-85162000D02*
X148581701Y-83300000D01*
X143300000Y-82100000D02*
X145200000Y-82100000D01*
X142175000Y-85025000D02*
X142175000Y-83225000D01*
X145300000Y-82100000D02*
X145200000Y-82100000D01*
%TO.N,/SO3*%
X143250000Y-83750000D02*
X142625000Y-84375000D01*
X142625000Y-84375000D02*
X142625000Y-86800000D01*
X151013000Y-85887000D02*
X149987000Y-85887000D01*
X147850000Y-83750000D02*
X143250000Y-83750000D01*
X151800000Y-85100000D02*
X151013000Y-85887000D01*
X142625000Y-86800000D02*
X142025000Y-87400000D01*
X149987000Y-85887000D02*
X147850000Y-83750000D01*
X142025000Y-87400000D02*
X141900000Y-87400000D01*
%TO.N,/SO2*%
X143499695Y-84375000D02*
X147425000Y-84375000D01*
X147425000Y-84375000D02*
X149387000Y-86337000D01*
X141900000Y-89500000D02*
X141900000Y-89450000D01*
X141900000Y-89450000D02*
X143075000Y-88275000D01*
X153100000Y-85100000D02*
X153700000Y-85100000D01*
X151863000Y-86337000D02*
X153100000Y-85100000D01*
X143075000Y-84799695D02*
X143499695Y-84375000D01*
X143075000Y-88275000D02*
X143075000Y-84799695D01*
X149387000Y-86337000D02*
X151863000Y-86337000D01*
%TO.N,Net-(IC4-Pad1)*%
X150275000Y-77845000D02*
X155225000Y-77845000D01*
X157750000Y-78000000D02*
X155380000Y-78000000D01*
X155225000Y-77845000D02*
X155225000Y-79115000D01*
%TO.N,Net-(IC4-Pad5)*%
X155750000Y-83750000D02*
X153750000Y-83750000D01*
X155750000Y-83750000D02*
X155750000Y-82180000D01*
X155750000Y-82180000D02*
X155225000Y-81655000D01*
D34*
%TO.N,/+24V*%
X166750000Y-85464466D02*
X168600000Y-83614466D01*
X168600000Y-83614466D02*
X168600000Y-81187500D01*
D32*
%TO.N,/Button*%
X140300000Y-64850000D02*
X140300000Y-68950000D01*
X140300000Y-64850000D02*
X140300000Y-63600000D01*
%TD*%
%TA.AperFunction,Conductor*%
%TO.N,/GND*%
G36*
X150482052Y-52113631D02*
G01*
X151434728Y-52153560D01*
X151439986Y-52153891D01*
X151688201Y-52174734D01*
X152390190Y-52233682D01*
X152395439Y-52234234D01*
X152858974Y-52292792D01*
X153341455Y-52353743D01*
X153346605Y-52354502D01*
X154286878Y-52513538D01*
X154291983Y-52514512D01*
X154758366Y-52613645D01*
X155224733Y-52712775D01*
X155229871Y-52713981D01*
X156153417Y-52951107D01*
X156158500Y-52952526D01*
X157071341Y-53228129D01*
X157076360Y-53229760D01*
X157637103Y-53425031D01*
X157976840Y-53543339D01*
X157981764Y-53545170D01*
X158852050Y-53889741D01*
X158868358Y-53896198D01*
X158873223Y-53898243D01*
X159744317Y-54286079D01*
X159749092Y-54288326D01*
X160603175Y-54712297D01*
X160607852Y-54714742D01*
X161443447Y-55174113D01*
X161448017Y-55176752D01*
X162263635Y-55670708D01*
X162268069Y-55673522D01*
X162409436Y-55767446D01*
X163062288Y-56201200D01*
X163066622Y-56204212D01*
X163290235Y-56366676D01*
X163392987Y-56441330D01*
X163436341Y-56497552D01*
X163442416Y-56568288D01*
X163414385Y-56625507D01*
X163360960Y-56687519D01*
X163312484Y-56743786D01*
X163303995Y-56752717D01*
X163303756Y-56752945D01*
X163296441Y-56758162D01*
X163290886Y-56765220D01*
X163290882Y-56765224D01*
X163259539Y-56805048D01*
X163255988Y-56809361D01*
X163241944Y-56825663D01*
X163239527Y-56829443D01*
X163239327Y-56829756D01*
X163232190Y-56839800D01*
X163207339Y-56871377D01*
X163149492Y-56912535D01*
X163078575Y-56915886D01*
X163042212Y-56900709D01*
X162978968Y-56861725D01*
X162978966Y-56861724D01*
X162972738Y-56857885D01*
X162875591Y-56825663D01*
X162811389Y-56804368D01*
X162811387Y-56804368D01*
X162804861Y-56802203D01*
X162798025Y-56801503D01*
X162798022Y-56801502D01*
X162754969Y-56797091D01*
X162700400Y-56791500D01*
X161899600Y-56791500D01*
X161896354Y-56791837D01*
X161896350Y-56791837D01*
X161800692Y-56801762D01*
X161800688Y-56801763D01*
X161793834Y-56802474D01*
X161787298Y-56804655D01*
X161787296Y-56804655D01*
X161773191Y-56809361D01*
X161626054Y-56858450D01*
X161475652Y-56951522D01*
X161470479Y-56956704D01*
X161388862Y-57038463D01*
X161326579Y-57072542D01*
X161255759Y-57067539D01*
X161210671Y-57038618D01*
X161128171Y-56956261D01*
X161116760Y-56947249D01*
X160978757Y-56862184D01*
X160965576Y-56856037D01*
X160811290Y-56804862D01*
X160797914Y-56801995D01*
X160703562Y-56792328D01*
X160697145Y-56792000D01*
X160572115Y-56792000D01*
X160556876Y-56796475D01*
X160555671Y-56797865D01*
X160554000Y-56805548D01*
X160554000Y-59189884D01*
X160558475Y-59205123D01*
X160559865Y-59206328D01*
X160567548Y-59207999D01*
X160697095Y-59207999D01*
X160703614Y-59207662D01*
X160799206Y-59197743D01*
X160812600Y-59194851D01*
X160966784Y-59143412D01*
X160979962Y-59137239D01*
X161117807Y-59051937D01*
X161129208Y-59042901D01*
X161210430Y-58961538D01*
X161272713Y-58927459D01*
X161343533Y-58932462D01*
X161388620Y-58961383D01*
X161471512Y-59044130D01*
X161471517Y-59044134D01*
X161476697Y-59049305D01*
X161482927Y-59053145D01*
X161482928Y-59053146D01*
X161620288Y-59137816D01*
X161627262Y-59142115D01*
X161640977Y-59146664D01*
X161788611Y-59195632D01*
X161788613Y-59195632D01*
X161795139Y-59197797D01*
X161801975Y-59198497D01*
X161801978Y-59198498D01*
X161845031Y-59202909D01*
X161899600Y-59208500D01*
X162700400Y-59208500D01*
X162703646Y-59208163D01*
X162703650Y-59208163D01*
X162799308Y-59198238D01*
X162799312Y-59198237D01*
X162806166Y-59197526D01*
X162812702Y-59195345D01*
X162812704Y-59195345D01*
X162958619Y-59146664D01*
X163029569Y-59144080D01*
X163090652Y-59180264D01*
X163122477Y-59243728D01*
X163121140Y-59295069D01*
X163118606Y-59305831D01*
X163118760Y-59482701D01*
X163159599Y-59654793D01*
X163162881Y-59661332D01*
X163162881Y-59661333D01*
X163235846Y-59806723D01*
X163235849Y-59806727D01*
X163238933Y-59812873D01*
X163305230Y-59894307D01*
X163836125Y-60425202D01*
X163838645Y-60427248D01*
X163913325Y-60487888D01*
X163913328Y-60487890D01*
X163918673Y-60492230D01*
X164076892Y-60571288D01*
X164084018Y-60572966D01*
X164084021Y-60572967D01*
X164241930Y-60610149D01*
X164241934Y-60610149D01*
X164249054Y-60611826D01*
X164256370Y-60611820D01*
X164256373Y-60611820D01*
X164337681Y-60611749D01*
X164425925Y-60611672D01*
X164430745Y-60610528D01*
X164499777Y-60622282D01*
X164552213Y-60670146D01*
X164570447Y-60738761D01*
X164569742Y-60748738D01*
X164568174Y-60755399D01*
X164568180Y-60762719D01*
X164568180Y-60762722D01*
X164568268Y-60863095D01*
X164548325Y-60931233D01*
X164531363Y-60952300D01*
X160079068Y-65404595D01*
X160016756Y-65438621D01*
X159989973Y-65441500D01*
X158383909Y-65441500D01*
X158315788Y-65421498D01*
X158269295Y-65367842D01*
X158258599Y-65302330D01*
X158262711Y-65263205D01*
X158262711Y-65263202D01*
X158263355Y-65257075D01*
X158249958Y-65109865D01*
X158245989Y-65066251D01*
X158245988Y-65066248D01*
X158245430Y-65060112D01*
X158189590Y-64870381D01*
X158097960Y-64695110D01*
X157974032Y-64540975D01*
X157967721Y-64535679D01*
X157929481Y-64503592D01*
X157822526Y-64413846D01*
X157817128Y-64410879D01*
X157817123Y-64410875D01*
X157654608Y-64321533D01*
X157654609Y-64321533D01*
X157649213Y-64318567D01*
X157643346Y-64316706D01*
X157643344Y-64316705D01*
X157466564Y-64260627D01*
X157466563Y-64260627D01*
X157460694Y-64258765D01*
X157306773Y-64241500D01*
X155116216Y-64241500D01*
X155048095Y-64221498D01*
X155001602Y-64167842D01*
X154991498Y-64097568D01*
X154992029Y-64094584D01*
X154993542Y-64089928D01*
X155013504Y-63900000D01*
X155006322Y-63831670D01*
X155010560Y-63784203D01*
X155013181Y-63778145D01*
X155014420Y-63770321D01*
X155014422Y-63770315D01*
X155020099Y-63734476D01*
X155022505Y-63722856D01*
X155031528Y-63687711D01*
X155031528Y-63687710D01*
X155033500Y-63680030D01*
X155033500Y-63659776D01*
X155035051Y-63640065D01*
X155036980Y-63627886D01*
X155038220Y-63620057D01*
X155034059Y-63576038D01*
X155033500Y-63564181D01*
X155033500Y-60302524D01*
X155053502Y-60234403D01*
X155065858Y-60218221D01*
X155139040Y-60136944D01*
X155234527Y-59971556D01*
X155293542Y-59789928D01*
X155313504Y-59600000D01*
X155301176Y-59482701D01*
X155294232Y-59416635D01*
X155294232Y-59416633D01*
X155293542Y-59410072D01*
X155234527Y-59228444D01*
X155222529Y-59207662D01*
X155181870Y-59137239D01*
X155139040Y-59063056D01*
X155129762Y-59052751D01*
X155015675Y-58926045D01*
X155015674Y-58926044D01*
X155011253Y-58921134D01*
X154856752Y-58808882D01*
X154850724Y-58806198D01*
X154850722Y-58806197D01*
X154688319Y-58733891D01*
X154688318Y-58733891D01*
X154682288Y-58731206D01*
X154588888Y-58711353D01*
X154501944Y-58692872D01*
X154501939Y-58692872D01*
X154495487Y-58691500D01*
X154304513Y-58691500D01*
X154298061Y-58692872D01*
X154298056Y-58692872D01*
X154211112Y-58711353D01*
X154117712Y-58731206D01*
X154111682Y-58733891D01*
X154111681Y-58733891D01*
X153949278Y-58806197D01*
X153949276Y-58806198D01*
X153943248Y-58808882D01*
X153788747Y-58921134D01*
X153784326Y-58926044D01*
X153784325Y-58926045D01*
X153670239Y-59052751D01*
X153660960Y-59063056D01*
X153618130Y-59137239D01*
X153577472Y-59207662D01*
X153565473Y-59228444D01*
X153506458Y-59410072D01*
X153505768Y-59416633D01*
X153505768Y-59416635D01*
X153498824Y-59482701D01*
X153486496Y-59600000D01*
X153506458Y-59789928D01*
X153565473Y-59971556D01*
X153660960Y-60136944D01*
X153734137Y-60218215D01*
X153764853Y-60282221D01*
X153766500Y-60302524D01*
X153766500Y-62972181D01*
X153746498Y-63040302D01*
X153691749Y-63087288D01*
X153649278Y-63106197D01*
X153649276Y-63106198D01*
X153643248Y-63108882D01*
X153488747Y-63221134D01*
X153360960Y-63363056D01*
X153265473Y-63528444D01*
X153206458Y-63710072D01*
X153205768Y-63716633D01*
X153205768Y-63716635D01*
X153193677Y-63831672D01*
X153186496Y-63900000D01*
X153206458Y-64089928D01*
X153206883Y-64091237D01*
X153201628Y-64160095D01*
X153158811Y-64216727D01*
X153092173Y-64241220D01*
X153083784Y-64241500D01*
X147384500Y-64241500D01*
X147316379Y-64221498D01*
X147269886Y-64167842D01*
X147258500Y-64115500D01*
X147258500Y-58497095D01*
X159192001Y-58497095D01*
X159192338Y-58503614D01*
X159202257Y-58599206D01*
X159205149Y-58612600D01*
X159256588Y-58766784D01*
X159262761Y-58779962D01*
X159348063Y-58917807D01*
X159357099Y-58929208D01*
X159471829Y-59043739D01*
X159483240Y-59052751D01*
X159621243Y-59137816D01*
X159634424Y-59143963D01*
X159788710Y-59195138D01*
X159802086Y-59198005D01*
X159896438Y-59207672D01*
X159902854Y-59208000D01*
X160027885Y-59208000D01*
X160043124Y-59203525D01*
X160044329Y-59202135D01*
X160046000Y-59194452D01*
X160046000Y-58272115D01*
X160041525Y-58256876D01*
X160040135Y-58255671D01*
X160032452Y-58254000D01*
X159210116Y-58254000D01*
X159194877Y-58258475D01*
X159193672Y-58259865D01*
X159192001Y-58267548D01*
X159192001Y-58497095D01*
X147258500Y-58497095D01*
X147258500Y-58200231D01*
X147257814Y-58193227D01*
X147244681Y-58059301D01*
X147244080Y-58053167D01*
X147186916Y-57863831D01*
X147114633Y-57727885D01*
X159192000Y-57727885D01*
X159196475Y-57743124D01*
X159197865Y-57744329D01*
X159205548Y-57746000D01*
X160027885Y-57746000D01*
X160043124Y-57741525D01*
X160044329Y-57740135D01*
X160046000Y-57732452D01*
X160046000Y-56810116D01*
X160041525Y-56794877D01*
X160040135Y-56793672D01*
X160032452Y-56792001D01*
X159902905Y-56792001D01*
X159896386Y-56792338D01*
X159800794Y-56802257D01*
X159787400Y-56805149D01*
X159633216Y-56856588D01*
X159620038Y-56862761D01*
X159482193Y-56948063D01*
X159470792Y-56957099D01*
X159356261Y-57071829D01*
X159347249Y-57083240D01*
X159262184Y-57221243D01*
X159256037Y-57234424D01*
X159204862Y-57388710D01*
X159201995Y-57402086D01*
X159192328Y-57496438D01*
X159192000Y-57502855D01*
X159192000Y-57727885D01*
X147114633Y-57727885D01*
X147094066Y-57689204D01*
X147012772Y-57589528D01*
X146972960Y-57540713D01*
X146972957Y-57540710D01*
X146969065Y-57535938D01*
X146962724Y-57530692D01*
X146821425Y-57413799D01*
X146821421Y-57413797D01*
X146816675Y-57409870D01*
X146642701Y-57315802D01*
X146453768Y-57257318D01*
X146447643Y-57256674D01*
X146447642Y-57256674D01*
X146263204Y-57237289D01*
X146263202Y-57237289D01*
X146257075Y-57236645D01*
X146174576Y-57244153D01*
X146066251Y-57254011D01*
X146066248Y-57254012D01*
X146060112Y-57254570D01*
X146054206Y-57256308D01*
X146054202Y-57256309D01*
X145949076Y-57287249D01*
X145870381Y-57310410D01*
X145864923Y-57313263D01*
X145864919Y-57313265D01*
X145851463Y-57320300D01*
X145695110Y-57402040D01*
X145540975Y-57525968D01*
X145413846Y-57677474D01*
X145410879Y-57682872D01*
X145410875Y-57682877D01*
X145332095Y-57826180D01*
X145318567Y-57850787D01*
X145316706Y-57856654D01*
X145316705Y-57856656D01*
X145260627Y-58033436D01*
X145258765Y-58039306D01*
X145241500Y-58193227D01*
X145241500Y-64114141D01*
X145221498Y-64182262D01*
X145167842Y-64228755D01*
X145126477Y-64239662D01*
X145110606Y-64241050D01*
X145105784Y-64241379D01*
X145103313Y-64241500D01*
X145100231Y-64241500D01*
X145077763Y-64243703D01*
X145057489Y-64245691D01*
X145056174Y-64245813D01*
X145023913Y-64248636D01*
X144963587Y-64253913D01*
X144958468Y-64255400D01*
X144953167Y-64255920D01*
X144864133Y-64282801D01*
X144863000Y-64283136D01*
X144779578Y-64307373D01*
X144779574Y-64307375D01*
X144773663Y-64309092D01*
X144768934Y-64311543D01*
X144763831Y-64313084D01*
X144681669Y-64356770D01*
X144680627Y-64357317D01*
X144598074Y-64400108D01*
X144593911Y-64403431D01*
X144589204Y-64405934D01*
X144584430Y-64409828D01*
X144584428Y-64409829D01*
X144517105Y-64464737D01*
X144516160Y-64465500D01*
X144477027Y-64496739D01*
X144474536Y-64499230D01*
X144473809Y-64499880D01*
X144469463Y-64503592D01*
X144450588Y-64518987D01*
X144435938Y-64530935D01*
X144432015Y-64535677D01*
X144432013Y-64535679D01*
X144406703Y-64566273D01*
X144398713Y-64575053D01*
X142530621Y-66443145D01*
X142520478Y-66452247D01*
X142490975Y-66475968D01*
X142466416Y-66505236D01*
X142458709Y-66514421D01*
X142455528Y-66518069D01*
X142453885Y-66519881D01*
X142451691Y-66522075D01*
X142424358Y-66555349D01*
X142423696Y-66556147D01*
X142363846Y-66627474D01*
X142361278Y-66632144D01*
X142357897Y-66636261D01*
X142331718Y-66685085D01*
X142314023Y-66718086D01*
X142313394Y-66719245D01*
X142271538Y-66795381D01*
X142271535Y-66795389D01*
X142268567Y-66800787D01*
X142266955Y-66805869D01*
X142264438Y-66810563D01*
X142237238Y-66899531D01*
X142236918Y-66900559D01*
X142208765Y-66989306D01*
X142208171Y-66994602D01*
X142206613Y-66999698D01*
X142203307Y-67032249D01*
X142197218Y-67092187D01*
X142197089Y-67093393D01*
X142191500Y-67143227D01*
X142191500Y-67146754D01*
X142191445Y-67147739D01*
X142190998Y-67153419D01*
X142186626Y-67196462D01*
X142190623Y-67238741D01*
X142190941Y-67242109D01*
X142191500Y-67253967D01*
X142191500Y-70138157D01*
X142190763Y-70151764D01*
X142186676Y-70189388D01*
X142187213Y-70195523D01*
X142191050Y-70239388D01*
X142191379Y-70244214D01*
X142191500Y-70246686D01*
X142191500Y-70249769D01*
X142191801Y-70252837D01*
X142195690Y-70292506D01*
X142195812Y-70293819D01*
X142203913Y-70386413D01*
X142205400Y-70391532D01*
X142205920Y-70396833D01*
X142232791Y-70485834D01*
X142233126Y-70486967D01*
X142259091Y-70576336D01*
X142261544Y-70581068D01*
X142263084Y-70586169D01*
X142265978Y-70591612D01*
X142306731Y-70668260D01*
X142307343Y-70669426D01*
X142350108Y-70751926D01*
X142353431Y-70756089D01*
X142355934Y-70760796D01*
X142414755Y-70832918D01*
X142415446Y-70833774D01*
X142446738Y-70872973D01*
X142449242Y-70875477D01*
X142449884Y-70876195D01*
X142453585Y-70880528D01*
X142480935Y-70914062D01*
X142485682Y-70917989D01*
X142485684Y-70917991D01*
X142516262Y-70943287D01*
X142525042Y-70951277D01*
X142993149Y-71419384D01*
X143002251Y-71429527D01*
X143025968Y-71459025D01*
X143064446Y-71491312D01*
X143068062Y-71494467D01*
X143069888Y-71496123D01*
X143072074Y-71498309D01*
X143074454Y-71500264D01*
X143074464Y-71500273D01*
X143105268Y-71525576D01*
X143106283Y-71526418D01*
X143114723Y-71533500D01*
X143177474Y-71586154D01*
X143182148Y-71588723D01*
X143186261Y-71592102D01*
X143191698Y-71595017D01*
X143191699Y-71595018D01*
X143268047Y-71635955D01*
X143269177Y-71636568D01*
X143350787Y-71681433D01*
X143355869Y-71683045D01*
X143360563Y-71685562D01*
X143449528Y-71712761D01*
X143450559Y-71713082D01*
X143539306Y-71741235D01*
X143544602Y-71741829D01*
X143549698Y-71743387D01*
X143642222Y-71752785D01*
X143643342Y-71752905D01*
X143676664Y-71756642D01*
X143689730Y-71758108D01*
X143689734Y-71758108D01*
X143693227Y-71758500D01*
X143696754Y-71758500D01*
X143697757Y-71758556D01*
X143703441Y-71759003D01*
X143728857Y-71761585D01*
X143740336Y-71762751D01*
X143740338Y-71762751D01*
X143746462Y-71763373D01*
X143792101Y-71759059D01*
X143803957Y-71758500D01*
X144365500Y-71758500D01*
X144433621Y-71778502D01*
X144480114Y-71832158D01*
X144491500Y-71884500D01*
X144491500Y-72465500D01*
X144471498Y-72533621D01*
X144417842Y-72580114D01*
X144365500Y-72591500D01*
X143601866Y-72591500D01*
X143539684Y-72598255D01*
X143403295Y-72649385D01*
X143400158Y-72651736D01*
X143342450Y-72666500D01*
X142172000Y-72666500D01*
X142103879Y-72646498D01*
X142057386Y-72592842D01*
X142046000Y-72540500D01*
X142046000Y-72349600D01*
X142038401Y-72276361D01*
X142035738Y-72250692D01*
X142035737Y-72250688D01*
X142035026Y-72243834D01*
X141997360Y-72130934D01*
X141981368Y-72083002D01*
X141979050Y-72076054D01*
X141885978Y-71925652D01*
X141760803Y-71800695D01*
X141729754Y-71781556D01*
X141616468Y-71711725D01*
X141616466Y-71711724D01*
X141610238Y-71707885D01*
X141489373Y-71667796D01*
X141448889Y-71654368D01*
X141448887Y-71654368D01*
X141442361Y-71652203D01*
X141435525Y-71651503D01*
X141435522Y-71651502D01*
X141392469Y-71647091D01*
X141337900Y-71641500D01*
X140412100Y-71641500D01*
X140408854Y-71641837D01*
X140408850Y-71641837D01*
X140313192Y-71651762D01*
X140313188Y-71651763D01*
X140306334Y-71652474D01*
X140299798Y-71654655D01*
X140299796Y-71654655D01*
X140185972Y-71692630D01*
X140138554Y-71708450D01*
X139988152Y-71801522D01*
X139863195Y-71926697D01*
X139859355Y-71932927D01*
X139859354Y-71932928D01*
X139848629Y-71950328D01*
X139770385Y-72077262D01*
X139714703Y-72245139D01*
X139704000Y-72349600D01*
X139704000Y-74650400D01*
X139704337Y-74653646D01*
X139704337Y-74653650D01*
X139714252Y-74749206D01*
X139714974Y-74756166D01*
X139717155Y-74762702D01*
X139717155Y-74762704D01*
X139739710Y-74830310D01*
X139770950Y-74923946D01*
X139864022Y-75074348D01*
X139989197Y-75199305D01*
X139995427Y-75203145D01*
X139995428Y-75203146D01*
X140132788Y-75287816D01*
X140139762Y-75292115D01*
X140219505Y-75318564D01*
X140301111Y-75345632D01*
X140301113Y-75345632D01*
X140307639Y-75347797D01*
X140314475Y-75348497D01*
X140314478Y-75348498D01*
X140357531Y-75352909D01*
X140412100Y-75358500D01*
X141337900Y-75358500D01*
X141341146Y-75358163D01*
X141341150Y-75358163D01*
X141436808Y-75348238D01*
X141436812Y-75348237D01*
X141443666Y-75347526D01*
X141450202Y-75345345D01*
X141450204Y-75345345D01*
X141582306Y-75301272D01*
X141611446Y-75291550D01*
X141761848Y-75198478D01*
X141886805Y-75073303D01*
X141917110Y-75024140D01*
X141975775Y-74928968D01*
X141975776Y-74928966D01*
X141979615Y-74922738D01*
X142030331Y-74769833D01*
X142070761Y-74711473D01*
X142136326Y-74684236D01*
X142149924Y-74683500D01*
X143271768Y-74683500D01*
X143339889Y-74703502D01*
X143347333Y-74708674D01*
X143396108Y-74745229D01*
X143396110Y-74745230D01*
X143403295Y-74750615D01*
X143539684Y-74801745D01*
X143601866Y-74808500D01*
X147398134Y-74808500D01*
X147460316Y-74801745D01*
X147596705Y-74750615D01*
X147713261Y-74663261D01*
X147800615Y-74546705D01*
X147851745Y-74410316D01*
X147858500Y-74348134D01*
X147858500Y-73051866D01*
X147851745Y-72989684D01*
X147800615Y-72853295D01*
X147713261Y-72736739D01*
X147596705Y-72649385D01*
X147460316Y-72598255D01*
X147398134Y-72591500D01*
X146634500Y-72591500D01*
X146566379Y-72571498D01*
X146519886Y-72517842D01*
X146508500Y-72465500D01*
X146508500Y-71884500D01*
X146528502Y-71816379D01*
X146582158Y-71769886D01*
X146634500Y-71758500D01*
X147288157Y-71758500D01*
X147301764Y-71759237D01*
X147333262Y-71762659D01*
X147333267Y-71762659D01*
X147339388Y-71763324D01*
X147365638Y-71761027D01*
X147389388Y-71758950D01*
X147394214Y-71758621D01*
X147396686Y-71758500D01*
X147399769Y-71758500D01*
X147411738Y-71757326D01*
X147442506Y-71754310D01*
X147443819Y-71754188D01*
X147488084Y-71750315D01*
X147536413Y-71746087D01*
X147541532Y-71744600D01*
X147546833Y-71744080D01*
X147635834Y-71717209D01*
X147636967Y-71716874D01*
X147720414Y-71692630D01*
X147720418Y-71692628D01*
X147726336Y-71690909D01*
X147731068Y-71688456D01*
X147736169Y-71686916D01*
X147743173Y-71683192D01*
X147818260Y-71643269D01*
X147819426Y-71642657D01*
X147896453Y-71602729D01*
X147901926Y-71599892D01*
X147906089Y-71596569D01*
X147910796Y-71594066D01*
X147917051Y-71588965D01*
X147950288Y-71561857D01*
X148015720Y-71534303D01*
X148029924Y-71533500D01*
X149275400Y-71533500D01*
X149278646Y-71533163D01*
X149278650Y-71533163D01*
X149374308Y-71523238D01*
X149374312Y-71523237D01*
X149381166Y-71522526D01*
X149387702Y-71520345D01*
X149387704Y-71520345D01*
X149541998Y-71468868D01*
X149548946Y-71466550D01*
X149699348Y-71373478D01*
X149824305Y-71248303D01*
X149828338Y-71241760D01*
X149913275Y-71103968D01*
X149913276Y-71103966D01*
X149917115Y-71097738D01*
X149972797Y-70929861D01*
X149974609Y-70912181D01*
X149978908Y-70870216D01*
X149983500Y-70825400D01*
X149983500Y-70822095D01*
X153117001Y-70822095D01*
X153117338Y-70828614D01*
X153127257Y-70924206D01*
X153130149Y-70937600D01*
X153181588Y-71091784D01*
X153187761Y-71104962D01*
X153273063Y-71242807D01*
X153282099Y-71254208D01*
X153396829Y-71368739D01*
X153408240Y-71377751D01*
X153546243Y-71462816D01*
X153559424Y-71468963D01*
X153713710Y-71520138D01*
X153727086Y-71523005D01*
X153821438Y-71532672D01*
X153827854Y-71533000D01*
X154477885Y-71533000D01*
X154493124Y-71528525D01*
X154494329Y-71527135D01*
X154496000Y-71519452D01*
X154496000Y-71514884D01*
X155004000Y-71514884D01*
X155008475Y-71530123D01*
X155009865Y-71531328D01*
X155017548Y-71532999D01*
X155672095Y-71532999D01*
X155678614Y-71532662D01*
X155774206Y-71522743D01*
X155787600Y-71519851D01*
X155941784Y-71468412D01*
X155954962Y-71462239D01*
X156092807Y-71376937D01*
X156104208Y-71367901D01*
X156218739Y-71253171D01*
X156227751Y-71241760D01*
X156312816Y-71103757D01*
X156318963Y-71090576D01*
X156370138Y-70936290D01*
X156373005Y-70922914D01*
X156382672Y-70828562D01*
X156383000Y-70822146D01*
X156383000Y-70022115D01*
X156378525Y-70006876D01*
X156377135Y-70005671D01*
X156369452Y-70004000D01*
X155022115Y-70004000D01*
X155006876Y-70008475D01*
X155005671Y-70009865D01*
X155004000Y-70017548D01*
X155004000Y-71514884D01*
X154496000Y-71514884D01*
X154496000Y-70022115D01*
X154491525Y-70006876D01*
X154490135Y-70005671D01*
X154482452Y-70004000D01*
X153135116Y-70004000D01*
X153119877Y-70008475D01*
X153118672Y-70009865D01*
X153117001Y-70017548D01*
X153117001Y-70822095D01*
X149983500Y-70822095D01*
X149983500Y-69477885D01*
X153117000Y-69477885D01*
X153121475Y-69493124D01*
X153122865Y-69494329D01*
X153130548Y-69496000D01*
X154477885Y-69496000D01*
X154493124Y-69491525D01*
X154494329Y-69490135D01*
X154496000Y-69482452D01*
X154496000Y-69477885D01*
X155004000Y-69477885D01*
X155008475Y-69493124D01*
X155009865Y-69494329D01*
X155017548Y-69496000D01*
X156364884Y-69496000D01*
X156380123Y-69491525D01*
X156381328Y-69490135D01*
X156382999Y-69482452D01*
X156382999Y-68677905D01*
X156382662Y-68671386D01*
X156372743Y-68575794D01*
X156369851Y-68562400D01*
X156318412Y-68408216D01*
X156312239Y-68395038D01*
X156226937Y-68257193D01*
X156217901Y-68245792D01*
X156103171Y-68131261D01*
X156091760Y-68122249D01*
X155953757Y-68037184D01*
X155940576Y-68031037D01*
X155786290Y-67979862D01*
X155772914Y-67976995D01*
X155678562Y-67967328D01*
X155672145Y-67967000D01*
X155022115Y-67967000D01*
X155006876Y-67971475D01*
X155005671Y-67972865D01*
X155004000Y-67980548D01*
X155004000Y-69477885D01*
X154496000Y-69477885D01*
X154496000Y-67985116D01*
X154491525Y-67969877D01*
X154490135Y-67968672D01*
X154482452Y-67967001D01*
X153827905Y-67967001D01*
X153821386Y-67967338D01*
X153725794Y-67977257D01*
X153712400Y-67980149D01*
X153558216Y-68031588D01*
X153545038Y-68037761D01*
X153407193Y-68123063D01*
X153395792Y-68132099D01*
X153281261Y-68246829D01*
X153272249Y-68258240D01*
X153187184Y-68396243D01*
X153181037Y-68409424D01*
X153129862Y-68563710D01*
X153126995Y-68577086D01*
X153117328Y-68671438D01*
X153117000Y-68677855D01*
X153117000Y-69477885D01*
X149983500Y-69477885D01*
X149983500Y-68674600D01*
X149973415Y-68577399D01*
X149973238Y-68575692D01*
X149973237Y-68575688D01*
X149972526Y-68568834D01*
X149916550Y-68401054D01*
X149823478Y-68250652D01*
X149698303Y-68125695D01*
X149692072Y-68121854D01*
X149553968Y-68036725D01*
X149553966Y-68036724D01*
X149547738Y-68032885D01*
X149442246Y-67997895D01*
X149386389Y-67979368D01*
X149386387Y-67979368D01*
X149379861Y-67977203D01*
X149373025Y-67976503D01*
X149373022Y-67976502D01*
X149329969Y-67972091D01*
X149275400Y-67966500D01*
X147424600Y-67966500D01*
X147421354Y-67966837D01*
X147421350Y-67966837D01*
X147325692Y-67976762D01*
X147325688Y-67976763D01*
X147318834Y-67977474D01*
X147312298Y-67979655D01*
X147312296Y-67979655D01*
X147234686Y-68005548D01*
X147151054Y-68033450D01*
X147000652Y-68126522D01*
X146935622Y-68191666D01*
X146922224Y-68205087D01*
X146859942Y-68239166D01*
X146789122Y-68234163D01*
X146732249Y-68191666D01*
X146713527Y-68155944D01*
X146668413Y-68020718D01*
X146662239Y-68007538D01*
X146576937Y-67869693D01*
X146567901Y-67858292D01*
X146453171Y-67743761D01*
X146441760Y-67734749D01*
X146303757Y-67649684D01*
X146290576Y-67643537D01*
X146136290Y-67592362D01*
X146122914Y-67589495D01*
X146028562Y-67579828D01*
X146022145Y-67579500D01*
X145772115Y-67579500D01*
X145756876Y-67583975D01*
X145755671Y-67585365D01*
X145754000Y-67593048D01*
X145754000Y-68803000D01*
X145733998Y-68871121D01*
X145680342Y-68917614D01*
X145628000Y-68929000D01*
X145372000Y-68929000D01*
X145303879Y-68908998D01*
X145257386Y-68855342D01*
X145246000Y-68803000D01*
X145246000Y-67597616D01*
X145241525Y-67582377D01*
X145240135Y-67581172D01*
X145232452Y-67579501D01*
X144977905Y-67579501D01*
X144971386Y-67579838D01*
X144875794Y-67589757D01*
X144862400Y-67592649D01*
X144708216Y-67644088D01*
X144695038Y-67650261D01*
X144557193Y-67735563D01*
X144545792Y-67744599D01*
X144426090Y-67864509D01*
X144424512Y-67862934D01*
X144375456Y-67897709D01*
X144304533Y-67900936D01*
X144243124Y-67865306D01*
X144210726Y-67802132D01*
X144208500Y-67778551D01*
X144208500Y-67669925D01*
X144228502Y-67601804D01*
X144245405Y-67580830D01*
X145530830Y-66295405D01*
X145593142Y-66261379D01*
X145619925Y-66258500D01*
X146190127Y-66258500D01*
X146203297Y-66259190D01*
X146236796Y-66262711D01*
X146236798Y-66262711D01*
X146242925Y-66263355D01*
X146290570Y-66259019D01*
X146301990Y-66258500D01*
X153753480Y-66258500D01*
X153821601Y-66278502D01*
X153868094Y-66332158D01*
X153878790Y-66371329D01*
X153895613Y-66531391D01*
X153896458Y-66539428D01*
X153955473Y-66721056D01*
X153958776Y-66726778D01*
X153958777Y-66726779D01*
X153977439Y-66759102D01*
X154050960Y-66886444D01*
X154055378Y-66891351D01*
X154055379Y-66891352D01*
X154174325Y-67023455D01*
X154178747Y-67028366D01*
X154333248Y-67140618D01*
X154339276Y-67143302D01*
X154339278Y-67143303D01*
X154501681Y-67215609D01*
X154507712Y-67218294D01*
X154601112Y-67238147D01*
X154688056Y-67256628D01*
X154688061Y-67256628D01*
X154694513Y-67258000D01*
X154885487Y-67258000D01*
X154891939Y-67256628D01*
X154891944Y-67256628D01*
X154978888Y-67238147D01*
X155072288Y-67218294D01*
X155078319Y-67215609D01*
X155240722Y-67143303D01*
X155240724Y-67143302D01*
X155246752Y-67140618D01*
X155401253Y-67028366D01*
X155405675Y-67023455D01*
X155524621Y-66891352D01*
X155524622Y-66891351D01*
X155529040Y-66886444D01*
X155595403Y-66771500D01*
X155646785Y-66722507D01*
X155704522Y-66708500D01*
X158715237Y-66708500D01*
X158783358Y-66728502D01*
X158829851Y-66782158D01*
X158841235Y-66835270D01*
X158841024Y-66869721D01*
X158841408Y-66871065D01*
X158841500Y-66872410D01*
X158841500Y-77328691D01*
X158821498Y-77396812D01*
X158767842Y-77443305D01*
X158697568Y-77453409D01*
X158649384Y-77435951D01*
X158528968Y-77361725D01*
X158528966Y-77361724D01*
X158522738Y-77357885D01*
X158417445Y-77322961D01*
X158361389Y-77304368D01*
X158361387Y-77304368D01*
X158354861Y-77302203D01*
X158348025Y-77301503D01*
X158348022Y-77301502D01*
X158296955Y-77296270D01*
X158250400Y-77291500D01*
X157249600Y-77291500D01*
X157246354Y-77291837D01*
X157246350Y-77291837D01*
X157150692Y-77301762D01*
X157150688Y-77301763D01*
X157143834Y-77302474D01*
X157137298Y-77304655D01*
X157137296Y-77304655D01*
X156976054Y-77358450D01*
X156975565Y-77356984D01*
X156932818Y-77366500D01*
X156692633Y-77366500D01*
X156624512Y-77346498D01*
X156584180Y-77304641D01*
X156584019Y-77304368D01*
X156574453Y-77288193D01*
X156456807Y-77170547D01*
X156449983Y-77166511D01*
X156449980Y-77166509D01*
X156342411Y-77102893D01*
X156313601Y-77085855D01*
X156305990Y-77083644D01*
X156305988Y-77083643D01*
X156228334Y-77061083D01*
X156153831Y-77039438D01*
X156147426Y-77038934D01*
X156147421Y-77038933D01*
X156118958Y-77036693D01*
X156118950Y-77036693D01*
X156116502Y-77036500D01*
X154333498Y-77036500D01*
X154331050Y-77036693D01*
X154331042Y-77036693D01*
X154302579Y-77038933D01*
X154302574Y-77038934D01*
X154296169Y-77039438D01*
X154221666Y-77061083D01*
X154144012Y-77083643D01*
X154144010Y-77083644D01*
X154136399Y-77085855D01*
X154107589Y-77102893D01*
X154000020Y-77166509D01*
X154000017Y-77166511D01*
X153993193Y-77170547D01*
X153987585Y-77176155D01*
X153981325Y-77181011D01*
X153980156Y-77179504D01*
X153926833Y-77208621D01*
X153900050Y-77211500D01*
X151599950Y-77211500D01*
X151531829Y-77191498D01*
X151518729Y-77180941D01*
X151518675Y-77181011D01*
X151512415Y-77176155D01*
X151506807Y-77170547D01*
X151499983Y-77166511D01*
X151499980Y-77166509D01*
X151392411Y-77102893D01*
X151363601Y-77085855D01*
X151355990Y-77083644D01*
X151355988Y-77083643D01*
X151278334Y-77061083D01*
X151203831Y-77039438D01*
X151197426Y-77038934D01*
X151197421Y-77038933D01*
X151168958Y-77036693D01*
X151168950Y-77036693D01*
X151166502Y-77036500D01*
X149383498Y-77036500D01*
X149381050Y-77036693D01*
X149381042Y-77036693D01*
X149352579Y-77038933D01*
X149352574Y-77038934D01*
X149346169Y-77039438D01*
X149271666Y-77061083D01*
X149194012Y-77083643D01*
X149194010Y-77083644D01*
X149186399Y-77085855D01*
X149157589Y-77102893D01*
X149050020Y-77166509D01*
X149050017Y-77166511D01*
X149043193Y-77170547D01*
X148925547Y-77288193D01*
X148921511Y-77295017D01*
X148921509Y-77295020D01*
X148891065Y-77346498D01*
X148840855Y-77431399D01*
X148838644Y-77439010D01*
X148838643Y-77439012D01*
X148833684Y-77456081D01*
X148794438Y-77591169D01*
X148793934Y-77597574D01*
X148793933Y-77597579D01*
X148793074Y-77608500D01*
X148791500Y-77628498D01*
X148791500Y-78061502D01*
X148794438Y-78098831D01*
X148796233Y-78105008D01*
X148832464Y-78229717D01*
X148840855Y-78258601D01*
X148860231Y-78291363D01*
X148877689Y-78360178D01*
X148855172Y-78427509D01*
X148799827Y-78471978D01*
X148751776Y-78481500D01*
X148379595Y-78481500D01*
X148311474Y-78461498D01*
X148290500Y-78444595D01*
X147585042Y-77739137D01*
X147551016Y-77676825D01*
X147556081Y-77606010D01*
X147598572Y-77549216D01*
X147706080Y-77468643D01*
X147706081Y-77468642D01*
X147713261Y-77463261D01*
X147800615Y-77346705D01*
X147851745Y-77210316D01*
X147858500Y-77148134D01*
X147858500Y-75851866D01*
X147851745Y-75789684D01*
X147800615Y-75653295D01*
X147713261Y-75536739D01*
X147596705Y-75449385D01*
X147460316Y-75398255D01*
X147398134Y-75391500D01*
X143601866Y-75391500D01*
X143539684Y-75398255D01*
X143403295Y-75449385D01*
X143286739Y-75536739D01*
X143199385Y-75653295D01*
X143148255Y-75789684D01*
X143141500Y-75851866D01*
X143141500Y-77148134D01*
X143148255Y-77210316D01*
X143175347Y-77282582D01*
X143180478Y-77296270D01*
X143185661Y-77367077D01*
X143151740Y-77429446D01*
X143089485Y-77463576D01*
X143062496Y-77466500D01*
X142234500Y-77466500D01*
X142166379Y-77446498D01*
X142119886Y-77392842D01*
X142108500Y-77340500D01*
X142108500Y-77301866D01*
X142101745Y-77239684D01*
X142050615Y-77103295D01*
X141963261Y-76986739D01*
X141846705Y-76899385D01*
X141710316Y-76848255D01*
X141648134Y-76841500D01*
X138851866Y-76841500D01*
X138789684Y-76848255D01*
X138653295Y-76899385D01*
X138536739Y-76986739D01*
X138449385Y-77103295D01*
X138398255Y-77239684D01*
X138391500Y-77301866D01*
X138391500Y-78898134D01*
X138398255Y-78960316D01*
X138449385Y-79096705D01*
X138536739Y-79213261D01*
X138653295Y-79300615D01*
X138789684Y-79351745D01*
X138851866Y-79358500D01*
X141648134Y-79358500D01*
X141710316Y-79351745D01*
X141846705Y-79300615D01*
X141963261Y-79213261D01*
X142050615Y-79096705D01*
X142101745Y-78960316D01*
X142108500Y-78898134D01*
X142108500Y-78859500D01*
X142128502Y-78791379D01*
X142182158Y-78744886D01*
X142234500Y-78733500D01*
X143871233Y-78733500D01*
X143882416Y-78734027D01*
X143889909Y-78735702D01*
X143897835Y-78735453D01*
X143897836Y-78735453D01*
X143957986Y-78733562D01*
X143961945Y-78733500D01*
X143989856Y-78733500D01*
X143993791Y-78733003D01*
X143993856Y-78732995D01*
X144005693Y-78732062D01*
X144037951Y-78731048D01*
X144041970Y-78730922D01*
X144049889Y-78730673D01*
X144069343Y-78725021D01*
X144088700Y-78721013D01*
X144100930Y-78719468D01*
X144100931Y-78719468D01*
X144108797Y-78718474D01*
X144116168Y-78715555D01*
X144116170Y-78715555D01*
X144149912Y-78702196D01*
X144161142Y-78698351D01*
X144195983Y-78688229D01*
X144195984Y-78688229D01*
X144203593Y-78686018D01*
X144210412Y-78681985D01*
X144210417Y-78681983D01*
X144221028Y-78675707D01*
X144238776Y-78667012D01*
X144257617Y-78659552D01*
X144293387Y-78633564D01*
X144303307Y-78627048D01*
X144334535Y-78608580D01*
X144334538Y-78608578D01*
X144341362Y-78604542D01*
X144355683Y-78590221D01*
X144370717Y-78577380D01*
X144380694Y-78570131D01*
X144387107Y-78565472D01*
X144392157Y-78559368D01*
X144392162Y-78559363D01*
X144415293Y-78531402D01*
X144423283Y-78522621D01*
X145300501Y-77645404D01*
X145362813Y-77611379D01*
X145389596Y-77608500D01*
X145610406Y-77608500D01*
X145678527Y-77628502D01*
X145699501Y-77645405D01*
X147049877Y-78995782D01*
X147083903Y-79058094D01*
X147078838Y-79128910D01*
X147036291Y-79185745D01*
X147000659Y-79204400D01*
X146951054Y-79220950D01*
X146800652Y-79314022D01*
X146675695Y-79439197D01*
X146671855Y-79445427D01*
X146671854Y-79445428D01*
X146588790Y-79580183D01*
X146582885Y-79589762D01*
X146561273Y-79654920D01*
X146530238Y-79748490D01*
X146527203Y-79757639D01*
X146516500Y-79862100D01*
X146516500Y-80637900D01*
X146516837Y-80641146D01*
X146516837Y-80641150D01*
X146521940Y-80690326D01*
X146527474Y-80743666D01*
X146529655Y-80750202D01*
X146529655Y-80750204D01*
X146535813Y-80768662D01*
X146583450Y-80911446D01*
X146676522Y-81061848D01*
X146801697Y-81186805D01*
X146806235Y-81189602D01*
X146846824Y-81246853D01*
X146850054Y-81317776D01*
X146814428Y-81379187D01*
X146805932Y-81386562D01*
X146795793Y-81394598D01*
X146681261Y-81509329D01*
X146672249Y-81520740D01*
X146587184Y-81658743D01*
X146581037Y-81671924D01*
X146529862Y-81826210D01*
X146526995Y-81839586D01*
X146517328Y-81933938D01*
X146517000Y-81940355D01*
X146517000Y-82116905D01*
X146496998Y-82185026D01*
X146443342Y-82231519D01*
X146373068Y-82241623D01*
X146308488Y-82212129D01*
X146301905Y-82206000D01*
X146135377Y-82039472D01*
X146101351Y-81977160D01*
X146099162Y-81963547D01*
X146094232Y-81916635D01*
X146094232Y-81916633D01*
X146093542Y-81910072D01*
X146034527Y-81728444D01*
X146022510Y-81707629D01*
X145983951Y-81640844D01*
X145939040Y-81563056D01*
X145922881Y-81545109D01*
X145815675Y-81426045D01*
X145815674Y-81426044D01*
X145811253Y-81421134D01*
X145692736Y-81335026D01*
X145662094Y-81312763D01*
X145662093Y-81312762D01*
X145656752Y-81308882D01*
X145650724Y-81306198D01*
X145650722Y-81306197D01*
X145488319Y-81233891D01*
X145488318Y-81233891D01*
X145482288Y-81231206D01*
X145388888Y-81211353D01*
X145301944Y-81192872D01*
X145301939Y-81192872D01*
X145295487Y-81191500D01*
X145104513Y-81191500D01*
X145098061Y-81192872D01*
X145098056Y-81192872D01*
X145011112Y-81211353D01*
X144917712Y-81231206D01*
X144911682Y-81233891D01*
X144911681Y-81233891D01*
X144749278Y-81306197D01*
X144749276Y-81306198D01*
X144743248Y-81308882D01*
X144737907Y-81312762D01*
X144737906Y-81312763D01*
X144624728Y-81394992D01*
X144588747Y-81421134D01*
X144584332Y-81426037D01*
X144579420Y-81430460D01*
X144578295Y-81429211D01*
X144524986Y-81462051D01*
X144491800Y-81466500D01*
X143378767Y-81466500D01*
X143367584Y-81465973D01*
X143360091Y-81464298D01*
X143352165Y-81464547D01*
X143352164Y-81464547D01*
X143292014Y-81466438D01*
X143288055Y-81466500D01*
X143260144Y-81466500D01*
X143256210Y-81466997D01*
X143256209Y-81466997D01*
X143256144Y-81467005D01*
X143244307Y-81467938D01*
X143212490Y-81468938D01*
X143208029Y-81469078D01*
X143200110Y-81469327D01*
X143182454Y-81474456D01*
X143180658Y-81474978D01*
X143161306Y-81478986D01*
X143154235Y-81479880D01*
X143141203Y-81481526D01*
X143133834Y-81484443D01*
X143133832Y-81484444D01*
X143100097Y-81497800D01*
X143088869Y-81501645D01*
X143046407Y-81513982D01*
X143039585Y-81518016D01*
X143039579Y-81518019D01*
X143028968Y-81524294D01*
X143011218Y-81532990D01*
X142999756Y-81537528D01*
X142999751Y-81537531D01*
X142992383Y-81540448D01*
X142985968Y-81545109D01*
X142956625Y-81566427D01*
X142946707Y-81572943D01*
X142928019Y-81583995D01*
X142908637Y-81595458D01*
X142894313Y-81609782D01*
X142879281Y-81622621D01*
X142862893Y-81634528D01*
X142845504Y-81655548D01*
X142834712Y-81668593D01*
X142826722Y-81677373D01*
X142322580Y-82181515D01*
X142260268Y-82215541D01*
X142189453Y-82210476D01*
X142132617Y-82167929D01*
X142108616Y-82101845D01*
X142107999Y-82101912D01*
X142107725Y-82099394D01*
X142107670Y-82099241D01*
X142107631Y-82098526D01*
X142102105Y-82047648D01*
X142098479Y-82032396D01*
X142053324Y-81911946D01*
X142044786Y-81896351D01*
X141968285Y-81794276D01*
X141955724Y-81781715D01*
X141853649Y-81705214D01*
X141838054Y-81696676D01*
X141717606Y-81651522D01*
X141702351Y-81647895D01*
X141651486Y-81642369D01*
X141644672Y-81642000D01*
X140522115Y-81642000D01*
X140506876Y-81646475D01*
X140505671Y-81647865D01*
X140504000Y-81655548D01*
X140504000Y-84139884D01*
X140508475Y-84155123D01*
X140509865Y-84156328D01*
X140517548Y-84157999D01*
X141415500Y-84157999D01*
X141483621Y-84178001D01*
X141530114Y-84231657D01*
X141541500Y-84283999D01*
X141541500Y-84383312D01*
X141521498Y-84451433D01*
X141466749Y-84498418D01*
X141450460Y-84505671D01*
X141443248Y-84508882D01*
X141288747Y-84621134D01*
X141284326Y-84626044D01*
X141284325Y-84626045D01*
X141218362Y-84699305D01*
X141160960Y-84763056D01*
X141065473Y-84928444D01*
X141006458Y-85110072D01*
X141005768Y-85116633D01*
X141005768Y-85116635D01*
X141002834Y-85144550D01*
X140986496Y-85300000D01*
X140987186Y-85306565D01*
X141003158Y-85458527D01*
X141006458Y-85489928D01*
X141065473Y-85671556D01*
X141068776Y-85677278D01*
X141068777Y-85677279D01*
X141070326Y-85679962D01*
X141160960Y-85836944D01*
X141165378Y-85841851D01*
X141165379Y-85841852D01*
X141284325Y-85973955D01*
X141288747Y-85978866D01*
X141324402Y-86004771D01*
X141429815Y-86081358D01*
X141443248Y-86091118D01*
X141449276Y-86093802D01*
X141449278Y-86093803D01*
X141566729Y-86146095D01*
X141617712Y-86168794D01*
X141711112Y-86188647D01*
X141798056Y-86207128D01*
X141798061Y-86207128D01*
X141804513Y-86208500D01*
X141865500Y-86208500D01*
X141933621Y-86228502D01*
X141980114Y-86282158D01*
X141991500Y-86334500D01*
X141991500Y-86365500D01*
X141971498Y-86433621D01*
X141917842Y-86480114D01*
X141865500Y-86491500D01*
X141804513Y-86491500D01*
X141798061Y-86492872D01*
X141798056Y-86492872D01*
X141711112Y-86511353D01*
X141617712Y-86531206D01*
X141611682Y-86533891D01*
X141611681Y-86533891D01*
X141449278Y-86606197D01*
X141449276Y-86606198D01*
X141443248Y-86608882D01*
X141288747Y-86721134D01*
X141284326Y-86726044D01*
X141284325Y-86726045D01*
X141171225Y-86851656D01*
X141160960Y-86863056D01*
X141065473Y-87028444D01*
X141006458Y-87210072D01*
X141005768Y-87216633D01*
X141005768Y-87216635D01*
X141000472Y-87267025D01*
X140986496Y-87400000D01*
X141006458Y-87589928D01*
X141065473Y-87771556D01*
X141160960Y-87936944D01*
X141165378Y-87941851D01*
X141165379Y-87941852D01*
X141284325Y-88073955D01*
X141288747Y-88078866D01*
X141443248Y-88191118D01*
X141449276Y-88193802D01*
X141449278Y-88193803D01*
X141611681Y-88266109D01*
X141617712Y-88268794D01*
X141692939Y-88284784D01*
X141798056Y-88307128D01*
X141798061Y-88307128D01*
X141804513Y-88308500D01*
X141841405Y-88308500D01*
X141909526Y-88328502D01*
X141956019Y-88382158D01*
X141966123Y-88452432D01*
X141936629Y-88517012D01*
X141930500Y-88523595D01*
X141899500Y-88554595D01*
X141837188Y-88588621D01*
X141817672Y-88590719D01*
X141817682Y-88590810D01*
X141811115Y-88591500D01*
X141804513Y-88591500D01*
X141798061Y-88592872D01*
X141798056Y-88592872D01*
X141734880Y-88606301D01*
X141617712Y-88631206D01*
X141611682Y-88633891D01*
X141611681Y-88633891D01*
X141449278Y-88706197D01*
X141449276Y-88706198D01*
X141443248Y-88708882D01*
X141437907Y-88712762D01*
X141437906Y-88712763D01*
X141431594Y-88717349D01*
X141288747Y-88821134D01*
X141160960Y-88963056D01*
X141065473Y-89128444D01*
X141006458Y-89310072D01*
X141005768Y-89316633D01*
X141005768Y-89316635D01*
X140998139Y-89389220D01*
X140986496Y-89500000D01*
X140987186Y-89506565D01*
X141005741Y-89683102D01*
X141006458Y-89689928D01*
X141065473Y-89871556D01*
X141068776Y-89877278D01*
X141068777Y-89877279D01*
X141088652Y-89911703D01*
X141160960Y-90036944D01*
X141165378Y-90041851D01*
X141165379Y-90041852D01*
X141252597Y-90138717D01*
X141288747Y-90178866D01*
X141349108Y-90222721D01*
X141429998Y-90281491D01*
X141443248Y-90291118D01*
X141449276Y-90293802D01*
X141449278Y-90293803D01*
X141514068Y-90322649D01*
X141617712Y-90368794D01*
X141711113Y-90388647D01*
X141798056Y-90407128D01*
X141798061Y-90407128D01*
X141804513Y-90408500D01*
X141995487Y-90408500D01*
X142001939Y-90407128D01*
X142001944Y-90407128D01*
X142088887Y-90388647D01*
X142182288Y-90368794D01*
X142285932Y-90322649D01*
X142350722Y-90293803D01*
X142350724Y-90293802D01*
X142356752Y-90291118D01*
X142370003Y-90281491D01*
X142450892Y-90222721D01*
X142511253Y-90178866D01*
X142547403Y-90138717D01*
X142634621Y-90041852D01*
X142634622Y-90041851D01*
X142639040Y-90036944D01*
X142711348Y-89911703D01*
X142731223Y-89877279D01*
X142731224Y-89877278D01*
X142734527Y-89871556D01*
X142793542Y-89689928D01*
X142794260Y-89683102D01*
X142812814Y-89506565D01*
X142813504Y-89500000D01*
X142812814Y-89493435D01*
X142812814Y-89486830D01*
X142815503Y-89486830D01*
X142826143Y-89428732D01*
X142849572Y-89396333D01*
X143467253Y-88778652D01*
X143475539Y-88771112D01*
X143482018Y-88767000D01*
X143528644Y-88717348D01*
X143531398Y-88714507D01*
X143551135Y-88694770D01*
X143553615Y-88691573D01*
X143561320Y-88682551D01*
X143586159Y-88656100D01*
X143591586Y-88650321D01*
X143595405Y-88643375D01*
X143595407Y-88643372D01*
X143601348Y-88632566D01*
X143612199Y-88616047D01*
X143619758Y-88606301D01*
X143624614Y-88600041D01*
X143627759Y-88592772D01*
X143627762Y-88592768D01*
X143642174Y-88559463D01*
X143647391Y-88548813D01*
X143668695Y-88510060D01*
X143673733Y-88490437D01*
X143680137Y-88471734D01*
X143685033Y-88460420D01*
X143685033Y-88460419D01*
X143688181Y-88453145D01*
X143689420Y-88445322D01*
X143689423Y-88445312D01*
X143695099Y-88409476D01*
X143697505Y-88397856D01*
X143706528Y-88362711D01*
X143706528Y-88362710D01*
X143708500Y-88355030D01*
X143708500Y-88334776D01*
X143710051Y-88315065D01*
X143711980Y-88302886D01*
X143713220Y-88295057D01*
X143709059Y-88251038D01*
X143708500Y-88239181D01*
X143708500Y-86208594D01*
X143728502Y-86140473D01*
X143782158Y-86093980D01*
X143852432Y-86083876D01*
X143917012Y-86113370D01*
X143923595Y-86119499D01*
X145946343Y-88142247D01*
X145953887Y-88150537D01*
X145958000Y-88157018D01*
X145963777Y-88162443D01*
X146007667Y-88203658D01*
X146010509Y-88206413D01*
X146030230Y-88226134D01*
X146033425Y-88228612D01*
X146042447Y-88236318D01*
X146074679Y-88266586D01*
X146081628Y-88270406D01*
X146092432Y-88276346D01*
X146108956Y-88287199D01*
X146124959Y-88299613D01*
X146165543Y-88317176D01*
X146176173Y-88322383D01*
X146214940Y-88343695D01*
X146222617Y-88345666D01*
X146222622Y-88345668D01*
X146234558Y-88348732D01*
X146253266Y-88355137D01*
X146271855Y-88363181D01*
X146279683Y-88364421D01*
X146279690Y-88364423D01*
X146315524Y-88370099D01*
X146327144Y-88372505D01*
X146362289Y-88381528D01*
X146369970Y-88383500D01*
X146390224Y-88383500D01*
X146409934Y-88385051D01*
X146429943Y-88388220D01*
X146437835Y-88387474D01*
X146463467Y-88385051D01*
X146473962Y-88384059D01*
X146485819Y-88383500D01*
X154235406Y-88383500D01*
X154303527Y-88403502D01*
X154324501Y-88420405D01*
X156452878Y-90548782D01*
X156486904Y-90611094D01*
X156489092Y-90624703D01*
X156506458Y-90789928D01*
X156565473Y-90971556D01*
X156660960Y-91136944D01*
X156665378Y-91141851D01*
X156665379Y-91141852D01*
X156780418Y-91269616D01*
X156788747Y-91278866D01*
X156943248Y-91391118D01*
X156949276Y-91393802D01*
X156949278Y-91393803D01*
X157066749Y-91446104D01*
X157120845Y-91492084D01*
X157141500Y-91561211D01*
X157141500Y-92798134D01*
X157148255Y-92860316D01*
X157199385Y-92996705D01*
X157286739Y-93113261D01*
X157403295Y-93200615D01*
X157539684Y-93251745D01*
X157601866Y-93258500D01*
X160398134Y-93258500D01*
X160460316Y-93251745D01*
X160596705Y-93200615D01*
X160713261Y-93113261D01*
X160800615Y-92996705D01*
X160806803Y-92980200D01*
X160814040Y-92960894D01*
X160861654Y-92900604D01*
X160921265Y-92860472D01*
X160925390Y-92856731D01*
X162835457Y-90946664D01*
X162897769Y-90912638D01*
X162968584Y-90917703D01*
X163013647Y-90946664D01*
X163217743Y-91150760D01*
X163220405Y-91152900D01*
X163260333Y-91185004D01*
X163260336Y-91185006D01*
X163266489Y-91189953D01*
X163399085Y-91250240D01*
X163407968Y-91251512D01*
X163407971Y-91251513D01*
X163534382Y-91269616D01*
X163543271Y-91270889D01*
X163552160Y-91269616D01*
X163678571Y-91251513D01*
X163678574Y-91251512D01*
X163687457Y-91250240D01*
X163820053Y-91189953D01*
X163826206Y-91185006D01*
X163826209Y-91185004D01*
X163866137Y-91152900D01*
X163868799Y-91150760D01*
X165365226Y-89654333D01*
X165378682Y-89637597D01*
X165399470Y-89611743D01*
X165399472Y-89611740D01*
X165404419Y-89605587D01*
X165464706Y-89472991D01*
X165466562Y-89460036D01*
X165484082Y-89337694D01*
X165485355Y-89328805D01*
X165475950Y-89263131D01*
X165465979Y-89193505D01*
X165465978Y-89193502D01*
X165464706Y-89184619D01*
X165404419Y-89052023D01*
X165399472Y-89045870D01*
X165399470Y-89045867D01*
X165367366Y-89005939D01*
X165365226Y-89003277D01*
X163211189Y-86849240D01*
X163194453Y-86835784D01*
X163168599Y-86814996D01*
X163168596Y-86814994D01*
X163162443Y-86810047D01*
X163029847Y-86749760D01*
X163020964Y-86748488D01*
X163020961Y-86748487D01*
X162894550Y-86730384D01*
X162885661Y-86729111D01*
X162876772Y-86730384D01*
X162750361Y-86748487D01*
X162750358Y-86748488D01*
X162741475Y-86749760D01*
X162608879Y-86810047D01*
X162602726Y-86814994D01*
X162602723Y-86814996D01*
X162576869Y-86835784D01*
X162560133Y-86849240D01*
X161063706Y-88345667D01*
X161059258Y-88351199D01*
X161029462Y-88388257D01*
X161029460Y-88388260D01*
X161024513Y-88394413D01*
X160964226Y-88527009D01*
X160962954Y-88535892D01*
X160962953Y-88535895D01*
X160946566Y-88650321D01*
X160943577Y-88671195D01*
X160944850Y-88680084D01*
X160958072Y-88772407D01*
X160964226Y-88815381D01*
X160967940Y-88823549D01*
X160967940Y-88823550D01*
X160996950Y-88887354D01*
X161024513Y-88947977D01*
X161029460Y-88954130D01*
X161029462Y-88954133D01*
X161036637Y-88963056D01*
X161063706Y-88996723D01*
X161267802Y-89200819D01*
X161301828Y-89263131D01*
X161296763Y-89333946D01*
X161267802Y-89379009D01*
X160604958Y-90041852D01*
X159942215Y-90704595D01*
X159879903Y-90738621D01*
X159853120Y-90741500D01*
X158438569Y-90741500D01*
X158370448Y-90721498D01*
X158323955Y-90667842D01*
X158315030Y-90613170D01*
X158312814Y-90613170D01*
X158312814Y-90606565D01*
X158313504Y-90600000D01*
X158306617Y-90534470D01*
X158294232Y-90416635D01*
X158294232Y-90416633D01*
X158293542Y-90410072D01*
X158234527Y-90228444D01*
X158139040Y-90063056D01*
X158125070Y-90047540D01*
X158015675Y-89926045D01*
X158015674Y-89926044D01*
X158011253Y-89921134D01*
X157856752Y-89808882D01*
X157850724Y-89806198D01*
X157850722Y-89806197D01*
X157688319Y-89733891D01*
X157688318Y-89733891D01*
X157682288Y-89731206D01*
X157588888Y-89711353D01*
X157501944Y-89692872D01*
X157501939Y-89692872D01*
X157495487Y-89691500D01*
X157439595Y-89691500D01*
X157371474Y-89671498D01*
X157350499Y-89654595D01*
X157218253Y-89522348D01*
X157184228Y-89460036D01*
X157189294Y-89389220D01*
X157231840Y-89332385D01*
X157292763Y-89308500D01*
X157295487Y-89308500D01*
X157482288Y-89268794D01*
X157488319Y-89266109D01*
X157650722Y-89193803D01*
X157650724Y-89193802D01*
X157656752Y-89191118D01*
X157811253Y-89078866D01*
X157818128Y-89071231D01*
X157934621Y-88941852D01*
X157934622Y-88941851D01*
X157939040Y-88936944D01*
X158034527Y-88771556D01*
X158093542Y-88589928D01*
X158095497Y-88571328D01*
X158122511Y-88505671D01*
X158180734Y-88465042D01*
X158220807Y-88458500D01*
X160398134Y-88458500D01*
X160460316Y-88451745D01*
X160596705Y-88400615D01*
X160713261Y-88313261D01*
X160800615Y-88196705D01*
X160851745Y-88060316D01*
X160858500Y-87998134D01*
X160858500Y-86401866D01*
X160851745Y-86339684D01*
X160800615Y-86203295D01*
X160713261Y-86086739D01*
X160596705Y-85999385D01*
X160460316Y-85948255D01*
X160398134Y-85941500D01*
X160272000Y-85941500D01*
X160203879Y-85921498D01*
X160157386Y-85867842D01*
X160146000Y-85815500D01*
X160146000Y-85681375D01*
X160152407Y-85641708D01*
X160195632Y-85511389D01*
X160195632Y-85511387D01*
X160197797Y-85504861D01*
X160200000Y-85483365D01*
X160206635Y-85418599D01*
X160208500Y-85400400D01*
X160208500Y-85397095D01*
X160992001Y-85397095D01*
X160992338Y-85403614D01*
X161002257Y-85499206D01*
X161005149Y-85512600D01*
X161056588Y-85666784D01*
X161062761Y-85679962D01*
X161148063Y-85817807D01*
X161157099Y-85829208D01*
X161271829Y-85943739D01*
X161283240Y-85952751D01*
X161421243Y-86037816D01*
X161434424Y-86043963D01*
X161588710Y-86095138D01*
X161602086Y-86098005D01*
X161696438Y-86107672D01*
X161702854Y-86108000D01*
X161890385Y-86108000D01*
X161905624Y-86103525D01*
X161906829Y-86102135D01*
X161908500Y-86094452D01*
X161908500Y-86089884D01*
X162416500Y-86089884D01*
X162420975Y-86105123D01*
X162422365Y-86106328D01*
X162430048Y-86107999D01*
X162622095Y-86107999D01*
X162628614Y-86107662D01*
X162724206Y-86097743D01*
X162737600Y-86094851D01*
X162891784Y-86043412D01*
X162904962Y-86037239D01*
X163042807Y-85951937D01*
X163054208Y-85942901D01*
X163168739Y-85828171D01*
X163177751Y-85816760D01*
X163262816Y-85678757D01*
X163268963Y-85665576D01*
X163320138Y-85511290D01*
X163323005Y-85497914D01*
X163332672Y-85403562D01*
X163333000Y-85397146D01*
X163333000Y-85135661D01*
X164479111Y-85135661D01*
X164480384Y-85144550D01*
X164493223Y-85234198D01*
X164499760Y-85279847D01*
X164560047Y-85412443D01*
X164564994Y-85418596D01*
X164564996Y-85418599D01*
X164585784Y-85444453D01*
X164599240Y-85461189D01*
X166753277Y-87615226D01*
X166755939Y-87617366D01*
X166795867Y-87649470D01*
X166795870Y-87649472D01*
X166802023Y-87654419D01*
X166934619Y-87714706D01*
X166943502Y-87715978D01*
X166943505Y-87715979D01*
X167069916Y-87734082D01*
X167078805Y-87735355D01*
X167087694Y-87734082D01*
X167214105Y-87715979D01*
X167214108Y-87715978D01*
X167222991Y-87714706D01*
X167355587Y-87654419D01*
X167361740Y-87649472D01*
X167361743Y-87649470D01*
X167401671Y-87617366D01*
X167404333Y-87615226D01*
X168900760Y-86118799D01*
X168920764Y-86093919D01*
X168935004Y-86076209D01*
X168935006Y-86076206D01*
X168939953Y-86070053D01*
X168993286Y-85952751D01*
X168996526Y-85945626D01*
X168996526Y-85945625D01*
X169000240Y-85937457D01*
X169003952Y-85911542D01*
X169019616Y-85802160D01*
X169020889Y-85793271D01*
X169017657Y-85770705D01*
X169001513Y-85657971D01*
X169001512Y-85657968D01*
X169000240Y-85649085D01*
X168939953Y-85516489D01*
X168935006Y-85510336D01*
X168935004Y-85510333D01*
X168913320Y-85483365D01*
X168900760Y-85467743D01*
X168696665Y-85263648D01*
X168662639Y-85201336D01*
X168667704Y-85130521D01*
X168696665Y-85085458D01*
X169310109Y-84472014D01*
X169318379Y-84465032D01*
X169318180Y-84464801D01*
X169322725Y-84460878D01*
X169327611Y-84457412D01*
X169391714Y-84390449D01*
X169393637Y-84388485D01*
X169421196Y-84360926D01*
X169425921Y-84355205D01*
X169432043Y-84348321D01*
X169473881Y-84304616D01*
X169477133Y-84299580D01*
X169477136Y-84299576D01*
X169492053Y-84276474D01*
X169500749Y-84264592D01*
X169518262Y-84243385D01*
X169518264Y-84243382D01*
X169522080Y-84238761D01*
X169551087Y-84185669D01*
X169555798Y-84177749D01*
X169588620Y-84126918D01*
X169601142Y-84095847D01*
X169607435Y-84082534D01*
X169620618Y-84058404D01*
X169623496Y-84053137D01*
X169625324Y-84047425D01*
X169625327Y-84047419D01*
X169641941Y-83995515D01*
X169645072Y-83986841D01*
X169667686Y-83930729D01*
X169674105Y-83897858D01*
X169677768Y-83883591D01*
X169686152Y-83857402D01*
X169686154Y-83857391D01*
X169687981Y-83851685D01*
X169695196Y-83791625D01*
X169696633Y-83782504D01*
X169707357Y-83727588D01*
X169708228Y-83723129D01*
X169708500Y-83717567D01*
X169708500Y-83688417D01*
X169709399Y-83673389D01*
X169712495Y-83647620D01*
X169712495Y-83647616D01*
X169713209Y-83641673D01*
X169708815Y-83579613D01*
X169708500Y-83570714D01*
X169708500Y-81816112D01*
X169720305Y-81762862D01*
X169722430Y-81758305D01*
X169787120Y-81619576D01*
X169844115Y-81406871D01*
X169863307Y-81187500D01*
X169844115Y-80968129D01*
X169787120Y-80755424D01*
X169729763Y-80632421D01*
X169696382Y-80560834D01*
X169696379Y-80560829D01*
X169694056Y-80555847D01*
X169567749Y-80375462D01*
X169412038Y-80219751D01*
X169231654Y-80093444D01*
X169032076Y-80000380D01*
X168819371Y-79943385D01*
X168600000Y-79924193D01*
X168380629Y-79943385D01*
X168167924Y-80000380D01*
X168074562Y-80043915D01*
X167973334Y-80091118D01*
X167973329Y-80091121D01*
X167968347Y-80093444D01*
X167963840Y-80096600D01*
X167963838Y-80096601D01*
X167792473Y-80216592D01*
X167792470Y-80216594D01*
X167787962Y-80219751D01*
X167632251Y-80375462D01*
X167505944Y-80555847D01*
X167503621Y-80560829D01*
X167503618Y-80560834D01*
X167470237Y-80632421D01*
X167412880Y-80755424D01*
X167355885Y-80968129D01*
X167336693Y-81187500D01*
X167355885Y-81406871D01*
X167412880Y-81619576D01*
X167477570Y-81758305D01*
X167479695Y-81762862D01*
X167491500Y-81816112D01*
X167491500Y-83103119D01*
X167471498Y-83171240D01*
X167454595Y-83192214D01*
X167129008Y-83517801D01*
X167066696Y-83551827D01*
X166995881Y-83546762D01*
X166950818Y-83517801D01*
X166746723Y-83313706D01*
X166713314Y-83286844D01*
X166704133Y-83279462D01*
X166704130Y-83279460D01*
X166697977Y-83274513D01*
X166613075Y-83235911D01*
X166573550Y-83217940D01*
X166573549Y-83217940D01*
X166565381Y-83214226D01*
X166556498Y-83212954D01*
X166556495Y-83212953D01*
X166430084Y-83194850D01*
X166421195Y-83193577D01*
X166412306Y-83194850D01*
X166285895Y-83212953D01*
X166285892Y-83212954D01*
X166277009Y-83214226D01*
X166268841Y-83217940D01*
X166268840Y-83217940D01*
X166229315Y-83235911D01*
X166144413Y-83274513D01*
X166138260Y-83279460D01*
X166138257Y-83279462D01*
X166129076Y-83286844D01*
X166095667Y-83313706D01*
X164599240Y-84810133D01*
X164597100Y-84812795D01*
X164564996Y-84852723D01*
X164564994Y-84852726D01*
X164560047Y-84858879D01*
X164544988Y-84892000D01*
X164525561Y-84934729D01*
X164499760Y-84991475D01*
X164498488Y-85000358D01*
X164498487Y-85000361D01*
X164485265Y-85092687D01*
X164479111Y-85135661D01*
X163333000Y-85135661D01*
X163333000Y-84522115D01*
X163328525Y-84506876D01*
X163327135Y-84505671D01*
X163319452Y-84504000D01*
X162434615Y-84504000D01*
X162419376Y-84508475D01*
X162418171Y-84509865D01*
X162416500Y-84517548D01*
X162416500Y-86089884D01*
X161908500Y-86089884D01*
X161908500Y-84522115D01*
X161904025Y-84506876D01*
X161902635Y-84505671D01*
X161894952Y-84504000D01*
X161010116Y-84504000D01*
X160994877Y-84508475D01*
X160993672Y-84509865D01*
X160992001Y-84517548D01*
X160992001Y-85397095D01*
X160208500Y-85397095D01*
X160208500Y-83977885D01*
X160992000Y-83977885D01*
X160996475Y-83993124D01*
X160997865Y-83994329D01*
X161005548Y-83996000D01*
X161890385Y-83996000D01*
X161905624Y-83991525D01*
X161906829Y-83990135D01*
X161908500Y-83982452D01*
X161908500Y-83977885D01*
X162416500Y-83977885D01*
X162420975Y-83993124D01*
X162422365Y-83994329D01*
X162430048Y-83996000D01*
X163314884Y-83996000D01*
X163330123Y-83991525D01*
X163331328Y-83990135D01*
X163332999Y-83982452D01*
X163332999Y-83102905D01*
X163332662Y-83096386D01*
X163322743Y-83000794D01*
X163319851Y-82987400D01*
X163268412Y-82833216D01*
X163262239Y-82820038D01*
X163176937Y-82682193D01*
X163167901Y-82670792D01*
X163053171Y-82556261D01*
X163041760Y-82547249D01*
X162903757Y-82462184D01*
X162890576Y-82456037D01*
X162736290Y-82404862D01*
X162722914Y-82401995D01*
X162628562Y-82392328D01*
X162622145Y-82392000D01*
X162434615Y-82392000D01*
X162419376Y-82396475D01*
X162418171Y-82397865D01*
X162416500Y-82405548D01*
X162416500Y-83977885D01*
X161908500Y-83977885D01*
X161908500Y-82410116D01*
X161904025Y-82394877D01*
X161902635Y-82393672D01*
X161894952Y-82392001D01*
X161702905Y-82392001D01*
X161696386Y-82392338D01*
X161600794Y-82402257D01*
X161587400Y-82405149D01*
X161433216Y-82456588D01*
X161420038Y-82462761D01*
X161282193Y-82548063D01*
X161270792Y-82557099D01*
X161156261Y-82671829D01*
X161147249Y-82683240D01*
X161062184Y-82821243D01*
X161056037Y-82834424D01*
X161004862Y-82988710D01*
X161001995Y-83002086D01*
X160992328Y-83096438D01*
X160992000Y-83102855D01*
X160992000Y-83977885D01*
X160208500Y-83977885D01*
X160208500Y-83099600D01*
X160206755Y-83082784D01*
X160198238Y-83000692D01*
X160198237Y-83000688D01*
X160197526Y-82993834D01*
X160168886Y-82907988D01*
X160147404Y-82843602D01*
X160141550Y-82826054D01*
X160106169Y-82768879D01*
X160064856Y-82702118D01*
X160046000Y-82635815D01*
X160046000Y-81834500D01*
X160066002Y-81766379D01*
X160119658Y-81719886D01*
X160172000Y-81708500D01*
X161643022Y-81708500D01*
X161705204Y-81701745D01*
X161841593Y-81650615D01*
X161958149Y-81563261D01*
X161959280Y-81561752D01*
X162018462Y-81529435D01*
X162089277Y-81534500D01*
X162134340Y-81563461D01*
X162139164Y-81568285D01*
X162241239Y-81644786D01*
X162256834Y-81653324D01*
X162377282Y-81698478D01*
X162392537Y-81702105D01*
X162443402Y-81707631D01*
X162450216Y-81708000D01*
X163022773Y-81708000D01*
X163038012Y-81703525D01*
X163039217Y-81702135D01*
X163040888Y-81694452D01*
X163040888Y-81689884D01*
X163548888Y-81689884D01*
X163553363Y-81705123D01*
X163554753Y-81706328D01*
X163562436Y-81707999D01*
X164139557Y-81707999D01*
X164146378Y-81707629D01*
X164197240Y-81702105D01*
X164212492Y-81698479D01*
X164332942Y-81653324D01*
X164348537Y-81644786D01*
X164450612Y-81568285D01*
X164463173Y-81555724D01*
X164539674Y-81453649D01*
X164548212Y-81438054D01*
X164593366Y-81317606D01*
X164596993Y-81302351D01*
X164602519Y-81251486D01*
X164602888Y-81244672D01*
X164602888Y-80672115D01*
X164598413Y-80656876D01*
X164597023Y-80655671D01*
X164589340Y-80654000D01*
X163567003Y-80654000D01*
X163551764Y-80658475D01*
X163550559Y-80659865D01*
X163548888Y-80667548D01*
X163548888Y-81689884D01*
X163040888Y-81689884D01*
X163040888Y-80272000D01*
X163060890Y-80203879D01*
X163114546Y-80157386D01*
X163166888Y-80146000D01*
X164584772Y-80146000D01*
X164600011Y-80141525D01*
X164601216Y-80140135D01*
X164602887Y-80132452D01*
X164602887Y-79884500D01*
X164622889Y-79816379D01*
X164676545Y-79769886D01*
X164728887Y-79758500D01*
X164816377Y-79758500D01*
X164817148Y-79758502D01*
X164894721Y-79758976D01*
X164917082Y-79752585D01*
X164923153Y-79750850D01*
X164939915Y-79747272D01*
X164969187Y-79743080D01*
X164978467Y-79738861D01*
X164992562Y-79732452D01*
X165010087Y-79726004D01*
X165034771Y-79718949D01*
X165042365Y-79714157D01*
X165042368Y-79714156D01*
X165059780Y-79703170D01*
X165074865Y-79695030D01*
X165101782Y-79682792D01*
X165121235Y-79666030D01*
X165136239Y-79654927D01*
X165157958Y-79641224D01*
X165163897Y-79634499D01*
X165163901Y-79634496D01*
X165177532Y-79619062D01*
X165189724Y-79607018D01*
X165205327Y-79593573D01*
X165205329Y-79593570D01*
X165212127Y-79587713D01*
X165219268Y-79576697D01*
X165226094Y-79566165D01*
X165237385Y-79551291D01*
X165248431Y-79538783D01*
X165248432Y-79538782D01*
X165254378Y-79532049D01*
X165266943Y-79505287D01*
X165275263Y-79490309D01*
X165286471Y-79473017D01*
X165286473Y-79473012D01*
X165291352Y-79465485D01*
X165293922Y-79456892D01*
X165293924Y-79456887D01*
X165298711Y-79440880D01*
X165305372Y-79423436D01*
X165312467Y-79408324D01*
X165312468Y-79408322D01*
X165316281Y-79400200D01*
X165320830Y-79370983D01*
X165324613Y-79354268D01*
X165330515Y-79334534D01*
X165330516Y-79334528D01*
X165333086Y-79325934D01*
X165333296Y-79291494D01*
X165333329Y-79290711D01*
X165333500Y-79289614D01*
X165333500Y-79258623D01*
X165333502Y-79257853D01*
X165333952Y-79184215D01*
X165333952Y-79184214D01*
X165333976Y-79180279D01*
X165333592Y-79178935D01*
X165333500Y-79177590D01*
X165333500Y-78737661D01*
X167914393Y-78737661D01*
X167923687Y-78749675D01*
X167964088Y-78777964D01*
X167973584Y-78783447D01*
X168163113Y-78871826D01*
X168173405Y-78875572D01*
X168375401Y-78929696D01*
X168386196Y-78931599D01*
X168594525Y-78949826D01*
X168605475Y-78949826D01*
X168813804Y-78931599D01*
X168824599Y-78929696D01*
X169026595Y-78875572D01*
X169036887Y-78871826D01*
X169226416Y-78783447D01*
X169235912Y-78777964D01*
X169277148Y-78749090D01*
X169285523Y-78738612D01*
X169278457Y-78725168D01*
X168612811Y-78059521D01*
X168598868Y-78051908D01*
X168597034Y-78052039D01*
X168590420Y-78056290D01*
X167920820Y-78725891D01*
X167914393Y-78737661D01*
X165333500Y-78737661D01*
X165333500Y-77692975D01*
X167337674Y-77692975D01*
X167355901Y-77901304D01*
X167357804Y-77912099D01*
X167411928Y-78114095D01*
X167415674Y-78124387D01*
X167504054Y-78313917D01*
X167509534Y-78323407D01*
X167538411Y-78364649D01*
X167548887Y-78373023D01*
X167562334Y-78365955D01*
X168227979Y-77700311D01*
X168234356Y-77688632D01*
X168964408Y-77688632D01*
X168964539Y-77690466D01*
X168968790Y-77697080D01*
X169638391Y-78366680D01*
X169650161Y-78373107D01*
X169662176Y-78363811D01*
X169690466Y-78323407D01*
X169695946Y-78313917D01*
X169784326Y-78124387D01*
X169788072Y-78114095D01*
X169842196Y-77912099D01*
X169844099Y-77901304D01*
X169862326Y-77692975D01*
X169862326Y-77682025D01*
X169844099Y-77473696D01*
X169842196Y-77462901D01*
X169788072Y-77260905D01*
X169784326Y-77250613D01*
X169695946Y-77061083D01*
X169690466Y-77051593D01*
X169661589Y-77010351D01*
X169651113Y-77001977D01*
X169637666Y-77009045D01*
X168972021Y-77674689D01*
X168964408Y-77688632D01*
X168234356Y-77688632D01*
X168235592Y-77686368D01*
X168235461Y-77684534D01*
X168231210Y-77677920D01*
X167561609Y-77008320D01*
X167549839Y-77001893D01*
X167537824Y-77011189D01*
X167509534Y-77051593D01*
X167504054Y-77061083D01*
X167415674Y-77250613D01*
X167411928Y-77260905D01*
X167357804Y-77462901D01*
X167355901Y-77473696D01*
X167337674Y-77682025D01*
X167337674Y-77692975D01*
X165333500Y-77692975D01*
X165333500Y-76636387D01*
X167914477Y-76636387D01*
X167921545Y-76649834D01*
X168587189Y-77315479D01*
X168601132Y-77323092D01*
X168602966Y-77322961D01*
X168609580Y-77318710D01*
X169279180Y-76649109D01*
X169285607Y-76637339D01*
X169276313Y-76625325D01*
X169235912Y-76597036D01*
X169226416Y-76591553D01*
X169036887Y-76503174D01*
X169026595Y-76499428D01*
X168824599Y-76445304D01*
X168813804Y-76443401D01*
X168605475Y-76425174D01*
X168594525Y-76425174D01*
X168386196Y-76443401D01*
X168375401Y-76445304D01*
X168173405Y-76499428D01*
X168163113Y-76503174D01*
X167973583Y-76591554D01*
X167964093Y-76597034D01*
X167922851Y-76625911D01*
X167914477Y-76636387D01*
X165333500Y-76636387D01*
X165333500Y-74187500D01*
X167336693Y-74187500D01*
X167355885Y-74406871D01*
X167412880Y-74619576D01*
X167452015Y-74703502D01*
X167503618Y-74814166D01*
X167503621Y-74814171D01*
X167505944Y-74819153D01*
X167509100Y-74823660D01*
X167509101Y-74823662D01*
X167582690Y-74928757D01*
X167632251Y-74999538D01*
X167787962Y-75155249D01*
X167792471Y-75158406D01*
X167792473Y-75158408D01*
X167841734Y-75192901D01*
X167968346Y-75281556D01*
X168167924Y-75374620D01*
X168380629Y-75431615D01*
X168600000Y-75450807D01*
X168819371Y-75431615D01*
X169032076Y-75374620D01*
X169231654Y-75281556D01*
X169358266Y-75192901D01*
X169407527Y-75158408D01*
X169407529Y-75158406D01*
X169412038Y-75155249D01*
X169567749Y-74999538D01*
X169617311Y-74928757D01*
X169690899Y-74823662D01*
X169690900Y-74823660D01*
X169694056Y-74819153D01*
X169696379Y-74814171D01*
X169696382Y-74814166D01*
X169747985Y-74703502D01*
X169787120Y-74619576D01*
X169844115Y-74406871D01*
X169863307Y-74187500D01*
X169844115Y-73968129D01*
X169787120Y-73755424D01*
X169743585Y-73662062D01*
X169696382Y-73560834D01*
X169696379Y-73560829D01*
X169694056Y-73555847D01*
X169567749Y-73375462D01*
X169412038Y-73219751D01*
X169231654Y-73093444D01*
X169032076Y-73000380D01*
X168819371Y-72943385D01*
X168600000Y-72924193D01*
X168380629Y-72943385D01*
X168167924Y-73000380D01*
X168074562Y-73043915D01*
X167973334Y-73091118D01*
X167973329Y-73091121D01*
X167968347Y-73093444D01*
X167963840Y-73096600D01*
X167963838Y-73096601D01*
X167792473Y-73216592D01*
X167792470Y-73216594D01*
X167787962Y-73219751D01*
X167632251Y-73375462D01*
X167505944Y-73555847D01*
X167503621Y-73560829D01*
X167503618Y-73560834D01*
X167456415Y-73662062D01*
X167412880Y-73755424D01*
X167355885Y-73968129D01*
X167336693Y-74187500D01*
X165333500Y-74187500D01*
X165333500Y-70687500D01*
X167336693Y-70687500D01*
X167355885Y-70906871D01*
X167412880Y-71119576D01*
X167440973Y-71179821D01*
X167503618Y-71314166D01*
X167503621Y-71314171D01*
X167505944Y-71319153D01*
X167509100Y-71323660D01*
X167509101Y-71323662D01*
X167610776Y-71468868D01*
X167632251Y-71499538D01*
X167787962Y-71655249D01*
X167792471Y-71658406D01*
X167792473Y-71658408D01*
X167838692Y-71690771D01*
X167968346Y-71781556D01*
X168167924Y-71874620D01*
X168380629Y-71931615D01*
X168600000Y-71950807D01*
X168819371Y-71931615D01*
X169032076Y-71874620D01*
X169231654Y-71781556D01*
X169361308Y-71690771D01*
X169407527Y-71658408D01*
X169407529Y-71658406D01*
X169412038Y-71655249D01*
X169567749Y-71499538D01*
X169589225Y-71468868D01*
X169690899Y-71323662D01*
X169690900Y-71323660D01*
X169694056Y-71319153D01*
X169696379Y-71314171D01*
X169696382Y-71314166D01*
X169759027Y-71179821D01*
X169787120Y-71119576D01*
X169844115Y-70906871D01*
X169863307Y-70687500D01*
X169844115Y-70468129D01*
X169787120Y-70255424D01*
X169732438Y-70138157D01*
X169696382Y-70060834D01*
X169696379Y-70060829D01*
X169694056Y-70055847D01*
X169659766Y-70006876D01*
X169570908Y-69879973D01*
X169570906Y-69879970D01*
X169567749Y-69875462D01*
X169412038Y-69719751D01*
X169231654Y-69593444D01*
X169032076Y-69500380D01*
X168819371Y-69443385D01*
X168600000Y-69424193D01*
X168380629Y-69443385D01*
X168167924Y-69500380D01*
X168130749Y-69517715D01*
X167973334Y-69591118D01*
X167973329Y-69591121D01*
X167968347Y-69593444D01*
X167963840Y-69596600D01*
X167963838Y-69596601D01*
X167792473Y-69716592D01*
X167792470Y-69716594D01*
X167787962Y-69719751D01*
X167632251Y-69875462D01*
X167629094Y-69879970D01*
X167629092Y-69879973D01*
X167540234Y-70006876D01*
X167505944Y-70055847D01*
X167503621Y-70060829D01*
X167503618Y-70060834D01*
X167467562Y-70138157D01*
X167412880Y-70255424D01*
X167355885Y-70468129D01*
X167336693Y-70687500D01*
X165333500Y-70687500D01*
X165333500Y-66808623D01*
X165333502Y-66807853D01*
X165333921Y-66739254D01*
X165333976Y-66730279D01*
X165325850Y-66701847D01*
X165322272Y-66685085D01*
X165319352Y-66664698D01*
X165318080Y-66655813D01*
X165307451Y-66632436D01*
X165301004Y-66614913D01*
X165296416Y-66598862D01*
X165293949Y-66590229D01*
X165289156Y-66582632D01*
X165278170Y-66565220D01*
X165270030Y-66550135D01*
X165268016Y-66545706D01*
X165257792Y-66523218D01*
X165241030Y-66503765D01*
X165229927Y-66488761D01*
X165216224Y-66467042D01*
X165209499Y-66461103D01*
X165209496Y-66461099D01*
X165194062Y-66447468D01*
X165182018Y-66435276D01*
X165168573Y-66419673D01*
X165168570Y-66419671D01*
X165162713Y-66412873D01*
X165141165Y-66398906D01*
X165126291Y-66387615D01*
X165113783Y-66376569D01*
X165113782Y-66376568D01*
X165107049Y-66370622D01*
X165080287Y-66358057D01*
X165065309Y-66349737D01*
X165048017Y-66338529D01*
X165048012Y-66338527D01*
X165040485Y-66333648D01*
X165031892Y-66331078D01*
X165031887Y-66331076D01*
X165015880Y-66326289D01*
X164998436Y-66319628D01*
X164983324Y-66312533D01*
X164983322Y-66312532D01*
X164975200Y-66308719D01*
X164966333Y-66307338D01*
X164966332Y-66307338D01*
X164956690Y-66305837D01*
X164945983Y-66304170D01*
X164929268Y-66300387D01*
X164909534Y-66294485D01*
X164909528Y-66294484D01*
X164900934Y-66291914D01*
X164891963Y-66291859D01*
X164891962Y-66291859D01*
X164881903Y-66291798D01*
X164866494Y-66291704D01*
X164865711Y-66291671D01*
X164864614Y-66291500D01*
X164833623Y-66291500D01*
X164832853Y-66291498D01*
X164759215Y-66291048D01*
X164759214Y-66291048D01*
X164755279Y-66291024D01*
X164753935Y-66291408D01*
X164752590Y-66291500D01*
X161288162Y-66291500D01*
X161220041Y-66271498D01*
X161173548Y-66217842D01*
X161163444Y-66147568D01*
X161192938Y-66082988D01*
X161199067Y-66076405D01*
X165280993Y-61994479D01*
X165343305Y-61960453D01*
X165414120Y-61965518D01*
X165426399Y-61970858D01*
X165526460Y-62020856D01*
X165533586Y-62022534D01*
X165533589Y-62022535D01*
X165691498Y-62059717D01*
X165691502Y-62059717D01*
X165698622Y-62061394D01*
X165705938Y-62061388D01*
X165705941Y-62061388D01*
X165787249Y-62061317D01*
X165875493Y-62061240D01*
X166038593Y-62022535D01*
X166040464Y-62022091D01*
X166040465Y-62022091D01*
X166047585Y-62020401D01*
X166135925Y-61976067D01*
X166199516Y-61944153D01*
X166205665Y-61941067D01*
X166211000Y-61936724D01*
X166284604Y-61876801D01*
X166284610Y-61876795D01*
X166287098Y-61874770D01*
X166924719Y-61237149D01*
X166987031Y-61203123D01*
X167057846Y-61208188D01*
X167112347Y-61247713D01*
X167275010Y-61451812D01*
X167301823Y-61517548D01*
X167302469Y-61531443D01*
X167301585Y-61631857D01*
X167302423Y-61637081D01*
X167302423Y-61637084D01*
X167334419Y-61836585D01*
X167335354Y-61842416D01*
X167337052Y-61847423D01*
X167337052Y-61847425D01*
X167395849Y-62020856D01*
X167403822Y-62044375D01*
X167505064Y-62232059D01*
X167508316Y-62236227D01*
X167632982Y-62396024D01*
X167632985Y-62396028D01*
X167636235Y-62400193D01*
X167793649Y-62544054D01*
X167972883Y-62659598D01*
X167977740Y-62661679D01*
X167977742Y-62661680D01*
X168029780Y-62683975D01*
X168168899Y-62743579D01*
X168174034Y-62744819D01*
X168174040Y-62744821D01*
X168371046Y-62792394D01*
X168371048Y-62792394D01*
X168376190Y-62793636D01*
X168535496Y-62804664D01*
X168583656Y-62807998D01*
X168583657Y-62807998D01*
X168588930Y-62808363D01*
X168681922Y-62799153D01*
X168795885Y-62787866D01*
X168795890Y-62787865D01*
X168801141Y-62787345D01*
X168969053Y-62741497D01*
X169001747Y-62732570D01*
X169001749Y-62732569D01*
X169006859Y-62731174D01*
X169148648Y-62665393D01*
X169218860Y-62654868D01*
X169283616Y-62683975D01*
X169308060Y-62712177D01*
X169579154Y-63139353D01*
X169581888Y-63143867D01*
X170058650Y-63969643D01*
X170061193Y-63974268D01*
X170502968Y-64819305D01*
X170505314Y-64824032D01*
X170911297Y-65686789D01*
X170913444Y-65691610D01*
X171282962Y-66570661D01*
X171284904Y-66575568D01*
X171617269Y-67469267D01*
X171619005Y-67474251D01*
X171913665Y-68381125D01*
X171915190Y-68386177D01*
X172171608Y-69304562D01*
X172172921Y-69309674D01*
X172390664Y-70238025D01*
X172391761Y-70243187D01*
X172456325Y-70581643D01*
X172563735Y-71144702D01*
X172570434Y-71179821D01*
X172571312Y-71185011D01*
X172661781Y-71797668D01*
X172710607Y-72128314D01*
X172711269Y-72133550D01*
X172810941Y-73081877D01*
X172811382Y-73087135D01*
X172871254Y-74038769D01*
X172871475Y-74044042D01*
X172879148Y-74410316D01*
X172890995Y-74975860D01*
X172891445Y-74997361D01*
X172891445Y-75002626D01*
X172883997Y-75358172D01*
X172871475Y-75955958D01*
X172871254Y-75961231D01*
X172811382Y-76912865D01*
X172810941Y-76918123D01*
X172711269Y-77866450D01*
X172710607Y-77871686D01*
X172575970Y-78783447D01*
X172571314Y-78814975D01*
X172570438Y-78820158D01*
X172496819Y-79206081D01*
X172391761Y-79756813D01*
X172390664Y-79761975D01*
X172172921Y-80690326D01*
X172171608Y-80695438D01*
X171915190Y-81613823D01*
X171913665Y-81618875D01*
X171619005Y-82525749D01*
X171617270Y-82530731D01*
X171602508Y-82570424D01*
X171284904Y-83424432D01*
X171282962Y-83429339D01*
X170913444Y-84308390D01*
X170911297Y-84313211D01*
X170505314Y-85175968D01*
X170502968Y-85180695D01*
X170061193Y-86025732D01*
X170058650Y-86030357D01*
X169581888Y-86856133D01*
X169579154Y-86860647D01*
X169391346Y-87156586D01*
X169071569Y-87660476D01*
X169068239Y-87665723D01*
X169065329Y-87670104D01*
X168535703Y-88432136D01*
X168480402Y-88476657D01*
X168409808Y-88484212D01*
X168356162Y-88460665D01*
X168155182Y-88308436D01*
X168153373Y-88307040D01*
X168099017Y-88264261D01*
X168077411Y-88255574D01*
X168067908Y-88251753D01*
X168053838Y-88245058D01*
X168032367Y-88233160D01*
X168032364Y-88233159D01*
X168024514Y-88228809D01*
X168003327Y-88224038D01*
X167984014Y-88218023D01*
X167981035Y-88216825D01*
X167963873Y-88209925D01*
X167954938Y-88209048D01*
X167954936Y-88209048D01*
X167939094Y-88207494D01*
X167930506Y-88206652D01*
X167915131Y-88204176D01*
X167882415Y-88196808D01*
X167872027Y-88197463D01*
X167860744Y-88198174D01*
X167840517Y-88197822D01*
X167832936Y-88197079D01*
X167818912Y-88195703D01*
X167810092Y-88197369D01*
X167810089Y-88197369D01*
X167785964Y-88201926D01*
X167770512Y-88203865D01*
X167754795Y-88204857D01*
X167737047Y-88205976D01*
X167728606Y-88209033D01*
X167716632Y-88213369D01*
X167697117Y-88218708D01*
X167684613Y-88221070D01*
X167684609Y-88221071D01*
X167675785Y-88222738D01*
X167645906Y-88237960D01*
X167631633Y-88244152D01*
X167600093Y-88255574D01*
X167592850Y-88260877D01*
X167592848Y-88260878D01*
X167582576Y-88268399D01*
X167565339Y-88279005D01*
X167546000Y-88288857D01*
X167539469Y-88295010D01*
X167539467Y-88295012D01*
X167521598Y-88311849D01*
X167509625Y-88321808D01*
X167491913Y-88334776D01*
X167482566Y-88341619D01*
X167472279Y-88355030D01*
X167469354Y-88358843D01*
X167455786Y-88373860D01*
X167439987Y-88388746D01*
X167435446Y-88396485D01*
X167426553Y-88411640D01*
X167415941Y-88426992D01*
X166919286Y-89042527D01*
X166916334Y-89046053D01*
X166803022Y-89176450D01*
X166373657Y-89670551D01*
X166370622Y-89673917D01*
X165935956Y-90138717D01*
X165805525Y-90278190D01*
X165802323Y-90281491D01*
X165714493Y-90368794D01*
X165346900Y-90734183D01*
X165215579Y-90864716D01*
X165212265Y-90867892D01*
X164623077Y-91412275D01*
X164604607Y-91429340D01*
X164601180Y-91432392D01*
X164451125Y-91561211D01*
X163973461Y-91971275D01*
X163969919Y-91974205D01*
X163357424Y-92462353D01*
X163339325Y-92474381D01*
X163330847Y-92479014D01*
X163330843Y-92479017D01*
X163322970Y-92483320D01*
X163316619Y-92489662D01*
X163299011Y-92507244D01*
X163287435Y-92517465D01*
X163267805Y-92532763D01*
X163267798Y-92532770D01*
X163260718Y-92538288D01*
X163248225Y-92555631D01*
X163235024Y-92571139D01*
X163219900Y-92586241D01*
X163215585Y-92594110D01*
X163215583Y-92594112D01*
X163203617Y-92615932D01*
X163195374Y-92628994D01*
X163175579Y-92656472D01*
X163172586Y-92664939D01*
X163168456Y-92676622D01*
X163160136Y-92695217D01*
X163149860Y-92713954D01*
X163147927Y-92722717D01*
X163147926Y-92722719D01*
X163142565Y-92747020D01*
X163138319Y-92761870D01*
X163130025Y-92785331D01*
X163130024Y-92785336D01*
X163127031Y-92793802D01*
X163126535Y-92802767D01*
X163126534Y-92802771D01*
X163125850Y-92815136D01*
X163123084Y-92835319D01*
X163118479Y-92856191D01*
X163119083Y-92865148D01*
X163119083Y-92865151D01*
X163120758Y-92889978D01*
X163120851Y-92905423D01*
X163118979Y-92939236D01*
X163123236Y-92957482D01*
X163123836Y-92960056D01*
X163126844Y-92980199D01*
X163128282Y-93001518D01*
X163131376Y-93009946D01*
X163139951Y-93033305D01*
X163144375Y-93048102D01*
X163152069Y-93081085D01*
X163157567Y-93090829D01*
X163162570Y-93099697D01*
X163171111Y-93118187D01*
X163178477Y-93138253D01*
X163183809Y-93145469D01*
X163198607Y-93165498D01*
X163201782Y-93170402D01*
X163201961Y-93170282D01*
X163204671Y-93174322D01*
X163207063Y-93178561D01*
X163220218Y-93195229D01*
X163224552Y-93200721D01*
X163226980Y-93203899D01*
X163265034Y-93255404D01*
X163270325Y-93259426D01*
X163275572Y-93265369D01*
X163384251Y-93403073D01*
X163410752Y-93468938D01*
X163397437Y-93538675D01*
X163359405Y-93583069D01*
X163066622Y-93795788D01*
X163062288Y-93798800D01*
X162268069Y-94326478D01*
X162263635Y-94329292D01*
X161927351Y-94532953D01*
X161448017Y-94823248D01*
X161443447Y-94825887D01*
X160607852Y-95285258D01*
X160603175Y-95287703D01*
X159749092Y-95711674D01*
X159744317Y-95713921D01*
X158873223Y-96101757D01*
X158868358Y-96103802D01*
X157981764Y-96454830D01*
X157976840Y-96456661D01*
X157730842Y-96542326D01*
X157076360Y-96770240D01*
X157071341Y-96771871D01*
X156158500Y-97047474D01*
X156153417Y-97048893D01*
X155229871Y-97286019D01*
X155224733Y-97287225D01*
X154967679Y-97341864D01*
X154291983Y-97485488D01*
X154286878Y-97486462D01*
X153346605Y-97645498D01*
X153341455Y-97646257D01*
X152858974Y-97707208D01*
X152395439Y-97765766D01*
X152390190Y-97766318D01*
X151688201Y-97825266D01*
X151439986Y-97846109D01*
X151434728Y-97846440D01*
X150607650Y-97881105D01*
X150482051Y-97886369D01*
X150476775Y-97886480D01*
X149523225Y-97886480D01*
X149517949Y-97886369D01*
X149392350Y-97881105D01*
X148565272Y-97846440D01*
X148560014Y-97846109D01*
X148311799Y-97825266D01*
X147609810Y-97766318D01*
X147604561Y-97765766D01*
X147141026Y-97707208D01*
X146658545Y-97646257D01*
X146653395Y-97645498D01*
X145713122Y-97486462D01*
X145708017Y-97485488D01*
X145032321Y-97341864D01*
X144775267Y-97287225D01*
X144770129Y-97286019D01*
X143846583Y-97048893D01*
X143841500Y-97047474D01*
X142928659Y-96771871D01*
X142923640Y-96770240D01*
X142269158Y-96542326D01*
X142023160Y-96456661D01*
X142018236Y-96454830D01*
X141131642Y-96103802D01*
X141126777Y-96101757D01*
X140255683Y-95713921D01*
X140250908Y-95711674D01*
X139396825Y-95287703D01*
X139392148Y-95285258D01*
X138687970Y-94898134D01*
X145321500Y-94898134D01*
X145328255Y-94960316D01*
X145379385Y-95096705D01*
X145466739Y-95213261D01*
X145583295Y-95300615D01*
X145719684Y-95351745D01*
X145781866Y-95358500D01*
X147578134Y-95358500D01*
X147640316Y-95351745D01*
X147776705Y-95300615D01*
X147874436Y-95227370D01*
X147940941Y-95202522D01*
X148010324Y-95217575D01*
X148025562Y-95227368D01*
X148123295Y-95300615D01*
X148259684Y-95351745D01*
X148321866Y-95358500D01*
X150118134Y-95358500D01*
X150180316Y-95351745D01*
X150316705Y-95300615D01*
X150414436Y-95227370D01*
X150480941Y-95202522D01*
X150550324Y-95217575D01*
X150565562Y-95227368D01*
X150663295Y-95300615D01*
X150799684Y-95351745D01*
X150861866Y-95358500D01*
X152658134Y-95358500D01*
X152720316Y-95351745D01*
X152856705Y-95300615D01*
X152954436Y-95227370D01*
X153020941Y-95202522D01*
X153090324Y-95217575D01*
X153105562Y-95227368D01*
X153203295Y-95300615D01*
X153339684Y-95351745D01*
X153401866Y-95358500D01*
X155198134Y-95358500D01*
X155260316Y-95351745D01*
X155396705Y-95300615D01*
X155513261Y-95213261D01*
X155600615Y-95096705D01*
X155651745Y-94960316D01*
X155658500Y-94898134D01*
X155658500Y-93101866D01*
X155651745Y-93039684D01*
X155600615Y-92903295D01*
X155513261Y-92786739D01*
X155396705Y-92699385D01*
X155260316Y-92648255D01*
X155198134Y-92641500D01*
X153401866Y-92641500D01*
X153339684Y-92648255D01*
X153203295Y-92699385D01*
X153105565Y-92772630D01*
X153039059Y-92797478D01*
X152969676Y-92782425D01*
X152954435Y-92772630D01*
X152856705Y-92699385D01*
X152720316Y-92648255D01*
X152658134Y-92641500D01*
X150861866Y-92641500D01*
X150799684Y-92648255D01*
X150663295Y-92699385D01*
X150565565Y-92772630D01*
X150499059Y-92797478D01*
X150429676Y-92782425D01*
X150414435Y-92772630D01*
X150316705Y-92699385D01*
X150180316Y-92648255D01*
X150118134Y-92641500D01*
X148321866Y-92641500D01*
X148259684Y-92648255D01*
X148123295Y-92699385D01*
X148025565Y-92772630D01*
X147959059Y-92797478D01*
X147889676Y-92782425D01*
X147874435Y-92772630D01*
X147776705Y-92699385D01*
X147640316Y-92648255D01*
X147578134Y-92641500D01*
X145781866Y-92641500D01*
X145719684Y-92648255D01*
X145583295Y-92699385D01*
X145466739Y-92786739D01*
X145379385Y-92903295D01*
X145328255Y-93039684D01*
X145321500Y-93101866D01*
X145321500Y-94898134D01*
X138687970Y-94898134D01*
X138556553Y-94825887D01*
X138551983Y-94823248D01*
X138072649Y-94532953D01*
X137736365Y-94329292D01*
X137731931Y-94326478D01*
X136937712Y-93798800D01*
X136933378Y-93795788D01*
X136605042Y-93557238D01*
X136561688Y-93501016D01*
X136555613Y-93430280D01*
X136578658Y-93379232D01*
X136698101Y-93221526D01*
X136699509Y-93219703D01*
X136736731Y-93172407D01*
X136736734Y-93172403D01*
X136742284Y-93165350D01*
X136754799Y-93134223D01*
X136761484Y-93120174D01*
X136771628Y-93101866D01*
X136773392Y-93098682D01*
X136773392Y-93098681D01*
X136777743Y-93090829D01*
X136782509Y-93069662D01*
X136788527Y-93050337D01*
X136793272Y-93038535D01*
X136793273Y-93038533D01*
X136796620Y-93030207D01*
X136799896Y-92996822D01*
X136802368Y-92981463D01*
X136809738Y-92948729D01*
X136809139Y-92939236D01*
X136808372Y-92927073D01*
X136808724Y-92906839D01*
X136809965Y-92894183D01*
X136810842Y-92885245D01*
X136809176Y-92876426D01*
X136809176Y-92876420D01*
X136804618Y-92852289D01*
X136802679Y-92836842D01*
X136801131Y-92812320D01*
X136800566Y-92803361D01*
X136793176Y-92782957D01*
X136787832Y-92763429D01*
X136785474Y-92750944D01*
X136785474Y-92750943D01*
X136783807Y-92742119D01*
X136768587Y-92712243D01*
X136762391Y-92697961D01*
X136754021Y-92674852D01*
X136754018Y-92674846D01*
X136750962Y-92666409D01*
X136738141Y-92648899D01*
X136727533Y-92631658D01*
X136721764Y-92620334D01*
X136717688Y-92612333D01*
X136694690Y-92587925D01*
X136684733Y-92575954D01*
X136670220Y-92556132D01*
X136670214Y-92556126D01*
X136664913Y-92548886D01*
X136647697Y-92535681D01*
X136632676Y-92522110D01*
X136617799Y-92506320D01*
X136594870Y-92492866D01*
X136579533Y-92482267D01*
X135966671Y-91987927D01*
X135963175Y-91985001D01*
X135341090Y-91444933D01*
X135337702Y-91441882D01*
X135151436Y-91267966D01*
X144138257Y-91267966D01*
X144168565Y-91402446D01*
X144171645Y-91412275D01*
X144251770Y-91609603D01*
X144256413Y-91618794D01*
X144367694Y-91800388D01*
X144373777Y-91808699D01*
X144513213Y-91969667D01*
X144520580Y-91976883D01*
X144684434Y-92112916D01*
X144692881Y-92118831D01*
X144876756Y-92226279D01*
X144886042Y-92230729D01*
X145085001Y-92306703D01*
X145094899Y-92309579D01*
X145198250Y-92330606D01*
X145212299Y-92329410D01*
X145216000Y-92319065D01*
X145216000Y-92318517D01*
X145724000Y-92318517D01*
X145728064Y-92332359D01*
X145741478Y-92334393D01*
X145748184Y-92333534D01*
X145758262Y-92331392D01*
X145962255Y-92270191D01*
X145971842Y-92266433D01*
X146163095Y-92172739D01*
X146171945Y-92167464D01*
X146345328Y-92043792D01*
X146353193Y-92037145D01*
X146457897Y-91932805D01*
X146520268Y-91898889D01*
X146591075Y-91904077D01*
X146647837Y-91946723D01*
X146664819Y-91977826D01*
X146709385Y-92096705D01*
X146796739Y-92213261D01*
X146913295Y-92300615D01*
X147049684Y-92351745D01*
X147111866Y-92358500D01*
X148908134Y-92358500D01*
X148970316Y-92351745D01*
X149106705Y-92300615D01*
X149204436Y-92227370D01*
X149270941Y-92202522D01*
X149340324Y-92217575D01*
X149355562Y-92227368D01*
X149453295Y-92300615D01*
X149589684Y-92351745D01*
X149651866Y-92358500D01*
X151448134Y-92358500D01*
X151510316Y-92351745D01*
X151646705Y-92300615D01*
X151744436Y-92227370D01*
X151810941Y-92202522D01*
X151880324Y-92217575D01*
X151895562Y-92227368D01*
X151993295Y-92300615D01*
X152129684Y-92351745D01*
X152191866Y-92358500D01*
X153988134Y-92358500D01*
X154050316Y-92351745D01*
X154186705Y-92300615D01*
X154303261Y-92213261D01*
X154390615Y-92096705D01*
X154441745Y-91960316D01*
X154448500Y-91898134D01*
X154448500Y-90101866D01*
X154441745Y-90039684D01*
X154390615Y-89903295D01*
X154303261Y-89786739D01*
X154186705Y-89699385D01*
X154050316Y-89648255D01*
X153988134Y-89641500D01*
X152191866Y-89641500D01*
X152129684Y-89648255D01*
X151993295Y-89699385D01*
X151930818Y-89746209D01*
X151895565Y-89772630D01*
X151829059Y-89797478D01*
X151759676Y-89782425D01*
X151744435Y-89772630D01*
X151709182Y-89746209D01*
X151646705Y-89699385D01*
X151510316Y-89648255D01*
X151448134Y-89641500D01*
X149651866Y-89641500D01*
X149589684Y-89648255D01*
X149453295Y-89699385D01*
X149390818Y-89746209D01*
X149355565Y-89772630D01*
X149289059Y-89797478D01*
X149219676Y-89782425D01*
X149204435Y-89772630D01*
X149169182Y-89746209D01*
X149106705Y-89699385D01*
X148970316Y-89648255D01*
X148908134Y-89641500D01*
X147111866Y-89641500D01*
X147049684Y-89648255D01*
X146913295Y-89699385D01*
X146796739Y-89786739D01*
X146709385Y-89903295D01*
X146706233Y-89911703D01*
X146706232Y-89911705D01*
X146664722Y-90022433D01*
X146622081Y-90079198D01*
X146555519Y-90103898D01*
X146486170Y-90088691D01*
X146453546Y-90063004D01*
X146402799Y-90007234D01*
X146395273Y-90000215D01*
X146228139Y-89868222D01*
X146219552Y-89862517D01*
X146033117Y-89759599D01*
X146023705Y-89755369D01*
X145822959Y-89684280D01*
X145812988Y-89681646D01*
X145741837Y-89668972D01*
X145728540Y-89670432D01*
X145724000Y-89684989D01*
X145724000Y-92318517D01*
X145216000Y-92318517D01*
X145216000Y-91272115D01*
X145211525Y-91256876D01*
X145210135Y-91255671D01*
X145202452Y-91254000D01*
X144153225Y-91254000D01*
X144139694Y-91257973D01*
X144138257Y-91267966D01*
X135151436Y-91267966D01*
X134735568Y-90879671D01*
X134732293Y-90876500D01*
X134598911Y-90742607D01*
X134590519Y-90734183D01*
X144134389Y-90734183D01*
X144135912Y-90742607D01*
X144148292Y-90746000D01*
X145197885Y-90746000D01*
X145213124Y-90741525D01*
X145214329Y-90740135D01*
X145216000Y-90732452D01*
X145216000Y-89683102D01*
X145212082Y-89669758D01*
X145197806Y-89667771D01*
X145159324Y-89673660D01*
X145149288Y-89676051D01*
X144946868Y-89742212D01*
X144937359Y-89746209D01*
X144748463Y-89844542D01*
X144739738Y-89850036D01*
X144569433Y-89977905D01*
X144561726Y-89984748D01*
X144414590Y-90138717D01*
X144408104Y-90146727D01*
X144288098Y-90322649D01*
X144283000Y-90331623D01*
X144193338Y-90524783D01*
X144189775Y-90534470D01*
X144134389Y-90734183D01*
X134590519Y-90734183D01*
X134227889Y-90370166D01*
X134150906Y-90292888D01*
X134147747Y-90289601D01*
X133691757Y-89797478D01*
X133587806Y-89685289D01*
X133584774Y-89681895D01*
X133047104Y-89057773D01*
X133044198Y-89054274D01*
X133042397Y-89052023D01*
X132854503Y-88817251D01*
X132687098Y-88608079D01*
X132660149Y-88542396D01*
X132659477Y-88528230D01*
X132660148Y-88452598D01*
X132660359Y-88428827D01*
X132658898Y-88419710D01*
X132634639Y-88268399D01*
X132626602Y-88218267D01*
X132624903Y-88213254D01*
X132559842Y-88021312D01*
X132559840Y-88021307D01*
X132558144Y-88016304D01*
X132456910Y-87828615D01*
X132402248Y-87758544D01*
X132328999Y-87664648D01*
X132328996Y-87664645D01*
X132325744Y-87660476D01*
X132278575Y-87617366D01*
X132172243Y-87520184D01*
X132172239Y-87520181D01*
X132168333Y-87516611D01*
X131989100Y-87401064D01*
X131793084Y-87317082D01*
X131787949Y-87315842D01*
X131787943Y-87315840D01*
X131590946Y-87268269D01*
X131590942Y-87268268D01*
X131585793Y-87267025D01*
X131580507Y-87266659D01*
X131580506Y-87266659D01*
X131378331Y-87252666D01*
X131378327Y-87252666D01*
X131373052Y-87252301D01*
X131229453Y-87266525D01*
X131166109Y-87272800D01*
X131166107Y-87272800D01*
X131160841Y-87273322D01*
X131155739Y-87274715D01*
X131155735Y-87274716D01*
X130960225Y-87328106D01*
X130955124Y-87329499D01*
X130950331Y-87331723D01*
X130950328Y-87331724D01*
X130872458Y-87367855D01*
X130802246Y-87378382D01*
X130737489Y-87349279D01*
X130713041Y-87321073D01*
X130420846Y-86860647D01*
X130418112Y-86856133D01*
X129941350Y-86030357D01*
X129938807Y-86025732D01*
X129497032Y-85180695D01*
X129494686Y-85175968D01*
X129088703Y-84313211D01*
X129086556Y-84308390D01*
X128851831Y-83750000D01*
X130386372Y-83750000D01*
X130406854Y-84010249D01*
X130408008Y-84015056D01*
X130408009Y-84015062D01*
X130442326Y-84157999D01*
X130467796Y-84264089D01*
X130469689Y-84268660D01*
X130469690Y-84268662D01*
X130558528Y-84483134D01*
X130567697Y-84505271D01*
X130704097Y-84727856D01*
X130873637Y-84926363D01*
X131072144Y-85095903D01*
X131294729Y-85232303D01*
X131299299Y-85234196D01*
X131299303Y-85234198D01*
X131531338Y-85330310D01*
X131535911Y-85332204D01*
X131624931Y-85353576D01*
X131784938Y-85391991D01*
X131784944Y-85391992D01*
X131789751Y-85393146D01*
X132050000Y-85413628D01*
X132310249Y-85393146D01*
X132315056Y-85391992D01*
X132315062Y-85391991D01*
X132475069Y-85353576D01*
X132564089Y-85332204D01*
X132568662Y-85330310D01*
X132800697Y-85234198D01*
X132800701Y-85234196D01*
X132805271Y-85232303D01*
X133027856Y-85095903D01*
X133226363Y-84926363D01*
X133395903Y-84727856D01*
X133532303Y-84505271D01*
X133541473Y-84483134D01*
X133630310Y-84268662D01*
X133630311Y-84268660D01*
X133632204Y-84264089D01*
X133657674Y-84157999D01*
X133691991Y-84015062D01*
X133691992Y-84015056D01*
X133693146Y-84010249D01*
X133713628Y-83750000D01*
X133709273Y-83694669D01*
X138392001Y-83694669D01*
X138392371Y-83701490D01*
X138397895Y-83752352D01*
X138401521Y-83767604D01*
X138446676Y-83888054D01*
X138455214Y-83903649D01*
X138531715Y-84005724D01*
X138544276Y-84018285D01*
X138646351Y-84094786D01*
X138661946Y-84103324D01*
X138782394Y-84148478D01*
X138797649Y-84152105D01*
X138848514Y-84157631D01*
X138855328Y-84158000D01*
X139977885Y-84158000D01*
X139993124Y-84153525D01*
X139994329Y-84152135D01*
X139996000Y-84144452D01*
X139996000Y-83172115D01*
X139991525Y-83156876D01*
X139990135Y-83155671D01*
X139982452Y-83154000D01*
X138410116Y-83154000D01*
X138394877Y-83158475D01*
X138393672Y-83159865D01*
X138392001Y-83167548D01*
X138392001Y-83694669D01*
X133709273Y-83694669D01*
X133693146Y-83489751D01*
X133691992Y-83484944D01*
X133691991Y-83484938D01*
X133642660Y-83279462D01*
X133632204Y-83235911D01*
X133623222Y-83214226D01*
X133534198Y-82999303D01*
X133534196Y-82999299D01*
X133532303Y-82994729D01*
X133395903Y-82772144D01*
X133272695Y-82627885D01*
X138392000Y-82627885D01*
X138396475Y-82643124D01*
X138397865Y-82644329D01*
X138405548Y-82646000D01*
X139977885Y-82646000D01*
X139993124Y-82641525D01*
X139994329Y-82640135D01*
X139996000Y-82632452D01*
X139996000Y-81660116D01*
X139991525Y-81644877D01*
X139990135Y-81643672D01*
X139982452Y-81642001D01*
X138855331Y-81642001D01*
X138848510Y-81642371D01*
X138797648Y-81647895D01*
X138782396Y-81651521D01*
X138661946Y-81696676D01*
X138646351Y-81705214D01*
X138544276Y-81781715D01*
X138531715Y-81794276D01*
X138455214Y-81896351D01*
X138446676Y-81911946D01*
X138401522Y-82032394D01*
X138397895Y-82047649D01*
X138392369Y-82098514D01*
X138392000Y-82105328D01*
X138392000Y-82627885D01*
X133272695Y-82627885D01*
X133226363Y-82573637D01*
X133027856Y-82404097D01*
X132805271Y-82267697D01*
X132800701Y-82265804D01*
X132800697Y-82265802D01*
X132568662Y-82169690D01*
X132568660Y-82169689D01*
X132564089Y-82167796D01*
X132375498Y-82122519D01*
X132313929Y-82087167D01*
X132281246Y-82024140D01*
X132287827Y-81953449D01*
X132331581Y-81897538D01*
X132375498Y-81877481D01*
X132410686Y-81869033D01*
X132564089Y-81832204D01*
X132578560Y-81826210D01*
X132800697Y-81734198D01*
X132800701Y-81734196D01*
X132805271Y-81732303D01*
X133027856Y-81595903D01*
X133226363Y-81426363D01*
X133395903Y-81227856D01*
X133532303Y-81005271D01*
X133549888Y-80962819D01*
X133630310Y-80768662D01*
X133630311Y-80768660D01*
X133632204Y-80764089D01*
X133663815Y-80632421D01*
X133691991Y-80515062D01*
X133691992Y-80515056D01*
X133693146Y-80510249D01*
X133713628Y-80250000D01*
X133693146Y-79989751D01*
X133691992Y-79984944D01*
X133691991Y-79984938D01*
X133638261Y-79761139D01*
X133632204Y-79735911D01*
X133629166Y-79728577D01*
X133534198Y-79499303D01*
X133534196Y-79499299D01*
X133532303Y-79494729D01*
X133395903Y-79272144D01*
X133226363Y-79073637D01*
X133027856Y-78904097D01*
X132805271Y-78767697D01*
X132800701Y-78765804D01*
X132800697Y-78765802D01*
X132568662Y-78669690D01*
X132568660Y-78669689D01*
X132564089Y-78667796D01*
X132375498Y-78622519D01*
X132313929Y-78587167D01*
X132281246Y-78524140D01*
X132287827Y-78453449D01*
X132331581Y-78397538D01*
X132375498Y-78377481D01*
X132423507Y-78365955D01*
X132564089Y-78332204D01*
X132662693Y-78291361D01*
X132800697Y-78234198D01*
X132800701Y-78234196D01*
X132805271Y-78232303D01*
X133027856Y-78095903D01*
X133226363Y-77926363D01*
X133395903Y-77727856D01*
X133532303Y-77505271D01*
X133548363Y-77466500D01*
X133630310Y-77268662D01*
X133630311Y-77268660D01*
X133632204Y-77264089D01*
X133668789Y-77111703D01*
X133691991Y-77015062D01*
X133691992Y-77015056D01*
X133693146Y-77010249D01*
X133713628Y-76750000D01*
X133693146Y-76489751D01*
X133691992Y-76484944D01*
X133691991Y-76484938D01*
X133633359Y-76240723D01*
X133632204Y-76235911D01*
X133532303Y-75994729D01*
X133395903Y-75772144D01*
X133226363Y-75573637D01*
X133027856Y-75404097D01*
X132805271Y-75267697D01*
X132800701Y-75265804D01*
X132800697Y-75265802D01*
X132568662Y-75169690D01*
X132568660Y-75169689D01*
X132564089Y-75167796D01*
X132375498Y-75122519D01*
X132313929Y-75087167D01*
X132281246Y-75024140D01*
X132287827Y-74953449D01*
X132331581Y-74897538D01*
X132375498Y-74877481D01*
X132378062Y-74876865D01*
X132564089Y-74832204D01*
X132568662Y-74830310D01*
X132800697Y-74734198D01*
X132800701Y-74734196D01*
X132805271Y-74732303D01*
X132944318Y-74647095D01*
X136579501Y-74647095D01*
X136579838Y-74653614D01*
X136589757Y-74749206D01*
X136592649Y-74762600D01*
X136644088Y-74916784D01*
X136650261Y-74929962D01*
X136735563Y-75067807D01*
X136744599Y-75079208D01*
X136859329Y-75193739D01*
X136870740Y-75202751D01*
X137008743Y-75287816D01*
X137021924Y-75293963D01*
X137176210Y-75345138D01*
X137189586Y-75348005D01*
X137283938Y-75357672D01*
X137290354Y-75358000D01*
X137477885Y-75358000D01*
X137493124Y-75353525D01*
X137494329Y-75352135D01*
X137496000Y-75344452D01*
X137496000Y-75339884D01*
X138004000Y-75339884D01*
X138008475Y-75355123D01*
X138009865Y-75356328D01*
X138017548Y-75357999D01*
X138209595Y-75357999D01*
X138216114Y-75357662D01*
X138311706Y-75347743D01*
X138325100Y-75344851D01*
X138479284Y-75293412D01*
X138492462Y-75287239D01*
X138630307Y-75201937D01*
X138641708Y-75192901D01*
X138756239Y-75078171D01*
X138765251Y-75066760D01*
X138850316Y-74928757D01*
X138856463Y-74915576D01*
X138907638Y-74761290D01*
X138910505Y-74747914D01*
X138920172Y-74653562D01*
X138920500Y-74647146D01*
X138920500Y-73772115D01*
X138916025Y-73756876D01*
X138914635Y-73755671D01*
X138906952Y-73754000D01*
X138022115Y-73754000D01*
X138006876Y-73758475D01*
X138005671Y-73759865D01*
X138004000Y-73767548D01*
X138004000Y-75339884D01*
X137496000Y-75339884D01*
X137496000Y-73772115D01*
X137491525Y-73756876D01*
X137490135Y-73755671D01*
X137482452Y-73754000D01*
X136597616Y-73754000D01*
X136582377Y-73758475D01*
X136581172Y-73759865D01*
X136579501Y-73767548D01*
X136579501Y-74647095D01*
X132944318Y-74647095D01*
X133027856Y-74595903D01*
X133226363Y-74426363D01*
X133395903Y-74227856D01*
X133532303Y-74005271D01*
X133549888Y-73962819D01*
X133630310Y-73768662D01*
X133630311Y-73768660D01*
X133632204Y-73764089D01*
X133682199Y-73555847D01*
X133691991Y-73515062D01*
X133691992Y-73515056D01*
X133693146Y-73510249D01*
X133713628Y-73250000D01*
X133711888Y-73227885D01*
X136579500Y-73227885D01*
X136583975Y-73243124D01*
X136585365Y-73244329D01*
X136593048Y-73246000D01*
X137477885Y-73246000D01*
X137493124Y-73241525D01*
X137494329Y-73240135D01*
X137496000Y-73232452D01*
X137496000Y-73227885D01*
X138004000Y-73227885D01*
X138008475Y-73243124D01*
X138009865Y-73244329D01*
X138017548Y-73246000D01*
X138902384Y-73246000D01*
X138917623Y-73241525D01*
X138918828Y-73240135D01*
X138920499Y-73232452D01*
X138920499Y-72352905D01*
X138920162Y-72346386D01*
X138910243Y-72250794D01*
X138907351Y-72237400D01*
X138855912Y-72083216D01*
X138849739Y-72070038D01*
X138764437Y-71932193D01*
X138755401Y-71920792D01*
X138640671Y-71806261D01*
X138629260Y-71797249D01*
X138491257Y-71712184D01*
X138478076Y-71706037D01*
X138323790Y-71654862D01*
X138310414Y-71651995D01*
X138216062Y-71642328D01*
X138209645Y-71642000D01*
X138022115Y-71642000D01*
X138006876Y-71646475D01*
X138005671Y-71647865D01*
X138004000Y-71655548D01*
X138004000Y-73227885D01*
X137496000Y-73227885D01*
X137496000Y-71660116D01*
X137491525Y-71644877D01*
X137490135Y-71643672D01*
X137482452Y-71642001D01*
X137290405Y-71642001D01*
X137283886Y-71642338D01*
X137188294Y-71652257D01*
X137174900Y-71655149D01*
X137020716Y-71706588D01*
X137007538Y-71712761D01*
X136869693Y-71798063D01*
X136858292Y-71807099D01*
X136743761Y-71921829D01*
X136734749Y-71933240D01*
X136649684Y-72071243D01*
X136643537Y-72084424D01*
X136592362Y-72238710D01*
X136589495Y-72252086D01*
X136579828Y-72346438D01*
X136579500Y-72352855D01*
X136579500Y-73227885D01*
X133711888Y-73227885D01*
X133693146Y-72989751D01*
X133691992Y-72984944D01*
X133691991Y-72984938D01*
X133651079Y-72814530D01*
X133632204Y-72735911D01*
X133532303Y-72494729D01*
X133395903Y-72272144D01*
X133226363Y-72073637D01*
X133027856Y-71904097D01*
X132805271Y-71767697D01*
X132800701Y-71765804D01*
X132800697Y-71765802D01*
X132568662Y-71669690D01*
X132568660Y-71669689D01*
X132564089Y-71667796D01*
X132375498Y-71622519D01*
X132313929Y-71587167D01*
X132281246Y-71524140D01*
X132287827Y-71453449D01*
X132331581Y-71397538D01*
X132375498Y-71377481D01*
X132378062Y-71376865D01*
X132564089Y-71332204D01*
X132568662Y-71330310D01*
X132800697Y-71234198D01*
X132800701Y-71234196D01*
X132805271Y-71232303D01*
X133027856Y-71095903D01*
X133226363Y-70926363D01*
X133395903Y-70727856D01*
X133532303Y-70505271D01*
X133549888Y-70462819D01*
X133630310Y-70268662D01*
X133630311Y-70268660D01*
X133632204Y-70264089D01*
X133659171Y-70151764D01*
X133691991Y-70015062D01*
X133691992Y-70015056D01*
X133693146Y-70010249D01*
X133713628Y-69750000D01*
X133693146Y-69489751D01*
X133691992Y-69484944D01*
X133691991Y-69484938D01*
X133682323Y-69444669D01*
X137692001Y-69444669D01*
X137692371Y-69451490D01*
X137697895Y-69502352D01*
X137701521Y-69517604D01*
X137746676Y-69638054D01*
X137755214Y-69653649D01*
X137831715Y-69755724D01*
X137844276Y-69768285D01*
X137946351Y-69844786D01*
X137961946Y-69853324D01*
X138082394Y-69898478D01*
X138097649Y-69902105D01*
X138148514Y-69907631D01*
X138155328Y-69908000D01*
X138427885Y-69908000D01*
X138443124Y-69903525D01*
X138444329Y-69902135D01*
X138446000Y-69894452D01*
X138446000Y-69889884D01*
X138954000Y-69889884D01*
X138958475Y-69905123D01*
X138959865Y-69906328D01*
X138967548Y-69907999D01*
X139244669Y-69907999D01*
X139251490Y-69907629D01*
X139302352Y-69902105D01*
X139317604Y-69898479D01*
X139438061Y-69853321D01*
X139438966Y-69852826D01*
X139439966Y-69852607D01*
X139446462Y-69850172D01*
X139446814Y-69851110D01*
X139508323Y-69837657D01*
X139553212Y-69850838D01*
X139553295Y-69850615D01*
X139556337Y-69851756D01*
X139556344Y-69851758D01*
X139561696Y-69853764D01*
X139561699Y-69853766D01*
X139619574Y-69875462D01*
X139689684Y-69901745D01*
X139751866Y-69908500D01*
X140848134Y-69908500D01*
X140910316Y-69901745D01*
X141046705Y-69850615D01*
X141163261Y-69763261D01*
X141250615Y-69646705D01*
X141301745Y-69510316D01*
X141308500Y-69448134D01*
X141308500Y-68451866D01*
X141301745Y-68389684D01*
X141250615Y-68253295D01*
X141163261Y-68136739D01*
X141046705Y-68049385D01*
X141038296Y-68046232D01*
X141038293Y-68046231D01*
X141015269Y-68037599D01*
X140958505Y-67994957D01*
X140933806Y-67928395D01*
X140933500Y-67919618D01*
X140933500Y-65880382D01*
X140953502Y-65812261D01*
X141007158Y-65765768D01*
X141015269Y-65762401D01*
X141038293Y-65753769D01*
X141038296Y-65753768D01*
X141046705Y-65750615D01*
X141163261Y-65663261D01*
X141250615Y-65546705D01*
X141301745Y-65410316D01*
X141308500Y-65348134D01*
X141308500Y-64351866D01*
X141301745Y-64289684D01*
X141250615Y-64153295D01*
X141167654Y-64042600D01*
X141142806Y-63976095D01*
X141148647Y-63928100D01*
X141191502Y-63796206D01*
X141193542Y-63789928D01*
X141194781Y-63778145D01*
X141212814Y-63606565D01*
X141212814Y-63606564D01*
X141213504Y-63600000D01*
X141193542Y-63410072D01*
X141134527Y-63228444D01*
X141039040Y-63063056D01*
X140911253Y-62921134D01*
X140756752Y-62808882D01*
X140750724Y-62806198D01*
X140750722Y-62806197D01*
X140588319Y-62733891D01*
X140588318Y-62733891D01*
X140582288Y-62731206D01*
X140488888Y-62711353D01*
X140401944Y-62692872D01*
X140401939Y-62692872D01*
X140395487Y-62691500D01*
X140204513Y-62691500D01*
X140198061Y-62692872D01*
X140198056Y-62692872D01*
X140111112Y-62711353D01*
X140017712Y-62731206D01*
X140011682Y-62733891D01*
X140011681Y-62733891D01*
X139849278Y-62806197D01*
X139849276Y-62806198D01*
X139843248Y-62808882D01*
X139688747Y-62921134D01*
X139560960Y-63063056D01*
X139465473Y-63228444D01*
X139406458Y-63410072D01*
X139386496Y-63600000D01*
X139400014Y-63728611D01*
X139402817Y-63755283D01*
X139390045Y-63825122D01*
X139341543Y-63876969D01*
X139272710Y-63894363D01*
X139263903Y-63893717D01*
X139251496Y-63892370D01*
X139244672Y-63892000D01*
X138972115Y-63892000D01*
X138956876Y-63896475D01*
X138955671Y-63897865D01*
X138954000Y-63905548D01*
X138954000Y-65789884D01*
X138958475Y-65805123D01*
X138959865Y-65806328D01*
X138967548Y-65807999D01*
X139244669Y-65807999D01*
X139251490Y-65807629D01*
X139302352Y-65802105D01*
X139317604Y-65798479D01*
X139438061Y-65753321D01*
X139438966Y-65752826D01*
X139439966Y-65752607D01*
X139446462Y-65750172D01*
X139446814Y-65751110D01*
X139508323Y-65737657D01*
X139553213Y-65750838D01*
X139553296Y-65750616D01*
X139556329Y-65751753D01*
X139556336Y-65751755D01*
X139561701Y-65753766D01*
X139561704Y-65753768D01*
X139584731Y-65762401D01*
X139641495Y-65805043D01*
X139666194Y-65871605D01*
X139666500Y-65880382D01*
X139666500Y-67919618D01*
X139646498Y-67987739D01*
X139592842Y-68034232D01*
X139584731Y-68037599D01*
X139561704Y-68046232D01*
X139561701Y-68046234D01*
X139558085Y-68047589D01*
X139558082Y-68047590D01*
X139553296Y-68049384D01*
X139553037Y-68048693D01*
X139490626Y-68062343D01*
X139446615Y-68049420D01*
X139446462Y-68049828D01*
X139440888Y-68047738D01*
X139438966Y-68047174D01*
X139438061Y-68046679D01*
X139317606Y-68001522D01*
X139302351Y-67997895D01*
X139251486Y-67992369D01*
X139244672Y-67992000D01*
X138972115Y-67992000D01*
X138956876Y-67996475D01*
X138955671Y-67997865D01*
X138954000Y-68005548D01*
X138954000Y-69889884D01*
X138446000Y-69889884D01*
X138446000Y-69222115D01*
X138441525Y-69206876D01*
X138440135Y-69205671D01*
X138432452Y-69204000D01*
X137710116Y-69204000D01*
X137694877Y-69208475D01*
X137693672Y-69209865D01*
X137692001Y-69217548D01*
X137692001Y-69444669D01*
X133682323Y-69444669D01*
X133633359Y-69240723D01*
X133632204Y-69235911D01*
X133624598Y-69217548D01*
X133534198Y-68999303D01*
X133534196Y-68999299D01*
X133532303Y-68994729D01*
X133395903Y-68772144D01*
X133315399Y-68677885D01*
X137692000Y-68677885D01*
X137696475Y-68693124D01*
X137697865Y-68694329D01*
X137705548Y-68696000D01*
X138427885Y-68696000D01*
X138443124Y-68691525D01*
X138444329Y-68690135D01*
X138446000Y-68682452D01*
X138446000Y-68010116D01*
X138441525Y-67994877D01*
X138440135Y-67993672D01*
X138432452Y-67992001D01*
X138155331Y-67992001D01*
X138148510Y-67992371D01*
X138097648Y-67997895D01*
X138082396Y-68001521D01*
X137961946Y-68046676D01*
X137946351Y-68055214D01*
X137844276Y-68131715D01*
X137831715Y-68144276D01*
X137755214Y-68246351D01*
X137746676Y-68261946D01*
X137701522Y-68382394D01*
X137697895Y-68397649D01*
X137692369Y-68448514D01*
X137692000Y-68455328D01*
X137692000Y-68677885D01*
X133315399Y-68677885D01*
X133226363Y-68573637D01*
X133027856Y-68404097D01*
X132805271Y-68267697D01*
X132800701Y-68265804D01*
X132800697Y-68265802D01*
X132568662Y-68169690D01*
X132568660Y-68169689D01*
X132564089Y-68167796D01*
X132374428Y-68122262D01*
X132312859Y-68086910D01*
X132280176Y-68023883D01*
X132286757Y-67953192D01*
X132330511Y-67897281D01*
X132374428Y-67877224D01*
X132559123Y-67832883D01*
X132568508Y-67829834D01*
X132800470Y-67733752D01*
X132809264Y-67729271D01*
X133020875Y-67599596D01*
X133026922Y-67590330D01*
X133020915Y-67580125D01*
X132062812Y-66622022D01*
X132048868Y-66614408D01*
X132047035Y-66614539D01*
X132040420Y-66618790D01*
X131080544Y-67578666D01*
X131073151Y-67592204D01*
X131077720Y-67598735D01*
X131290736Y-67729271D01*
X131299530Y-67733752D01*
X131531492Y-67829834D01*
X131540877Y-67832883D01*
X131725572Y-67877224D01*
X131787141Y-67912576D01*
X131819824Y-67975603D01*
X131813244Y-68046294D01*
X131769490Y-68102205D01*
X131725571Y-68122262D01*
X131535911Y-68167796D01*
X131531340Y-68169689D01*
X131531338Y-68169690D01*
X131299303Y-68265802D01*
X131299299Y-68265804D01*
X131294729Y-68267697D01*
X131072144Y-68404097D01*
X130873637Y-68573637D01*
X130704097Y-68772144D01*
X130567697Y-68994729D01*
X130565804Y-68999299D01*
X130565802Y-68999303D01*
X130475402Y-69217548D01*
X130467796Y-69235911D01*
X130466641Y-69240723D01*
X130408009Y-69484938D01*
X130408008Y-69484944D01*
X130406854Y-69489751D01*
X130386372Y-69750000D01*
X130406854Y-70010249D01*
X130408008Y-70015056D01*
X130408009Y-70015062D01*
X130440829Y-70151764D01*
X130467796Y-70264089D01*
X130469689Y-70268660D01*
X130469690Y-70268662D01*
X130550113Y-70462819D01*
X130567697Y-70505271D01*
X130704097Y-70727856D01*
X130873637Y-70926363D01*
X131072144Y-71095903D01*
X131294729Y-71232303D01*
X131299299Y-71234196D01*
X131299303Y-71234198D01*
X131531338Y-71330310D01*
X131535911Y-71332204D01*
X131721938Y-71376865D01*
X131724502Y-71377481D01*
X131786071Y-71412833D01*
X131818754Y-71475860D01*
X131812173Y-71546551D01*
X131768419Y-71602462D01*
X131724502Y-71622519D01*
X131535911Y-71667796D01*
X131531340Y-71669689D01*
X131531338Y-71669690D01*
X131299303Y-71765802D01*
X131299299Y-71765804D01*
X131294729Y-71767697D01*
X131072144Y-71904097D01*
X130873637Y-72073637D01*
X130704097Y-72272144D01*
X130567697Y-72494729D01*
X130467796Y-72735911D01*
X130448921Y-72814530D01*
X130408009Y-72984938D01*
X130408008Y-72984944D01*
X130406854Y-72989751D01*
X130386372Y-73250000D01*
X130406854Y-73510249D01*
X130408008Y-73515056D01*
X130408009Y-73515062D01*
X130417801Y-73555847D01*
X130467796Y-73764089D01*
X130469689Y-73768660D01*
X130469690Y-73768662D01*
X130550113Y-73962819D01*
X130567697Y-74005271D01*
X130704097Y-74227856D01*
X130873637Y-74426363D01*
X131072144Y-74595903D01*
X131294729Y-74732303D01*
X131299299Y-74734196D01*
X131299303Y-74734198D01*
X131531338Y-74830310D01*
X131535911Y-74832204D01*
X131721938Y-74876865D01*
X131724502Y-74877481D01*
X131786071Y-74912833D01*
X131818754Y-74975860D01*
X131812173Y-75046551D01*
X131768419Y-75102462D01*
X131724502Y-75122519D01*
X131535911Y-75167796D01*
X131531340Y-75169689D01*
X131531338Y-75169690D01*
X131299303Y-75265802D01*
X131299299Y-75265804D01*
X131294729Y-75267697D01*
X131072144Y-75404097D01*
X130873637Y-75573637D01*
X130704097Y-75772144D01*
X130567697Y-75994729D01*
X130467796Y-76235911D01*
X130466641Y-76240723D01*
X130408009Y-76484938D01*
X130408008Y-76484944D01*
X130406854Y-76489751D01*
X130386372Y-76750000D01*
X130406854Y-77010249D01*
X130408008Y-77015056D01*
X130408009Y-77015062D01*
X130431211Y-77111703D01*
X130467796Y-77264089D01*
X130469689Y-77268660D01*
X130469690Y-77268662D01*
X130551638Y-77466500D01*
X130567697Y-77505271D01*
X130704097Y-77727856D01*
X130873637Y-77926363D01*
X131072144Y-78095903D01*
X131294729Y-78232303D01*
X131299299Y-78234196D01*
X131299303Y-78234198D01*
X131437307Y-78291361D01*
X131535911Y-78332204D01*
X131676493Y-78365955D01*
X131724502Y-78377481D01*
X131786071Y-78412833D01*
X131818754Y-78475860D01*
X131812173Y-78546551D01*
X131768419Y-78602462D01*
X131724502Y-78622519D01*
X131535911Y-78667796D01*
X131531340Y-78669689D01*
X131531338Y-78669690D01*
X131299303Y-78765802D01*
X131299299Y-78765804D01*
X131294729Y-78767697D01*
X131072144Y-78904097D01*
X130873637Y-79073637D01*
X130704097Y-79272144D01*
X130567697Y-79494729D01*
X130565804Y-79499299D01*
X130565802Y-79499303D01*
X130470834Y-79728577D01*
X130467796Y-79735911D01*
X130461739Y-79761139D01*
X130408009Y-79984938D01*
X130408008Y-79984944D01*
X130406854Y-79989751D01*
X130386372Y-80250000D01*
X130406854Y-80510249D01*
X130408008Y-80515056D01*
X130408009Y-80515062D01*
X130436185Y-80632421D01*
X130467796Y-80764089D01*
X130469689Y-80768660D01*
X130469690Y-80768662D01*
X130550113Y-80962819D01*
X130567697Y-81005271D01*
X130704097Y-81227856D01*
X130873637Y-81426363D01*
X131072144Y-81595903D01*
X131294729Y-81732303D01*
X131299299Y-81734196D01*
X131299303Y-81734198D01*
X131521440Y-81826210D01*
X131535911Y-81832204D01*
X131689314Y-81869033D01*
X131724502Y-81877481D01*
X131786071Y-81912833D01*
X131818754Y-81975860D01*
X131812173Y-82046551D01*
X131768419Y-82102462D01*
X131724502Y-82122519D01*
X131535911Y-82167796D01*
X131531340Y-82169689D01*
X131531338Y-82169690D01*
X131299303Y-82265802D01*
X131299299Y-82265804D01*
X131294729Y-82267697D01*
X131072144Y-82404097D01*
X130873637Y-82573637D01*
X130704097Y-82772144D01*
X130567697Y-82994729D01*
X130565804Y-82999299D01*
X130565802Y-82999303D01*
X130476778Y-83214226D01*
X130467796Y-83235911D01*
X130457340Y-83279462D01*
X130408009Y-83484938D01*
X130408008Y-83484944D01*
X130406854Y-83489751D01*
X130386372Y-83750000D01*
X128851831Y-83750000D01*
X128717038Y-83429339D01*
X128715096Y-83424432D01*
X128397492Y-82570424D01*
X128382730Y-82530731D01*
X128380995Y-82525749D01*
X128086335Y-81618875D01*
X128084810Y-81613823D01*
X127828392Y-80695438D01*
X127827079Y-80690326D01*
X127609336Y-79761975D01*
X127608239Y-79756813D01*
X127503181Y-79206081D01*
X127429562Y-78820158D01*
X127428686Y-78814975D01*
X127424031Y-78783447D01*
X127289393Y-77871686D01*
X127288731Y-77866450D01*
X127189059Y-76918123D01*
X127188618Y-76912865D01*
X127128746Y-75961231D01*
X127128525Y-75955958D01*
X127116003Y-75358172D01*
X127108555Y-75002626D01*
X127108555Y-74997361D01*
X127109006Y-74975860D01*
X127120852Y-74410316D01*
X127128525Y-74044042D01*
X127128746Y-74038769D01*
X127188618Y-73087135D01*
X127189059Y-73081877D01*
X127288731Y-72133550D01*
X127289393Y-72128314D01*
X127338219Y-71797668D01*
X127428688Y-71185011D01*
X127429566Y-71179821D01*
X127436266Y-71144702D01*
X127543675Y-70581643D01*
X127608239Y-70243187D01*
X127609336Y-70238025D01*
X127827079Y-69309674D01*
X127828392Y-69304562D01*
X128084810Y-68386177D01*
X128086335Y-68381125D01*
X128380995Y-67474251D01*
X128382731Y-67469267D01*
X128715096Y-66575568D01*
X128717038Y-66570661D01*
X128849759Y-66254930D01*
X130387261Y-66254930D01*
X130406961Y-66505236D01*
X130408504Y-66514983D01*
X130467117Y-66759123D01*
X130470166Y-66768508D01*
X130566248Y-67000470D01*
X130570729Y-67009264D01*
X130700404Y-67220875D01*
X130709670Y-67226922D01*
X130719875Y-67220915D01*
X131677978Y-66262812D01*
X131684356Y-66251132D01*
X132414408Y-66251132D01*
X132414539Y-66252965D01*
X132418790Y-66259580D01*
X133378666Y-67219456D01*
X133392204Y-67226849D01*
X133398735Y-67222280D01*
X133529271Y-67009264D01*
X133533752Y-67000470D01*
X133629834Y-66768508D01*
X133632883Y-66759123D01*
X133691496Y-66514983D01*
X133693039Y-66505236D01*
X133712739Y-66254930D01*
X133712739Y-66245070D01*
X133693039Y-65994764D01*
X133691496Y-65985017D01*
X133632883Y-65740877D01*
X133629834Y-65731492D01*
X133533752Y-65499530D01*
X133529271Y-65490736D01*
X133439761Y-65344669D01*
X137692001Y-65344669D01*
X137692371Y-65351490D01*
X137697895Y-65402352D01*
X137701521Y-65417604D01*
X137746676Y-65538054D01*
X137755214Y-65553649D01*
X137831715Y-65655724D01*
X137844276Y-65668285D01*
X137946351Y-65744786D01*
X137961946Y-65753324D01*
X138082394Y-65798478D01*
X138097649Y-65802105D01*
X138148514Y-65807631D01*
X138155328Y-65808000D01*
X138427885Y-65808000D01*
X138443124Y-65803525D01*
X138444329Y-65802135D01*
X138446000Y-65794452D01*
X138446000Y-65122115D01*
X138441525Y-65106876D01*
X138440135Y-65105671D01*
X138432452Y-65104000D01*
X137710116Y-65104000D01*
X137694877Y-65108475D01*
X137693672Y-65109865D01*
X137692001Y-65117548D01*
X137692001Y-65344669D01*
X133439761Y-65344669D01*
X133399596Y-65279125D01*
X133390330Y-65273078D01*
X133380125Y-65279085D01*
X132422022Y-66237188D01*
X132414408Y-66251132D01*
X131684356Y-66251132D01*
X131685592Y-66248868D01*
X131685461Y-66247035D01*
X131681210Y-66240420D01*
X130721334Y-65280544D01*
X130707796Y-65273151D01*
X130701265Y-65277720D01*
X130570729Y-65490736D01*
X130566248Y-65499530D01*
X130470166Y-65731492D01*
X130467117Y-65740877D01*
X130408504Y-65985017D01*
X130406961Y-65994764D01*
X130387261Y-66245070D01*
X130387261Y-66254930D01*
X128849759Y-66254930D01*
X129086556Y-65691610D01*
X129088703Y-65686789D01*
X129454388Y-64909670D01*
X131073078Y-64909670D01*
X131079085Y-64919875D01*
X132037188Y-65877978D01*
X132051132Y-65885592D01*
X132052965Y-65885461D01*
X132059580Y-65881210D01*
X133019456Y-64921334D01*
X133026849Y-64907796D01*
X133022280Y-64901265D01*
X132809264Y-64770729D01*
X132800470Y-64766248D01*
X132568508Y-64670166D01*
X132559123Y-64667117D01*
X132314983Y-64608504D01*
X132305236Y-64606961D01*
X132054930Y-64587261D01*
X132045070Y-64587261D01*
X131794764Y-64606961D01*
X131785017Y-64608504D01*
X131540877Y-64667117D01*
X131531492Y-64670166D01*
X131299530Y-64766248D01*
X131290736Y-64770729D01*
X131079125Y-64900404D01*
X131073078Y-64909670D01*
X129454388Y-64909670D01*
X129494686Y-64824032D01*
X129497032Y-64819305D01*
X129623243Y-64577885D01*
X137692000Y-64577885D01*
X137696475Y-64593124D01*
X137697865Y-64594329D01*
X137705548Y-64596000D01*
X138427885Y-64596000D01*
X138443124Y-64591525D01*
X138444329Y-64590135D01*
X138446000Y-64582452D01*
X138446000Y-63910116D01*
X138441525Y-63894877D01*
X138440135Y-63893672D01*
X138432452Y-63892001D01*
X138155331Y-63892001D01*
X138148510Y-63892371D01*
X138097648Y-63897895D01*
X138082396Y-63901521D01*
X137961946Y-63946676D01*
X137946351Y-63955214D01*
X137844276Y-64031715D01*
X137831715Y-64044276D01*
X137755214Y-64146351D01*
X137746676Y-64161946D01*
X137701522Y-64282394D01*
X137697895Y-64297649D01*
X137692369Y-64348514D01*
X137692000Y-64355328D01*
X137692000Y-64577885D01*
X129623243Y-64577885D01*
X129938807Y-63974268D01*
X129941350Y-63969643D01*
X130418112Y-63143867D01*
X130420846Y-63139353D01*
X130721629Y-62665393D01*
X130931771Y-62334262D01*
X130934681Y-62329881D01*
X130999773Y-62236227D01*
X131184141Y-61970956D01*
X131364973Y-61710774D01*
X131420275Y-61666252D01*
X131490869Y-61658697D01*
X131544521Y-61682248D01*
X131785016Y-61864430D01*
X131786859Y-61865853D01*
X131800770Y-61876801D01*
X131841195Y-61908617D01*
X131849519Y-61911964D01*
X131849523Y-61911966D01*
X131872282Y-61921116D01*
X131886347Y-61927809D01*
X131915667Y-61944058D01*
X131924425Y-61946031D01*
X131936872Y-61948835D01*
X131956183Y-61954850D01*
X131976338Y-61962953D01*
X132001113Y-61965384D01*
X132009687Y-61966225D01*
X132025071Y-61968703D01*
X132049004Y-61974094D01*
X132049006Y-61974094D01*
X132057764Y-61976067D01*
X132066721Y-61975503D01*
X132066724Y-61975503D01*
X132079455Y-61974701D01*
X132099675Y-61975054D01*
X132109066Y-61975975D01*
X132121300Y-61977175D01*
X132154228Y-61970955D01*
X132169687Y-61969016D01*
X132203133Y-61966909D01*
X132211567Y-61963855D01*
X132211573Y-61963854D01*
X132223563Y-61959512D01*
X132243074Y-61954173D01*
X132264426Y-61950140D01*
X132294284Y-61934929D01*
X132308576Y-61928730D01*
X132331649Y-61920376D01*
X132331653Y-61920374D01*
X132340090Y-61917319D01*
X132357626Y-61904482D01*
X132374855Y-61893883D01*
X132386212Y-61888097D01*
X132386215Y-61888095D01*
X132394212Y-61884021D01*
X132400745Y-61877866D01*
X132400747Y-61877864D01*
X132418604Y-61861039D01*
X132430586Y-61851074D01*
X132450379Y-61836585D01*
X132450383Y-61836581D01*
X132457622Y-61831282D01*
X132470845Y-61814047D01*
X132484404Y-61799041D01*
X132500225Y-61784133D01*
X132513663Y-61761231D01*
X132524269Y-61745887D01*
X132605727Y-61644932D01*
X132934754Y-61237149D01*
X133020926Y-61130351D01*
X133023878Y-61126826D01*
X133566534Y-60502354D01*
X133569613Y-60498939D01*
X134134689Y-59894690D01*
X134137891Y-59891389D01*
X134724635Y-59308166D01*
X134727955Y-59304984D01*
X135267795Y-58806197D01*
X135335614Y-58743536D01*
X135339041Y-58740484D01*
X135349849Y-58731206D01*
X135966754Y-58201606D01*
X135970296Y-58198676D01*
X136581073Y-57711899D01*
X136599956Y-57699446D01*
X136606901Y-57695714D01*
X136606906Y-57695711D01*
X136614333Y-57691719D01*
X136615635Y-57690438D01*
X136617242Y-57689559D01*
X136623216Y-57683594D01*
X136623221Y-57683590D01*
X136667309Y-57639566D01*
X136667939Y-57638941D01*
X136712089Y-57595472D01*
X136712089Y-57595471D01*
X136718126Y-57589528D01*
X136719016Y-57587932D01*
X136720312Y-57586638D01*
X136754329Y-57524608D01*
X136754645Y-57524037D01*
X136789065Y-57462312D01*
X136789471Y-57460531D01*
X136790352Y-57458925D01*
X136805557Y-57390009D01*
X136805751Y-57389144D01*
X136819569Y-57328548D01*
X136819569Y-57328543D01*
X136821449Y-57320300D01*
X136821339Y-57318474D01*
X136821733Y-57316687D01*
X136816983Y-57246261D01*
X136816926Y-57245375D01*
X136813183Y-57183369D01*
X136813183Y-57183368D01*
X136812672Y-57174907D01*
X136812054Y-57173187D01*
X136811931Y-57171360D01*
X136787553Y-57104954D01*
X136787250Y-57104119D01*
X136766303Y-57045792D01*
X136763441Y-57037822D01*
X136762367Y-57036347D01*
X136761735Y-57034625D01*
X136719717Y-56977756D01*
X136719207Y-56977060D01*
X136699858Y-56950481D01*
X136699854Y-56950476D01*
X136697571Y-56947340D01*
X136696539Y-56946305D01*
X136695696Y-56945244D01*
X136680513Y-56924694D01*
X136680511Y-56924692D01*
X136675178Y-56917474D01*
X136651641Y-56899582D01*
X136638649Y-56888222D01*
X136612820Y-56862306D01*
X136502279Y-56751396D01*
X136470994Y-56720006D01*
X136437073Y-56657637D01*
X136442256Y-56586829D01*
X136486177Y-56529123D01*
X136933378Y-56204212D01*
X136937712Y-56201200D01*
X137590564Y-55767446D01*
X137731931Y-55673522D01*
X137736365Y-55670708D01*
X138551983Y-55176752D01*
X138556553Y-55174113D01*
X139392148Y-54714742D01*
X139396825Y-54712297D01*
X140250908Y-54288326D01*
X140255683Y-54286079D01*
X141126777Y-53898243D01*
X141131642Y-53896198D01*
X141147949Y-53889741D01*
X142018236Y-53545170D01*
X142023160Y-53543339D01*
X142362897Y-53425031D01*
X142923640Y-53229760D01*
X142928659Y-53228129D01*
X143841500Y-52952526D01*
X143846583Y-52951107D01*
X144770129Y-52713981D01*
X144775267Y-52712775D01*
X145241634Y-52613645D01*
X145708017Y-52514512D01*
X145713122Y-52513538D01*
X146653395Y-52354502D01*
X146658545Y-52353743D01*
X147141026Y-52292792D01*
X147604561Y-52234234D01*
X147609810Y-52233682D01*
X148311799Y-52174734D01*
X148560014Y-52153891D01*
X148565272Y-52153560D01*
X149517948Y-52113631D01*
X149523225Y-52113520D01*
X150476775Y-52113520D01*
X150482052Y-52113631D01*
G37*
%TD.AperFunction*%
%TA.AperFunction,Conductor*%
G36*
X153769897Y-78498502D02*
G01*
X153816390Y-78552158D01*
X153826494Y-78622432D01*
X153810231Y-78668636D01*
X153790855Y-78701399D01*
X153788644Y-78709010D01*
X153788643Y-78709012D01*
X153781673Y-78733003D01*
X153744438Y-78861169D01*
X153743934Y-78867574D01*
X153743933Y-78867579D01*
X153741693Y-78896042D01*
X153741500Y-78898498D01*
X153741500Y-79331502D01*
X153741693Y-79333950D01*
X153741693Y-79333958D01*
X153743625Y-79358500D01*
X153744438Y-79368831D01*
X153755912Y-79408324D01*
X153781823Y-79497511D01*
X153790855Y-79528601D01*
X153875547Y-79671807D01*
X153878229Y-79674489D01*
X153903502Y-79738861D01*
X153889600Y-79808484D01*
X153879428Y-79824312D01*
X153875547Y-79828193D01*
X153790855Y-79971399D01*
X153788644Y-79979010D01*
X153788643Y-79979012D01*
X153785523Y-79989751D01*
X153744438Y-80131169D01*
X153743934Y-80137574D01*
X153743933Y-80137579D01*
X153741693Y-80166042D01*
X153741500Y-80168498D01*
X153741500Y-80601502D01*
X153744438Y-80638831D01*
X153749681Y-80656876D01*
X153776795Y-80750204D01*
X153790855Y-80798601D01*
X153875547Y-80941807D01*
X153878229Y-80944489D01*
X153903502Y-81008861D01*
X153889600Y-81078484D01*
X153879428Y-81094312D01*
X153875547Y-81098193D01*
X153790855Y-81241399D01*
X153788644Y-81249010D01*
X153788643Y-81249012D01*
X153787924Y-81251486D01*
X153744438Y-81401169D01*
X153743934Y-81407574D01*
X153743933Y-81407579D01*
X153741693Y-81436042D01*
X153741500Y-81438498D01*
X153741500Y-81871502D01*
X153741693Y-81873950D01*
X153741693Y-81873958D01*
X153743456Y-81896351D01*
X153744438Y-81908831D01*
X153763912Y-81975860D01*
X153788586Y-82060790D01*
X153790855Y-82068601D01*
X153794892Y-82075427D01*
X153871509Y-82204980D01*
X153871511Y-82204983D01*
X153875547Y-82211807D01*
X153990145Y-82326405D01*
X154024171Y-82388717D01*
X154019106Y-82459532D01*
X153976559Y-82516368D01*
X153910039Y-82541179D01*
X153901050Y-82541500D01*
X153349600Y-82541500D01*
X153346354Y-82541837D01*
X153346350Y-82541837D01*
X153250692Y-82551762D01*
X153250688Y-82551763D01*
X153243834Y-82552474D01*
X153237298Y-82554655D01*
X153237296Y-82554655D01*
X153105194Y-82598728D01*
X153076054Y-82608450D01*
X152925652Y-82701522D01*
X152920479Y-82706704D01*
X152838862Y-82788463D01*
X152776579Y-82822542D01*
X152705759Y-82817539D01*
X152660671Y-82788618D01*
X152578171Y-82706261D01*
X152566760Y-82697249D01*
X152428757Y-82612184D01*
X152415576Y-82606037D01*
X152261290Y-82554862D01*
X152247914Y-82551995D01*
X152153562Y-82542328D01*
X152147145Y-82542000D01*
X152022115Y-82542000D01*
X152006876Y-82546475D01*
X152005671Y-82547865D01*
X152004000Y-82555548D01*
X152004000Y-83878000D01*
X151983998Y-83946121D01*
X151930342Y-83992614D01*
X151878000Y-84004000D01*
X150660116Y-84004000D01*
X150644877Y-84008475D01*
X150643672Y-84009865D01*
X150642001Y-84017548D01*
X150642001Y-84127500D01*
X150621999Y-84195621D01*
X150568343Y-84242114D01*
X150516001Y-84253500D01*
X150483295Y-84253500D01*
X150415174Y-84233498D01*
X150394200Y-84216595D01*
X149752770Y-83575164D01*
X149085353Y-82907747D01*
X149077813Y-82899461D01*
X149073701Y-82892982D01*
X149055742Y-82876117D01*
X149024050Y-82846357D01*
X149021208Y-82843602D01*
X149016754Y-82839148D01*
X148982728Y-82776836D01*
X148980505Y-82737209D01*
X148982672Y-82716057D01*
X148983000Y-82709646D01*
X148983000Y-82514175D01*
X149003002Y-82446054D01*
X149056658Y-82399561D01*
X149126932Y-82389457D01*
X149173140Y-82405722D01*
X149179777Y-82409647D01*
X149194210Y-82415893D01*
X149340065Y-82458269D01*
X149352667Y-82460570D01*
X149381084Y-82462807D01*
X149386014Y-82463000D01*
X150002885Y-82463000D01*
X150018124Y-82458525D01*
X150019329Y-82457135D01*
X150021000Y-82449452D01*
X150021000Y-82444884D01*
X150529000Y-82444884D01*
X150533475Y-82460123D01*
X150534865Y-82461328D01*
X150542548Y-82462999D01*
X150868993Y-82462999D01*
X150937114Y-82483001D01*
X150983607Y-82536657D01*
X150993711Y-82606931D01*
X150964217Y-82671511D01*
X150935294Y-82696144D01*
X150932194Y-82698063D01*
X150920792Y-82707099D01*
X150806261Y-82821829D01*
X150797249Y-82833240D01*
X150712184Y-82971243D01*
X150706037Y-82984424D01*
X150654862Y-83138710D01*
X150651995Y-83152086D01*
X150642328Y-83246438D01*
X150642000Y-83252855D01*
X150642000Y-83477885D01*
X150646475Y-83493124D01*
X150647865Y-83494329D01*
X150655548Y-83496000D01*
X151477885Y-83496000D01*
X151493124Y-83491525D01*
X151494329Y-83490135D01*
X151496000Y-83482452D01*
X151496000Y-82560116D01*
X151491525Y-82544877D01*
X151481817Y-82536465D01*
X151443433Y-82476739D01*
X151443433Y-82405742D01*
X151481816Y-82346016D01*
X151498490Y-82334010D01*
X151512104Y-82323449D01*
X151618449Y-82217104D01*
X151628089Y-82204678D01*
X151704648Y-82075221D01*
X151710893Y-82060790D01*
X151749939Y-81926395D01*
X151749899Y-81912294D01*
X151742630Y-81909000D01*
X150547115Y-81909000D01*
X150531876Y-81913475D01*
X150530671Y-81914865D01*
X150529000Y-81922548D01*
X150529000Y-82444884D01*
X150021000Y-82444884D01*
X150021000Y-81527000D01*
X150041002Y-81458879D01*
X150094658Y-81412386D01*
X150147000Y-81401000D01*
X151736878Y-81401000D01*
X151750409Y-81397027D01*
X151751544Y-81389129D01*
X151710893Y-81249210D01*
X151704648Y-81234779D01*
X151628089Y-81105323D01*
X151622129Y-81097640D01*
X151596180Y-81031556D01*
X151610078Y-80961933D01*
X151620421Y-80945839D01*
X151624453Y-80941807D01*
X151709145Y-80798601D01*
X151723206Y-80750204D01*
X151750319Y-80656876D01*
X151755562Y-80638831D01*
X151758500Y-80601502D01*
X151758500Y-80168498D01*
X151758307Y-80166042D01*
X151756067Y-80137579D01*
X151756066Y-80137574D01*
X151755562Y-80131169D01*
X151714477Y-79989751D01*
X151711357Y-79979012D01*
X151711356Y-79979010D01*
X151709145Y-79971399D01*
X151624453Y-79828193D01*
X151621771Y-79825511D01*
X151596498Y-79761139D01*
X151610400Y-79691516D01*
X151620572Y-79675688D01*
X151624453Y-79671807D01*
X151709145Y-79528601D01*
X151718178Y-79497511D01*
X151744088Y-79408324D01*
X151755562Y-79368831D01*
X151756376Y-79358500D01*
X151758307Y-79333958D01*
X151758307Y-79333950D01*
X151758500Y-79331502D01*
X151758500Y-78898498D01*
X151758307Y-78896042D01*
X151756067Y-78867579D01*
X151756066Y-78867574D01*
X151755562Y-78861169D01*
X151718327Y-78733003D01*
X151711357Y-78709012D01*
X151711356Y-78709010D01*
X151709145Y-78701399D01*
X151689769Y-78668637D01*
X151672311Y-78599822D01*
X151694828Y-78532491D01*
X151750173Y-78488022D01*
X151798224Y-78478500D01*
X153701776Y-78478500D01*
X153769897Y-78498502D01*
G37*
%TD.AperFunction*%
%TD*%
M02*
