%TF.GenerationSoftware,KiCad,Pcbnew,(6.0.9)*%
%TF.CreationDate,2024-02-23T16:04:20+01:00*%
%TF.ProjectId,HMW-IO-12-FM,484d572d-494f-42d3-9132-2d464d2e6b69,rev?*%
%TF.SameCoordinates,Original*%
%TF.FileFunction,Legend,Top*%
%TF.FilePolarity,Positive*%
%FSLAX46Y46*%
G04 Gerber Fmt 4.6, Leading zero omitted, Abs format (unit mm)*
G04 Created by KiCad (PCBNEW (6.0.9)) date 2024-02-23 16:04:20*
%MOMM*%
%LPD*%
G01*
G04 APERTURE LIST*
%ADD10C,0.300000*%
%ADD11C,0.150000*%
%ADD12C,0.254000*%
%ADD13C,0.120000*%
%ADD14C,0.200000*%
%ADD15C,0.127000*%
G04 APERTURE END LIST*
D10*
X140214285Y-60678571D02*
X139714285Y-59964285D01*
X139357142Y-60678571D02*
X139357142Y-59178571D01*
X139928571Y-59178571D01*
X140071428Y-59250000D01*
X140142857Y-59321428D01*
X140214285Y-59464285D01*
X140214285Y-59678571D01*
X140142857Y-59821428D01*
X140071428Y-59892857D01*
X139928571Y-59964285D01*
X139357142Y-59964285D01*
X140785714Y-60607142D02*
X141000000Y-60678571D01*
X141357142Y-60678571D01*
X141500000Y-60607142D01*
X141571428Y-60535714D01*
X141642857Y-60392857D01*
X141642857Y-60250000D01*
X141571428Y-60107142D01*
X141500000Y-60035714D01*
X141357142Y-59964285D01*
X141071428Y-59892857D01*
X140928571Y-59821428D01*
X140857142Y-59750000D01*
X140785714Y-59607142D01*
X140785714Y-59464285D01*
X140857142Y-59321428D01*
X140928571Y-59250000D01*
X141071428Y-59178571D01*
X141428571Y-59178571D01*
X141642857Y-59250000D01*
X142928571Y-59678571D02*
X142928571Y-60678571D01*
X142571428Y-59107142D02*
X142214285Y-60178571D01*
X143142857Y-60178571D01*
X143928571Y-59821428D02*
X143785714Y-59750000D01*
X143714285Y-59678571D01*
X143642857Y-59535714D01*
X143642857Y-59464285D01*
X143714285Y-59321428D01*
X143785714Y-59250000D01*
X143928571Y-59178571D01*
X144214285Y-59178571D01*
X144357142Y-59250000D01*
X144428571Y-59321428D01*
X144500000Y-59464285D01*
X144500000Y-59535714D01*
X144428571Y-59678571D01*
X144357142Y-59750000D01*
X144214285Y-59821428D01*
X143928571Y-59821428D01*
X143785714Y-59892857D01*
X143714285Y-59964285D01*
X143642857Y-60107142D01*
X143642857Y-60392857D01*
X143714285Y-60535714D01*
X143785714Y-60607142D01*
X143928571Y-60678571D01*
X144214285Y-60678571D01*
X144357142Y-60607142D01*
X144428571Y-60535714D01*
X144500000Y-60392857D01*
X144500000Y-60107142D01*
X144428571Y-59964285D01*
X144357142Y-59892857D01*
X144214285Y-59821428D01*
X145857142Y-59178571D02*
X145142857Y-59178571D01*
X145071428Y-59892857D01*
X145142857Y-59821428D01*
X145285714Y-59750000D01*
X145642857Y-59750000D01*
X145785714Y-59821428D01*
X145857142Y-59892857D01*
X145928571Y-60035714D01*
X145928571Y-60392857D01*
X145857142Y-60535714D01*
X145785714Y-60607142D01*
X145642857Y-60678571D01*
X145285714Y-60678571D01*
X145142857Y-60607142D01*
X145071428Y-60535714D01*
X147714285Y-60678571D02*
X147714285Y-59178571D01*
X149500000Y-59107142D02*
X148214285Y-61035714D01*
X150285714Y-59178571D02*
X150571428Y-59178571D01*
X150714285Y-59250000D01*
X150857142Y-59392857D01*
X150928571Y-59678571D01*
X150928571Y-60178571D01*
X150857142Y-60464285D01*
X150714285Y-60607142D01*
X150571428Y-60678571D01*
X150285714Y-60678571D01*
X150142857Y-60607142D01*
X150000000Y-60464285D01*
X149928571Y-60178571D01*
X149928571Y-59678571D01*
X150000000Y-59392857D01*
X150142857Y-59250000D01*
X150285714Y-59178571D01*
X152714285Y-60678571D02*
X152714285Y-59678571D01*
X152714285Y-59821428D02*
X152785714Y-59750000D01*
X152928571Y-59678571D01*
X153142857Y-59678571D01*
X153285714Y-59750000D01*
X153357142Y-59892857D01*
X153357142Y-60678571D01*
X153357142Y-59892857D02*
X153428571Y-59750000D01*
X153571428Y-59678571D01*
X153785714Y-59678571D01*
X153928571Y-59750000D01*
X154000000Y-59892857D01*
X154000000Y-60678571D01*
X154928571Y-60678571D02*
X154785714Y-60607142D01*
X154714285Y-60535714D01*
X154642857Y-60392857D01*
X154642857Y-59964285D01*
X154714285Y-59821428D01*
X154785714Y-59750000D01*
X154928571Y-59678571D01*
X155142857Y-59678571D01*
X155285714Y-59750000D01*
X155357142Y-59821428D01*
X155428571Y-59964285D01*
X155428571Y-60392857D01*
X155357142Y-60535714D01*
X155285714Y-60607142D01*
X155142857Y-60678571D01*
X154928571Y-60678571D01*
X156714285Y-60678571D02*
X156714285Y-59178571D01*
X156714285Y-60607142D02*
X156571428Y-60678571D01*
X156285714Y-60678571D01*
X156142857Y-60607142D01*
X156071428Y-60535714D01*
X156000000Y-60392857D01*
X156000000Y-59964285D01*
X156071428Y-59821428D01*
X156142857Y-59750000D01*
X156285714Y-59678571D01*
X156571428Y-59678571D01*
X156714285Y-59750000D01*
X158071428Y-59678571D02*
X158071428Y-60678571D01*
X157428571Y-59678571D02*
X157428571Y-60464285D01*
X157500000Y-60607142D01*
X157642857Y-60678571D01*
X157857142Y-60678571D01*
X158000000Y-60607142D01*
X158071428Y-60535714D01*
X159000000Y-60678571D02*
X158857142Y-60607142D01*
X158785714Y-60464285D01*
X158785714Y-59178571D01*
X160142857Y-60607142D02*
X160000000Y-60678571D01*
X159714285Y-60678571D01*
X159571428Y-60607142D01*
X159500000Y-60464285D01*
X159500000Y-59892857D01*
X159571428Y-59750000D01*
X159714285Y-59678571D01*
X160000000Y-59678571D01*
X160142857Y-59750000D01*
X160214285Y-59892857D01*
X160214285Y-60035714D01*
X159500000Y-60178571D01*
X141000000Y-55721071D02*
X141000000Y-54221071D01*
X141000000Y-54935357D02*
X141857142Y-54935357D01*
X141857142Y-55721071D02*
X141857142Y-54221071D01*
X142571428Y-55721071D02*
X142571428Y-54221071D01*
X143071428Y-55292500D01*
X143571428Y-54221071D01*
X143571428Y-55721071D01*
X144142857Y-54221071D02*
X144500000Y-55721071D01*
X144785714Y-54649642D01*
X145071428Y-55721071D01*
X145428571Y-54221071D01*
X146000000Y-55149642D02*
X147142857Y-55149642D01*
X147857142Y-55721071D02*
X147857142Y-54221071D01*
X148857142Y-54221071D02*
X149142857Y-54221071D01*
X149285714Y-54292500D01*
X149428571Y-54435357D01*
X149500000Y-54721071D01*
X149500000Y-55221071D01*
X149428571Y-55506785D01*
X149285714Y-55649642D01*
X149142857Y-55721071D01*
X148857142Y-55721071D01*
X148714285Y-55649642D01*
X148571428Y-55506785D01*
X148500000Y-55221071D01*
X148500000Y-54721071D01*
X148571428Y-54435357D01*
X148714285Y-54292500D01*
X148857142Y-54221071D01*
X150142857Y-55149642D02*
X151285714Y-55149642D01*
X152785714Y-55721071D02*
X151928571Y-55721071D01*
X152357142Y-55721071D02*
X152357142Y-54221071D01*
X152214285Y-54435357D01*
X152071428Y-54578214D01*
X151928571Y-54649642D01*
X153357142Y-54363928D02*
X153428571Y-54292500D01*
X153571428Y-54221071D01*
X153928571Y-54221071D01*
X154071428Y-54292500D01*
X154142857Y-54363928D01*
X154214285Y-54506785D01*
X154214285Y-54649642D01*
X154142857Y-54863928D01*
X153285714Y-55721071D01*
X154214285Y-55721071D01*
X154857142Y-55149642D02*
X156000000Y-55149642D01*
X157214285Y-54935357D02*
X156714285Y-54935357D01*
X156714285Y-55721071D02*
X156714285Y-54221071D01*
X157428571Y-54221071D01*
X158000000Y-55721071D02*
X158000000Y-54221071D01*
X158500000Y-55292500D01*
X159000000Y-54221071D01*
X159000000Y-55721071D01*
X144607142Y-58136071D02*
X144607142Y-57136071D01*
X144607142Y-57278928D02*
X144678571Y-57207500D01*
X144821428Y-57136071D01*
X145035714Y-57136071D01*
X145178571Y-57207500D01*
X145250000Y-57350357D01*
X145250000Y-58136071D01*
X145250000Y-57350357D02*
X145321428Y-57207500D01*
X145464285Y-57136071D01*
X145678571Y-57136071D01*
X145821428Y-57207500D01*
X145892857Y-57350357D01*
X145892857Y-58136071D01*
X147250000Y-58136071D02*
X147250000Y-57350357D01*
X147178571Y-57207500D01*
X147035714Y-57136071D01*
X146750000Y-57136071D01*
X146607142Y-57207500D01*
X147250000Y-58064642D02*
X147107142Y-58136071D01*
X146750000Y-58136071D01*
X146607142Y-58064642D01*
X146535714Y-57921785D01*
X146535714Y-57778928D01*
X146607142Y-57636071D01*
X146750000Y-57564642D01*
X147107142Y-57564642D01*
X147250000Y-57493214D01*
X147821428Y-58136071D02*
X148607142Y-57136071D01*
X147821428Y-57136071D02*
X148607142Y-58136071D01*
X149035714Y-58136071D02*
X149821428Y-57136071D01*
X149035714Y-57136071D02*
X149821428Y-58136071D01*
X150250000Y-56636071D02*
X151178571Y-56636071D01*
X150678571Y-57207500D01*
X150892857Y-57207500D01*
X151035714Y-57278928D01*
X151107142Y-57350357D01*
X151178571Y-57493214D01*
X151178571Y-57850357D01*
X151107142Y-57993214D01*
X151035714Y-58064642D01*
X150892857Y-58136071D01*
X150464285Y-58136071D01*
X150321428Y-58064642D01*
X150250000Y-57993214D01*
X152607142Y-58136071D02*
X151750000Y-58136071D01*
X152178571Y-58136071D02*
X152178571Y-56636071D01*
X152035714Y-56850357D01*
X151892857Y-56993214D01*
X151750000Y-57064642D01*
X153535714Y-56636071D02*
X153678571Y-56636071D01*
X153821428Y-56707500D01*
X153892857Y-56778928D01*
X153964285Y-56921785D01*
X154035714Y-57207500D01*
X154035714Y-57564642D01*
X153964285Y-57850357D01*
X153892857Y-57993214D01*
X153821428Y-58064642D01*
X153678571Y-58136071D01*
X153535714Y-58136071D01*
X153392857Y-58064642D01*
X153321428Y-57993214D01*
X153250000Y-57850357D01*
X153178571Y-57564642D01*
X153178571Y-57207500D01*
X153250000Y-56921785D01*
X153321428Y-56778928D01*
X153392857Y-56707500D01*
X153535714Y-56636071D01*
X155392857Y-56636071D02*
X154678571Y-56636071D01*
X154607142Y-57350357D01*
X154678571Y-57278928D01*
X154821428Y-57207500D01*
X155178571Y-57207500D01*
X155321428Y-57278928D01*
X155392857Y-57350357D01*
X155464285Y-57493214D01*
X155464285Y-57850357D01*
X155392857Y-57993214D01*
X155321428Y-58064642D01*
X155178571Y-58136071D01*
X154821428Y-58136071D01*
X154678571Y-58064642D01*
X154607142Y-57993214D01*
D11*
%TO.C,C17*%
X161457142Y-82457142D02*
X161409523Y-82504761D01*
X161266666Y-82552380D01*
X161171428Y-82552380D01*
X161028571Y-82504761D01*
X160933333Y-82409523D01*
X160885714Y-82314285D01*
X160838095Y-82123809D01*
X160838095Y-81980952D01*
X160885714Y-81790476D01*
X160933333Y-81695238D01*
X161028571Y-81600000D01*
X161171428Y-81552380D01*
X161266666Y-81552380D01*
X161409523Y-81600000D01*
X161457142Y-81647619D01*
X162409523Y-82552380D02*
X161838095Y-82552380D01*
X162123809Y-82552380D02*
X162123809Y-81552380D01*
X162028571Y-81695238D01*
X161933333Y-81790476D01*
X161838095Y-81838095D01*
X162742857Y-81552380D02*
X163409523Y-81552380D01*
X162980952Y-82552380D01*
%TO.C,L1*%
X145333333Y-80702380D02*
X144857142Y-80702380D01*
X144857142Y-79702380D01*
X146190476Y-80702380D02*
X145619047Y-80702380D01*
X145904761Y-80702380D02*
X145904761Y-79702380D01*
X145809523Y-79845238D01*
X145714285Y-79940476D01*
X145619047Y-79988095D01*
D12*
%TO.C,SI1*%
X164447693Y-88493745D02*
X164618746Y-88408218D01*
X164832562Y-88194403D01*
X164875325Y-88066113D01*
X164875325Y-87980587D01*
X164832562Y-87852298D01*
X164747035Y-87766772D01*
X164618746Y-87724008D01*
X164533220Y-87724008D01*
X164404930Y-87766772D01*
X164191115Y-87895061D01*
X164062825Y-87937824D01*
X163977299Y-87937824D01*
X163849010Y-87895061D01*
X163763483Y-87809535D01*
X163720720Y-87681245D01*
X163720720Y-87595719D01*
X163763483Y-87467430D01*
X163977299Y-87253614D01*
X164148352Y-87168088D01*
X165388482Y-87638482D02*
X164490457Y-86740457D01*
X166286508Y-86740457D02*
X165773350Y-87253614D01*
X166029929Y-86997035D02*
X165131903Y-86099010D01*
X165174667Y-86312825D01*
X165174667Y-86483878D01*
X165131903Y-86612167D01*
D11*
%TO.C,R18*%
X152107142Y-85952380D02*
X151773809Y-85476190D01*
X151535714Y-85952380D02*
X151535714Y-84952380D01*
X151916666Y-84952380D01*
X152011904Y-85000000D01*
X152059523Y-85047619D01*
X152107142Y-85142857D01*
X152107142Y-85285714D01*
X152059523Y-85380952D01*
X152011904Y-85428571D01*
X151916666Y-85476190D01*
X151535714Y-85476190D01*
X153059523Y-85952380D02*
X152488095Y-85952380D01*
X152773809Y-85952380D02*
X152773809Y-84952380D01*
X152678571Y-85095238D01*
X152583333Y-85190476D01*
X152488095Y-85238095D01*
X153630952Y-85380952D02*
X153535714Y-85333333D01*
X153488095Y-85285714D01*
X153440476Y-85190476D01*
X153440476Y-85142857D01*
X153488095Y-85047619D01*
X153535714Y-85000000D01*
X153630952Y-84952380D01*
X153821428Y-84952380D01*
X153916666Y-85000000D01*
X153964285Y-85047619D01*
X154011904Y-85142857D01*
X154011904Y-85190476D01*
X153964285Y-85285714D01*
X153916666Y-85333333D01*
X153821428Y-85380952D01*
X153630952Y-85380952D01*
X153535714Y-85428571D01*
X153488095Y-85476190D01*
X153440476Y-85571428D01*
X153440476Y-85761904D01*
X153488095Y-85857142D01*
X153535714Y-85904761D01*
X153630952Y-85952380D01*
X153821428Y-85952380D01*
X153916666Y-85904761D01*
X153964285Y-85857142D01*
X154011904Y-85761904D01*
X154011904Y-85571428D01*
X153964285Y-85476190D01*
X153916666Y-85428571D01*
X153821428Y-85380952D01*
%TO.C,R17*%
X156202380Y-88892857D02*
X155726190Y-89226190D01*
X156202380Y-89464285D02*
X155202380Y-89464285D01*
X155202380Y-89083333D01*
X155250000Y-88988095D01*
X155297619Y-88940476D01*
X155392857Y-88892857D01*
X155535714Y-88892857D01*
X155630952Y-88940476D01*
X155678571Y-88988095D01*
X155726190Y-89083333D01*
X155726190Y-89464285D01*
X156202380Y-87940476D02*
X156202380Y-88511904D01*
X156202380Y-88226190D02*
X155202380Y-88226190D01*
X155345238Y-88321428D01*
X155440476Y-88416666D01*
X155488095Y-88511904D01*
X155202380Y-87607142D02*
X155202380Y-86940476D01*
X156202380Y-87369047D01*
%TO.C,R16*%
X158202380Y-76542857D02*
X157726190Y-76876190D01*
X158202380Y-77114285D02*
X157202380Y-77114285D01*
X157202380Y-76733333D01*
X157250000Y-76638095D01*
X157297619Y-76590476D01*
X157392857Y-76542857D01*
X157535714Y-76542857D01*
X157630952Y-76590476D01*
X157678571Y-76638095D01*
X157726190Y-76733333D01*
X157726190Y-77114285D01*
X158202380Y-75590476D02*
X158202380Y-76161904D01*
X158202380Y-75876190D02*
X157202380Y-75876190D01*
X157345238Y-75971428D01*
X157440476Y-76066666D01*
X157488095Y-76161904D01*
X157202380Y-74733333D02*
X157202380Y-74923809D01*
X157250000Y-75019047D01*
X157297619Y-75066666D01*
X157440476Y-75161904D01*
X157630952Y-75209523D01*
X158011904Y-75209523D01*
X158107142Y-75161904D01*
X158154761Y-75114285D01*
X158202380Y-75019047D01*
X158202380Y-74828571D01*
X158154761Y-74733333D01*
X158107142Y-74685714D01*
X158011904Y-74638095D01*
X157773809Y-74638095D01*
X157678571Y-74685714D01*
X157630952Y-74733333D01*
X157583333Y-74828571D01*
X157583333Y-75019047D01*
X157630952Y-75114285D01*
X157678571Y-75161904D01*
X157773809Y-75209523D01*
%TO.C,R14*%
X157157142Y-58452380D02*
X156823809Y-57976190D01*
X156585714Y-58452380D02*
X156585714Y-57452380D01*
X156966666Y-57452380D01*
X157061904Y-57500000D01*
X157109523Y-57547619D01*
X157157142Y-57642857D01*
X157157142Y-57785714D01*
X157109523Y-57880952D01*
X157061904Y-57928571D01*
X156966666Y-57976190D01*
X156585714Y-57976190D01*
X158109523Y-58452380D02*
X157538095Y-58452380D01*
X157823809Y-58452380D02*
X157823809Y-57452380D01*
X157728571Y-57595238D01*
X157633333Y-57690476D01*
X157538095Y-57738095D01*
X158966666Y-57785714D02*
X158966666Y-58452380D01*
X158728571Y-57404761D02*
X158490476Y-58119047D01*
X159109523Y-58119047D01*
%TO.C,IC4*%
X151773809Y-76802380D02*
X151773809Y-75802380D01*
X152821428Y-76707142D02*
X152773809Y-76754761D01*
X152630952Y-76802380D01*
X152535714Y-76802380D01*
X152392857Y-76754761D01*
X152297619Y-76659523D01*
X152250000Y-76564285D01*
X152202380Y-76373809D01*
X152202380Y-76230952D01*
X152250000Y-76040476D01*
X152297619Y-75945238D01*
X152392857Y-75850000D01*
X152535714Y-75802380D01*
X152630952Y-75802380D01*
X152773809Y-75850000D01*
X152821428Y-75897619D01*
X153678571Y-76135714D02*
X153678571Y-76802380D01*
X153440476Y-75754761D02*
X153202380Y-76469047D01*
X153821428Y-76469047D01*
%TO.C,D3*%
X138202380Y-81238095D02*
X137202380Y-81238095D01*
X137202380Y-81000000D01*
X137250000Y-80857142D01*
X137345238Y-80761904D01*
X137440476Y-80714285D01*
X137630952Y-80666666D01*
X137773809Y-80666666D01*
X137964285Y-80714285D01*
X138059523Y-80761904D01*
X138154761Y-80857142D01*
X138202380Y-81000000D01*
X138202380Y-81238095D01*
X137202380Y-80333333D02*
X137202380Y-79714285D01*
X137583333Y-80047619D01*
X137583333Y-79904761D01*
X137630952Y-79809523D01*
X137678571Y-79761904D01*
X137773809Y-79714285D01*
X138011904Y-79714285D01*
X138107142Y-79761904D01*
X138154761Y-79809523D01*
X138202380Y-79904761D01*
X138202380Y-80190476D01*
X138154761Y-80285714D01*
X138107142Y-80333333D01*
%TO.C,D2*%
X159452380Y-94988095D02*
X158452380Y-94988095D01*
X158452380Y-94750000D01*
X158500000Y-94607142D01*
X158595238Y-94511904D01*
X158690476Y-94464285D01*
X158880952Y-94416666D01*
X159023809Y-94416666D01*
X159214285Y-94464285D01*
X159309523Y-94511904D01*
X159404761Y-94607142D01*
X159452380Y-94750000D01*
X159452380Y-94988095D01*
X158547619Y-94035714D02*
X158500000Y-93988095D01*
X158452380Y-93892857D01*
X158452380Y-93654761D01*
X158500000Y-93559523D01*
X158547619Y-93511904D01*
X158642857Y-93464285D01*
X158738095Y-93464285D01*
X158880952Y-93511904D01*
X159452380Y-94083333D01*
X159452380Y-93464285D01*
%TO.C,D1*%
X164366577Y-61526814D02*
X163659471Y-62233921D01*
X163491112Y-62065562D01*
X163423768Y-61930875D01*
X163423768Y-61796188D01*
X163457440Y-61695173D01*
X163558455Y-61526814D01*
X163659471Y-61425799D01*
X163827829Y-61324783D01*
X163928845Y-61291112D01*
X164063532Y-61291112D01*
X164198219Y-61358455D01*
X164366577Y-61526814D01*
X163289081Y-60449318D02*
X163693142Y-60853379D01*
X163491112Y-60651348D02*
X162784005Y-61358455D01*
X162952364Y-61324783D01*
X163087051Y-61324783D01*
X163188066Y-61358455D01*
%TO.C,C22*%
X138607142Y-71607142D02*
X138559523Y-71654761D01*
X138416666Y-71702380D01*
X138321428Y-71702380D01*
X138178571Y-71654761D01*
X138083333Y-71559523D01*
X138035714Y-71464285D01*
X137988095Y-71273809D01*
X137988095Y-71130952D01*
X138035714Y-70940476D01*
X138083333Y-70845238D01*
X138178571Y-70750000D01*
X138321428Y-70702380D01*
X138416666Y-70702380D01*
X138559523Y-70750000D01*
X138607142Y-70797619D01*
X138988095Y-70797619D02*
X139035714Y-70750000D01*
X139130952Y-70702380D01*
X139369047Y-70702380D01*
X139464285Y-70750000D01*
X139511904Y-70797619D01*
X139559523Y-70892857D01*
X139559523Y-70988095D01*
X139511904Y-71130952D01*
X138940476Y-71702380D01*
X139559523Y-71702380D01*
X139940476Y-70797619D02*
X139988095Y-70750000D01*
X140083333Y-70702380D01*
X140321428Y-70702380D01*
X140416666Y-70750000D01*
X140464285Y-70797619D01*
X140511904Y-70892857D01*
X140511904Y-70988095D01*
X140464285Y-71130952D01*
X139892857Y-71702380D01*
X140511904Y-71702380D01*
%TO.C,C21*%
X144107142Y-70355357D02*
X144154761Y-70402976D01*
X144202380Y-70545833D01*
X144202380Y-70641071D01*
X144154761Y-70783928D01*
X144059523Y-70879166D01*
X143964285Y-70926785D01*
X143773809Y-70974404D01*
X143630952Y-70974404D01*
X143440476Y-70926785D01*
X143345238Y-70879166D01*
X143250000Y-70783928D01*
X143202380Y-70641071D01*
X143202380Y-70545833D01*
X143250000Y-70402976D01*
X143297619Y-70355357D01*
X143297619Y-69974404D02*
X143250000Y-69926785D01*
X143202380Y-69831547D01*
X143202380Y-69593452D01*
X143250000Y-69498214D01*
X143297619Y-69450595D01*
X143392857Y-69402976D01*
X143488095Y-69402976D01*
X143630952Y-69450595D01*
X144202380Y-70022023D01*
X144202380Y-69402976D01*
X144202380Y-68450595D02*
X144202380Y-69022023D01*
X144202380Y-68736309D02*
X143202380Y-68736309D01*
X143345238Y-68831547D01*
X143440476Y-68926785D01*
X143488095Y-69022023D01*
%TO.C,C20*%
X150907142Y-67007142D02*
X150859523Y-67054761D01*
X150716666Y-67102380D01*
X150621428Y-67102380D01*
X150478571Y-67054761D01*
X150383333Y-66959523D01*
X150335714Y-66864285D01*
X150288095Y-66673809D01*
X150288095Y-66530952D01*
X150335714Y-66340476D01*
X150383333Y-66245238D01*
X150478571Y-66150000D01*
X150621428Y-66102380D01*
X150716666Y-66102380D01*
X150859523Y-66150000D01*
X150907142Y-66197619D01*
X151288095Y-66197619D02*
X151335714Y-66150000D01*
X151430952Y-66102380D01*
X151669047Y-66102380D01*
X151764285Y-66150000D01*
X151811904Y-66197619D01*
X151859523Y-66292857D01*
X151859523Y-66388095D01*
X151811904Y-66530952D01*
X151240476Y-67102380D01*
X151859523Y-67102380D01*
X152478571Y-66102380D02*
X152573809Y-66102380D01*
X152669047Y-66150000D01*
X152716666Y-66197619D01*
X152764285Y-66292857D01*
X152811904Y-66483333D01*
X152811904Y-66721428D01*
X152764285Y-66911904D01*
X152716666Y-67007142D01*
X152669047Y-67054761D01*
X152573809Y-67102380D01*
X152478571Y-67102380D01*
X152383333Y-67054761D01*
X152335714Y-67007142D01*
X152288095Y-66911904D01*
X152240476Y-66721428D01*
X152240476Y-66483333D01*
X152288095Y-66292857D01*
X152335714Y-66197619D01*
X152383333Y-66150000D01*
X152478571Y-66102380D01*
%TO.C,C19*%
X148107142Y-85392857D02*
X148154761Y-85440476D01*
X148202380Y-85583333D01*
X148202380Y-85678571D01*
X148154761Y-85821428D01*
X148059523Y-85916666D01*
X147964285Y-85964285D01*
X147773809Y-86011904D01*
X147630952Y-86011904D01*
X147440476Y-85964285D01*
X147345238Y-85916666D01*
X147250000Y-85821428D01*
X147202380Y-85678571D01*
X147202380Y-85583333D01*
X147250000Y-85440476D01*
X147297619Y-85392857D01*
X148202380Y-84440476D02*
X148202380Y-85011904D01*
X148202380Y-84726190D02*
X147202380Y-84726190D01*
X147345238Y-84821428D01*
X147440476Y-84916666D01*
X147488095Y-85011904D01*
X148202380Y-83964285D02*
X148202380Y-83773809D01*
X148154761Y-83678571D01*
X148107142Y-83630952D01*
X147964285Y-83535714D01*
X147773809Y-83488095D01*
X147392857Y-83488095D01*
X147297619Y-83535714D01*
X147250000Y-83583333D01*
X147202380Y-83678571D01*
X147202380Y-83869047D01*
X147250000Y-83964285D01*
X147297619Y-84011904D01*
X147392857Y-84059523D01*
X147630952Y-84059523D01*
X147726190Y-84011904D01*
X147773809Y-83964285D01*
X147821428Y-83869047D01*
X147821428Y-83678571D01*
X147773809Y-83583333D01*
X147726190Y-83535714D01*
X147630952Y-83488095D01*
%TO.C,C18*%
X157757142Y-84942857D02*
X157804761Y-84990476D01*
X157852380Y-85133333D01*
X157852380Y-85228571D01*
X157804761Y-85371428D01*
X157709523Y-85466666D01*
X157614285Y-85514285D01*
X157423809Y-85561904D01*
X157280952Y-85561904D01*
X157090476Y-85514285D01*
X156995238Y-85466666D01*
X156900000Y-85371428D01*
X156852380Y-85228571D01*
X156852380Y-85133333D01*
X156900000Y-84990476D01*
X156947619Y-84942857D01*
X157852380Y-83990476D02*
X157852380Y-84561904D01*
X157852380Y-84276190D02*
X156852380Y-84276190D01*
X156995238Y-84371428D01*
X157090476Y-84466666D01*
X157138095Y-84561904D01*
X157280952Y-83419047D02*
X157233333Y-83514285D01*
X157185714Y-83561904D01*
X157090476Y-83609523D01*
X157042857Y-83609523D01*
X156947619Y-83561904D01*
X156900000Y-83514285D01*
X156852380Y-83419047D01*
X156852380Y-83228571D01*
X156900000Y-83133333D01*
X156947619Y-83085714D01*
X157042857Y-83038095D01*
X157090476Y-83038095D01*
X157185714Y-83085714D01*
X157233333Y-83133333D01*
X157280952Y-83228571D01*
X157280952Y-83419047D01*
X157328571Y-83514285D01*
X157376190Y-83561904D01*
X157471428Y-83609523D01*
X157661904Y-83609523D01*
X157757142Y-83561904D01*
X157804761Y-83514285D01*
X157852380Y-83419047D01*
X157852380Y-83228571D01*
X157804761Y-83133333D01*
X157757142Y-83085714D01*
X157661904Y-83038095D01*
X157471428Y-83038095D01*
X157376190Y-83085714D01*
X157328571Y-83133333D01*
X157280952Y-83228571D01*
D13*
%TO.C,C17*%
X159490113Y-78675000D02*
X159490113Y-79175000D01*
X159240113Y-78925000D02*
X159740113Y-78925000D01*
D14*
%TO.C,J4*%
X168700000Y-67187500D02*
G75*
G03*
X168700000Y-67187500I-100000J0D01*
G01*
D15*
X165100000Y-67837500D02*
X172100000Y-67837500D01*
X172100000Y-82337500D02*
X172100000Y-67837500D01*
X165100000Y-82337500D02*
X165100000Y-67837500D01*
X172100000Y-82337500D02*
X165100000Y-82337500D01*
D13*
%TO.C,L1*%
X148600000Y-72650000D02*
X148600000Y-78850000D01*
X142400000Y-72650000D02*
X142850000Y-72650000D01*
X142400000Y-78850000D02*
X142850000Y-78850000D01*
X142400000Y-78850000D02*
X142400000Y-72650000D01*
X148600000Y-72650000D02*
X148150000Y-72650000D01*
X148600000Y-78850000D02*
X148150000Y-78850000D01*
D14*
%TO.C,SI1*%
X165862581Y-88112581D02*
X164101885Y-86351885D01*
D13*
%TO.C,R18*%
X152977064Y-83015000D02*
X152522936Y-83015000D01*
X152977064Y-84485000D02*
X152522936Y-84485000D01*
%TO.C,R17*%
X156485000Y-84977064D02*
X156485000Y-84522936D01*
X155015000Y-84977064D02*
X155015000Y-84522936D01*
%TO.C,R16*%
X158485000Y-79627064D02*
X158485000Y-79172936D01*
X157015000Y-79627064D02*
X157015000Y-79172936D01*
%TO.C,R14*%
X161072936Y-58735000D02*
X161527064Y-58735000D01*
X161072936Y-57265000D02*
X161527064Y-57265000D01*
%TO.C,J3*%
X133605000Y-80250000D02*
G75*
G03*
X133605000Y-80250000I-1555000J0D01*
G01*
X133605000Y-76750000D02*
G75*
G03*
X133605000Y-76750000I-1555000J0D01*
G01*
X133605000Y-73250000D02*
G75*
G03*
X133605000Y-73250000I-1555000J0D01*
G01*
X133605000Y-69750000D02*
G75*
G03*
X133605000Y-69750000I-1555000J0D01*
G01*
X133605000Y-66250000D02*
G75*
G03*
X133605000Y-66250000I-1555000J0D01*
G01*
X133605000Y-83750000D02*
G75*
G03*
X133435515Y-83044045I-1555008J-2D01*
G01*
X132757000Y-82364000D02*
G75*
G03*
X131344267Y-82363355I-706999J-1386001D01*
G01*
X133436000Y-84457000D02*
G75*
G03*
X133605682Y-83723556I-1385995J706999D01*
G01*
X131343000Y-85136000D02*
G75*
G03*
X132755733Y-85136645I707000J1386000D01*
G01*
X130664000Y-83043000D02*
G75*
G03*
X130663355Y-84455733I1386000J-707000D01*
G01*
X132964000Y-74353000D02*
X133040000Y-74429000D01*
X130870000Y-72260000D02*
X130924000Y-72314000D01*
X130870000Y-68760000D02*
X130924000Y-68814000D01*
X130870000Y-65260000D02*
X130924000Y-65314000D01*
X132964000Y-81353000D02*
X133040000Y-81429000D01*
X133175000Y-67185000D02*
X133230000Y-67239000D01*
X132964000Y-77853000D02*
X133040000Y-77929000D01*
X129190000Y-85560000D02*
X129190000Y-64439000D01*
X130870000Y-79260000D02*
X130924000Y-79314000D01*
X129190000Y-64439000D02*
X135810000Y-64439000D01*
X131060000Y-72070000D02*
X131136000Y-72146000D01*
X131060000Y-79070000D02*
X131136000Y-79146000D01*
X133175000Y-70685000D02*
X133230000Y-70739000D01*
X131060000Y-65070000D02*
X131136000Y-65146000D01*
X132964000Y-70853000D02*
X133040000Y-70929000D01*
X136050000Y-85800000D02*
X136050000Y-84300000D01*
X133175000Y-74185000D02*
X133230000Y-74239000D01*
X134250000Y-85560000D02*
X134250000Y-64439000D01*
X132964000Y-67353000D02*
X133040000Y-67429000D01*
X131060000Y-75570000D02*
X131136000Y-75646000D01*
X129190000Y-85560000D02*
X135810000Y-85560000D01*
X134310000Y-85800000D02*
X136050000Y-85800000D01*
X131060000Y-68570000D02*
X131136000Y-68646000D01*
X133175000Y-81185000D02*
X133230000Y-81239000D01*
X135810000Y-85560000D02*
X135810000Y-64439000D01*
X130870000Y-75760000D02*
X130924000Y-75814000D01*
X133175000Y-77685000D02*
X133230000Y-77739000D01*
%TO.C,J2*%
X151820000Y-89670000D02*
X144140000Y-89670000D01*
X154420000Y-89670000D02*
X154420000Y-91000000D01*
X151820000Y-89670000D02*
X151820000Y-92330000D01*
X144140000Y-89670000D02*
X144140000Y-92330000D01*
X153090000Y-89670000D02*
X154420000Y-89670000D01*
X151820000Y-92330000D02*
X144140000Y-92330000D01*
%TO.C,J1*%
X153030000Y-92670000D02*
X145350000Y-92670000D01*
X155630000Y-92670000D02*
X155630000Y-94000000D01*
X153030000Y-92670000D02*
X153030000Y-95330000D01*
X145350000Y-92670000D02*
X145350000Y-95330000D01*
X154300000Y-92670000D02*
X155630000Y-92670000D01*
X153030000Y-95330000D02*
X145350000Y-95330000D01*
%TO.C,IC4*%
X152750000Y-82310000D02*
X150800000Y-82310000D01*
X152750000Y-77190000D02*
X149300000Y-77190000D01*
X152750000Y-82310000D02*
X154700000Y-82310000D01*
X152750000Y-77190000D02*
X154700000Y-77190000D01*
%TO.C,D3*%
X141900000Y-76100000D02*
X141900000Y-83000000D01*
X141900000Y-76100000D02*
X138600000Y-76100000D01*
X138600000Y-76100000D02*
X138600000Y-83000000D01*
%TO.C,D2*%
X157500000Y-86300000D02*
X157500000Y-92000000D01*
X160500000Y-92000000D02*
X160500000Y-86300000D01*
X160500000Y-86300000D02*
X157500000Y-86300000D01*
%TO.C,D1*%
X164163604Y-58105959D02*
X162805959Y-59463604D01*
X166185929Y-60128284D02*
X164163604Y-58105959D01*
X162805959Y-59463604D02*
X164828284Y-61485929D01*
%TO.C,C22*%
X140023752Y-72140000D02*
X138601248Y-72140000D01*
X140023752Y-74860000D02*
X138601248Y-74860000D01*
%TO.C,C21*%
X144765000Y-69451248D02*
X144765000Y-69973752D01*
X146235000Y-69451248D02*
X146235000Y-69973752D01*
%TO.C,C20*%
X146965000Y-72010000D02*
X155200000Y-72010000D01*
X155200000Y-67490000D02*
X146965000Y-67490000D01*
X146965000Y-67490000D02*
X146965000Y-72010000D01*
%TO.C,C19*%
X147015000Y-81026248D02*
X147015000Y-81548752D01*
X148485000Y-81026248D02*
X148485000Y-81548752D01*
%TO.C,C18*%
X159888748Y-82890000D02*
X161311252Y-82890000D01*
X159888748Y-85610000D02*
X161311252Y-85610000D01*
%TD*%
M02*
