%TF.GenerationSoftware,KiCad,Pcbnew,(6.0.9)*%
%TF.CreationDate,2024-02-23T16:04:20+01:00*%
%TF.ProjectId,HMW-IO-12-FM,484d572d-494f-42d3-9132-2d464d2e6b69,rev?*%
%TF.SameCoordinates,Original*%
%TF.FileFunction,Copper,L1,Top*%
%TF.FilePolarity,Positive*%
%FSLAX46Y46*%
G04 Gerber Fmt 4.6, Leading zero omitted, Abs format (unit mm)*
G04 Created by KiCad (PCBNEW (6.0.9)) date 2024-02-23 16:04:20*
%MOMM*%
%LPD*%
G01*
G04 APERTURE LIST*
G04 Aperture macros list*
%AMRoundRect*
0 Rectangle with rounded corners*
0 $1 Rounding radius*
0 $2 $3 $4 $5 $6 $7 $8 $9 X,Y pos of 4 corners*
0 Add a 4 corners polygon primitive as box body*
4,1,4,$2,$3,$4,$5,$6,$7,$8,$9,$2,$3,0*
0 Add four circle primitives for the rounded corners*
1,1,$1+$1,$2,$3*
1,1,$1+$1,$4,$5*
1,1,$1+$1,$6,$7*
1,1,$1+$1,$8,$9*
0 Add four rect primitives between the rounded corners*
20,1,$1+$1,$2,$3,$4,$5,0*
20,1,$1+$1,$4,$5,$6,$7,0*
20,1,$1+$1,$6,$7,$8,$9,0*
20,1,$1+$1,$8,$9,$2,$3,0*%
%AMRotRect*
0 Rectangle, with rotation*
0 The origin of the aperture is its center*
0 $1 length*
0 $2 width*
0 $3 Rotation angle, in degrees counterclockwise*
0 Add horizontal line*
21,1,$1,$2,0,0,$3*%
G04 Aperture macros list end*
%TA.AperFunction,NonConductor*%
%ADD10C,0.200000*%
%TD*%
%TA.AperFunction,ComponentPad*%
%ADD11C,1.600000*%
%TD*%
%TA.AperFunction,ComponentPad*%
%ADD12R,1.600000X1.600000*%
%TD*%
%TA.AperFunction,ComponentPad*%
%ADD13C,1.500000*%
%TD*%
%TA.AperFunction,ComponentPad*%
%ADD14O,1.500000X1.500000*%
%TD*%
%TA.AperFunction,SMDPad,CuDef*%
%ADD15R,5.100000X2.350000*%
%TD*%
%TA.AperFunction,SMDPad,CuDef*%
%ADD16RotRect,2.020000X2.950000X225.000000*%
%TD*%
%TA.AperFunction,SMDPad,CuDef*%
%ADD17RoundRect,0.250000X0.350000X0.450000X-0.350000X0.450000X-0.350000X-0.450000X0.350000X-0.450000X0*%
%TD*%
%TA.AperFunction,SMDPad,CuDef*%
%ADD18RoundRect,0.250000X0.450000X-0.350000X0.450000X0.350000X-0.450000X0.350000X-0.450000X-0.350000X0*%
%TD*%
%TA.AperFunction,SMDPad,CuDef*%
%ADD19RoundRect,0.250000X-0.350000X-0.450000X0.350000X-0.450000X0.350000X0.450000X-0.350000X0.450000X0*%
%TD*%
%TA.AperFunction,ComponentPad*%
%ADD20C,2.300000*%
%TD*%
%TA.AperFunction,ComponentPad*%
%ADD21O,2.300000X2.300000*%
%TD*%
%TA.AperFunction,ComponentPad*%
%ADD22O,1.700000X1.700000*%
%TD*%
%TA.AperFunction,SMDPad,CuDef*%
%ADD23RoundRect,0.150000X-0.825000X-0.150000X0.825000X-0.150000X0.825000X0.150000X-0.825000X0.150000X0*%
%TD*%
%TA.AperFunction,SMDPad,CuDef*%
%ADD24R,1.800000X3.500000*%
%TD*%
%TA.AperFunction,SMDPad,CuDef*%
%ADD25R,2.700000X1.500000*%
%TD*%
%TA.AperFunction,SMDPad,CuDef*%
%ADD26RoundRect,0.250000X-0.548008X-0.088388X-0.088388X-0.548008X0.548008X0.088388X0.088388X0.548008X0*%
%TD*%
%TA.AperFunction,SMDPad,CuDef*%
%ADD27RoundRect,0.250000X0.412500X1.100000X-0.412500X1.100000X-0.412500X-1.100000X0.412500X-1.100000X0*%
%TD*%
%TA.AperFunction,SMDPad,CuDef*%
%ADD28RoundRect,0.250000X-0.475000X0.337500X-0.475000X-0.337500X0.475000X-0.337500X0.475000X0.337500X0*%
%TD*%
%TA.AperFunction,SMDPad,CuDef*%
%ADD29RoundRect,0.250000X-0.875000X-1.025000X0.875000X-1.025000X0.875000X1.025000X-0.875000X1.025000X0*%
%TD*%
%TA.AperFunction,SMDPad,CuDef*%
%ADD30RoundRect,0.250000X-0.412500X-1.100000X0.412500X-1.100000X0.412500X1.100000X-0.412500X1.100000X0*%
%TD*%
%TA.AperFunction,ViaPad*%
%ADD31C,0.800000*%
%TD*%
%TA.AperFunction,Conductor*%
%ADD32C,0.250000*%
%TD*%
%TA.AperFunction,Conductor*%
%ADD33C,1.200000*%
%TD*%
G04 APERTURE END LIST*
D10*
X173500000Y-75000000D02*
G75*
G03*
X173500000Y-75000000I-23500000J0D01*
G01*
D11*
%TO.P,C17,2*%
%TO.N,/GND*%
X163294888Y-80400000D03*
D12*
%TO.P,C17,1*%
%TO.N,Net-(IC4-Pad6)*%
X160794888Y-80400000D03*
%TD*%
D13*
%TO.P,J4,04,04*%
%TO.N,/+24V*%
X168600000Y-81187500D03*
%TO.P,J4,03,03*%
%TO.N,/GND*%
X168600000Y-77687500D03*
%TO.P,J4,02,02*%
%TO.N,Net-(IC3-Pad7)*%
X168600000Y-74187500D03*
D14*
%TO.P,J4,01,01*%
%TO.N,Net-(IC3-Pad6)*%
X168600000Y-70687500D03*
%TD*%
D15*
%TO.P,L1,2,2*%
%TO.N,Net-(IC4-Pad2)*%
X145500000Y-77825000D03*
%TO.P,L1,1,1*%
%TO.N,/VCC*%
X145500000Y-73675000D03*
%TD*%
D16*
%TO.P,SI1,2*%
%TO.N,Net-(SI1-Pad2)*%
X163214466Y-89000000D03*
%TO.P,SI1,1*%
%TO.N,/+24V*%
X166750000Y-85464466D03*
%TD*%
D17*
%TO.P,R18,2*%
%TO.N,/GND*%
X151750000Y-83750000D03*
%TO.P,R18,1*%
%TO.N,Net-(IC4-Pad5)*%
X153750000Y-83750000D03*
%TD*%
D18*
%TO.P,R17,2*%
%TO.N,Net-(IC4-Pad5)*%
X155750000Y-83750000D03*
%TO.P,R17,1*%
%TO.N,/VCC*%
X155750000Y-85750000D03*
%TD*%
%TO.P,R16,2*%
%TO.N,Net-(IC4-Pad1)*%
X157750000Y-78400000D03*
%TO.P,R16,1*%
%TO.N,Net-(IC4-Pad6)*%
X157750000Y-80400000D03*
%TD*%
D19*
%TO.P,R14,2*%
%TO.N,Net-(R14-Pad2)*%
X162300000Y-58000000D03*
%TO.P,R14,1*%
%TO.N,/GND*%
X160300000Y-58000000D03*
%TD*%
D20*
%TO.P,J3,6,Pin_6*%
%TO.N,/GND*%
X132050000Y-66250000D03*
%TO.P,J3,5,Pin_5*%
%TO.N,Net-(R12-Pad1)*%
X132050000Y-69750000D03*
%TO.P,J3,4,Pin_4*%
%TO.N,Net-(R11-Pad1)*%
X132050000Y-73250000D03*
%TO.P,J3,3,Pin_3*%
%TO.N,Net-(R10-Pad1)*%
X132050000Y-76750000D03*
%TO.P,J3,2,Pin_2*%
%TO.N,Net-(R9-Pad1)*%
X132050000Y-80250000D03*
D21*
%TO.P,J3,1,Pin_1*%
%TO.N,Net-(R8-Pad1)*%
X132050000Y-83750000D03*
%TD*%
D22*
%TO.P,J2,4,Pin_4*%
%TO.N,/GND*%
X145470000Y-91000000D03*
%TO.P,J2,3,Pin_3*%
%TO.N,Net-(R6-Pad1)*%
X148010000Y-91000000D03*
%TO.P,J2,2,Pin_2*%
%TO.N,Net-(R4-Pad1)*%
X150550000Y-91000000D03*
%TO.P,J2,1,Pin_1*%
%TO.N,Net-(R2-Pad1)*%
X153090000Y-91000000D03*
%TD*%
%TO.P,J1,4,Pin_4*%
%TO.N,Net-(R7-Pad1)*%
X146680000Y-94000000D03*
%TO.P,J1,3,Pin_3*%
%TO.N,Net-(R5-Pad1)*%
X149220000Y-94000000D03*
%TO.P,J1,2,Pin_2*%
%TO.N,Net-(R3-Pad1)*%
X151760000Y-94000000D03*
%TO.P,J1,1,Pin_1*%
%TO.N,Net-(R1-Pad1)*%
X154300000Y-94000000D03*
%TD*%
D23*
%TO.P,IC4,8,DC*%
%TO.N,Net-(IC4-Pad1)*%
X155225000Y-77845000D03*
%TO.P,IC4,7,Ipk*%
X155225000Y-79115000D03*
%TO.P,IC4,6,Vin*%
%TO.N,Net-(IC4-Pad6)*%
X155225000Y-80385000D03*
%TO.P,IC4,5,Vfb*%
%TO.N,Net-(IC4-Pad5)*%
X155225000Y-81655000D03*
%TO.P,IC4,4,GND*%
%TO.N,/GND*%
X150275000Y-81655000D03*
%TO.P,IC4,3,TC*%
%TO.N,Net-(IC4-Pad3)*%
X150275000Y-80385000D03*
%TO.P,IC4,2,SwE*%
%TO.N,Net-(IC4-Pad2)*%
X150275000Y-79115000D03*
%TO.P,IC4,1,SwC*%
%TO.N,Net-(IC4-Pad1)*%
X150275000Y-77845000D03*
%TD*%
D24*
%TO.P,D3,2,A*%
%TO.N,/GND*%
X140250000Y-83000000D03*
%TO.P,D3,1,K*%
%TO.N,Net-(IC4-Pad2)*%
X140250000Y-78000000D03*
%TD*%
D25*
%TO.P,D2,1,K*%
%TO.N,Net-(IC4-Pad6)*%
X159000000Y-87200000D03*
%TO.P,D2,2,A*%
%TO.N,Net-(SI1-Pad2)*%
X159000000Y-92000000D03*
%TD*%
D26*
%TO.P,D1,2,A*%
%TO.N,/LED*%
X165524784Y-60824784D03*
%TO.P,D1,1,K*%
%TO.N,Net-(R14-Pad2)*%
X164075216Y-59375216D03*
%TD*%
D27*
%TO.P,C22,2*%
%TO.N,/GND*%
X137750000Y-73500000D03*
%TO.P,C22,1*%
%TO.N,/VCC*%
X140875000Y-73500000D03*
%TD*%
D28*
%TO.P,C21,2*%
%TO.N,/VCC*%
X145500000Y-70750000D03*
%TO.P,C21,1*%
%TO.N,/GND*%
X145500000Y-68675000D03*
%TD*%
D29*
%TO.P,C20,2*%
%TO.N,/GND*%
X154750000Y-69750000D03*
%TO.P,C20,1*%
%TO.N,/VCC*%
X148350000Y-69750000D03*
%TD*%
D28*
%TO.P,C19,2*%
%TO.N,/GND*%
X147750000Y-82325000D03*
%TO.P,C19,1*%
%TO.N,Net-(IC4-Pad3)*%
X147750000Y-80250000D03*
%TD*%
D30*
%TO.P,C18,1*%
%TO.N,Net-(IC4-Pad6)*%
X159037500Y-84250000D03*
%TO.P,C18,2*%
%TO.N,/GND*%
X162162500Y-84250000D03*
%TD*%
D31*
%TO.N,/VCC*%
X141387500Y-73700000D03*
%TO.N,/GND*%
X133600000Y-68000000D03*
X133700000Y-75300000D03*
X133600000Y-71600000D03*
X133500000Y-81900000D03*
X149750000Y-83000000D03*
X144250000Y-94000000D03*
X140000000Y-94000000D03*
X136250000Y-87000000D03*
X134000000Y-87000000D03*
X140000000Y-92000000D03*
X128250000Y-75500000D03*
X128250000Y-72750000D03*
X166000000Y-70000000D03*
X166000000Y-73000000D03*
X166000000Y-76000000D03*
X166000000Y-80000000D03*
X171000000Y-80000000D03*
X171000000Y-76000000D03*
X171000000Y-73000000D03*
X171000000Y-70000000D03*
X165000000Y-66000000D03*
X149500000Y-73000000D03*
X150750000Y-74250000D03*
X157000000Y-95000000D03*
X136250000Y-89000000D03*
X134000000Y-89000000D03*
X138000000Y-92000000D03*
X142000000Y-94000000D03*
X142000000Y-92000000D03*
X133000000Y-63000000D03*
X137000000Y-61500000D03*
X139000000Y-63000000D03*
X139000000Y-60750000D03*
X135000000Y-60750000D03*
X137000000Y-59250000D03*
X139000000Y-58000000D03*
%TO.N,/VCC*%
X157400000Y-82300000D03*
%TO.N,/SO4*%
X145200000Y-82100000D03*
%TO.N,/SO7*%
X144300000Y-85100000D03*
%TO.N,/SO5*%
X157300000Y-85813173D03*
%TO.N,/SO6*%
X157200000Y-88400000D03*
%TO.N,/SO7*%
X157400000Y-90600000D03*
%TO.N,/SO4*%
X141900000Y-85300000D03*
%TO.N,/SO3*%
X141900000Y-87400000D03*
%TO.N,/SO2*%
X141900000Y-89500000D03*
X153700000Y-85100000D03*
%TO.N,/SO3*%
X151800000Y-85100000D03*
%TO.N,/SO4*%
X150443701Y-85162000D03*
%TO.N,/SO5*%
X147000000Y-85100000D03*
%TO.N,/SO6*%
X145800000Y-85100000D03*
%TO.N,/LED*%
X154400000Y-66600000D03*
%TO.N,/TXD*%
X154100000Y-63900000D03*
X154400000Y-59600000D03*
%TO.N,/VCC*%
X148400000Y-65250000D03*
X146250000Y-58250000D03*
X157250000Y-65250000D03*
%TD*%
D32*
%TO.N,/GND*%
X145512500Y-80500000D02*
X147337500Y-82325000D01*
X140250000Y-80550000D02*
X140200000Y-80500000D01*
X147337500Y-82325000D02*
X147750000Y-82325000D01*
X140250000Y-83000000D02*
X140250000Y-80550000D01*
X140200000Y-80500000D02*
X145512500Y-80500000D01*
%TO.N,/LED*%
X165524784Y-62174784D02*
X161099568Y-66600000D01*
X165524784Y-60824784D02*
X165524784Y-62174784D01*
%TO.N,Net-(R14-Pad2)*%
X162800000Y-58100000D02*
X164075216Y-59375216D01*
X162400000Y-58100000D02*
X162800000Y-58100000D01*
%TO.N,/GND*%
X151750000Y-83750000D02*
X150500000Y-83750000D01*
X150500000Y-83750000D02*
X149750000Y-83000000D01*
X148420000Y-81655000D02*
X147750000Y-82325000D01*
X150275000Y-81655000D02*
X148420000Y-81655000D01*
X149075000Y-82325000D02*
X147750000Y-82325000D01*
X149750000Y-83000000D02*
X149075000Y-82325000D01*
%TO.N,/TXD*%
X154400000Y-63600000D02*
X154400000Y-59600000D01*
X154100000Y-63900000D02*
X154400000Y-63600000D01*
%TO.N,/SO6*%
X145800000Y-85200000D02*
X145800000Y-85100000D01*
X156100000Y-87300000D02*
X147900000Y-87300000D01*
X157200000Y-88400000D02*
X156100000Y-87300000D01*
X147900000Y-87300000D02*
X145800000Y-85200000D01*
%TO.N,/VCC*%
X157100000Y-84400000D02*
X155750000Y-85750000D01*
X157400000Y-82300000D02*
X157100000Y-82600000D01*
X157100000Y-82600000D02*
X157100000Y-84400000D01*
%TO.N,/SO5*%
X148750000Y-86850000D02*
X147000000Y-85100000D01*
X156263173Y-86850000D02*
X148750000Y-86850000D01*
X157300000Y-85813173D02*
X156263173Y-86850000D01*
%TO.N,/SO3*%
X142025000Y-87400000D02*
X141900000Y-87400000D01*
X143250000Y-83750000D02*
X142625000Y-84375000D01*
X149987000Y-85887000D02*
X147850000Y-83750000D01*
X147850000Y-83750000D02*
X143250000Y-83750000D01*
X151013000Y-85887000D02*
X149987000Y-85887000D01*
X142625000Y-84375000D02*
X142625000Y-86800000D01*
X142625000Y-86800000D02*
X142025000Y-87400000D01*
X151800000Y-85100000D02*
X151013000Y-85887000D01*
%TO.N,/SO2*%
X153100000Y-85100000D02*
X153700000Y-85100000D01*
X151863000Y-86337000D02*
X153100000Y-85100000D01*
X147425000Y-84375000D02*
X149387000Y-86337000D01*
X149387000Y-86337000D02*
X151863000Y-86337000D01*
X141900000Y-89450000D02*
X143075000Y-88275000D01*
X143075000Y-84799695D02*
X143499695Y-84375000D01*
X141900000Y-89500000D02*
X141900000Y-89450000D01*
X143075000Y-88275000D02*
X143075000Y-84799695D01*
X143499695Y-84375000D02*
X147425000Y-84375000D01*
%TO.N,/SO4*%
X143300000Y-82100000D02*
X145200000Y-82100000D01*
X141900000Y-83500000D02*
X143300000Y-82100000D01*
X141900000Y-85300000D02*
X141900000Y-83500000D01*
%TO.N,/SO7*%
X154550000Y-87750000D02*
X157400000Y-90600000D01*
X144300000Y-85600000D02*
X146450000Y-87750000D01*
X146450000Y-87750000D02*
X154550000Y-87750000D01*
X144300000Y-85100000D02*
X144300000Y-85600000D01*
%TO.N,/SO4*%
X148581701Y-83300000D02*
X146500000Y-83300000D01*
X146500000Y-83300000D02*
X145300000Y-82100000D01*
X150443701Y-85162000D02*
X148581701Y-83300000D01*
X145300000Y-82100000D02*
X145200000Y-82100000D01*
%TO.N,/LED*%
X154400000Y-66600000D02*
X161099568Y-66600000D01*
D33*
%TO.N,/VCC*%
X157250000Y-65250000D02*
X148400000Y-65250000D01*
X148400000Y-65250000D02*
X146250000Y-65250000D01*
X146250000Y-65250000D02*
X146250000Y-58250000D01*
X146250000Y-65250000D02*
X145150000Y-65250000D01*
%TO.N,Net-(IC4-Pad6)*%
X159037500Y-87162500D02*
X159000000Y-87200000D01*
X159037500Y-84250000D02*
X159037500Y-87162500D01*
X159037500Y-84250000D02*
X159037500Y-80562500D01*
D32*
X159037500Y-80562500D02*
X159200000Y-80400000D01*
D33*
X157750000Y-80400000D02*
X159200000Y-80400000D01*
X159200000Y-80400000D02*
X160594888Y-80400000D01*
%TO.N,/+24V*%
X168600000Y-83614466D02*
X168600000Y-81187500D01*
X166750000Y-85464466D02*
X168600000Y-83614466D01*
%TO.N,/VCC*%
X143750000Y-70750000D02*
X147350000Y-70750000D01*
X147350000Y-70750000D02*
X148350000Y-69750000D01*
X143750000Y-70750000D02*
X145500000Y-70750000D01*
X143200000Y-70200000D02*
X143750000Y-70750000D01*
X143200000Y-67200000D02*
X143200000Y-70200000D01*
X145150000Y-65250000D02*
X143200000Y-67200000D01*
X145500000Y-73675000D02*
X145500000Y-70750000D01*
X141050000Y-73675000D02*
X145500000Y-73675000D01*
D32*
%TO.N,Net-(IC4-Pad2)*%
X140250000Y-78000000D02*
X145325000Y-78000000D01*
X145325000Y-78000000D02*
X145500000Y-77825000D01*
D33*
%TO.N,Net-(SI1-Pad2)*%
X160214466Y-92000000D02*
X163214466Y-89000000D01*
D32*
X159000000Y-92000000D02*
X160214466Y-92000000D01*
%TO.N,Net-(IC4-Pad5)*%
X155750000Y-83750000D02*
X153750000Y-83750000D01*
X155750000Y-82180000D02*
X155225000Y-81655000D01*
X155750000Y-83750000D02*
X155750000Y-82180000D01*
%TO.N,Net-(IC4-Pad6)*%
X155225000Y-80385000D02*
X157365000Y-80385000D01*
%TO.N,Net-(IC4-Pad1)*%
X155380000Y-78000000D02*
X155225000Y-77845000D01*
X157750000Y-78000000D02*
X155380000Y-78000000D01*
X155225000Y-77845000D02*
X155225000Y-79115000D01*
X150275000Y-77845000D02*
X155225000Y-77845000D01*
%TO.N,Net-(IC4-Pad3)*%
X150140000Y-80250000D02*
X150275000Y-80385000D01*
X147750000Y-80250000D02*
X150140000Y-80250000D01*
%TO.N,Net-(IC4-Pad2)*%
X146790000Y-79115000D02*
X145500000Y-77825000D01*
X150275000Y-79115000D02*
X146790000Y-79115000D01*
%TD*%
%TA.AperFunction,Conductor*%
%TO.N,/GND*%
G36*
X150482052Y-52113631D02*
G01*
X151434728Y-52153560D01*
X151439986Y-52153891D01*
X151688201Y-52174734D01*
X152390190Y-52233682D01*
X152395439Y-52234234D01*
X152858974Y-52292792D01*
X153341455Y-52353743D01*
X153346605Y-52354502D01*
X154286878Y-52513538D01*
X154291983Y-52514512D01*
X154758366Y-52613645D01*
X155224733Y-52712775D01*
X155229871Y-52713981D01*
X156153417Y-52951107D01*
X156158500Y-52952526D01*
X157071341Y-53228129D01*
X157076360Y-53229760D01*
X157637103Y-53425031D01*
X157976840Y-53543339D01*
X157981764Y-53545170D01*
X158852050Y-53889741D01*
X158868358Y-53896198D01*
X158873223Y-53898243D01*
X159744317Y-54286079D01*
X159749092Y-54288326D01*
X160603175Y-54712297D01*
X160607852Y-54714742D01*
X161443447Y-55174113D01*
X161448017Y-55176752D01*
X162263635Y-55670708D01*
X162268069Y-55673522D01*
X162409436Y-55767446D01*
X163062288Y-56201200D01*
X163066622Y-56204212D01*
X163290235Y-56366676D01*
X163392987Y-56441330D01*
X163436341Y-56497552D01*
X163442416Y-56568288D01*
X163414385Y-56625507D01*
X163360960Y-56687519D01*
X163312484Y-56743786D01*
X163303995Y-56752717D01*
X163303756Y-56752945D01*
X163296441Y-56758162D01*
X163290886Y-56765220D01*
X163290882Y-56765224D01*
X163259539Y-56805048D01*
X163255988Y-56809361D01*
X163241944Y-56825663D01*
X163239527Y-56829443D01*
X163239327Y-56829756D01*
X163232190Y-56839800D01*
X163207339Y-56871377D01*
X163149492Y-56912535D01*
X163078575Y-56915886D01*
X163042212Y-56900709D01*
X162978968Y-56861725D01*
X162978966Y-56861724D01*
X162972738Y-56857885D01*
X162875591Y-56825663D01*
X162811389Y-56804368D01*
X162811387Y-56804368D01*
X162804861Y-56802203D01*
X162798025Y-56801503D01*
X162798022Y-56801502D01*
X162754969Y-56797091D01*
X162700400Y-56791500D01*
X161899600Y-56791500D01*
X161896354Y-56791837D01*
X161896350Y-56791837D01*
X161800692Y-56801762D01*
X161800688Y-56801763D01*
X161793834Y-56802474D01*
X161787298Y-56804655D01*
X161787296Y-56804655D01*
X161773191Y-56809361D01*
X161626054Y-56858450D01*
X161475652Y-56951522D01*
X161470479Y-56956704D01*
X161388862Y-57038463D01*
X161326579Y-57072542D01*
X161255759Y-57067539D01*
X161210671Y-57038618D01*
X161128171Y-56956261D01*
X161116760Y-56947249D01*
X160978757Y-56862184D01*
X160965576Y-56856037D01*
X160811290Y-56804862D01*
X160797914Y-56801995D01*
X160703562Y-56792328D01*
X160697145Y-56792000D01*
X160572115Y-56792000D01*
X160556876Y-56796475D01*
X160555671Y-56797865D01*
X160554000Y-56805548D01*
X160554000Y-59189884D01*
X160558475Y-59205123D01*
X160559865Y-59206328D01*
X160567548Y-59207999D01*
X160697095Y-59207999D01*
X160703614Y-59207662D01*
X160799206Y-59197743D01*
X160812600Y-59194851D01*
X160966784Y-59143412D01*
X160979962Y-59137239D01*
X161117807Y-59051937D01*
X161129208Y-59042901D01*
X161210430Y-58961538D01*
X161272713Y-58927459D01*
X161343533Y-58932462D01*
X161388620Y-58961383D01*
X161471512Y-59044130D01*
X161471517Y-59044134D01*
X161476697Y-59049305D01*
X161482927Y-59053145D01*
X161482928Y-59053146D01*
X161620288Y-59137816D01*
X161627262Y-59142115D01*
X161707005Y-59168564D01*
X161788611Y-59195632D01*
X161788613Y-59195632D01*
X161795139Y-59197797D01*
X161801975Y-59198497D01*
X161801978Y-59198498D01*
X161845031Y-59202909D01*
X161899600Y-59208500D01*
X162648892Y-59208500D01*
X162717013Y-59228502D01*
X162763506Y-59282158D01*
X162773610Y-59352432D01*
X162771538Y-59363379D01*
X162768606Y-59375831D01*
X162768612Y-59383147D01*
X162768612Y-59383150D01*
X162768683Y-59464457D01*
X162768760Y-59552701D01*
X162809599Y-59724793D01*
X162812881Y-59731332D01*
X162812881Y-59731333D01*
X162885846Y-59876723D01*
X162885849Y-59876727D01*
X162888933Y-59882873D01*
X162955230Y-59964307D01*
X163486125Y-60495202D01*
X163492800Y-60500622D01*
X163563325Y-60557888D01*
X163563328Y-60557890D01*
X163568673Y-60562230D01*
X163726892Y-60641288D01*
X163734018Y-60642966D01*
X163734021Y-60642967D01*
X163891930Y-60680149D01*
X163891934Y-60680149D01*
X163899054Y-60681826D01*
X163906370Y-60681820D01*
X163906373Y-60681820D01*
X163987681Y-60681749D01*
X164075925Y-60681672D01*
X164080745Y-60680528D01*
X164149777Y-60692282D01*
X164202213Y-60740146D01*
X164220447Y-60808761D01*
X164219742Y-60818739D01*
X164218174Y-60825399D01*
X164218180Y-60832719D01*
X164218180Y-60832722D01*
X164218251Y-60914404D01*
X164218328Y-61002269D01*
X164220018Y-61009390D01*
X164247887Y-61126826D01*
X164259167Y-61174361D01*
X164262449Y-61180900D01*
X164262449Y-61180901D01*
X164335414Y-61326291D01*
X164335417Y-61326295D01*
X164338501Y-61332441D01*
X164404798Y-61413875D01*
X164808198Y-61817275D01*
X164842224Y-61879587D01*
X164837159Y-61950402D01*
X164808198Y-61995465D01*
X160874068Y-65929595D01*
X160811756Y-65963621D01*
X160784973Y-65966500D01*
X158334594Y-65966500D01*
X158266473Y-65946498D01*
X158219980Y-65892842D01*
X158209876Y-65822568D01*
X158225530Y-65777405D01*
X158259467Y-65718742D01*
X158262473Y-65713546D01*
X158331861Y-65513729D01*
X158362213Y-65304396D01*
X158352433Y-65093101D01*
X158302875Y-64887466D01*
X158215326Y-64694913D01*
X158092946Y-64522389D01*
X157940150Y-64376119D01*
X157762452Y-64261380D01*
X157702354Y-64237160D01*
X157571832Y-64184558D01*
X157571829Y-64184557D01*
X157566263Y-64182314D01*
X157358663Y-64141772D01*
X157353101Y-64141500D01*
X155128059Y-64141500D01*
X155059938Y-64121498D01*
X155013445Y-64067842D01*
X155002749Y-64002330D01*
X155012814Y-63906565D01*
X155013504Y-63900000D01*
X155006322Y-63831670D01*
X155010560Y-63784203D01*
X155013181Y-63778145D01*
X155014420Y-63770321D01*
X155014422Y-63770315D01*
X155020099Y-63734476D01*
X155022505Y-63722856D01*
X155031528Y-63687711D01*
X155031528Y-63687710D01*
X155033500Y-63680030D01*
X155033500Y-63659776D01*
X155035051Y-63640065D01*
X155036980Y-63627886D01*
X155038220Y-63620057D01*
X155034059Y-63576038D01*
X155033500Y-63564181D01*
X155033500Y-60302524D01*
X155053502Y-60234403D01*
X155065858Y-60218221D01*
X155139040Y-60136944D01*
X155234527Y-59971556D01*
X155293542Y-59789928D01*
X155313504Y-59600000D01*
X155293542Y-59410072D01*
X155234527Y-59228444D01*
X155222529Y-59207662D01*
X155142341Y-59068774D01*
X155139040Y-59063056D01*
X155129762Y-59052751D01*
X155015675Y-58926045D01*
X155015674Y-58926044D01*
X155011253Y-58921134D01*
X154856752Y-58808882D01*
X154850724Y-58806198D01*
X154850722Y-58806197D01*
X154688319Y-58733891D01*
X154688318Y-58733891D01*
X154682288Y-58731206D01*
X154588888Y-58711353D01*
X154501944Y-58692872D01*
X154501939Y-58692872D01*
X154495487Y-58691500D01*
X154304513Y-58691500D01*
X154298061Y-58692872D01*
X154298056Y-58692872D01*
X154211112Y-58711353D01*
X154117712Y-58731206D01*
X154111682Y-58733891D01*
X154111681Y-58733891D01*
X153949278Y-58806197D01*
X153949276Y-58806198D01*
X153943248Y-58808882D01*
X153788747Y-58921134D01*
X153784326Y-58926044D01*
X153784325Y-58926045D01*
X153670239Y-59052751D01*
X153660960Y-59063056D01*
X153657659Y-59068774D01*
X153577472Y-59207662D01*
X153565473Y-59228444D01*
X153506458Y-59410072D01*
X153486496Y-59600000D01*
X153506458Y-59789928D01*
X153565473Y-59971556D01*
X153660960Y-60136944D01*
X153734137Y-60218215D01*
X153764853Y-60282221D01*
X153766500Y-60302524D01*
X153766500Y-62972181D01*
X153746498Y-63040302D01*
X153691749Y-63087288D01*
X153649278Y-63106197D01*
X153649276Y-63106198D01*
X153643248Y-63108882D01*
X153488747Y-63221134D01*
X153360960Y-63363056D01*
X153265473Y-63528444D01*
X153206458Y-63710072D01*
X153205768Y-63716633D01*
X153205768Y-63716635D01*
X153193677Y-63831672D01*
X153186496Y-63900000D01*
X153187186Y-63906565D01*
X153197251Y-64002330D01*
X153184479Y-64072168D01*
X153135977Y-64124015D01*
X153071941Y-64141500D01*
X147484500Y-64141500D01*
X147416379Y-64121498D01*
X147369886Y-64067842D01*
X147358500Y-64015500D01*
X147358500Y-58497095D01*
X159192001Y-58497095D01*
X159192338Y-58503614D01*
X159202257Y-58599206D01*
X159205149Y-58612600D01*
X159256588Y-58766784D01*
X159262761Y-58779962D01*
X159348063Y-58917807D01*
X159357099Y-58929208D01*
X159471829Y-59043739D01*
X159483240Y-59052751D01*
X159621243Y-59137816D01*
X159634424Y-59143963D01*
X159788710Y-59195138D01*
X159802086Y-59198005D01*
X159896438Y-59207672D01*
X159902854Y-59208000D01*
X160027885Y-59208000D01*
X160043124Y-59203525D01*
X160044329Y-59202135D01*
X160046000Y-59194452D01*
X160046000Y-58272115D01*
X160041525Y-58256876D01*
X160040135Y-58255671D01*
X160032452Y-58254000D01*
X159210116Y-58254000D01*
X159194877Y-58258475D01*
X159193672Y-58259865D01*
X159192001Y-58267548D01*
X159192001Y-58497095D01*
X147358500Y-58497095D01*
X147358500Y-58197154D01*
X147343452Y-58039434D01*
X147283908Y-57836466D01*
X147237315Y-57746000D01*
X147227985Y-57727885D01*
X159192000Y-57727885D01*
X159196475Y-57743124D01*
X159197865Y-57744329D01*
X159205548Y-57746000D01*
X160027885Y-57746000D01*
X160043124Y-57741525D01*
X160044329Y-57740135D01*
X160046000Y-57732452D01*
X160046000Y-56810116D01*
X160041525Y-56794877D01*
X160040135Y-56793672D01*
X160032452Y-56792001D01*
X159902905Y-56792001D01*
X159896386Y-56792338D01*
X159800794Y-56802257D01*
X159787400Y-56805149D01*
X159633216Y-56856588D01*
X159620038Y-56862761D01*
X159482193Y-56948063D01*
X159470792Y-56957099D01*
X159356261Y-57071829D01*
X159347249Y-57083240D01*
X159262184Y-57221243D01*
X159256037Y-57234424D01*
X159204862Y-57388710D01*
X159201995Y-57402086D01*
X159192328Y-57496438D01*
X159192000Y-57502855D01*
X159192000Y-57727885D01*
X147227985Y-57727885D01*
X147189804Y-57653751D01*
X147189802Y-57653748D01*
X147187058Y-57648420D01*
X147056396Y-57482080D01*
X147051865Y-57478148D01*
X147051862Y-57478145D01*
X146901167Y-57347379D01*
X146896637Y-57343448D01*
X146891451Y-57340448D01*
X146891447Y-57340445D01*
X146718742Y-57240533D01*
X146713546Y-57237527D01*
X146513729Y-57168139D01*
X146507794Y-57167278D01*
X146507792Y-57167278D01*
X146310336Y-57138648D01*
X146310333Y-57138648D01*
X146304396Y-57137787D01*
X146093101Y-57147567D01*
X145986794Y-57173187D01*
X145893299Y-57195719D01*
X145893297Y-57195720D01*
X145887466Y-57197125D01*
X145882008Y-57199607D01*
X145882004Y-57199608D01*
X145766959Y-57251916D01*
X145694913Y-57284674D01*
X145612057Y-57343448D01*
X145529393Y-57402086D01*
X145522389Y-57407054D01*
X145376119Y-57559850D01*
X145261380Y-57737548D01*
X145182314Y-57933737D01*
X145141772Y-58141337D01*
X145141500Y-58146899D01*
X145141500Y-64018308D01*
X145121498Y-64086429D01*
X145067842Y-64132922D01*
X145030200Y-64143448D01*
X145026079Y-64143932D01*
X145020082Y-64144063D01*
X145003523Y-64147628D01*
X144987325Y-64151115D01*
X144972774Y-64153367D01*
X144959405Y-64154643D01*
X144939434Y-64156548D01*
X144933674Y-64158238D01*
X144933673Y-64158238D01*
X144881388Y-64173576D01*
X144872440Y-64175848D01*
X144819168Y-64187317D01*
X144819156Y-64187321D01*
X144813298Y-64188582D01*
X144807776Y-64190931D01*
X144807778Y-64190931D01*
X144782479Y-64201696D01*
X144768615Y-64206661D01*
X144736466Y-64216092D01*
X144731142Y-64218834D01*
X144682679Y-64243794D01*
X144674326Y-64247716D01*
X144618663Y-64271401D01*
X144613687Y-64274751D01*
X144590879Y-64290106D01*
X144578208Y-64297600D01*
X144548420Y-64312942D01*
X144543701Y-64316649D01*
X144500858Y-64350303D01*
X144493390Y-64355739D01*
X144456961Y-64380264D01*
X144443200Y-64389528D01*
X144439075Y-64393269D01*
X144418467Y-64413877D01*
X144407205Y-64423868D01*
X144386797Y-64439898D01*
X144386793Y-64439902D01*
X144382080Y-64443604D01*
X144378149Y-64448134D01*
X144378148Y-64448135D01*
X144341291Y-64490609D01*
X144335221Y-64497123D01*
X142489895Y-66342449D01*
X142481621Y-66349435D01*
X142481820Y-66349665D01*
X142477275Y-66353588D01*
X142472389Y-66357054D01*
X142408287Y-66424016D01*
X142406364Y-66425980D01*
X142378804Y-66453540D01*
X142376894Y-66455852D01*
X142376892Y-66455855D01*
X142374079Y-66459261D01*
X142367957Y-66466145D01*
X142326119Y-66509850D01*
X142322867Y-66514886D01*
X142322864Y-66514890D01*
X142307947Y-66537992D01*
X142299252Y-66549873D01*
X142277920Y-66575705D01*
X142261060Y-66606565D01*
X142248913Y-66628797D01*
X142244202Y-66636717D01*
X142211380Y-66687548D01*
X142209136Y-66693116D01*
X142209135Y-66693118D01*
X142198858Y-66718619D01*
X142192565Y-66731932D01*
X142176504Y-66761329D01*
X142174676Y-66767041D01*
X142174673Y-66767047D01*
X142158059Y-66818951D01*
X142154928Y-66827625D01*
X142132314Y-66883737D01*
X142131164Y-66889627D01*
X142125895Y-66916608D01*
X142122232Y-66930875D01*
X142112019Y-66962781D01*
X142111305Y-66968728D01*
X142111303Y-66968735D01*
X142104802Y-67022846D01*
X142103366Y-67031967D01*
X142091772Y-67091337D01*
X142091500Y-67096899D01*
X142091500Y-67126040D01*
X142090601Y-67141068D01*
X142087504Y-67166845D01*
X142087504Y-67166851D01*
X142086790Y-67172793D01*
X142087213Y-67178768D01*
X142087213Y-67178771D01*
X142091185Y-67234863D01*
X142091500Y-67243762D01*
X142091500Y-70095743D01*
X142090589Y-70106532D01*
X142090893Y-70106554D01*
X142090454Y-70112528D01*
X142089448Y-70118446D01*
X142089579Y-70124447D01*
X142091470Y-70211099D01*
X142091500Y-70213848D01*
X142091500Y-70252846D01*
X142091784Y-70255825D01*
X142091785Y-70255843D01*
X142092203Y-70260222D01*
X142092743Y-70269436D01*
X142094063Y-70329917D01*
X142095324Y-70335775D01*
X142095325Y-70335782D01*
X142101115Y-70362674D01*
X142103367Y-70377226D01*
X142106548Y-70410566D01*
X142108238Y-70416326D01*
X142108238Y-70416327D01*
X142123576Y-70468613D01*
X142125848Y-70477561D01*
X142137318Y-70530836D01*
X142137321Y-70530847D01*
X142138582Y-70536702D01*
X142140929Y-70542218D01*
X142140930Y-70542221D01*
X142151700Y-70567532D01*
X142156659Y-70581381D01*
X142166092Y-70613534D01*
X142193797Y-70667326D01*
X142197710Y-70675660D01*
X142221400Y-70731336D01*
X142240112Y-70759130D01*
X142247603Y-70771797D01*
X142260194Y-70796246D01*
X142260198Y-70796253D01*
X142262942Y-70801580D01*
X142279057Y-70822095D01*
X142300303Y-70849143D01*
X142305737Y-70856609D01*
X142336991Y-70903033D01*
X142337002Y-70903048D01*
X142339528Y-70906799D01*
X142343269Y-70910924D01*
X142363874Y-70931529D01*
X142373865Y-70942791D01*
X142389898Y-70963203D01*
X142389902Y-70963208D01*
X142393604Y-70967920D01*
X142398135Y-70971852D01*
X142398140Y-70971857D01*
X142440616Y-71008716D01*
X142447131Y-71014786D01*
X142892448Y-71460103D01*
X142899437Y-71468381D01*
X142899667Y-71468182D01*
X142903586Y-71472723D01*
X142907054Y-71477611D01*
X142911382Y-71481754D01*
X142974040Y-71541736D01*
X142976004Y-71543659D01*
X143003540Y-71571195D01*
X143005847Y-71573100D01*
X143009254Y-71575914D01*
X143016148Y-71582047D01*
X143055515Y-71619732D01*
X143055520Y-71619736D01*
X143059850Y-71623881D01*
X143087137Y-71641500D01*
X143087992Y-71642052D01*
X143099873Y-71650748D01*
X143105324Y-71655249D01*
X143125705Y-71672080D01*
X143153120Y-71687058D01*
X143178797Y-71701087D01*
X143186717Y-71705798D01*
X143237548Y-71738620D01*
X143243117Y-71740864D01*
X143243122Y-71740867D01*
X143262395Y-71748634D01*
X143318101Y-71792649D01*
X143341168Y-71859794D01*
X143324271Y-71928751D01*
X143272776Y-71977626D01*
X143215297Y-71991500D01*
X142901866Y-71991500D01*
X142839684Y-71998255D01*
X142703295Y-72049385D01*
X142586739Y-72136739D01*
X142499385Y-72253295D01*
X142448255Y-72389684D01*
X142441500Y-72451866D01*
X142440361Y-72451742D01*
X142418289Y-72514234D01*
X142362206Y-72557768D01*
X142316116Y-72566500D01*
X142172000Y-72566500D01*
X142103879Y-72546498D01*
X142057386Y-72492842D01*
X142046000Y-72440500D01*
X142046000Y-72349600D01*
X142038401Y-72276361D01*
X142035738Y-72250692D01*
X142035737Y-72250688D01*
X142035026Y-72243834D01*
X141997360Y-72130934D01*
X141981368Y-72083002D01*
X141979050Y-72076054D01*
X141885978Y-71925652D01*
X141760803Y-71800695D01*
X141752236Y-71795414D01*
X141616468Y-71711725D01*
X141616466Y-71711724D01*
X141610238Y-71707885D01*
X141489373Y-71667796D01*
X141448889Y-71654368D01*
X141448887Y-71654368D01*
X141442361Y-71652203D01*
X141435525Y-71651503D01*
X141435522Y-71651502D01*
X141389999Y-71646838D01*
X141337900Y-71641500D01*
X140412100Y-71641500D01*
X140408854Y-71641837D01*
X140408850Y-71641837D01*
X140313192Y-71651762D01*
X140313188Y-71651763D01*
X140306334Y-71652474D01*
X140299798Y-71654655D01*
X140299796Y-71654655D01*
X140202673Y-71687058D01*
X140138554Y-71708450D01*
X139988152Y-71801522D01*
X139863195Y-71926697D01*
X139859355Y-71932927D01*
X139859354Y-71932928D01*
X139784249Y-72054771D01*
X139770385Y-72077262D01*
X139714703Y-72245139D01*
X139704000Y-72349600D01*
X139704000Y-74650400D01*
X139704337Y-74653646D01*
X139704337Y-74653650D01*
X139714252Y-74749206D01*
X139714974Y-74756166D01*
X139717155Y-74762702D01*
X139717155Y-74762704D01*
X139739710Y-74830310D01*
X139770950Y-74923946D01*
X139864022Y-75074348D01*
X139989197Y-75199305D01*
X139995427Y-75203145D01*
X139995428Y-75203146D01*
X140132788Y-75287816D01*
X140139762Y-75292115D01*
X140165389Y-75300615D01*
X140301111Y-75345632D01*
X140301113Y-75345632D01*
X140307639Y-75347797D01*
X140314475Y-75348497D01*
X140314478Y-75348498D01*
X140357531Y-75352909D01*
X140412100Y-75358500D01*
X141337900Y-75358500D01*
X141341146Y-75358163D01*
X141341150Y-75358163D01*
X141436808Y-75348238D01*
X141436812Y-75348237D01*
X141443666Y-75347526D01*
X141450202Y-75345345D01*
X141450204Y-75345345D01*
X141600419Y-75295229D01*
X141611446Y-75291550D01*
X141761848Y-75198478D01*
X141886805Y-75073303D01*
X141917110Y-75024140D01*
X141975775Y-74928968D01*
X141975776Y-74928966D01*
X141979615Y-74922738D01*
X141997163Y-74869832D01*
X142037594Y-74811473D01*
X142103158Y-74784236D01*
X142116756Y-74783500D01*
X142316116Y-74783500D01*
X142384237Y-74803502D01*
X142430730Y-74857158D01*
X142440826Y-74898207D01*
X142441500Y-74898134D01*
X142448255Y-74960316D01*
X142499385Y-75096705D01*
X142586739Y-75213261D01*
X142703295Y-75300615D01*
X142839684Y-75351745D01*
X142901866Y-75358500D01*
X148098134Y-75358500D01*
X148160316Y-75351745D01*
X148296705Y-75300615D01*
X148413261Y-75213261D01*
X148500615Y-75096705D01*
X148551745Y-74960316D01*
X148558500Y-74898134D01*
X148558500Y-72451866D01*
X148551745Y-72389684D01*
X148500615Y-72253295D01*
X148413261Y-72136739D01*
X148296705Y-72049385D01*
X148160316Y-71998255D01*
X148098134Y-71991500D01*
X147881412Y-71991500D01*
X147813291Y-71971498D01*
X147766798Y-71917842D01*
X147756694Y-71847568D01*
X147786188Y-71782988D01*
X147832079Y-71749559D01*
X147875818Y-71730948D01*
X147875819Y-71730948D01*
X147881336Y-71728600D01*
X147909130Y-71709888D01*
X147921797Y-71702397D01*
X147946246Y-71689806D01*
X147946253Y-71689802D01*
X147951580Y-71687058D01*
X147977700Y-71666541D01*
X147999143Y-71649697D01*
X148006609Y-71644263D01*
X148053033Y-71613009D01*
X148053048Y-71612998D01*
X148056799Y-71610472D01*
X148060924Y-71606731D01*
X148081529Y-71586126D01*
X148092792Y-71576135D01*
X148112806Y-71560414D01*
X148178731Y-71534064D01*
X148190638Y-71533500D01*
X149275400Y-71533500D01*
X149278646Y-71533163D01*
X149278650Y-71533163D01*
X149374308Y-71523238D01*
X149374312Y-71523237D01*
X149381166Y-71522526D01*
X149387702Y-71520345D01*
X149387704Y-71520345D01*
X149541998Y-71468868D01*
X149548946Y-71466550D01*
X149699348Y-71373478D01*
X149824305Y-71248303D01*
X149828338Y-71241760D01*
X149913275Y-71103968D01*
X149913276Y-71103966D01*
X149917115Y-71097738D01*
X149958868Y-70971857D01*
X149970632Y-70936389D01*
X149970632Y-70936387D01*
X149972797Y-70929861D01*
X149974609Y-70912181D01*
X149981067Y-70849143D01*
X149983500Y-70825400D01*
X149983500Y-70822095D01*
X153117001Y-70822095D01*
X153117338Y-70828614D01*
X153127257Y-70924206D01*
X153130149Y-70937600D01*
X153181588Y-71091784D01*
X153187761Y-71104962D01*
X153273063Y-71242807D01*
X153282099Y-71254208D01*
X153396829Y-71368739D01*
X153408240Y-71377751D01*
X153546243Y-71462816D01*
X153559424Y-71468963D01*
X153713710Y-71520138D01*
X153727086Y-71523005D01*
X153821438Y-71532672D01*
X153827854Y-71533000D01*
X154477885Y-71533000D01*
X154493124Y-71528525D01*
X154494329Y-71527135D01*
X154496000Y-71519452D01*
X154496000Y-71514884D01*
X155004000Y-71514884D01*
X155008475Y-71530123D01*
X155009865Y-71531328D01*
X155017548Y-71532999D01*
X155672095Y-71532999D01*
X155678614Y-71532662D01*
X155774206Y-71522743D01*
X155787600Y-71519851D01*
X155941784Y-71468412D01*
X155954962Y-71462239D01*
X156092807Y-71376937D01*
X156104208Y-71367901D01*
X156218739Y-71253171D01*
X156227751Y-71241760D01*
X156312816Y-71103757D01*
X156318963Y-71090576D01*
X156370138Y-70936290D01*
X156373005Y-70922914D01*
X156382672Y-70828562D01*
X156383000Y-70822146D01*
X156383000Y-70022115D01*
X156378525Y-70006876D01*
X156377135Y-70005671D01*
X156369452Y-70004000D01*
X155022115Y-70004000D01*
X155006876Y-70008475D01*
X155005671Y-70009865D01*
X155004000Y-70017548D01*
X155004000Y-71514884D01*
X154496000Y-71514884D01*
X154496000Y-70022115D01*
X154491525Y-70006876D01*
X154490135Y-70005671D01*
X154482452Y-70004000D01*
X153135116Y-70004000D01*
X153119877Y-70008475D01*
X153118672Y-70009865D01*
X153117001Y-70017548D01*
X153117001Y-70822095D01*
X149983500Y-70822095D01*
X149983500Y-69477885D01*
X153117000Y-69477885D01*
X153121475Y-69493124D01*
X153122865Y-69494329D01*
X153130548Y-69496000D01*
X154477885Y-69496000D01*
X154493124Y-69491525D01*
X154494329Y-69490135D01*
X154496000Y-69482452D01*
X154496000Y-69477885D01*
X155004000Y-69477885D01*
X155008475Y-69493124D01*
X155009865Y-69494329D01*
X155017548Y-69496000D01*
X156364884Y-69496000D01*
X156380123Y-69491525D01*
X156381328Y-69490135D01*
X156382999Y-69482452D01*
X156382999Y-68677905D01*
X156382662Y-68671386D01*
X156372743Y-68575794D01*
X156369851Y-68562400D01*
X156318412Y-68408216D01*
X156312239Y-68395038D01*
X156226937Y-68257193D01*
X156217901Y-68245792D01*
X156103171Y-68131261D01*
X156091760Y-68122249D01*
X155953757Y-68037184D01*
X155940576Y-68031037D01*
X155786290Y-67979862D01*
X155772914Y-67976995D01*
X155678562Y-67967328D01*
X155672145Y-67967000D01*
X155022115Y-67967000D01*
X155006876Y-67971475D01*
X155005671Y-67972865D01*
X155004000Y-67980548D01*
X155004000Y-69477885D01*
X154496000Y-69477885D01*
X154496000Y-67985116D01*
X154491525Y-67969877D01*
X154490135Y-67968672D01*
X154482452Y-67967001D01*
X153827905Y-67967001D01*
X153821386Y-67967338D01*
X153725794Y-67977257D01*
X153712400Y-67980149D01*
X153558216Y-68031588D01*
X153545038Y-68037761D01*
X153407193Y-68123063D01*
X153395792Y-68132099D01*
X153281261Y-68246829D01*
X153272249Y-68258240D01*
X153187184Y-68396243D01*
X153181037Y-68409424D01*
X153129862Y-68563710D01*
X153126995Y-68577086D01*
X153117328Y-68671438D01*
X153117000Y-68677855D01*
X153117000Y-69477885D01*
X149983500Y-69477885D01*
X149983500Y-68674600D01*
X149973415Y-68577399D01*
X149973238Y-68575692D01*
X149973237Y-68575688D01*
X149972526Y-68568834D01*
X149916550Y-68401054D01*
X149823478Y-68250652D01*
X149698303Y-68125695D01*
X149692072Y-68121854D01*
X149553968Y-68036725D01*
X149553966Y-68036724D01*
X149547738Y-68032885D01*
X149424916Y-67992147D01*
X149386389Y-67979368D01*
X149386387Y-67979368D01*
X149379861Y-67977203D01*
X149373025Y-67976503D01*
X149373022Y-67976502D01*
X149329969Y-67972091D01*
X149275400Y-67966500D01*
X147424600Y-67966500D01*
X147421354Y-67966837D01*
X147421350Y-67966837D01*
X147325692Y-67976762D01*
X147325688Y-67976763D01*
X147318834Y-67977474D01*
X147312298Y-67979655D01*
X147312296Y-67979655D01*
X147228721Y-68007538D01*
X147151054Y-68033450D01*
X147000652Y-68126522D01*
X146935622Y-68191666D01*
X146922224Y-68205087D01*
X146859942Y-68239166D01*
X146789122Y-68234163D01*
X146732249Y-68191666D01*
X146713527Y-68155944D01*
X146668413Y-68020718D01*
X146662239Y-68007538D01*
X146576937Y-67869693D01*
X146567901Y-67858292D01*
X146453171Y-67743761D01*
X146441760Y-67734749D01*
X146303757Y-67649684D01*
X146290576Y-67643537D01*
X146136290Y-67592362D01*
X146122914Y-67589495D01*
X146028562Y-67579828D01*
X146022145Y-67579500D01*
X145772115Y-67579500D01*
X145756876Y-67583975D01*
X145755671Y-67585365D01*
X145754000Y-67593048D01*
X145754000Y-68803000D01*
X145733998Y-68871121D01*
X145680342Y-68917614D01*
X145628000Y-68929000D01*
X145372000Y-68929000D01*
X145303879Y-68908998D01*
X145257386Y-68855342D01*
X145246000Y-68803000D01*
X145246000Y-67597616D01*
X145241525Y-67582377D01*
X145240135Y-67581172D01*
X145232452Y-67579501D01*
X144977905Y-67579501D01*
X144971386Y-67579838D01*
X144875794Y-67589757D01*
X144862400Y-67592649D01*
X144708216Y-67644088D01*
X144695038Y-67650261D01*
X144626809Y-67692483D01*
X144558357Y-67711321D01*
X144490588Y-67690160D01*
X144445016Y-67635719D01*
X144436112Y-67565283D01*
X144471411Y-67496244D01*
X145572250Y-66395405D01*
X145634562Y-66361379D01*
X145661345Y-66358500D01*
X146160909Y-66358500D01*
X146178989Y-66359804D01*
X146189664Y-66361352D01*
X146189667Y-66361352D01*
X146195604Y-66362213D01*
X146272907Y-66358635D01*
X146278732Y-66358500D01*
X153371941Y-66358500D01*
X153440062Y-66378502D01*
X153486555Y-66432158D01*
X153497251Y-66497670D01*
X153493013Y-66537992D01*
X153486496Y-66600000D01*
X153487186Y-66606565D01*
X153502899Y-66756062D01*
X153506458Y-66789928D01*
X153565473Y-66971556D01*
X153568776Y-66977278D01*
X153568777Y-66977279D01*
X153587244Y-67009264D01*
X153660960Y-67136944D01*
X153665378Y-67141851D01*
X153665379Y-67141852D01*
X153749658Y-67235453D01*
X153788747Y-67278866D01*
X153943248Y-67391118D01*
X153949276Y-67393802D01*
X153949278Y-67393803D01*
X154111681Y-67466109D01*
X154117712Y-67468794D01*
X154211112Y-67488647D01*
X154298056Y-67507128D01*
X154298061Y-67507128D01*
X154304513Y-67508500D01*
X154495487Y-67508500D01*
X154501939Y-67507128D01*
X154501944Y-67507128D01*
X154588888Y-67488647D01*
X154682288Y-67468794D01*
X154688319Y-67466109D01*
X154850722Y-67393803D01*
X154850724Y-67393802D01*
X154856752Y-67391118D01*
X155011253Y-67278866D01*
X155015668Y-67273963D01*
X155020580Y-67269540D01*
X155021705Y-67270789D01*
X155075014Y-67237949D01*
X155108200Y-67233500D01*
X161020801Y-67233500D01*
X161031984Y-67234027D01*
X161039477Y-67235702D01*
X161047403Y-67235453D01*
X161047404Y-67235453D01*
X161107554Y-67233562D01*
X161111513Y-67233500D01*
X161139424Y-67233500D01*
X161143359Y-67233003D01*
X161143424Y-67232995D01*
X161155261Y-67232062D01*
X161187519Y-67231048D01*
X161191538Y-67230922D01*
X161199457Y-67230673D01*
X161218911Y-67225021D01*
X161238268Y-67221013D01*
X161250498Y-67219468D01*
X161250499Y-67219468D01*
X161258365Y-67218474D01*
X161265736Y-67215555D01*
X161265738Y-67215555D01*
X161299480Y-67202196D01*
X161310710Y-67198351D01*
X161345551Y-67188229D01*
X161345552Y-67188229D01*
X161353161Y-67186018D01*
X161359980Y-67181985D01*
X161359985Y-67181983D01*
X161370596Y-67175707D01*
X161388344Y-67167012D01*
X161407185Y-67159552D01*
X161432627Y-67141068D01*
X161442955Y-67133564D01*
X161452875Y-67127048D01*
X161484103Y-67108580D01*
X161484106Y-67108578D01*
X161490930Y-67104542D01*
X161505251Y-67090221D01*
X161520285Y-67077380D01*
X161530262Y-67070131D01*
X161536675Y-67065472D01*
X161564866Y-67031395D01*
X161572856Y-67022616D01*
X165917031Y-62678441D01*
X165925321Y-62670897D01*
X165931802Y-62666784D01*
X165941241Y-62656733D01*
X165978442Y-62617117D01*
X165981197Y-62614275D01*
X166000918Y-62594554D01*
X166003396Y-62591359D01*
X166011102Y-62582337D01*
X166035942Y-62555885D01*
X166041370Y-62550105D01*
X166051130Y-62532352D01*
X166061983Y-62515829D01*
X166069537Y-62506090D01*
X166074397Y-62499825D01*
X166091960Y-62459241D01*
X166097167Y-62448611D01*
X166118479Y-62409844D01*
X166120450Y-62402167D01*
X166120452Y-62402162D01*
X166123516Y-62390226D01*
X166129922Y-62371514D01*
X166134818Y-62360201D01*
X166137965Y-62352929D01*
X166140920Y-62334277D01*
X166144881Y-62309265D01*
X166147288Y-62297644D01*
X166156312Y-62262495D01*
X166156312Y-62262494D01*
X166158284Y-62254814D01*
X166158284Y-62234553D01*
X166159835Y-62214842D01*
X166161763Y-62202669D01*
X166163003Y-62194841D01*
X166158843Y-62150830D01*
X166158284Y-62138973D01*
X166158284Y-61775774D01*
X166178286Y-61707653D01*
X166195189Y-61686679D01*
X166644770Y-61237098D01*
X166664447Y-61212865D01*
X166707456Y-61159898D01*
X166707458Y-61159895D01*
X166711798Y-61154550D01*
X166749314Y-61079470D01*
X166797655Y-61027474D01*
X166866434Y-61009867D01*
X166933813Y-61032240D01*
X166960560Y-61057260D01*
X167246591Y-61416153D01*
X167275008Y-61451809D01*
X167301823Y-61517547D01*
X167302469Y-61531442D01*
X167301585Y-61631857D01*
X167302423Y-61637081D01*
X167302423Y-61637084D01*
X167334419Y-61836585D01*
X167335354Y-61842416D01*
X167337052Y-61847423D01*
X167337052Y-61847425D01*
X167387241Y-61995465D01*
X167403822Y-62044375D01*
X167505064Y-62232059D01*
X167528809Y-62262495D01*
X167632982Y-62396024D01*
X167632985Y-62396028D01*
X167636235Y-62400193D01*
X167793649Y-62544054D01*
X167972883Y-62659598D01*
X167977740Y-62661679D01*
X167977742Y-62661680D01*
X168029780Y-62683975D01*
X168168899Y-62743579D01*
X168174034Y-62744819D01*
X168174040Y-62744821D01*
X168371046Y-62792394D01*
X168371048Y-62792394D01*
X168376190Y-62793636D01*
X168535496Y-62804664D01*
X168583656Y-62807998D01*
X168583657Y-62807998D01*
X168588930Y-62808363D01*
X168681922Y-62799153D01*
X168795885Y-62787866D01*
X168795890Y-62787865D01*
X168801141Y-62787345D01*
X168969053Y-62741497D01*
X169001747Y-62732570D01*
X169001749Y-62732569D01*
X169006859Y-62731174D01*
X169148648Y-62665393D01*
X169218860Y-62654868D01*
X169283616Y-62683975D01*
X169308060Y-62712177D01*
X169579154Y-63139353D01*
X169581888Y-63143867D01*
X170058650Y-63969643D01*
X170061193Y-63974268D01*
X170502968Y-64819305D01*
X170505314Y-64824032D01*
X170911297Y-65686789D01*
X170913444Y-65691610D01*
X171282962Y-66570661D01*
X171284904Y-66575568D01*
X171529400Y-67232995D01*
X171616095Y-67466109D01*
X171617269Y-67469267D01*
X171619004Y-67474249D01*
X171633073Y-67517548D01*
X171913665Y-68381125D01*
X171915190Y-68386177D01*
X172171608Y-69304562D01*
X172172921Y-69309674D01*
X172390664Y-70238025D01*
X172391761Y-70243187D01*
X172462409Y-70613534D01*
X172563735Y-71144702D01*
X172570434Y-71179821D01*
X172571312Y-71185011D01*
X172661781Y-71797668D01*
X172710607Y-72128314D01*
X172711269Y-72133550D01*
X172810941Y-73081877D01*
X172811382Y-73087135D01*
X172871254Y-74038769D01*
X172871475Y-74044042D01*
X172879187Y-74412181D01*
X172890995Y-74975860D01*
X172891445Y-74997361D01*
X172891445Y-75002626D01*
X172883997Y-75358172D01*
X172871475Y-75955958D01*
X172871254Y-75961231D01*
X172811382Y-76912865D01*
X172810941Y-76918123D01*
X172711269Y-77866450D01*
X172710607Y-77871686D01*
X172706233Y-77901304D01*
X172575970Y-78783447D01*
X172571314Y-78814975D01*
X172570438Y-78820158D01*
X172499719Y-79190880D01*
X172391761Y-79756813D01*
X172390664Y-79761975D01*
X172172921Y-80690326D01*
X172171608Y-80695438D01*
X171915190Y-81613823D01*
X171913665Y-81618875D01*
X171619005Y-82525749D01*
X171617270Y-82530731D01*
X171602508Y-82570424D01*
X171284904Y-83424432D01*
X171282962Y-83429339D01*
X170913444Y-84308390D01*
X170911297Y-84313211D01*
X170505314Y-85175968D01*
X170502968Y-85180695D01*
X170061193Y-86025732D01*
X170058650Y-86030357D01*
X169581888Y-86856133D01*
X169579154Y-86860647D01*
X169391346Y-87156586D01*
X169071569Y-87660476D01*
X169068239Y-87665723D01*
X169065329Y-87670104D01*
X168535703Y-88432136D01*
X168480402Y-88476657D01*
X168409808Y-88484212D01*
X168356162Y-88460665D01*
X168155182Y-88308436D01*
X168153373Y-88307040D01*
X168099017Y-88264261D01*
X168077411Y-88255574D01*
X168067908Y-88251753D01*
X168053838Y-88245058D01*
X168032367Y-88233160D01*
X168032364Y-88233159D01*
X168024514Y-88228809D01*
X168003327Y-88224038D01*
X167984014Y-88218023D01*
X167981035Y-88216825D01*
X167963873Y-88209925D01*
X167954938Y-88209048D01*
X167954936Y-88209048D01*
X167939094Y-88207494D01*
X167930506Y-88206652D01*
X167915131Y-88204176D01*
X167882415Y-88196808D01*
X167872027Y-88197463D01*
X167860744Y-88198174D01*
X167840517Y-88197822D01*
X167832936Y-88197079D01*
X167818912Y-88195703D01*
X167810092Y-88197369D01*
X167810089Y-88197369D01*
X167785964Y-88201926D01*
X167770512Y-88203865D01*
X167754795Y-88204857D01*
X167737047Y-88205976D01*
X167728606Y-88209033D01*
X167716632Y-88213369D01*
X167697117Y-88218708D01*
X167684613Y-88221070D01*
X167684609Y-88221071D01*
X167675785Y-88222738D01*
X167645906Y-88237960D01*
X167631633Y-88244152D01*
X167600093Y-88255574D01*
X167592850Y-88260877D01*
X167592848Y-88260878D01*
X167582576Y-88268399D01*
X167565339Y-88279005D01*
X167546000Y-88288857D01*
X167539469Y-88295010D01*
X167539467Y-88295012D01*
X167521598Y-88311849D01*
X167509625Y-88321808D01*
X167491913Y-88334776D01*
X167482566Y-88341619D01*
X167472279Y-88355030D01*
X167469354Y-88358843D01*
X167455786Y-88373860D01*
X167439987Y-88388746D01*
X167435446Y-88396485D01*
X167426553Y-88411640D01*
X167415941Y-88426992D01*
X166919286Y-89042527D01*
X166916334Y-89046053D01*
X166803022Y-89176450D01*
X166373657Y-89670551D01*
X166370622Y-89673917D01*
X166058909Y-90007240D01*
X165805525Y-90278190D01*
X165802323Y-90281491D01*
X165714493Y-90368794D01*
X165346900Y-90734183D01*
X165215579Y-90864716D01*
X165212265Y-90867892D01*
X164623077Y-91412275D01*
X164604607Y-91429340D01*
X164601180Y-91432392D01*
X164285929Y-91703028D01*
X163973461Y-91971275D01*
X163969919Y-91974205D01*
X163357424Y-92462353D01*
X163339325Y-92474381D01*
X163330847Y-92479014D01*
X163330843Y-92479017D01*
X163322970Y-92483320D01*
X163316619Y-92489662D01*
X163299011Y-92507244D01*
X163287435Y-92517465D01*
X163267805Y-92532763D01*
X163267798Y-92532770D01*
X163260718Y-92538288D01*
X163248225Y-92555631D01*
X163235024Y-92571139D01*
X163219900Y-92586241D01*
X163215585Y-92594110D01*
X163215583Y-92594112D01*
X163203617Y-92615932D01*
X163195374Y-92628994D01*
X163175579Y-92656472D01*
X163172586Y-92664939D01*
X163168456Y-92676622D01*
X163160136Y-92695217D01*
X163149860Y-92713954D01*
X163147927Y-92722717D01*
X163147926Y-92722719D01*
X163142565Y-92747020D01*
X163138319Y-92761870D01*
X163130025Y-92785331D01*
X163130024Y-92785336D01*
X163127031Y-92793802D01*
X163126535Y-92802767D01*
X163126534Y-92802771D01*
X163125850Y-92815136D01*
X163123084Y-92835319D01*
X163120616Y-92846507D01*
X163118479Y-92856191D01*
X163119083Y-92865148D01*
X163119083Y-92865151D01*
X163120758Y-92889978D01*
X163120851Y-92905423D01*
X163118979Y-92939236D01*
X163123236Y-92957482D01*
X163123836Y-92960056D01*
X163126844Y-92980199D01*
X163128282Y-93001518D01*
X163131376Y-93009946D01*
X163139951Y-93033305D01*
X163144375Y-93048102D01*
X163152069Y-93081085D01*
X163157567Y-93090829D01*
X163162570Y-93099697D01*
X163171111Y-93118187D01*
X163178477Y-93138253D01*
X163183809Y-93145469D01*
X163198607Y-93165498D01*
X163201782Y-93170402D01*
X163201961Y-93170282D01*
X163204671Y-93174322D01*
X163207063Y-93178561D01*
X163220218Y-93195229D01*
X163224552Y-93200721D01*
X163226980Y-93203899D01*
X163265034Y-93255404D01*
X163270325Y-93259426D01*
X163275572Y-93265369D01*
X163384251Y-93403073D01*
X163410752Y-93468938D01*
X163397437Y-93538675D01*
X163359405Y-93583069D01*
X163066622Y-93795788D01*
X163062288Y-93798800D01*
X162268069Y-94326478D01*
X162263635Y-94329292D01*
X161738005Y-94647625D01*
X161448017Y-94823248D01*
X161443447Y-94825887D01*
X160607852Y-95285258D01*
X160603175Y-95287703D01*
X159749092Y-95711674D01*
X159744317Y-95713921D01*
X158873223Y-96101757D01*
X158868358Y-96103802D01*
X157981764Y-96454830D01*
X157976840Y-96456661D01*
X157730842Y-96542326D01*
X157076360Y-96770240D01*
X157071341Y-96771871D01*
X156158500Y-97047474D01*
X156153417Y-97048893D01*
X155229871Y-97286019D01*
X155224733Y-97287225D01*
X154967679Y-97341864D01*
X154291983Y-97485488D01*
X154286878Y-97486462D01*
X153346605Y-97645498D01*
X153341455Y-97646257D01*
X152858974Y-97707208D01*
X152395439Y-97765766D01*
X152390190Y-97766318D01*
X151688201Y-97825266D01*
X151439986Y-97846109D01*
X151434728Y-97846440D01*
X150607650Y-97881105D01*
X150482051Y-97886369D01*
X150476775Y-97886480D01*
X149523225Y-97886480D01*
X149517949Y-97886369D01*
X149392350Y-97881105D01*
X148565272Y-97846440D01*
X148560014Y-97846109D01*
X148311799Y-97825266D01*
X147609810Y-97766318D01*
X147604561Y-97765766D01*
X147141026Y-97707208D01*
X146658545Y-97646257D01*
X146653395Y-97645498D01*
X145713122Y-97486462D01*
X145708017Y-97485488D01*
X145032321Y-97341864D01*
X144775267Y-97287225D01*
X144770129Y-97286019D01*
X143846583Y-97048893D01*
X143841500Y-97047474D01*
X142928659Y-96771871D01*
X142923640Y-96770240D01*
X142269158Y-96542326D01*
X142023160Y-96456661D01*
X142018236Y-96454830D01*
X141131642Y-96103802D01*
X141126777Y-96101757D01*
X140255683Y-95713921D01*
X140250908Y-95711674D01*
X139396825Y-95287703D01*
X139392148Y-95285258D01*
X138556553Y-94825887D01*
X138551983Y-94823248D01*
X138261995Y-94647625D01*
X137736365Y-94329292D01*
X137731931Y-94326478D01*
X137190414Y-93966695D01*
X145317251Y-93966695D01*
X145317548Y-93971848D01*
X145317548Y-93971851D01*
X145323011Y-94066590D01*
X145330110Y-94189715D01*
X145331247Y-94194761D01*
X145331248Y-94194767D01*
X145351119Y-94282939D01*
X145379222Y-94407639D01*
X145463266Y-94614616D01*
X145514019Y-94697438D01*
X145577291Y-94800688D01*
X145579987Y-94805088D01*
X145726250Y-94973938D01*
X145898126Y-95116632D01*
X146091000Y-95229338D01*
X146299692Y-95309030D01*
X146304760Y-95310061D01*
X146304763Y-95310062D01*
X146412017Y-95331883D01*
X146518597Y-95353567D01*
X146523772Y-95353757D01*
X146523774Y-95353757D01*
X146736673Y-95361564D01*
X146736677Y-95361564D01*
X146741837Y-95361753D01*
X146746957Y-95361097D01*
X146746959Y-95361097D01*
X146958288Y-95334025D01*
X146958289Y-95334025D01*
X146963416Y-95333368D01*
X146968366Y-95331883D01*
X147172429Y-95270661D01*
X147172434Y-95270659D01*
X147177384Y-95269174D01*
X147377994Y-95170896D01*
X147559860Y-95041173D01*
X147718096Y-94883489D01*
X147777594Y-94800689D01*
X147848453Y-94702077D01*
X147849776Y-94703028D01*
X147896645Y-94659857D01*
X147966580Y-94647625D01*
X148032026Y-94675144D01*
X148059875Y-94706994D01*
X148119987Y-94805088D01*
X148266250Y-94973938D01*
X148438126Y-95116632D01*
X148631000Y-95229338D01*
X148839692Y-95309030D01*
X148844760Y-95310061D01*
X148844763Y-95310062D01*
X148952017Y-95331883D01*
X149058597Y-95353567D01*
X149063772Y-95353757D01*
X149063774Y-95353757D01*
X149276673Y-95361564D01*
X149276677Y-95361564D01*
X149281837Y-95361753D01*
X149286957Y-95361097D01*
X149286959Y-95361097D01*
X149498288Y-95334025D01*
X149498289Y-95334025D01*
X149503416Y-95333368D01*
X149508366Y-95331883D01*
X149712429Y-95270661D01*
X149712434Y-95270659D01*
X149717384Y-95269174D01*
X149917994Y-95170896D01*
X150099860Y-95041173D01*
X150258096Y-94883489D01*
X150317594Y-94800689D01*
X150388453Y-94702077D01*
X150389776Y-94703028D01*
X150436645Y-94659857D01*
X150506580Y-94647625D01*
X150572026Y-94675144D01*
X150599875Y-94706994D01*
X150659987Y-94805088D01*
X150806250Y-94973938D01*
X150978126Y-95116632D01*
X151171000Y-95229338D01*
X151379692Y-95309030D01*
X151384760Y-95310061D01*
X151384763Y-95310062D01*
X151492017Y-95331883D01*
X151598597Y-95353567D01*
X151603772Y-95353757D01*
X151603774Y-95353757D01*
X151816673Y-95361564D01*
X151816677Y-95361564D01*
X151821837Y-95361753D01*
X151826957Y-95361097D01*
X151826959Y-95361097D01*
X152038288Y-95334025D01*
X152038289Y-95334025D01*
X152043416Y-95333368D01*
X152048366Y-95331883D01*
X152252429Y-95270661D01*
X152252434Y-95270659D01*
X152257384Y-95269174D01*
X152457994Y-95170896D01*
X152639860Y-95041173D01*
X152798096Y-94883489D01*
X152857594Y-94800689D01*
X152928453Y-94702077D01*
X152929776Y-94703028D01*
X152976645Y-94659857D01*
X153046580Y-94647625D01*
X153112026Y-94675144D01*
X153139875Y-94706994D01*
X153199987Y-94805088D01*
X153346250Y-94973938D01*
X153518126Y-95116632D01*
X153711000Y-95229338D01*
X153919692Y-95309030D01*
X153924760Y-95310061D01*
X153924763Y-95310062D01*
X154032017Y-95331883D01*
X154138597Y-95353567D01*
X154143772Y-95353757D01*
X154143774Y-95353757D01*
X154356673Y-95361564D01*
X154356677Y-95361564D01*
X154361837Y-95361753D01*
X154366957Y-95361097D01*
X154366959Y-95361097D01*
X154578288Y-95334025D01*
X154578289Y-95334025D01*
X154583416Y-95333368D01*
X154588366Y-95331883D01*
X154792429Y-95270661D01*
X154792434Y-95270659D01*
X154797384Y-95269174D01*
X154997994Y-95170896D01*
X155179860Y-95041173D01*
X155338096Y-94883489D01*
X155397594Y-94800689D01*
X155465435Y-94706277D01*
X155468453Y-94702077D01*
X155489320Y-94659857D01*
X155565136Y-94506453D01*
X155565137Y-94506451D01*
X155567430Y-94501811D01*
X155632370Y-94288069D01*
X155661529Y-94066590D01*
X155663156Y-94000000D01*
X155644852Y-93777361D01*
X155590431Y-93560702D01*
X155501354Y-93355840D01*
X155432217Y-93248971D01*
X155382822Y-93172617D01*
X155382820Y-93172614D01*
X155380014Y-93168277D01*
X155229670Y-93003051D01*
X155225619Y-92999852D01*
X155225615Y-92999848D01*
X155058414Y-92867800D01*
X155058410Y-92867798D01*
X155054359Y-92864598D01*
X155018182Y-92844627D01*
X154942359Y-92802771D01*
X154858789Y-92756638D01*
X154853920Y-92754914D01*
X154853916Y-92754912D01*
X154653087Y-92683795D01*
X154653083Y-92683794D01*
X154648212Y-92682069D01*
X154643119Y-92681162D01*
X154643116Y-92681161D01*
X154433373Y-92643800D01*
X154433367Y-92643799D01*
X154428284Y-92642894D01*
X154354452Y-92641992D01*
X154210081Y-92640228D01*
X154210079Y-92640228D01*
X154204911Y-92640165D01*
X153984091Y-92673955D01*
X153771756Y-92743357D01*
X153741443Y-92759137D01*
X153639280Y-92812320D01*
X153573607Y-92846507D01*
X153569474Y-92849610D01*
X153569471Y-92849612D01*
X153399100Y-92977530D01*
X153394965Y-92980635D01*
X153391393Y-92984373D01*
X153244342Y-93138253D01*
X153240629Y-93142138D01*
X153133201Y-93299621D01*
X153078293Y-93344621D01*
X153007768Y-93352792D01*
X152944021Y-93321538D01*
X152923324Y-93297054D01*
X152842822Y-93172617D01*
X152842820Y-93172614D01*
X152840014Y-93168277D01*
X152689670Y-93003051D01*
X152685619Y-92999852D01*
X152685615Y-92999848D01*
X152518414Y-92867800D01*
X152518410Y-92867798D01*
X152514359Y-92864598D01*
X152478182Y-92844627D01*
X152402359Y-92802771D01*
X152318789Y-92756638D01*
X152313920Y-92754914D01*
X152313916Y-92754912D01*
X152113087Y-92683795D01*
X152113083Y-92683794D01*
X152108212Y-92682069D01*
X152103119Y-92681162D01*
X152103116Y-92681161D01*
X151893373Y-92643800D01*
X151893367Y-92643799D01*
X151888284Y-92642894D01*
X151814452Y-92641992D01*
X151670081Y-92640228D01*
X151670079Y-92640228D01*
X151664911Y-92640165D01*
X151444091Y-92673955D01*
X151231756Y-92743357D01*
X151201443Y-92759137D01*
X151099280Y-92812320D01*
X151033607Y-92846507D01*
X151029474Y-92849610D01*
X151029471Y-92849612D01*
X150859100Y-92977530D01*
X150854965Y-92980635D01*
X150851393Y-92984373D01*
X150704342Y-93138253D01*
X150700629Y-93142138D01*
X150593201Y-93299621D01*
X150538293Y-93344621D01*
X150467768Y-93352792D01*
X150404021Y-93321538D01*
X150383324Y-93297054D01*
X150302822Y-93172617D01*
X150302820Y-93172614D01*
X150300014Y-93168277D01*
X150149670Y-93003051D01*
X150145619Y-92999852D01*
X150145615Y-92999848D01*
X149978414Y-92867800D01*
X149978410Y-92867798D01*
X149974359Y-92864598D01*
X149938182Y-92844627D01*
X149862359Y-92802771D01*
X149778789Y-92756638D01*
X149773920Y-92754914D01*
X149773916Y-92754912D01*
X149573087Y-92683795D01*
X149573083Y-92683794D01*
X149568212Y-92682069D01*
X149563119Y-92681162D01*
X149563116Y-92681161D01*
X149353373Y-92643800D01*
X149353367Y-92643799D01*
X149348284Y-92642894D01*
X149274452Y-92641992D01*
X149130081Y-92640228D01*
X149130079Y-92640228D01*
X149124911Y-92640165D01*
X148904091Y-92673955D01*
X148691756Y-92743357D01*
X148661443Y-92759137D01*
X148559280Y-92812320D01*
X148493607Y-92846507D01*
X148489474Y-92849610D01*
X148489471Y-92849612D01*
X148319100Y-92977530D01*
X148314965Y-92980635D01*
X148311393Y-92984373D01*
X148164342Y-93138253D01*
X148160629Y-93142138D01*
X148053201Y-93299621D01*
X147998293Y-93344621D01*
X147927768Y-93352792D01*
X147864021Y-93321538D01*
X147843324Y-93297054D01*
X147762822Y-93172617D01*
X147762820Y-93172614D01*
X147760014Y-93168277D01*
X147609670Y-93003051D01*
X147605619Y-92999852D01*
X147605615Y-92999848D01*
X147438414Y-92867800D01*
X147438410Y-92867798D01*
X147434359Y-92864598D01*
X147398182Y-92844627D01*
X147322359Y-92802771D01*
X147238789Y-92756638D01*
X147233920Y-92754914D01*
X147233916Y-92754912D01*
X147033087Y-92683795D01*
X147033083Y-92683794D01*
X147028212Y-92682069D01*
X147023119Y-92681162D01*
X147023116Y-92681161D01*
X146813373Y-92643800D01*
X146813367Y-92643799D01*
X146808284Y-92642894D01*
X146734452Y-92641992D01*
X146590081Y-92640228D01*
X146590079Y-92640228D01*
X146584911Y-92640165D01*
X146364091Y-92673955D01*
X146151756Y-92743357D01*
X146121443Y-92759137D01*
X146019280Y-92812320D01*
X145953607Y-92846507D01*
X145949474Y-92849610D01*
X145949471Y-92849612D01*
X145779100Y-92977530D01*
X145774965Y-92980635D01*
X145771393Y-92984373D01*
X145624342Y-93138253D01*
X145620629Y-93142138D01*
X145617720Y-93146403D01*
X145617714Y-93146411D01*
X145578494Y-93203905D01*
X145494743Y-93326680D01*
X145400688Y-93529305D01*
X145340989Y-93744570D01*
X145317251Y-93966695D01*
X137190414Y-93966695D01*
X136937712Y-93798800D01*
X136933378Y-93795788D01*
X136605042Y-93557238D01*
X136561688Y-93501016D01*
X136555613Y-93430280D01*
X136578658Y-93379232D01*
X136698101Y-93221526D01*
X136699509Y-93219703D01*
X136736731Y-93172407D01*
X136736734Y-93172403D01*
X136742284Y-93165350D01*
X136754799Y-93134223D01*
X136761484Y-93120174D01*
X136771233Y-93102579D01*
X136773392Y-93098682D01*
X136773392Y-93098681D01*
X136777743Y-93090829D01*
X136782509Y-93069662D01*
X136788527Y-93050337D01*
X136793272Y-93038535D01*
X136793273Y-93038533D01*
X136796620Y-93030207D01*
X136799896Y-92996822D01*
X136802368Y-92981463D01*
X136809738Y-92948729D01*
X136809139Y-92939236D01*
X136808372Y-92927073D01*
X136808724Y-92906839D01*
X136809965Y-92894183D01*
X136810842Y-92885245D01*
X136809176Y-92876426D01*
X136809176Y-92876420D01*
X136804618Y-92852289D01*
X136802679Y-92836842D01*
X136801131Y-92812320D01*
X136800566Y-92803361D01*
X136793176Y-92782957D01*
X136787832Y-92763429D01*
X136785474Y-92750944D01*
X136785474Y-92750943D01*
X136783807Y-92742119D01*
X136768587Y-92712243D01*
X136762391Y-92697961D01*
X136754021Y-92674852D01*
X136754018Y-92674846D01*
X136750962Y-92666409D01*
X136738141Y-92648899D01*
X136727533Y-92631658D01*
X136721764Y-92620334D01*
X136717688Y-92612333D01*
X136694690Y-92587925D01*
X136684733Y-92575954D01*
X136670220Y-92556132D01*
X136670214Y-92556126D01*
X136664913Y-92548886D01*
X136647697Y-92535681D01*
X136632676Y-92522110D01*
X136617799Y-92506320D01*
X136594870Y-92492866D01*
X136579533Y-92482267D01*
X135966671Y-91987927D01*
X135963175Y-91985001D01*
X135341090Y-91444933D01*
X135337702Y-91441882D01*
X135151436Y-91267966D01*
X144138257Y-91267966D01*
X144168565Y-91402446D01*
X144171645Y-91412275D01*
X144251770Y-91609603D01*
X144256413Y-91618794D01*
X144367694Y-91800388D01*
X144373777Y-91808699D01*
X144513213Y-91969667D01*
X144520580Y-91976883D01*
X144684434Y-92112916D01*
X144692881Y-92118831D01*
X144876756Y-92226279D01*
X144886042Y-92230729D01*
X145085001Y-92306703D01*
X145094899Y-92309579D01*
X145198250Y-92330606D01*
X145212299Y-92329410D01*
X145216000Y-92319065D01*
X145216000Y-92318517D01*
X145724000Y-92318517D01*
X145728064Y-92332359D01*
X145741478Y-92334393D01*
X145748184Y-92333534D01*
X145758262Y-92331392D01*
X145962255Y-92270191D01*
X145971842Y-92266433D01*
X146163095Y-92172739D01*
X146171945Y-92167464D01*
X146345328Y-92043792D01*
X146353200Y-92037139D01*
X146504052Y-91886812D01*
X146510730Y-91878965D01*
X146638022Y-91701819D01*
X146639279Y-91702722D01*
X146686373Y-91659362D01*
X146756311Y-91647145D01*
X146821751Y-91674678D01*
X146849579Y-91706511D01*
X146909987Y-91805088D01*
X147056250Y-91973938D01*
X147228126Y-92116632D01*
X147421000Y-92229338D01*
X147629692Y-92309030D01*
X147634760Y-92310061D01*
X147634763Y-92310062D01*
X147729862Y-92329410D01*
X147848597Y-92353567D01*
X147853772Y-92353757D01*
X147853774Y-92353757D01*
X148066673Y-92361564D01*
X148066677Y-92361564D01*
X148071837Y-92361753D01*
X148076957Y-92361097D01*
X148076959Y-92361097D01*
X148288288Y-92334025D01*
X148288289Y-92334025D01*
X148293416Y-92333368D01*
X148298366Y-92331883D01*
X148502429Y-92270661D01*
X148502434Y-92270659D01*
X148507384Y-92269174D01*
X148707994Y-92170896D01*
X148889860Y-92041173D01*
X148910058Y-92021046D01*
X149044435Y-91887137D01*
X149048096Y-91883489D01*
X149178453Y-91702077D01*
X149179776Y-91703028D01*
X149226645Y-91659857D01*
X149296580Y-91647625D01*
X149362026Y-91675144D01*
X149389875Y-91706994D01*
X149449987Y-91805088D01*
X149596250Y-91973938D01*
X149768126Y-92116632D01*
X149961000Y-92229338D01*
X150169692Y-92309030D01*
X150174760Y-92310061D01*
X150174763Y-92310062D01*
X150269862Y-92329410D01*
X150388597Y-92353567D01*
X150393772Y-92353757D01*
X150393774Y-92353757D01*
X150606673Y-92361564D01*
X150606677Y-92361564D01*
X150611837Y-92361753D01*
X150616957Y-92361097D01*
X150616959Y-92361097D01*
X150828288Y-92334025D01*
X150828289Y-92334025D01*
X150833416Y-92333368D01*
X150838366Y-92331883D01*
X151042429Y-92270661D01*
X151042434Y-92270659D01*
X151047384Y-92269174D01*
X151247994Y-92170896D01*
X151429860Y-92041173D01*
X151450058Y-92021046D01*
X151584435Y-91887137D01*
X151588096Y-91883489D01*
X151718453Y-91702077D01*
X151719776Y-91703028D01*
X151766645Y-91659857D01*
X151836580Y-91647625D01*
X151902026Y-91675144D01*
X151929875Y-91706994D01*
X151989987Y-91805088D01*
X152136250Y-91973938D01*
X152308126Y-92116632D01*
X152501000Y-92229338D01*
X152709692Y-92309030D01*
X152714760Y-92310061D01*
X152714763Y-92310062D01*
X152809862Y-92329410D01*
X152928597Y-92353567D01*
X152933772Y-92353757D01*
X152933774Y-92353757D01*
X153146673Y-92361564D01*
X153146677Y-92361564D01*
X153151837Y-92361753D01*
X153156957Y-92361097D01*
X153156959Y-92361097D01*
X153368288Y-92334025D01*
X153368289Y-92334025D01*
X153373416Y-92333368D01*
X153378366Y-92331883D01*
X153582429Y-92270661D01*
X153582434Y-92270659D01*
X153587384Y-92269174D01*
X153787994Y-92170896D01*
X153969860Y-92041173D01*
X153990058Y-92021046D01*
X154124435Y-91887137D01*
X154128096Y-91883489D01*
X154258453Y-91702077D01*
X154271995Y-91674678D01*
X154355136Y-91506453D01*
X154355137Y-91506451D01*
X154357430Y-91501811D01*
X154392240Y-91387237D01*
X154420865Y-91293023D01*
X154420865Y-91293021D01*
X154422370Y-91288069D01*
X154451529Y-91066590D01*
X154453156Y-91000000D01*
X154434852Y-90777361D01*
X154380431Y-90560702D01*
X154291354Y-90355840D01*
X154243255Y-90281491D01*
X154172822Y-90172617D01*
X154172820Y-90172614D01*
X154170014Y-90168277D01*
X154019670Y-90003051D01*
X154015619Y-89999852D01*
X154015615Y-89999848D01*
X153848414Y-89867800D01*
X153848410Y-89867798D01*
X153844359Y-89864598D01*
X153808028Y-89844542D01*
X153792136Y-89835769D01*
X153648789Y-89756638D01*
X153643920Y-89754914D01*
X153643916Y-89754912D01*
X153443087Y-89683795D01*
X153443083Y-89683794D01*
X153438212Y-89682069D01*
X153433119Y-89681162D01*
X153433116Y-89681161D01*
X153223373Y-89643800D01*
X153223367Y-89643799D01*
X153218284Y-89642894D01*
X153144452Y-89641992D01*
X153000081Y-89640228D01*
X153000079Y-89640228D01*
X152994911Y-89640165D01*
X152774091Y-89673955D01*
X152561756Y-89743357D01*
X152483455Y-89784118D01*
X152428429Y-89812763D01*
X152363607Y-89846507D01*
X152359474Y-89849610D01*
X152359471Y-89849612D01*
X152264213Y-89921134D01*
X152184965Y-89980635D01*
X152030629Y-90142138D01*
X151923201Y-90299621D01*
X151868293Y-90344621D01*
X151797768Y-90352792D01*
X151734021Y-90321538D01*
X151713324Y-90297054D01*
X151632822Y-90172617D01*
X151632820Y-90172614D01*
X151630014Y-90168277D01*
X151479670Y-90003051D01*
X151475619Y-89999852D01*
X151475615Y-89999848D01*
X151308414Y-89867800D01*
X151308410Y-89867798D01*
X151304359Y-89864598D01*
X151268028Y-89844542D01*
X151252136Y-89835769D01*
X151108789Y-89756638D01*
X151103920Y-89754914D01*
X151103916Y-89754912D01*
X150903087Y-89683795D01*
X150903083Y-89683794D01*
X150898212Y-89682069D01*
X150893119Y-89681162D01*
X150893116Y-89681161D01*
X150683373Y-89643800D01*
X150683367Y-89643799D01*
X150678284Y-89642894D01*
X150604452Y-89641992D01*
X150460081Y-89640228D01*
X150460079Y-89640228D01*
X150454911Y-89640165D01*
X150234091Y-89673955D01*
X150021756Y-89743357D01*
X149943455Y-89784118D01*
X149888429Y-89812763D01*
X149823607Y-89846507D01*
X149819474Y-89849610D01*
X149819471Y-89849612D01*
X149724213Y-89921134D01*
X149644965Y-89980635D01*
X149490629Y-90142138D01*
X149383201Y-90299621D01*
X149328293Y-90344621D01*
X149257768Y-90352792D01*
X149194021Y-90321538D01*
X149173324Y-90297054D01*
X149092822Y-90172617D01*
X149092820Y-90172614D01*
X149090014Y-90168277D01*
X148939670Y-90003051D01*
X148935619Y-89999852D01*
X148935615Y-89999848D01*
X148768414Y-89867800D01*
X148768410Y-89867798D01*
X148764359Y-89864598D01*
X148728028Y-89844542D01*
X148712136Y-89835769D01*
X148568789Y-89756638D01*
X148563920Y-89754914D01*
X148563916Y-89754912D01*
X148363087Y-89683795D01*
X148363083Y-89683794D01*
X148358212Y-89682069D01*
X148353119Y-89681162D01*
X148353116Y-89681161D01*
X148143373Y-89643800D01*
X148143367Y-89643799D01*
X148138284Y-89642894D01*
X148064452Y-89641992D01*
X147920081Y-89640228D01*
X147920079Y-89640228D01*
X147914911Y-89640165D01*
X147694091Y-89673955D01*
X147481756Y-89743357D01*
X147403455Y-89784118D01*
X147348429Y-89812763D01*
X147283607Y-89846507D01*
X147279474Y-89849610D01*
X147279471Y-89849612D01*
X147184213Y-89921134D01*
X147104965Y-89980635D01*
X146950629Y-90142138D01*
X146947720Y-90146403D01*
X146947714Y-90146411D01*
X146935404Y-90164457D01*
X146843204Y-90299618D01*
X146842898Y-90300066D01*
X146787987Y-90345069D01*
X146717462Y-90353240D01*
X146653715Y-90321986D01*
X146633018Y-90297502D01*
X146552426Y-90172926D01*
X146546136Y-90164757D01*
X146402806Y-90007240D01*
X146395273Y-90000215D01*
X146228139Y-89868222D01*
X146219552Y-89862517D01*
X146033117Y-89759599D01*
X146023705Y-89755369D01*
X145822959Y-89684280D01*
X145812988Y-89681646D01*
X145741837Y-89668972D01*
X145728540Y-89670432D01*
X145724000Y-89684989D01*
X145724000Y-92318517D01*
X145216000Y-92318517D01*
X145216000Y-91272115D01*
X145211525Y-91256876D01*
X145210135Y-91255671D01*
X145202452Y-91254000D01*
X144153225Y-91254000D01*
X144139694Y-91257973D01*
X144138257Y-91267966D01*
X135151436Y-91267966D01*
X134735568Y-90879671D01*
X134732293Y-90876500D01*
X134598911Y-90742607D01*
X134590519Y-90734183D01*
X144134389Y-90734183D01*
X144135912Y-90742607D01*
X144148292Y-90746000D01*
X145197885Y-90746000D01*
X145213124Y-90741525D01*
X145214329Y-90740135D01*
X145216000Y-90732452D01*
X145216000Y-89683102D01*
X145212082Y-89669758D01*
X145197806Y-89667771D01*
X145159324Y-89673660D01*
X145149288Y-89676051D01*
X144946868Y-89742212D01*
X144937359Y-89746209D01*
X144748463Y-89844542D01*
X144739738Y-89850036D01*
X144569433Y-89977905D01*
X144561726Y-89984748D01*
X144414590Y-90138717D01*
X144408104Y-90146727D01*
X144288098Y-90322649D01*
X144283000Y-90331623D01*
X144193338Y-90524783D01*
X144189775Y-90534470D01*
X144134389Y-90734183D01*
X134590519Y-90734183D01*
X134227889Y-90370166D01*
X134150906Y-90292888D01*
X134147747Y-90289601D01*
X133699836Y-89806197D01*
X133587806Y-89685289D01*
X133584774Y-89681895D01*
X133047104Y-89057773D01*
X133044198Y-89054274D01*
X133042397Y-89052023D01*
X132854503Y-88817251D01*
X132687098Y-88608079D01*
X132660149Y-88542396D01*
X132659477Y-88528230D01*
X132660148Y-88452598D01*
X132660359Y-88428827D01*
X132658898Y-88419710D01*
X132634639Y-88268399D01*
X132626602Y-88218267D01*
X132624903Y-88213254D01*
X132559842Y-88021312D01*
X132559840Y-88021307D01*
X132558144Y-88016304D01*
X132456910Y-87828615D01*
X132402248Y-87758544D01*
X132328999Y-87664648D01*
X132328996Y-87664645D01*
X132325744Y-87660476D01*
X132278575Y-87617366D01*
X132172243Y-87520184D01*
X132172239Y-87520181D01*
X132168333Y-87516611D01*
X131989100Y-87401064D01*
X131793084Y-87317082D01*
X131787949Y-87315842D01*
X131787943Y-87315840D01*
X131590946Y-87268269D01*
X131590942Y-87268268D01*
X131585793Y-87267025D01*
X131580507Y-87266659D01*
X131580506Y-87266659D01*
X131378331Y-87252666D01*
X131378327Y-87252666D01*
X131373052Y-87252301D01*
X131229453Y-87266525D01*
X131166109Y-87272800D01*
X131166107Y-87272800D01*
X131160841Y-87273322D01*
X131155739Y-87274715D01*
X131155735Y-87274716D01*
X130960225Y-87328106D01*
X130955124Y-87329499D01*
X130950331Y-87331723D01*
X130950328Y-87331724D01*
X130872458Y-87367855D01*
X130802246Y-87378382D01*
X130737489Y-87349279D01*
X130713041Y-87321073D01*
X130420846Y-86860647D01*
X130418112Y-86856133D01*
X129941350Y-86030357D01*
X129938807Y-86025732D01*
X129497032Y-85180695D01*
X129494686Y-85175968D01*
X129088703Y-84313211D01*
X129086556Y-84308390D01*
X128851831Y-83750000D01*
X130386372Y-83750000D01*
X130406854Y-84010249D01*
X130408008Y-84015056D01*
X130408009Y-84015062D01*
X130418415Y-84058404D01*
X130467796Y-84264089D01*
X130469689Y-84268660D01*
X130469690Y-84268662D01*
X130558528Y-84483134D01*
X130567697Y-84505271D01*
X130704097Y-84727856D01*
X130873637Y-84926363D01*
X131072144Y-85095903D01*
X131294729Y-85232303D01*
X131299299Y-85234196D01*
X131299303Y-85234198D01*
X131531338Y-85330310D01*
X131535911Y-85332204D01*
X131624931Y-85353576D01*
X131784938Y-85391991D01*
X131784944Y-85391992D01*
X131789751Y-85393146D01*
X132050000Y-85413628D01*
X132310249Y-85393146D01*
X132315056Y-85391992D01*
X132315062Y-85391991D01*
X132475069Y-85353576D01*
X132564089Y-85332204D01*
X132568662Y-85330310D01*
X132800697Y-85234198D01*
X132800701Y-85234196D01*
X132805271Y-85232303D01*
X133027856Y-85095903D01*
X133226363Y-84926363D01*
X133338840Y-84794669D01*
X138842001Y-84794669D01*
X138842371Y-84801490D01*
X138847895Y-84852352D01*
X138851521Y-84867604D01*
X138896676Y-84988054D01*
X138905214Y-85003649D01*
X138981715Y-85105724D01*
X138994276Y-85118285D01*
X139096351Y-85194786D01*
X139111946Y-85203324D01*
X139232394Y-85248478D01*
X139247649Y-85252105D01*
X139298514Y-85257631D01*
X139305328Y-85258000D01*
X139977885Y-85258000D01*
X139993124Y-85253525D01*
X139994329Y-85252135D01*
X139996000Y-85244452D01*
X139996000Y-83272115D01*
X139991525Y-83256876D01*
X139990135Y-83255671D01*
X139982452Y-83254000D01*
X138860116Y-83254000D01*
X138844877Y-83258475D01*
X138843672Y-83259865D01*
X138842001Y-83267548D01*
X138842001Y-84794669D01*
X133338840Y-84794669D01*
X133395903Y-84727856D01*
X133532303Y-84505271D01*
X133541473Y-84483134D01*
X133630310Y-84268662D01*
X133630311Y-84268660D01*
X133632204Y-84264089D01*
X133681585Y-84058404D01*
X133691991Y-84015062D01*
X133691992Y-84015056D01*
X133693146Y-84010249D01*
X133713628Y-83750000D01*
X133693146Y-83489751D01*
X133691992Y-83484944D01*
X133691991Y-83484938D01*
X133642660Y-83279462D01*
X133632204Y-83235911D01*
X133623222Y-83214226D01*
X133534198Y-82999303D01*
X133534196Y-82999299D01*
X133532303Y-82994729D01*
X133395903Y-82772144D01*
X133358102Y-82727885D01*
X138842000Y-82727885D01*
X138846475Y-82743124D01*
X138847865Y-82744329D01*
X138855548Y-82746000D01*
X139977885Y-82746000D01*
X139993124Y-82741525D01*
X139994329Y-82740135D01*
X139996000Y-82732452D01*
X139996000Y-80760116D01*
X139991525Y-80744877D01*
X139990135Y-80743672D01*
X139982452Y-80742001D01*
X139305331Y-80742001D01*
X139298510Y-80742371D01*
X139247648Y-80747895D01*
X139232396Y-80751521D01*
X139111946Y-80796676D01*
X139096351Y-80805214D01*
X138994276Y-80881715D01*
X138981715Y-80894276D01*
X138905214Y-80996351D01*
X138896676Y-81011946D01*
X138851522Y-81132394D01*
X138847895Y-81147649D01*
X138842369Y-81198514D01*
X138842000Y-81205328D01*
X138842000Y-82727885D01*
X133358102Y-82727885D01*
X133226363Y-82573637D01*
X133027856Y-82404097D01*
X132805271Y-82267697D01*
X132800701Y-82265804D01*
X132800697Y-82265802D01*
X132568662Y-82169690D01*
X132568660Y-82169689D01*
X132564089Y-82167796D01*
X132375498Y-82122519D01*
X132313929Y-82087167D01*
X132281246Y-82024140D01*
X132287827Y-81953449D01*
X132331581Y-81897538D01*
X132375498Y-81877481D01*
X132410686Y-81869033D01*
X132564089Y-81832204D01*
X132578560Y-81826210D01*
X132800697Y-81734198D01*
X132800701Y-81734196D01*
X132805271Y-81732303D01*
X133027856Y-81595903D01*
X133226363Y-81426363D01*
X133395903Y-81227856D01*
X133532303Y-81005271D01*
X133549888Y-80962819D01*
X133630310Y-80768662D01*
X133630311Y-80768660D01*
X133632204Y-80764089D01*
X133666192Y-80622519D01*
X133691991Y-80515062D01*
X133691992Y-80515056D01*
X133693146Y-80510249D01*
X133713628Y-80250000D01*
X133693146Y-79989751D01*
X133691992Y-79984944D01*
X133691991Y-79984938D01*
X133647958Y-79801531D01*
X133647142Y-79798134D01*
X138841500Y-79798134D01*
X138848255Y-79860316D01*
X138899385Y-79996705D01*
X138986739Y-80113261D01*
X139103295Y-80200615D01*
X139239684Y-80251745D01*
X139301866Y-80258500D01*
X141198134Y-80258500D01*
X141260316Y-80251745D01*
X141396705Y-80200615D01*
X141513261Y-80113261D01*
X141600615Y-79996705D01*
X141651745Y-79860316D01*
X141658500Y-79798134D01*
X141658500Y-78759500D01*
X141678502Y-78691379D01*
X141732158Y-78644886D01*
X141784500Y-78633500D01*
X142315500Y-78633500D01*
X142383621Y-78653502D01*
X142430114Y-78707158D01*
X142441500Y-78759500D01*
X142441500Y-79048134D01*
X142448255Y-79110316D01*
X142499385Y-79246705D01*
X142586739Y-79363261D01*
X142703295Y-79450615D01*
X142839684Y-79501745D01*
X142901866Y-79508500D01*
X146233718Y-79508500D01*
X146301839Y-79528502D01*
X146319970Y-79542649D01*
X146347666Y-79568657D01*
X146350509Y-79571413D01*
X146370230Y-79591134D01*
X146373425Y-79593612D01*
X146382447Y-79601318D01*
X146414679Y-79631586D01*
X146421628Y-79635406D01*
X146432432Y-79641346D01*
X146448956Y-79652199D01*
X146464959Y-79664613D01*
X146465535Y-79664862D01*
X146511771Y-79714379D01*
X146524524Y-79783784D01*
X146516500Y-79862100D01*
X146516500Y-80637900D01*
X146516837Y-80641146D01*
X146516837Y-80641150D01*
X146521940Y-80690326D01*
X146527474Y-80743666D01*
X146529655Y-80750202D01*
X146529655Y-80750204D01*
X146545802Y-80798601D01*
X146583450Y-80911446D01*
X146676522Y-81061848D01*
X146801697Y-81186805D01*
X146806235Y-81189602D01*
X146846824Y-81246853D01*
X146850054Y-81317776D01*
X146814428Y-81379187D01*
X146805932Y-81386562D01*
X146795793Y-81394598D01*
X146681261Y-81509329D01*
X146672249Y-81520740D01*
X146587184Y-81658743D01*
X146581037Y-81671924D01*
X146529862Y-81826210D01*
X146526995Y-81839586D01*
X146517328Y-81933938D01*
X146517000Y-81940355D01*
X146517000Y-82116905D01*
X146496998Y-82185026D01*
X146443342Y-82231519D01*
X146373068Y-82241623D01*
X146308488Y-82212129D01*
X146301905Y-82206000D01*
X146135377Y-82039472D01*
X146101351Y-81977160D01*
X146099162Y-81963547D01*
X146094232Y-81916635D01*
X146094232Y-81916633D01*
X146093542Y-81910072D01*
X146034527Y-81728444D01*
X146013270Y-81691625D01*
X145978550Y-81631490D01*
X145939040Y-81563056D01*
X145922882Y-81545110D01*
X145815675Y-81426045D01*
X145815674Y-81426044D01*
X145811253Y-81421134D01*
X145692736Y-81335026D01*
X145662094Y-81312763D01*
X145662093Y-81312762D01*
X145656752Y-81308882D01*
X145650724Y-81306198D01*
X145650722Y-81306197D01*
X145488319Y-81233891D01*
X145488318Y-81233891D01*
X145482288Y-81231206D01*
X145388888Y-81211353D01*
X145301944Y-81192872D01*
X145301939Y-81192872D01*
X145295487Y-81191500D01*
X145104513Y-81191500D01*
X145098061Y-81192872D01*
X145098056Y-81192872D01*
X145011112Y-81211353D01*
X144917712Y-81231206D01*
X144911682Y-81233891D01*
X144911681Y-81233891D01*
X144749278Y-81306197D01*
X144749276Y-81306198D01*
X144743248Y-81308882D01*
X144737907Y-81312762D01*
X144737906Y-81312763D01*
X144624728Y-81394992D01*
X144588747Y-81421134D01*
X144584332Y-81426037D01*
X144579420Y-81430460D01*
X144578295Y-81429211D01*
X144524986Y-81462051D01*
X144491800Y-81466500D01*
X143378767Y-81466500D01*
X143367584Y-81465973D01*
X143360091Y-81464298D01*
X143352165Y-81464547D01*
X143352164Y-81464547D01*
X143292014Y-81466438D01*
X143288055Y-81466500D01*
X143260144Y-81466500D01*
X143256210Y-81466997D01*
X143256209Y-81466997D01*
X143256144Y-81467005D01*
X143244307Y-81467938D01*
X143212049Y-81468952D01*
X143208030Y-81469078D01*
X143200111Y-81469327D01*
X143180657Y-81474979D01*
X143161300Y-81478987D01*
X143149070Y-81480532D01*
X143149069Y-81480532D01*
X143141203Y-81481526D01*
X143133832Y-81484445D01*
X143133830Y-81484445D01*
X143100088Y-81497804D01*
X143088858Y-81501649D01*
X143054017Y-81511771D01*
X143054016Y-81511771D01*
X143046407Y-81513982D01*
X143039588Y-81518015D01*
X143039583Y-81518017D01*
X143028972Y-81524293D01*
X143011224Y-81532988D01*
X142992383Y-81540448D01*
X142985967Y-81545110D01*
X142985966Y-81545110D01*
X142956613Y-81566436D01*
X142946693Y-81572952D01*
X142915465Y-81591420D01*
X142915462Y-81591422D01*
X142908638Y-81595458D01*
X142894317Y-81609779D01*
X142879284Y-81622619D01*
X142862893Y-81634528D01*
X142849585Y-81650615D01*
X142834702Y-81668605D01*
X142826722Y-81677374D01*
X141873092Y-82631003D01*
X141810782Y-82665027D01*
X141739966Y-82659962D01*
X141683131Y-82617415D01*
X141658320Y-82550895D01*
X141657999Y-82541906D01*
X141657999Y-81205331D01*
X141657629Y-81198510D01*
X141652105Y-81147648D01*
X141648479Y-81132396D01*
X141603324Y-81011946D01*
X141594786Y-80996351D01*
X141518285Y-80894276D01*
X141505724Y-80881715D01*
X141403649Y-80805214D01*
X141388054Y-80796676D01*
X141267606Y-80751522D01*
X141252351Y-80747895D01*
X141201486Y-80742369D01*
X141194672Y-80742000D01*
X140522115Y-80742000D01*
X140506876Y-80746475D01*
X140505671Y-80747865D01*
X140504000Y-80755548D01*
X140504000Y-85239884D01*
X140508475Y-85255123D01*
X140509865Y-85256328D01*
X140517548Y-85257999D01*
X140868630Y-85257999D01*
X140936751Y-85278001D01*
X140983244Y-85331657D01*
X140993940Y-85370828D01*
X141003437Y-85461189D01*
X141006458Y-85489928D01*
X141065473Y-85671556D01*
X141068776Y-85677278D01*
X141068777Y-85677279D01*
X141070326Y-85679962D01*
X141160960Y-85836944D01*
X141165378Y-85841851D01*
X141165379Y-85841852D01*
X141284325Y-85973955D01*
X141288747Y-85978866D01*
X141324402Y-86004771D01*
X141429815Y-86081358D01*
X141443248Y-86091118D01*
X141449276Y-86093802D01*
X141449278Y-86093803D01*
X141566729Y-86146095D01*
X141617712Y-86168794D01*
X141711112Y-86188647D01*
X141798056Y-86207128D01*
X141798061Y-86207128D01*
X141804513Y-86208500D01*
X141865500Y-86208500D01*
X141933621Y-86228502D01*
X141980114Y-86282158D01*
X141991500Y-86334500D01*
X141991500Y-86365500D01*
X141971498Y-86433621D01*
X141917842Y-86480114D01*
X141865500Y-86491500D01*
X141804513Y-86491500D01*
X141798061Y-86492872D01*
X141798056Y-86492872D01*
X141711112Y-86511353D01*
X141617712Y-86531206D01*
X141611682Y-86533891D01*
X141611681Y-86533891D01*
X141449278Y-86606197D01*
X141449276Y-86606198D01*
X141443248Y-86608882D01*
X141288747Y-86721134D01*
X141284326Y-86726044D01*
X141284325Y-86726045D01*
X141171225Y-86851656D01*
X141160960Y-86863056D01*
X141065473Y-87028444D01*
X141006458Y-87210072D01*
X141005768Y-87216633D01*
X141005768Y-87216635D01*
X141000472Y-87267025D01*
X140986496Y-87400000D01*
X141006458Y-87589928D01*
X141065473Y-87771556D01*
X141160960Y-87936944D01*
X141165378Y-87941851D01*
X141165379Y-87941852D01*
X141284325Y-88073955D01*
X141288747Y-88078866D01*
X141443248Y-88191118D01*
X141449276Y-88193802D01*
X141449278Y-88193803D01*
X141611681Y-88266109D01*
X141617712Y-88268794D01*
X141692939Y-88284784D01*
X141798056Y-88307128D01*
X141798061Y-88307128D01*
X141804513Y-88308500D01*
X141841405Y-88308500D01*
X141909526Y-88328502D01*
X141956019Y-88382158D01*
X141966123Y-88452432D01*
X141936629Y-88517012D01*
X141930500Y-88523595D01*
X141899500Y-88554595D01*
X141837188Y-88588621D01*
X141817672Y-88590719D01*
X141817682Y-88590810D01*
X141811115Y-88591500D01*
X141804513Y-88591500D01*
X141798061Y-88592872D01*
X141798056Y-88592872D01*
X141734880Y-88606301D01*
X141617712Y-88631206D01*
X141611682Y-88633891D01*
X141611681Y-88633891D01*
X141449278Y-88706197D01*
X141449276Y-88706198D01*
X141443248Y-88708882D01*
X141437907Y-88712762D01*
X141437906Y-88712763D01*
X141431594Y-88717349D01*
X141288747Y-88821134D01*
X141160960Y-88963056D01*
X141065473Y-89128444D01*
X141006458Y-89310072D01*
X141005768Y-89316633D01*
X141005768Y-89316635D01*
X140998139Y-89389220D01*
X140986496Y-89500000D01*
X140987186Y-89506565D01*
X141005741Y-89683102D01*
X141006458Y-89689928D01*
X141065473Y-89871556D01*
X141160960Y-90036944D01*
X141165378Y-90041851D01*
X141165379Y-90041852D01*
X141284325Y-90173955D01*
X141288747Y-90178866D01*
X141349108Y-90222721D01*
X141429998Y-90281491D01*
X141443248Y-90291118D01*
X141449276Y-90293802D01*
X141449278Y-90293803D01*
X141599285Y-90360590D01*
X141617712Y-90368794D01*
X141711113Y-90388647D01*
X141798056Y-90407128D01*
X141798061Y-90407128D01*
X141804513Y-90408500D01*
X141995487Y-90408500D01*
X142001939Y-90407128D01*
X142001944Y-90407128D01*
X142088887Y-90388647D01*
X142182288Y-90368794D01*
X142200715Y-90360590D01*
X142350722Y-90293803D01*
X142350724Y-90293802D01*
X142356752Y-90291118D01*
X142370003Y-90281491D01*
X142450892Y-90222721D01*
X142511253Y-90178866D01*
X142515675Y-90173955D01*
X142634621Y-90041852D01*
X142634622Y-90041851D01*
X142639040Y-90036944D01*
X142734527Y-89871556D01*
X142793542Y-89689928D01*
X142794260Y-89683102D01*
X142812814Y-89506565D01*
X142813504Y-89500000D01*
X142812814Y-89493435D01*
X142812814Y-89486830D01*
X142815503Y-89486830D01*
X142826143Y-89428732D01*
X142849572Y-89396333D01*
X143467253Y-88778652D01*
X143475539Y-88771112D01*
X143482018Y-88767000D01*
X143528644Y-88717348D01*
X143531398Y-88714507D01*
X143551135Y-88694770D01*
X143553615Y-88691573D01*
X143561320Y-88682551D01*
X143586159Y-88656100D01*
X143591586Y-88650321D01*
X143595405Y-88643375D01*
X143595407Y-88643372D01*
X143601348Y-88632566D01*
X143612199Y-88616047D01*
X143619758Y-88606301D01*
X143624614Y-88600041D01*
X143627759Y-88592772D01*
X143627762Y-88592768D01*
X143642174Y-88559463D01*
X143647391Y-88548813D01*
X143668695Y-88510060D01*
X143673733Y-88490437D01*
X143680137Y-88471734D01*
X143685033Y-88460420D01*
X143685033Y-88460419D01*
X143688181Y-88453145D01*
X143689420Y-88445322D01*
X143689423Y-88445312D01*
X143695099Y-88409476D01*
X143697505Y-88397856D01*
X143706528Y-88362711D01*
X143706528Y-88362710D01*
X143708500Y-88355030D01*
X143708500Y-88334776D01*
X143710051Y-88315065D01*
X143711980Y-88302886D01*
X143713220Y-88295057D01*
X143709059Y-88251038D01*
X143708500Y-88239181D01*
X143708500Y-86208594D01*
X143728502Y-86140473D01*
X143782158Y-86093980D01*
X143852432Y-86083876D01*
X143917012Y-86113370D01*
X143923595Y-86119499D01*
X145946343Y-88142247D01*
X145953887Y-88150537D01*
X145958000Y-88157018D01*
X145963777Y-88162443D01*
X146007667Y-88203658D01*
X146010509Y-88206413D01*
X146030230Y-88226134D01*
X146033425Y-88228612D01*
X146042447Y-88236318D01*
X146074679Y-88266586D01*
X146081628Y-88270406D01*
X146092432Y-88276346D01*
X146108956Y-88287199D01*
X146124959Y-88299613D01*
X146165543Y-88317176D01*
X146176173Y-88322383D01*
X146214940Y-88343695D01*
X146222617Y-88345666D01*
X146222622Y-88345668D01*
X146234558Y-88348732D01*
X146253266Y-88355137D01*
X146271855Y-88363181D01*
X146279683Y-88364421D01*
X146279690Y-88364423D01*
X146315524Y-88370099D01*
X146327144Y-88372505D01*
X146362289Y-88381528D01*
X146369970Y-88383500D01*
X146390224Y-88383500D01*
X146409934Y-88385051D01*
X146429943Y-88388220D01*
X146437835Y-88387474D01*
X146463467Y-88385051D01*
X146473962Y-88384059D01*
X146485819Y-88383500D01*
X154235406Y-88383500D01*
X154303527Y-88403502D01*
X154324501Y-88420405D01*
X156452878Y-90548782D01*
X156486904Y-90611094D01*
X156489092Y-90624703D01*
X156497489Y-90704595D01*
X156505680Y-90782522D01*
X156506458Y-90789928D01*
X156565473Y-90971556D01*
X156660960Y-91136944D01*
X156665378Y-91141851D01*
X156665379Y-91141852D01*
X156780418Y-91269616D01*
X156788747Y-91278866D01*
X156943248Y-91391118D01*
X156949276Y-91393802D01*
X156949278Y-91393803D01*
X157066749Y-91446104D01*
X157120845Y-91492084D01*
X157141500Y-91561211D01*
X157141500Y-92798134D01*
X157148255Y-92860316D01*
X157199385Y-92996705D01*
X157286739Y-93113261D01*
X157403295Y-93200615D01*
X157539684Y-93251745D01*
X157601866Y-93258500D01*
X160398134Y-93258500D01*
X160460316Y-93251745D01*
X160596705Y-93200615D01*
X160713261Y-93113261D01*
X160800615Y-92996705D01*
X160806640Y-92980635D01*
X160814040Y-92960894D01*
X160861654Y-92900604D01*
X160921265Y-92860472D01*
X160925390Y-92856731D01*
X162835457Y-90946664D01*
X162897769Y-90912638D01*
X162968584Y-90917703D01*
X163013647Y-90946664D01*
X163217743Y-91150760D01*
X163220405Y-91152900D01*
X163260333Y-91185004D01*
X163260336Y-91185006D01*
X163266489Y-91189953D01*
X163399085Y-91250240D01*
X163407968Y-91251512D01*
X163407971Y-91251513D01*
X163534382Y-91269616D01*
X163543271Y-91270889D01*
X163552160Y-91269616D01*
X163678571Y-91251513D01*
X163678574Y-91251512D01*
X163687457Y-91250240D01*
X163820053Y-91189953D01*
X163826206Y-91185006D01*
X163826209Y-91185004D01*
X163866137Y-91152900D01*
X163868799Y-91150760D01*
X165365226Y-89654333D01*
X165378682Y-89637597D01*
X165399470Y-89611743D01*
X165399472Y-89611740D01*
X165404419Y-89605587D01*
X165464706Y-89472991D01*
X165466562Y-89460036D01*
X165484082Y-89337694D01*
X165485355Y-89328805D01*
X165475950Y-89263131D01*
X165465979Y-89193505D01*
X165465978Y-89193502D01*
X165464706Y-89184619D01*
X165404419Y-89052023D01*
X165399472Y-89045870D01*
X165399470Y-89045867D01*
X165367366Y-89005939D01*
X165365226Y-89003277D01*
X163211189Y-86849240D01*
X163194453Y-86835784D01*
X163168599Y-86814996D01*
X163168596Y-86814994D01*
X163162443Y-86810047D01*
X163029847Y-86749760D01*
X163020964Y-86748488D01*
X163020961Y-86748487D01*
X162894550Y-86730384D01*
X162885661Y-86729111D01*
X162876772Y-86730384D01*
X162750361Y-86748487D01*
X162750358Y-86748488D01*
X162741475Y-86749760D01*
X162608879Y-86810047D01*
X162602726Y-86814994D01*
X162602723Y-86814996D01*
X162576869Y-86835784D01*
X162560133Y-86849240D01*
X161063706Y-88345667D01*
X161059258Y-88351199D01*
X161029462Y-88388257D01*
X161029460Y-88388260D01*
X161024513Y-88394413D01*
X160964226Y-88527009D01*
X160962954Y-88535892D01*
X160962953Y-88535895D01*
X160946566Y-88650321D01*
X160943577Y-88671195D01*
X160944850Y-88680084D01*
X160958072Y-88772407D01*
X160964226Y-88815381D01*
X160967940Y-88823549D01*
X160967940Y-88823550D01*
X160996950Y-88887354D01*
X161024513Y-88947977D01*
X161029460Y-88954130D01*
X161029462Y-88954133D01*
X161036637Y-88963056D01*
X161063706Y-88996723D01*
X161267802Y-89200819D01*
X161301828Y-89263131D01*
X161296763Y-89333946D01*
X161267802Y-89379009D01*
X160604958Y-90041852D01*
X159942215Y-90704595D01*
X159879903Y-90738621D01*
X159853120Y-90741500D01*
X158438569Y-90741500D01*
X158370448Y-90721498D01*
X158323955Y-90667842D01*
X158315030Y-90613170D01*
X158312814Y-90613170D01*
X158312814Y-90606565D01*
X158313504Y-90600000D01*
X158306074Y-90529305D01*
X158294232Y-90416635D01*
X158294232Y-90416633D01*
X158293542Y-90410072D01*
X158234527Y-90228444D01*
X158199790Y-90168277D01*
X158187165Y-90146411D01*
X158139040Y-90063056D01*
X158011253Y-89921134D01*
X157856752Y-89808882D01*
X157850724Y-89806198D01*
X157850722Y-89806197D01*
X157688319Y-89733891D01*
X157688318Y-89733891D01*
X157682288Y-89731206D01*
X157588888Y-89711353D01*
X157501944Y-89692872D01*
X157501939Y-89692872D01*
X157495487Y-89691500D01*
X157439595Y-89691500D01*
X157371474Y-89671498D01*
X157350499Y-89654595D01*
X157218253Y-89522348D01*
X157184228Y-89460036D01*
X157189294Y-89389220D01*
X157231840Y-89332385D01*
X157292763Y-89308500D01*
X157295487Y-89308500D01*
X157482288Y-89268794D01*
X157488319Y-89266109D01*
X157650722Y-89193803D01*
X157650724Y-89193802D01*
X157656752Y-89191118D01*
X157811253Y-89078866D01*
X157818128Y-89071231D01*
X157934621Y-88941852D01*
X157934622Y-88941851D01*
X157939040Y-88936944D01*
X158034527Y-88771556D01*
X158093542Y-88589928D01*
X158095497Y-88571328D01*
X158122511Y-88505671D01*
X158180734Y-88465042D01*
X158220807Y-88458500D01*
X160398134Y-88458500D01*
X160460316Y-88451745D01*
X160596705Y-88400615D01*
X160713261Y-88313261D01*
X160800615Y-88196705D01*
X160851745Y-88060316D01*
X160858500Y-87998134D01*
X160858500Y-86401866D01*
X160851745Y-86339684D01*
X160800615Y-86203295D01*
X160713261Y-86086739D01*
X160596705Y-85999385D01*
X160460316Y-85948255D01*
X160398134Y-85941500D01*
X160272000Y-85941500D01*
X160203879Y-85921498D01*
X160157386Y-85867842D01*
X160146000Y-85815500D01*
X160146000Y-85681375D01*
X160152407Y-85641708D01*
X160195632Y-85511389D01*
X160195632Y-85511387D01*
X160197797Y-85504861D01*
X160200000Y-85483365D01*
X160206635Y-85418599D01*
X160208500Y-85400400D01*
X160208500Y-85397095D01*
X160992001Y-85397095D01*
X160992338Y-85403614D01*
X161002257Y-85499206D01*
X161005149Y-85512600D01*
X161056588Y-85666784D01*
X161062761Y-85679962D01*
X161148063Y-85817807D01*
X161157099Y-85829208D01*
X161271829Y-85943739D01*
X161283240Y-85952751D01*
X161421243Y-86037816D01*
X161434424Y-86043963D01*
X161588710Y-86095138D01*
X161602086Y-86098005D01*
X161696438Y-86107672D01*
X161702854Y-86108000D01*
X161890385Y-86108000D01*
X161905624Y-86103525D01*
X161906829Y-86102135D01*
X161908500Y-86094452D01*
X161908500Y-86089884D01*
X162416500Y-86089884D01*
X162420975Y-86105123D01*
X162422365Y-86106328D01*
X162430048Y-86107999D01*
X162622095Y-86107999D01*
X162628614Y-86107662D01*
X162724206Y-86097743D01*
X162737600Y-86094851D01*
X162891784Y-86043412D01*
X162904962Y-86037239D01*
X163042807Y-85951937D01*
X163054208Y-85942901D01*
X163168739Y-85828171D01*
X163177751Y-85816760D01*
X163262816Y-85678757D01*
X163268963Y-85665576D01*
X163320138Y-85511290D01*
X163323005Y-85497914D01*
X163332672Y-85403562D01*
X163333000Y-85397146D01*
X163333000Y-85135661D01*
X164479111Y-85135661D01*
X164480384Y-85144550D01*
X164496392Y-85256328D01*
X164499760Y-85279847D01*
X164560047Y-85412443D01*
X164564994Y-85418596D01*
X164564996Y-85418599D01*
X164585784Y-85444453D01*
X164599240Y-85461189D01*
X166753277Y-87615226D01*
X166755939Y-87617366D01*
X166795867Y-87649470D01*
X166795870Y-87649472D01*
X166802023Y-87654419D01*
X166934619Y-87714706D01*
X166943502Y-87715978D01*
X166943505Y-87715979D01*
X167069916Y-87734082D01*
X167078805Y-87735355D01*
X167087694Y-87734082D01*
X167214105Y-87715979D01*
X167214108Y-87715978D01*
X167222991Y-87714706D01*
X167355587Y-87654419D01*
X167361740Y-87649472D01*
X167361743Y-87649470D01*
X167401671Y-87617366D01*
X167404333Y-87615226D01*
X168900760Y-86118799D01*
X168920764Y-86093919D01*
X168935004Y-86076209D01*
X168935006Y-86076206D01*
X168939953Y-86070053D01*
X168993286Y-85952751D01*
X168996526Y-85945626D01*
X168996526Y-85945625D01*
X169000240Y-85937457D01*
X169003952Y-85911542D01*
X169019616Y-85802160D01*
X169020889Y-85793271D01*
X169017657Y-85770705D01*
X169001513Y-85657971D01*
X169001512Y-85657968D01*
X169000240Y-85649085D01*
X168939953Y-85516489D01*
X168935006Y-85510336D01*
X168935004Y-85510333D01*
X168913320Y-85483365D01*
X168900760Y-85467743D01*
X168696665Y-85263648D01*
X168662639Y-85201336D01*
X168667704Y-85130521D01*
X168696665Y-85085458D01*
X169310109Y-84472014D01*
X169318379Y-84465032D01*
X169318180Y-84464801D01*
X169322725Y-84460878D01*
X169327611Y-84457412D01*
X169391714Y-84390449D01*
X169393637Y-84388485D01*
X169421196Y-84360926D01*
X169425921Y-84355205D01*
X169432043Y-84348321D01*
X169473881Y-84304616D01*
X169477133Y-84299580D01*
X169477136Y-84299576D01*
X169492053Y-84276474D01*
X169500749Y-84264592D01*
X169518262Y-84243385D01*
X169518264Y-84243382D01*
X169522080Y-84238761D01*
X169551087Y-84185669D01*
X169555798Y-84177749D01*
X169588620Y-84126918D01*
X169601142Y-84095847D01*
X169607435Y-84082534D01*
X169620618Y-84058404D01*
X169623496Y-84053137D01*
X169625324Y-84047425D01*
X169625327Y-84047419D01*
X169641941Y-83995515D01*
X169645072Y-83986841D01*
X169667686Y-83930729D01*
X169674105Y-83897858D01*
X169677768Y-83883591D01*
X169686152Y-83857402D01*
X169686154Y-83857391D01*
X169687981Y-83851685D01*
X169695196Y-83791625D01*
X169696633Y-83782504D01*
X169707357Y-83727588D01*
X169708228Y-83723129D01*
X169708500Y-83717567D01*
X169708500Y-83688417D01*
X169709399Y-83673389D01*
X169712495Y-83647620D01*
X169712495Y-83647616D01*
X169713209Y-83641673D01*
X169708815Y-83579613D01*
X169708500Y-83570714D01*
X169708500Y-81816112D01*
X169720305Y-81762862D01*
X169722430Y-81758305D01*
X169787120Y-81619576D01*
X169844115Y-81406871D01*
X169863307Y-81187500D01*
X169844115Y-80968129D01*
X169787120Y-80755424D01*
X169730795Y-80634634D01*
X169696382Y-80560834D01*
X169696379Y-80560829D01*
X169694056Y-80555847D01*
X169658673Y-80505315D01*
X169570908Y-80379973D01*
X169570906Y-80379970D01*
X169567749Y-80375462D01*
X169412038Y-80219751D01*
X169231654Y-80093444D01*
X169032076Y-80000380D01*
X168819371Y-79943385D01*
X168600000Y-79924193D01*
X168380629Y-79943385D01*
X168167924Y-80000380D01*
X168074562Y-80043915D01*
X167973334Y-80091118D01*
X167973329Y-80091121D01*
X167968347Y-80093444D01*
X167963840Y-80096600D01*
X167963838Y-80096601D01*
X167792473Y-80216592D01*
X167792470Y-80216594D01*
X167787962Y-80219751D01*
X167632251Y-80375462D01*
X167629094Y-80379970D01*
X167629092Y-80379973D01*
X167541327Y-80505315D01*
X167505944Y-80555847D01*
X167503621Y-80560829D01*
X167503618Y-80560834D01*
X167469205Y-80634634D01*
X167412880Y-80755424D01*
X167355885Y-80968129D01*
X167336693Y-81187500D01*
X167355885Y-81406871D01*
X167412880Y-81619576D01*
X167477570Y-81758305D01*
X167479695Y-81762862D01*
X167491500Y-81816112D01*
X167491500Y-83103119D01*
X167471498Y-83171240D01*
X167454595Y-83192214D01*
X167129008Y-83517801D01*
X167066696Y-83551827D01*
X166995881Y-83546762D01*
X166950818Y-83517801D01*
X166746723Y-83313706D01*
X166713314Y-83286844D01*
X166704133Y-83279462D01*
X166704130Y-83279460D01*
X166697977Y-83274513D01*
X166613075Y-83235911D01*
X166573550Y-83217940D01*
X166573549Y-83217940D01*
X166565381Y-83214226D01*
X166556498Y-83212954D01*
X166556495Y-83212953D01*
X166430084Y-83194850D01*
X166421195Y-83193577D01*
X166412306Y-83194850D01*
X166285895Y-83212953D01*
X166285892Y-83212954D01*
X166277009Y-83214226D01*
X166268841Y-83217940D01*
X166268840Y-83217940D01*
X166229315Y-83235911D01*
X166144413Y-83274513D01*
X166138260Y-83279460D01*
X166138257Y-83279462D01*
X166129076Y-83286844D01*
X166095667Y-83313706D01*
X164599240Y-84810133D01*
X164597100Y-84812795D01*
X164564996Y-84852723D01*
X164564994Y-84852726D01*
X164560047Y-84858879D01*
X164499760Y-84991475D01*
X164498488Y-85000358D01*
X164498487Y-85000361D01*
X164485265Y-85092687D01*
X164479111Y-85135661D01*
X163333000Y-85135661D01*
X163333000Y-84522115D01*
X163328525Y-84506876D01*
X163327135Y-84505671D01*
X163319452Y-84504000D01*
X162434615Y-84504000D01*
X162419376Y-84508475D01*
X162418171Y-84509865D01*
X162416500Y-84517548D01*
X162416500Y-86089884D01*
X161908500Y-86089884D01*
X161908500Y-84522115D01*
X161904025Y-84506876D01*
X161902635Y-84505671D01*
X161894952Y-84504000D01*
X161010116Y-84504000D01*
X160994877Y-84508475D01*
X160993672Y-84509865D01*
X160992001Y-84517548D01*
X160992001Y-85397095D01*
X160208500Y-85397095D01*
X160208500Y-83977885D01*
X160992000Y-83977885D01*
X160996475Y-83993124D01*
X160997865Y-83994329D01*
X161005548Y-83996000D01*
X161890385Y-83996000D01*
X161905624Y-83991525D01*
X161906829Y-83990135D01*
X161908500Y-83982452D01*
X161908500Y-83977885D01*
X162416500Y-83977885D01*
X162420975Y-83993124D01*
X162422365Y-83994329D01*
X162430048Y-83996000D01*
X163314884Y-83996000D01*
X163330123Y-83991525D01*
X163331328Y-83990135D01*
X163332999Y-83982452D01*
X163332999Y-83102905D01*
X163332662Y-83096386D01*
X163322743Y-83000794D01*
X163319851Y-82987400D01*
X163268412Y-82833216D01*
X163262239Y-82820038D01*
X163176937Y-82682193D01*
X163167901Y-82670792D01*
X163053171Y-82556261D01*
X163041760Y-82547249D01*
X162903757Y-82462184D01*
X162890576Y-82456037D01*
X162736290Y-82404862D01*
X162722914Y-82401995D01*
X162628562Y-82392328D01*
X162622145Y-82392000D01*
X162434615Y-82392000D01*
X162419376Y-82396475D01*
X162418171Y-82397865D01*
X162416500Y-82405548D01*
X162416500Y-83977885D01*
X161908500Y-83977885D01*
X161908500Y-82410116D01*
X161904025Y-82394877D01*
X161902635Y-82393672D01*
X161894952Y-82392001D01*
X161702905Y-82392001D01*
X161696386Y-82392338D01*
X161600794Y-82402257D01*
X161587400Y-82405149D01*
X161433216Y-82456588D01*
X161420038Y-82462761D01*
X161282193Y-82548063D01*
X161270792Y-82557099D01*
X161156261Y-82671829D01*
X161147249Y-82683240D01*
X161062184Y-82821243D01*
X161056037Y-82834424D01*
X161004862Y-82988710D01*
X161001995Y-83002086D01*
X160992328Y-83096438D01*
X160992000Y-83102855D01*
X160992000Y-83977885D01*
X160208500Y-83977885D01*
X160208500Y-83099600D01*
X160206490Y-83080230D01*
X160198238Y-83000692D01*
X160198237Y-83000688D01*
X160197526Y-82993834D01*
X160168886Y-82907988D01*
X160152476Y-82858803D01*
X160146000Y-82818927D01*
X160146000Y-81834500D01*
X160166002Y-81766379D01*
X160219658Y-81719886D01*
X160272000Y-81708500D01*
X161643022Y-81708500D01*
X161705204Y-81701745D01*
X161841593Y-81650615D01*
X161958149Y-81563261D01*
X162016007Y-81486062D01*
X162573381Y-81486062D01*
X162582677Y-81498077D01*
X162633882Y-81533931D01*
X162643377Y-81539414D01*
X162840835Y-81631490D01*
X162851127Y-81635236D01*
X163061576Y-81691625D01*
X163072369Y-81693528D01*
X163289413Y-81712517D01*
X163300363Y-81712517D01*
X163517407Y-81693528D01*
X163528200Y-81691625D01*
X163738649Y-81635236D01*
X163748941Y-81631490D01*
X163946399Y-81539414D01*
X163955894Y-81533931D01*
X164007936Y-81497491D01*
X164016312Y-81487012D01*
X164009244Y-81473566D01*
X163307700Y-80772022D01*
X163293756Y-80764408D01*
X163291923Y-80764539D01*
X163285308Y-80768790D01*
X162579811Y-81474287D01*
X162573381Y-81486062D01*
X162016007Y-81486062D01*
X162045503Y-81446705D01*
X162096633Y-81310316D01*
X162103388Y-81248134D01*
X162103388Y-81244815D01*
X162127041Y-81177890D01*
X162173044Y-81142196D01*
X162172029Y-81140266D01*
X162182888Y-81134558D01*
X162183133Y-81134368D01*
X162183291Y-81134347D01*
X162221322Y-81114356D01*
X163205793Y-80129885D01*
X163268105Y-80095859D01*
X163338920Y-80100924D01*
X163383983Y-80129885D01*
X164369175Y-81115077D01*
X164380950Y-81121507D01*
X164392965Y-81112211D01*
X164428819Y-81061006D01*
X164434302Y-81051511D01*
X164526378Y-80854053D01*
X164530124Y-80843761D01*
X164586513Y-80633312D01*
X164588416Y-80622519D01*
X164607405Y-80405475D01*
X164607405Y-80394525D01*
X164588416Y-80177481D01*
X164586513Y-80166688D01*
X164530124Y-79956239D01*
X164526378Y-79945947D01*
X164434302Y-79748489D01*
X164428820Y-79738996D01*
X164406256Y-79706770D01*
X164383569Y-79639496D01*
X164400854Y-79570636D01*
X164452624Y-79522052D01*
X164509470Y-79508500D01*
X164816377Y-79508500D01*
X164817148Y-79508502D01*
X164894721Y-79508976D01*
X164923152Y-79500850D01*
X164939915Y-79497272D01*
X164969187Y-79493080D01*
X164992564Y-79482451D01*
X165010087Y-79476004D01*
X165034771Y-79468949D01*
X165042365Y-79464157D01*
X165042368Y-79464156D01*
X165059780Y-79453170D01*
X165074865Y-79445030D01*
X165101782Y-79432792D01*
X165121235Y-79416030D01*
X165136239Y-79404927D01*
X165157958Y-79391224D01*
X165163897Y-79384499D01*
X165163901Y-79384496D01*
X165177532Y-79369062D01*
X165189724Y-79357018D01*
X165205327Y-79343573D01*
X165205329Y-79343570D01*
X165212127Y-79337713D01*
X165226094Y-79316165D01*
X165237385Y-79301291D01*
X165248431Y-79288783D01*
X165248432Y-79288782D01*
X165254378Y-79282049D01*
X165266943Y-79255287D01*
X165275263Y-79240309D01*
X165286471Y-79223017D01*
X165286473Y-79223012D01*
X165291352Y-79215485D01*
X165293922Y-79206892D01*
X165293924Y-79206887D01*
X165298711Y-79190880D01*
X165305372Y-79173436D01*
X165312467Y-79158324D01*
X165312468Y-79158322D01*
X165316281Y-79150200D01*
X165320830Y-79120983D01*
X165324613Y-79104268D01*
X165330515Y-79084534D01*
X165330516Y-79084528D01*
X165333086Y-79075934D01*
X165333296Y-79041494D01*
X165333329Y-79040711D01*
X165333500Y-79039614D01*
X165333500Y-79008623D01*
X165333502Y-79007853D01*
X165333952Y-78934215D01*
X165333952Y-78934214D01*
X165333976Y-78930279D01*
X165333592Y-78928935D01*
X165333500Y-78927590D01*
X165333500Y-78737661D01*
X167914393Y-78737661D01*
X167923687Y-78749675D01*
X167964088Y-78777964D01*
X167973584Y-78783447D01*
X168163113Y-78871826D01*
X168173405Y-78875572D01*
X168375401Y-78929696D01*
X168386196Y-78931599D01*
X168594525Y-78949826D01*
X168605475Y-78949826D01*
X168813804Y-78931599D01*
X168824599Y-78929696D01*
X169026595Y-78875572D01*
X169036887Y-78871826D01*
X169226416Y-78783447D01*
X169235912Y-78777964D01*
X169277148Y-78749090D01*
X169285523Y-78738612D01*
X169278457Y-78725168D01*
X168612811Y-78059521D01*
X168598868Y-78051908D01*
X168597034Y-78052039D01*
X168590420Y-78056290D01*
X167920820Y-78725891D01*
X167914393Y-78737661D01*
X165333500Y-78737661D01*
X165333500Y-77692975D01*
X167337674Y-77692975D01*
X167355901Y-77901304D01*
X167357804Y-77912099D01*
X167411928Y-78114095D01*
X167415674Y-78124387D01*
X167504054Y-78313917D01*
X167509534Y-78323407D01*
X167538411Y-78364649D01*
X167548887Y-78373023D01*
X167562334Y-78365955D01*
X168227979Y-77700311D01*
X168234356Y-77688632D01*
X168964408Y-77688632D01*
X168964539Y-77690466D01*
X168968790Y-77697080D01*
X169638391Y-78366680D01*
X169650161Y-78373107D01*
X169662176Y-78363811D01*
X169690466Y-78323407D01*
X169695946Y-78313917D01*
X169784326Y-78124387D01*
X169788072Y-78114095D01*
X169842196Y-77912099D01*
X169844099Y-77901304D01*
X169862326Y-77692975D01*
X169862326Y-77682025D01*
X169844099Y-77473696D01*
X169842196Y-77462901D01*
X169788072Y-77260905D01*
X169784326Y-77250613D01*
X169695946Y-77061083D01*
X169690466Y-77051593D01*
X169661589Y-77010351D01*
X169651113Y-77001977D01*
X169637666Y-77009045D01*
X168972021Y-77674689D01*
X168964408Y-77688632D01*
X168234356Y-77688632D01*
X168235592Y-77686368D01*
X168235461Y-77684534D01*
X168231210Y-77677920D01*
X167561609Y-77008320D01*
X167549839Y-77001893D01*
X167537824Y-77011189D01*
X167509534Y-77051593D01*
X167504054Y-77061083D01*
X167415674Y-77250613D01*
X167411928Y-77260905D01*
X167357804Y-77462901D01*
X167355901Y-77473696D01*
X167337674Y-77682025D01*
X167337674Y-77692975D01*
X165333500Y-77692975D01*
X165333500Y-76636387D01*
X167914477Y-76636387D01*
X167921545Y-76649834D01*
X168587189Y-77315479D01*
X168601132Y-77323092D01*
X168602966Y-77322961D01*
X168609580Y-77318710D01*
X169279180Y-76649109D01*
X169285607Y-76637339D01*
X169276313Y-76625325D01*
X169235912Y-76597036D01*
X169226416Y-76591553D01*
X169036887Y-76503174D01*
X169026595Y-76499428D01*
X168824599Y-76445304D01*
X168813804Y-76443401D01*
X168605475Y-76425174D01*
X168594525Y-76425174D01*
X168386196Y-76443401D01*
X168375401Y-76445304D01*
X168173405Y-76499428D01*
X168163113Y-76503174D01*
X167973583Y-76591554D01*
X167964093Y-76597034D01*
X167922851Y-76625911D01*
X167914477Y-76636387D01*
X165333500Y-76636387D01*
X165333500Y-74187500D01*
X167336693Y-74187500D01*
X167355885Y-74406871D01*
X167412880Y-74619576D01*
X167428728Y-74653562D01*
X167503618Y-74814166D01*
X167503621Y-74814171D01*
X167505944Y-74819153D01*
X167509100Y-74823660D01*
X167509101Y-74823662D01*
X167599287Y-74952460D01*
X167632251Y-74999538D01*
X167787962Y-75155249D01*
X167792471Y-75158406D01*
X167792473Y-75158408D01*
X167841734Y-75192901D01*
X167968346Y-75281556D01*
X168167924Y-75374620D01*
X168380629Y-75431615D01*
X168600000Y-75450807D01*
X168819371Y-75431615D01*
X169032076Y-75374620D01*
X169231654Y-75281556D01*
X169358266Y-75192901D01*
X169407527Y-75158408D01*
X169407529Y-75158406D01*
X169412038Y-75155249D01*
X169567749Y-74999538D01*
X169600714Y-74952460D01*
X169690899Y-74823662D01*
X169690900Y-74823660D01*
X169694056Y-74819153D01*
X169696379Y-74814171D01*
X169696382Y-74814166D01*
X169771272Y-74653562D01*
X169787120Y-74619576D01*
X169844115Y-74406871D01*
X169863307Y-74187500D01*
X169844115Y-73968129D01*
X169787120Y-73755424D01*
X169743585Y-73662062D01*
X169696382Y-73560834D01*
X169696379Y-73560829D01*
X169694056Y-73555847D01*
X169567749Y-73375462D01*
X169412038Y-73219751D01*
X169231654Y-73093444D01*
X169032076Y-73000380D01*
X168819371Y-72943385D01*
X168600000Y-72924193D01*
X168380629Y-72943385D01*
X168167924Y-73000380D01*
X168074562Y-73043915D01*
X167973334Y-73091118D01*
X167973329Y-73091121D01*
X167968347Y-73093444D01*
X167963840Y-73096600D01*
X167963838Y-73096601D01*
X167792473Y-73216592D01*
X167792470Y-73216594D01*
X167787962Y-73219751D01*
X167632251Y-73375462D01*
X167505944Y-73555847D01*
X167503621Y-73560829D01*
X167503618Y-73560834D01*
X167456415Y-73662062D01*
X167412880Y-73755424D01*
X167355885Y-73968129D01*
X167336693Y-74187500D01*
X165333500Y-74187500D01*
X165333500Y-70687500D01*
X167336693Y-70687500D01*
X167355885Y-70906871D01*
X167412880Y-71119576D01*
X167440973Y-71179821D01*
X167503618Y-71314166D01*
X167503621Y-71314171D01*
X167505944Y-71319153D01*
X167509100Y-71323660D01*
X167509101Y-71323662D01*
X167619799Y-71481754D01*
X167632251Y-71499538D01*
X167787962Y-71655249D01*
X167792471Y-71658406D01*
X167792473Y-71658408D01*
X167837314Y-71689806D01*
X167968346Y-71781556D01*
X168167924Y-71874620D01*
X168380629Y-71931615D01*
X168600000Y-71950807D01*
X168819371Y-71931615D01*
X169032076Y-71874620D01*
X169231654Y-71781556D01*
X169362686Y-71689806D01*
X169407527Y-71658408D01*
X169407529Y-71658406D01*
X169412038Y-71655249D01*
X169567749Y-71499538D01*
X169580202Y-71481754D01*
X169690899Y-71323662D01*
X169690900Y-71323660D01*
X169694056Y-71319153D01*
X169696379Y-71314171D01*
X169696382Y-71314166D01*
X169759027Y-71179821D01*
X169787120Y-71119576D01*
X169844115Y-70906871D01*
X169863307Y-70687500D01*
X169844115Y-70468129D01*
X169787120Y-70255424D01*
X169726045Y-70124447D01*
X169696382Y-70060834D01*
X169696379Y-70060829D01*
X169694056Y-70055847D01*
X169659766Y-70006876D01*
X169570908Y-69879973D01*
X169570906Y-69879970D01*
X169567749Y-69875462D01*
X169412038Y-69719751D01*
X169231654Y-69593444D01*
X169032076Y-69500380D01*
X168819371Y-69443385D01*
X168600000Y-69424193D01*
X168380629Y-69443385D01*
X168167924Y-69500380D01*
X168074562Y-69543915D01*
X167973334Y-69591118D01*
X167973329Y-69591121D01*
X167968347Y-69593444D01*
X167963840Y-69596600D01*
X167963838Y-69596601D01*
X167792473Y-69716592D01*
X167792470Y-69716594D01*
X167787962Y-69719751D01*
X167632251Y-69875462D01*
X167629094Y-69879970D01*
X167629092Y-69879973D01*
X167540234Y-70006876D01*
X167505944Y-70055847D01*
X167503621Y-70060829D01*
X167503618Y-70060834D01*
X167473955Y-70124447D01*
X167412880Y-70255424D01*
X167355885Y-70468129D01*
X167336693Y-70687500D01*
X165333500Y-70687500D01*
X165333500Y-68008623D01*
X165333502Y-68007853D01*
X165333689Y-67977203D01*
X165333976Y-67930279D01*
X165325850Y-67901847D01*
X165322272Y-67885085D01*
X165321146Y-67877224D01*
X165318080Y-67855813D01*
X165311652Y-67841674D01*
X165307452Y-67832438D01*
X165301004Y-67814913D01*
X165296416Y-67798862D01*
X165293949Y-67790229D01*
X165289156Y-67782632D01*
X165278170Y-67765220D01*
X165270030Y-67750135D01*
X165267132Y-67743761D01*
X165257792Y-67723218D01*
X165241030Y-67703765D01*
X165229927Y-67688761D01*
X165216224Y-67667042D01*
X165209499Y-67661103D01*
X165209496Y-67661099D01*
X165194062Y-67647468D01*
X165182018Y-67635276D01*
X165168573Y-67619673D01*
X165168570Y-67619671D01*
X165162713Y-67612873D01*
X165149009Y-67603990D01*
X165141165Y-67598906D01*
X165126291Y-67587615D01*
X165113783Y-67576569D01*
X165113782Y-67576568D01*
X165107049Y-67570622D01*
X165080287Y-67558057D01*
X165065309Y-67549737D01*
X165048017Y-67538529D01*
X165048012Y-67538527D01*
X165040485Y-67533648D01*
X165031892Y-67531078D01*
X165031887Y-67531076D01*
X165015880Y-67526289D01*
X164998436Y-67519628D01*
X164983324Y-67512533D01*
X164983322Y-67512532D01*
X164975200Y-67508719D01*
X164966333Y-67507338D01*
X164966332Y-67507338D01*
X164955478Y-67505648D01*
X164945983Y-67504170D01*
X164929268Y-67500387D01*
X164909534Y-67494485D01*
X164909528Y-67494484D01*
X164900934Y-67491914D01*
X164891963Y-67491859D01*
X164891962Y-67491859D01*
X164881903Y-67491798D01*
X164866494Y-67491704D01*
X164865711Y-67491671D01*
X164864614Y-67491500D01*
X164833623Y-67491500D01*
X164832853Y-67491498D01*
X164759215Y-67491048D01*
X164759214Y-67491048D01*
X164755279Y-67491024D01*
X164753935Y-67491408D01*
X164752590Y-67491500D01*
X159583623Y-67491500D01*
X159582853Y-67491498D01*
X159582037Y-67491493D01*
X159505279Y-67491024D01*
X159487015Y-67496244D01*
X159476847Y-67499150D01*
X159460085Y-67502728D01*
X159430813Y-67506920D01*
X159422645Y-67510634D01*
X159422644Y-67510634D01*
X159407438Y-67517548D01*
X159389914Y-67523996D01*
X159365229Y-67531051D01*
X159357635Y-67535843D01*
X159357632Y-67535844D01*
X159340220Y-67546830D01*
X159325137Y-67554969D01*
X159298218Y-67567208D01*
X159291416Y-67573069D01*
X159278765Y-67583970D01*
X159263761Y-67595073D01*
X159242042Y-67608776D01*
X159236103Y-67615501D01*
X159236099Y-67615504D01*
X159222468Y-67630938D01*
X159210276Y-67642982D01*
X159194673Y-67656427D01*
X159194671Y-67656430D01*
X159187873Y-67662287D01*
X159182993Y-67669816D01*
X159182992Y-67669817D01*
X159173906Y-67683835D01*
X159162615Y-67698709D01*
X159151569Y-67711217D01*
X159145622Y-67717951D01*
X159133504Y-67743761D01*
X159133058Y-67744711D01*
X159124737Y-67759691D01*
X159113529Y-67776983D01*
X159113527Y-67776988D01*
X159108648Y-67784515D01*
X159106078Y-67793108D01*
X159106076Y-67793113D01*
X159101289Y-67809120D01*
X159094628Y-67826564D01*
X159087534Y-67841674D01*
X159083719Y-67849800D01*
X159082338Y-67858667D01*
X159082338Y-67858668D01*
X159079170Y-67879015D01*
X159075387Y-67895732D01*
X159069485Y-67915466D01*
X159069484Y-67915472D01*
X159066914Y-67924066D01*
X159066859Y-67933037D01*
X159066859Y-67933038D01*
X159066704Y-67958497D01*
X159066671Y-67959289D01*
X159066500Y-67960386D01*
X159066500Y-67991377D01*
X159066498Y-67992147D01*
X159066024Y-68069721D01*
X159066408Y-68071065D01*
X159066500Y-68072410D01*
X159066500Y-77565711D01*
X159046498Y-77633832D01*
X158992842Y-77680325D01*
X158922568Y-77690429D01*
X158857988Y-77660935D01*
X158833356Y-77632014D01*
X158802332Y-77581880D01*
X158798478Y-77575652D01*
X158673303Y-77450695D01*
X158641999Y-77431399D01*
X158528968Y-77361725D01*
X158528966Y-77361724D01*
X158522738Y-77357885D01*
X158417445Y-77322961D01*
X158361389Y-77304368D01*
X158361387Y-77304368D01*
X158354861Y-77302203D01*
X158348025Y-77301503D01*
X158348022Y-77301502D01*
X158304969Y-77297091D01*
X158250400Y-77291500D01*
X157249600Y-77291500D01*
X157246354Y-77291837D01*
X157246350Y-77291837D01*
X157150692Y-77301762D01*
X157150688Y-77301763D01*
X157143834Y-77302474D01*
X157137298Y-77304655D01*
X157137296Y-77304655D01*
X156976054Y-77358450D01*
X156975565Y-77356984D01*
X156932818Y-77366500D01*
X156692633Y-77366500D01*
X156624512Y-77346498D01*
X156584180Y-77304641D01*
X156584019Y-77304368D01*
X156574453Y-77288193D01*
X156456807Y-77170547D01*
X156449983Y-77166511D01*
X156449980Y-77166509D01*
X156320427Y-77089892D01*
X156320428Y-77089892D01*
X156313601Y-77085855D01*
X156305990Y-77083644D01*
X156305988Y-77083643D01*
X156228334Y-77061083D01*
X156153831Y-77039438D01*
X156147426Y-77038934D01*
X156147421Y-77038933D01*
X156118958Y-77036693D01*
X156118950Y-77036693D01*
X156116502Y-77036500D01*
X154333498Y-77036500D01*
X154331050Y-77036693D01*
X154331042Y-77036693D01*
X154302579Y-77038933D01*
X154302574Y-77038934D01*
X154296169Y-77039438D01*
X154221666Y-77061083D01*
X154144012Y-77083643D01*
X154144010Y-77083644D01*
X154136399Y-77085855D01*
X154129572Y-77089892D01*
X154129573Y-77089892D01*
X154000020Y-77166509D01*
X154000017Y-77166511D01*
X153993193Y-77170547D01*
X153987585Y-77176155D01*
X153981325Y-77181011D01*
X153980156Y-77179504D01*
X153926833Y-77208621D01*
X153900050Y-77211500D01*
X151599950Y-77211500D01*
X151531829Y-77191498D01*
X151518729Y-77180941D01*
X151518675Y-77181011D01*
X151512415Y-77176155D01*
X151506807Y-77170547D01*
X151499983Y-77166511D01*
X151499980Y-77166509D01*
X151370427Y-77089892D01*
X151370428Y-77089892D01*
X151363601Y-77085855D01*
X151355990Y-77083644D01*
X151355988Y-77083643D01*
X151278334Y-77061083D01*
X151203831Y-77039438D01*
X151197426Y-77038934D01*
X151197421Y-77038933D01*
X151168958Y-77036693D01*
X151168950Y-77036693D01*
X151166502Y-77036500D01*
X149383498Y-77036500D01*
X149381050Y-77036693D01*
X149381042Y-77036693D01*
X149352579Y-77038933D01*
X149352574Y-77038934D01*
X149346169Y-77039438D01*
X149271666Y-77061083D01*
X149194012Y-77083643D01*
X149194010Y-77083644D01*
X149186399Y-77085855D01*
X149179572Y-77089892D01*
X149179573Y-77089892D01*
X149050020Y-77166509D01*
X149050017Y-77166511D01*
X149043193Y-77170547D01*
X148925547Y-77288193D01*
X148921511Y-77295017D01*
X148921509Y-77295020D01*
X148891065Y-77346498D01*
X148840855Y-77431399D01*
X148838644Y-77439010D01*
X148838643Y-77439012D01*
X148805497Y-77553103D01*
X148767284Y-77612938D01*
X148702788Y-77642616D01*
X148632486Y-77632713D01*
X148578697Y-77586373D01*
X148558500Y-77517950D01*
X148558500Y-76601866D01*
X148551745Y-76539684D01*
X148500615Y-76403295D01*
X148413261Y-76286739D01*
X148296705Y-76199385D01*
X148160316Y-76148255D01*
X148098134Y-76141500D01*
X142901866Y-76141500D01*
X142839684Y-76148255D01*
X142703295Y-76199385D01*
X142586739Y-76286739D01*
X142499385Y-76403295D01*
X142448255Y-76539684D01*
X142441500Y-76601866D01*
X142441500Y-77240500D01*
X142421498Y-77308621D01*
X142367842Y-77355114D01*
X142315500Y-77366500D01*
X141784500Y-77366500D01*
X141716379Y-77346498D01*
X141669886Y-77292842D01*
X141658500Y-77240500D01*
X141658500Y-76201866D01*
X141651745Y-76139684D01*
X141600615Y-76003295D01*
X141513261Y-75886739D01*
X141396705Y-75799385D01*
X141260316Y-75748255D01*
X141198134Y-75741500D01*
X139301866Y-75741500D01*
X139239684Y-75748255D01*
X139103295Y-75799385D01*
X138986739Y-75886739D01*
X138899385Y-76003295D01*
X138848255Y-76139684D01*
X138841500Y-76201866D01*
X138841500Y-79798134D01*
X133647142Y-79798134D01*
X133632204Y-79735911D01*
X133630310Y-79731338D01*
X133534198Y-79499303D01*
X133534196Y-79499299D01*
X133532303Y-79494729D01*
X133395903Y-79272144D01*
X133226363Y-79073637D01*
X133027856Y-78904097D01*
X132805271Y-78767697D01*
X132800701Y-78765804D01*
X132800697Y-78765802D01*
X132568662Y-78669690D01*
X132568660Y-78669689D01*
X132564089Y-78667796D01*
X132375498Y-78622519D01*
X132313929Y-78587167D01*
X132281246Y-78524140D01*
X132287827Y-78453449D01*
X132331581Y-78397538D01*
X132375498Y-78377481D01*
X132423507Y-78365955D01*
X132564089Y-78332204D01*
X132662693Y-78291361D01*
X132800697Y-78234198D01*
X132800701Y-78234196D01*
X132805271Y-78232303D01*
X133027856Y-78095903D01*
X133226363Y-77926363D01*
X133395903Y-77727856D01*
X133532303Y-77505271D01*
X133549854Y-77462901D01*
X133630310Y-77268662D01*
X133630311Y-77268660D01*
X133632204Y-77264089D01*
X133655631Y-77166509D01*
X133691991Y-77015062D01*
X133691992Y-77015056D01*
X133693146Y-77010249D01*
X133713628Y-76750000D01*
X133693146Y-76489751D01*
X133691992Y-76484944D01*
X133691991Y-76484938D01*
X133653576Y-76324931D01*
X133632204Y-76235911D01*
X133630310Y-76231338D01*
X133534198Y-75999303D01*
X133534196Y-75999299D01*
X133532303Y-75994729D01*
X133395903Y-75772144D01*
X133226363Y-75573637D01*
X133027856Y-75404097D01*
X132805271Y-75267697D01*
X132800701Y-75265804D01*
X132800697Y-75265802D01*
X132568662Y-75169690D01*
X132568660Y-75169689D01*
X132564089Y-75167796D01*
X132375498Y-75122519D01*
X132313929Y-75087167D01*
X132281246Y-75024140D01*
X132287827Y-74953449D01*
X132331581Y-74897538D01*
X132375498Y-74877481D01*
X132407358Y-74869832D01*
X132564089Y-74832204D01*
X132568662Y-74830310D01*
X132800697Y-74734198D01*
X132800701Y-74734196D01*
X132805271Y-74732303D01*
X132944318Y-74647095D01*
X136579501Y-74647095D01*
X136579838Y-74653614D01*
X136589757Y-74749206D01*
X136592649Y-74762600D01*
X136644088Y-74916784D01*
X136650261Y-74929962D01*
X136735563Y-75067807D01*
X136744599Y-75079208D01*
X136859329Y-75193739D01*
X136870740Y-75202751D01*
X137008743Y-75287816D01*
X137021924Y-75293963D01*
X137176210Y-75345138D01*
X137189586Y-75348005D01*
X137283938Y-75357672D01*
X137290354Y-75358000D01*
X137477885Y-75358000D01*
X137493124Y-75353525D01*
X137494329Y-75352135D01*
X137496000Y-75344452D01*
X137496000Y-75339884D01*
X138004000Y-75339884D01*
X138008475Y-75355123D01*
X138009865Y-75356328D01*
X138017548Y-75357999D01*
X138209595Y-75357999D01*
X138216114Y-75357662D01*
X138311706Y-75347743D01*
X138325100Y-75344851D01*
X138479284Y-75293412D01*
X138492462Y-75287239D01*
X138630307Y-75201937D01*
X138641708Y-75192901D01*
X138756239Y-75078171D01*
X138765251Y-75066760D01*
X138850316Y-74928757D01*
X138856463Y-74915576D01*
X138907638Y-74761290D01*
X138910505Y-74747914D01*
X138920172Y-74653562D01*
X138920500Y-74647146D01*
X138920500Y-73772115D01*
X138916025Y-73756876D01*
X138914635Y-73755671D01*
X138906952Y-73754000D01*
X138022115Y-73754000D01*
X138006876Y-73758475D01*
X138005671Y-73759865D01*
X138004000Y-73767548D01*
X138004000Y-75339884D01*
X137496000Y-75339884D01*
X137496000Y-73772115D01*
X137491525Y-73756876D01*
X137490135Y-73755671D01*
X137482452Y-73754000D01*
X136597616Y-73754000D01*
X136582377Y-73758475D01*
X136581172Y-73759865D01*
X136579501Y-73767548D01*
X136579501Y-74647095D01*
X132944318Y-74647095D01*
X133027856Y-74595903D01*
X133226363Y-74426363D01*
X133395903Y-74227856D01*
X133532303Y-74005271D01*
X133549888Y-73962819D01*
X133630310Y-73768662D01*
X133630311Y-73768660D01*
X133632204Y-73764089D01*
X133682199Y-73555847D01*
X133691991Y-73515062D01*
X133691992Y-73515056D01*
X133693146Y-73510249D01*
X133713628Y-73250000D01*
X133711888Y-73227885D01*
X136579500Y-73227885D01*
X136583975Y-73243124D01*
X136585365Y-73244329D01*
X136593048Y-73246000D01*
X137477885Y-73246000D01*
X137493124Y-73241525D01*
X137494329Y-73240135D01*
X137496000Y-73232452D01*
X137496000Y-73227885D01*
X138004000Y-73227885D01*
X138008475Y-73243124D01*
X138009865Y-73244329D01*
X138017548Y-73246000D01*
X138902384Y-73246000D01*
X138917623Y-73241525D01*
X138918828Y-73240135D01*
X138920499Y-73232452D01*
X138920499Y-72352905D01*
X138920162Y-72346386D01*
X138910243Y-72250794D01*
X138907351Y-72237400D01*
X138855912Y-72083216D01*
X138849739Y-72070038D01*
X138764437Y-71932193D01*
X138755401Y-71920792D01*
X138640671Y-71806261D01*
X138629260Y-71797249D01*
X138491257Y-71712184D01*
X138478076Y-71706037D01*
X138323790Y-71654862D01*
X138310414Y-71651995D01*
X138216062Y-71642328D01*
X138209645Y-71642000D01*
X138022115Y-71642000D01*
X138006876Y-71646475D01*
X138005671Y-71647865D01*
X138004000Y-71655548D01*
X138004000Y-73227885D01*
X137496000Y-73227885D01*
X137496000Y-71660116D01*
X137491525Y-71644877D01*
X137490135Y-71643672D01*
X137482452Y-71642001D01*
X137290405Y-71642001D01*
X137283886Y-71642338D01*
X137188294Y-71652257D01*
X137174900Y-71655149D01*
X137020716Y-71706588D01*
X137007538Y-71712761D01*
X136869693Y-71798063D01*
X136858292Y-71807099D01*
X136743761Y-71921829D01*
X136734749Y-71933240D01*
X136649684Y-72071243D01*
X136643537Y-72084424D01*
X136592362Y-72238710D01*
X136589495Y-72252086D01*
X136579828Y-72346438D01*
X136579500Y-72352855D01*
X136579500Y-73227885D01*
X133711888Y-73227885D01*
X133693146Y-72989751D01*
X133691992Y-72984944D01*
X133691991Y-72984938D01*
X133633359Y-72740723D01*
X133632204Y-72735911D01*
X133558415Y-72557768D01*
X133534198Y-72499303D01*
X133534196Y-72499299D01*
X133532303Y-72494729D01*
X133395903Y-72272144D01*
X133226363Y-72073637D01*
X133027856Y-71904097D01*
X132805271Y-71767697D01*
X132800701Y-71765804D01*
X132800697Y-71765802D01*
X132568662Y-71669690D01*
X132568660Y-71669689D01*
X132564089Y-71667796D01*
X132375498Y-71622519D01*
X132313929Y-71587167D01*
X132281246Y-71524140D01*
X132287827Y-71453449D01*
X132331581Y-71397538D01*
X132375498Y-71377481D01*
X132378062Y-71376865D01*
X132564089Y-71332204D01*
X132568662Y-71330310D01*
X132800697Y-71234198D01*
X132800701Y-71234196D01*
X132805271Y-71232303D01*
X133027856Y-71095903D01*
X133226363Y-70926363D01*
X133395903Y-70727856D01*
X133532303Y-70505271D01*
X133545652Y-70473045D01*
X133630310Y-70268662D01*
X133630311Y-70268660D01*
X133632204Y-70264089D01*
X133670025Y-70106554D01*
X133691991Y-70015062D01*
X133691992Y-70015056D01*
X133693146Y-70010249D01*
X133713628Y-69750000D01*
X133693146Y-69489751D01*
X133691992Y-69484944D01*
X133691991Y-69484938D01*
X133633359Y-69240723D01*
X133632204Y-69235911D01*
X133532303Y-68994729D01*
X133395903Y-68772144D01*
X133226363Y-68573637D01*
X133027856Y-68404097D01*
X132805271Y-68267697D01*
X132800701Y-68265804D01*
X132800697Y-68265802D01*
X132568662Y-68169690D01*
X132568660Y-68169689D01*
X132564089Y-68167796D01*
X132374428Y-68122262D01*
X132312859Y-68086910D01*
X132280176Y-68023883D01*
X132286757Y-67953192D01*
X132330511Y-67897281D01*
X132374428Y-67877224D01*
X132559123Y-67832883D01*
X132568508Y-67829834D01*
X132800470Y-67733752D01*
X132809264Y-67729271D01*
X133020875Y-67599596D01*
X133026922Y-67590330D01*
X133020915Y-67580125D01*
X132062812Y-66622022D01*
X132048868Y-66614408D01*
X132047035Y-66614539D01*
X132040420Y-66618790D01*
X131080544Y-67578666D01*
X131073151Y-67592204D01*
X131077720Y-67598735D01*
X131290736Y-67729271D01*
X131299530Y-67733752D01*
X131531492Y-67829834D01*
X131540877Y-67832883D01*
X131725572Y-67877224D01*
X131787141Y-67912576D01*
X131819824Y-67975603D01*
X131813244Y-68046294D01*
X131769490Y-68102205D01*
X131725571Y-68122262D01*
X131535911Y-68167796D01*
X131531340Y-68169689D01*
X131531338Y-68169690D01*
X131299303Y-68265802D01*
X131299299Y-68265804D01*
X131294729Y-68267697D01*
X131072144Y-68404097D01*
X130873637Y-68573637D01*
X130704097Y-68772144D01*
X130567697Y-68994729D01*
X130467796Y-69235911D01*
X130466641Y-69240723D01*
X130408009Y-69484938D01*
X130408008Y-69484944D01*
X130406854Y-69489751D01*
X130386372Y-69750000D01*
X130406854Y-70010249D01*
X130408008Y-70015056D01*
X130408009Y-70015062D01*
X130429975Y-70106554D01*
X130467796Y-70264089D01*
X130469689Y-70268660D01*
X130469690Y-70268662D01*
X130554349Y-70473045D01*
X130567697Y-70505271D01*
X130704097Y-70727856D01*
X130873637Y-70926363D01*
X131072144Y-71095903D01*
X131294729Y-71232303D01*
X131299299Y-71234196D01*
X131299303Y-71234198D01*
X131531338Y-71330310D01*
X131535911Y-71332204D01*
X131721938Y-71376865D01*
X131724502Y-71377481D01*
X131786071Y-71412833D01*
X131818754Y-71475860D01*
X131812173Y-71546551D01*
X131768419Y-71602462D01*
X131724502Y-71622519D01*
X131535911Y-71667796D01*
X131531340Y-71669689D01*
X131531338Y-71669690D01*
X131299303Y-71765802D01*
X131299299Y-71765804D01*
X131294729Y-71767697D01*
X131072144Y-71904097D01*
X130873637Y-72073637D01*
X130704097Y-72272144D01*
X130567697Y-72494729D01*
X130565804Y-72499299D01*
X130565802Y-72499303D01*
X130541585Y-72557768D01*
X130467796Y-72735911D01*
X130466641Y-72740723D01*
X130408009Y-72984938D01*
X130408008Y-72984944D01*
X130406854Y-72989751D01*
X130386372Y-73250000D01*
X130406854Y-73510249D01*
X130408008Y-73515056D01*
X130408009Y-73515062D01*
X130417801Y-73555847D01*
X130467796Y-73764089D01*
X130469689Y-73768660D01*
X130469690Y-73768662D01*
X130550113Y-73962819D01*
X130567697Y-74005271D01*
X130704097Y-74227856D01*
X130873637Y-74426363D01*
X131072144Y-74595903D01*
X131294729Y-74732303D01*
X131299299Y-74734196D01*
X131299303Y-74734198D01*
X131531338Y-74830310D01*
X131535911Y-74832204D01*
X131692642Y-74869832D01*
X131724502Y-74877481D01*
X131786071Y-74912833D01*
X131818754Y-74975860D01*
X131812173Y-75046551D01*
X131768419Y-75102462D01*
X131724502Y-75122519D01*
X131535911Y-75167796D01*
X131531340Y-75169689D01*
X131531338Y-75169690D01*
X131299303Y-75265802D01*
X131299299Y-75265804D01*
X131294729Y-75267697D01*
X131072144Y-75404097D01*
X130873637Y-75573637D01*
X130704097Y-75772144D01*
X130567697Y-75994729D01*
X130565804Y-75999299D01*
X130565802Y-75999303D01*
X130469690Y-76231338D01*
X130467796Y-76235911D01*
X130446424Y-76324931D01*
X130408009Y-76484938D01*
X130408008Y-76484944D01*
X130406854Y-76489751D01*
X130386372Y-76750000D01*
X130406854Y-77010249D01*
X130408008Y-77015056D01*
X130408009Y-77015062D01*
X130444369Y-77166509D01*
X130467796Y-77264089D01*
X130469689Y-77268660D01*
X130469690Y-77268662D01*
X130550147Y-77462901D01*
X130567697Y-77505271D01*
X130704097Y-77727856D01*
X130873637Y-77926363D01*
X131072144Y-78095903D01*
X131294729Y-78232303D01*
X131299299Y-78234196D01*
X131299303Y-78234198D01*
X131437307Y-78291361D01*
X131535911Y-78332204D01*
X131676493Y-78365955D01*
X131724502Y-78377481D01*
X131786071Y-78412833D01*
X131818754Y-78475860D01*
X131812173Y-78546551D01*
X131768419Y-78602462D01*
X131724502Y-78622519D01*
X131535911Y-78667796D01*
X131531340Y-78669689D01*
X131531338Y-78669690D01*
X131299303Y-78765802D01*
X131299299Y-78765804D01*
X131294729Y-78767697D01*
X131072144Y-78904097D01*
X130873637Y-79073637D01*
X130704097Y-79272144D01*
X130567697Y-79494729D01*
X130565804Y-79499299D01*
X130565802Y-79499303D01*
X130469690Y-79731338D01*
X130467796Y-79735911D01*
X130452042Y-79801531D01*
X130408009Y-79984938D01*
X130408008Y-79984944D01*
X130406854Y-79989751D01*
X130386372Y-80250000D01*
X130406854Y-80510249D01*
X130408008Y-80515056D01*
X130408009Y-80515062D01*
X130433808Y-80622519D01*
X130467796Y-80764089D01*
X130469689Y-80768660D01*
X130469690Y-80768662D01*
X130550113Y-80962819D01*
X130567697Y-81005271D01*
X130704097Y-81227856D01*
X130873637Y-81426363D01*
X131072144Y-81595903D01*
X131294729Y-81732303D01*
X131299299Y-81734196D01*
X131299303Y-81734198D01*
X131521440Y-81826210D01*
X131535911Y-81832204D01*
X131689314Y-81869033D01*
X131724502Y-81877481D01*
X131786071Y-81912833D01*
X131818754Y-81975860D01*
X131812173Y-82046551D01*
X131768419Y-82102462D01*
X131724502Y-82122519D01*
X131535911Y-82167796D01*
X131531340Y-82169689D01*
X131531338Y-82169690D01*
X131299303Y-82265802D01*
X131299299Y-82265804D01*
X131294729Y-82267697D01*
X131072144Y-82404097D01*
X130873637Y-82573637D01*
X130704097Y-82772144D01*
X130567697Y-82994729D01*
X130565804Y-82999299D01*
X130565802Y-82999303D01*
X130476778Y-83214226D01*
X130467796Y-83235911D01*
X130457340Y-83279462D01*
X130408009Y-83484938D01*
X130408008Y-83484944D01*
X130406854Y-83489751D01*
X130386372Y-83750000D01*
X128851831Y-83750000D01*
X128717038Y-83429339D01*
X128715096Y-83424432D01*
X128397492Y-82570424D01*
X128382730Y-82530731D01*
X128380995Y-82525749D01*
X128086335Y-81618875D01*
X128084810Y-81613823D01*
X127828392Y-80695438D01*
X127827079Y-80690326D01*
X127609336Y-79761975D01*
X127608239Y-79756813D01*
X127500281Y-79190880D01*
X127429562Y-78820158D01*
X127428686Y-78814975D01*
X127424031Y-78783447D01*
X127293767Y-77901304D01*
X127289393Y-77871686D01*
X127288731Y-77866450D01*
X127189059Y-76918123D01*
X127188618Y-76912865D01*
X127128746Y-75961231D01*
X127128525Y-75955958D01*
X127116003Y-75358172D01*
X127108555Y-75002626D01*
X127108555Y-74997361D01*
X127109006Y-74975860D01*
X127120813Y-74412181D01*
X127128525Y-74044042D01*
X127128746Y-74038769D01*
X127188618Y-73087135D01*
X127189059Y-73081877D01*
X127288731Y-72133550D01*
X127289393Y-72128314D01*
X127338219Y-71797668D01*
X127428688Y-71185011D01*
X127429566Y-71179821D01*
X127436266Y-71144702D01*
X127537591Y-70613534D01*
X127608239Y-70243187D01*
X127609336Y-70238025D01*
X127827079Y-69309674D01*
X127828392Y-69304562D01*
X128084810Y-68386177D01*
X128086335Y-68381125D01*
X128366927Y-67517548D01*
X128380996Y-67474249D01*
X128382731Y-67469267D01*
X128383906Y-67466109D01*
X128470600Y-67232995D01*
X128715096Y-66575568D01*
X128717038Y-66570661D01*
X128849759Y-66254930D01*
X130387261Y-66254930D01*
X130406961Y-66505236D01*
X130408504Y-66514983D01*
X130467117Y-66759123D01*
X130470166Y-66768508D01*
X130566248Y-67000470D01*
X130570729Y-67009264D01*
X130700404Y-67220875D01*
X130709670Y-67226922D01*
X130719875Y-67220915D01*
X131677978Y-66262812D01*
X131684356Y-66251132D01*
X132414408Y-66251132D01*
X132414539Y-66252965D01*
X132418790Y-66259580D01*
X133378666Y-67219456D01*
X133392204Y-67226849D01*
X133398735Y-67222280D01*
X133529271Y-67009264D01*
X133533752Y-67000470D01*
X133629834Y-66768508D01*
X133632883Y-66759123D01*
X133691496Y-66514983D01*
X133693039Y-66505236D01*
X133712739Y-66254930D01*
X133712739Y-66245070D01*
X133693039Y-65994764D01*
X133691496Y-65985017D01*
X133632883Y-65740877D01*
X133629834Y-65731492D01*
X133533752Y-65499530D01*
X133529271Y-65490736D01*
X133399596Y-65279125D01*
X133390330Y-65273078D01*
X133380125Y-65279085D01*
X132422022Y-66237188D01*
X132414408Y-66251132D01*
X131684356Y-66251132D01*
X131685592Y-66248868D01*
X131685461Y-66247035D01*
X131681210Y-66240420D01*
X130721334Y-65280544D01*
X130707796Y-65273151D01*
X130701265Y-65277720D01*
X130570729Y-65490736D01*
X130566248Y-65499530D01*
X130470166Y-65731492D01*
X130467117Y-65740877D01*
X130408504Y-65985017D01*
X130406961Y-65994764D01*
X130387261Y-66245070D01*
X130387261Y-66254930D01*
X128849759Y-66254930D01*
X129086556Y-65691610D01*
X129088703Y-65686789D01*
X129454388Y-64909670D01*
X131073078Y-64909670D01*
X131079085Y-64919875D01*
X132037188Y-65877978D01*
X132051132Y-65885592D01*
X132052965Y-65885461D01*
X132059580Y-65881210D01*
X133019456Y-64921334D01*
X133026849Y-64907796D01*
X133022280Y-64901265D01*
X132809264Y-64770729D01*
X132800470Y-64766248D01*
X132568508Y-64670166D01*
X132559123Y-64667117D01*
X132314983Y-64608504D01*
X132305236Y-64606961D01*
X132054930Y-64587261D01*
X132045070Y-64587261D01*
X131794764Y-64606961D01*
X131785017Y-64608504D01*
X131540877Y-64667117D01*
X131531492Y-64670166D01*
X131299530Y-64766248D01*
X131290736Y-64770729D01*
X131079125Y-64900404D01*
X131073078Y-64909670D01*
X129454388Y-64909670D01*
X129494686Y-64824032D01*
X129497032Y-64819305D01*
X129938807Y-63974268D01*
X129941350Y-63969643D01*
X130418112Y-63143867D01*
X130420846Y-63139353D01*
X130721629Y-62665393D01*
X130931771Y-62334262D01*
X130934681Y-62329881D01*
X130953088Y-62303398D01*
X131185148Y-61969507D01*
X131364973Y-61710774D01*
X131420275Y-61666252D01*
X131490869Y-61658697D01*
X131544521Y-61682248D01*
X131785016Y-61864430D01*
X131786859Y-61865853D01*
X131841195Y-61908617D01*
X131849519Y-61911964D01*
X131849523Y-61911966D01*
X131872282Y-61921116D01*
X131886347Y-61927809D01*
X131915667Y-61944058D01*
X131924425Y-61946031D01*
X131936872Y-61948835D01*
X131956183Y-61954850D01*
X131976338Y-61962953D01*
X132001113Y-61965384D01*
X132009687Y-61966225D01*
X132025071Y-61968703D01*
X132049004Y-61974094D01*
X132049006Y-61974094D01*
X132057764Y-61976067D01*
X132066721Y-61975503D01*
X132066724Y-61975503D01*
X132079455Y-61974701D01*
X132099675Y-61975054D01*
X132109066Y-61975975D01*
X132121300Y-61977175D01*
X132154228Y-61970955D01*
X132169687Y-61969016D01*
X132203133Y-61966909D01*
X132211567Y-61963855D01*
X132211573Y-61963854D01*
X132223563Y-61959512D01*
X132243074Y-61954173D01*
X132264426Y-61950140D01*
X132294284Y-61934929D01*
X132308576Y-61928730D01*
X132331649Y-61920376D01*
X132331653Y-61920374D01*
X132340090Y-61917319D01*
X132357626Y-61904482D01*
X132374855Y-61893883D01*
X132386212Y-61888097D01*
X132386215Y-61888095D01*
X132394212Y-61884021D01*
X132400745Y-61877866D01*
X132400747Y-61877864D01*
X132418604Y-61861039D01*
X132430586Y-61851074D01*
X132450379Y-61836585D01*
X132450383Y-61836581D01*
X132457622Y-61831282D01*
X132468369Y-61817275D01*
X132470845Y-61814047D01*
X132484404Y-61799041D01*
X132500225Y-61784133D01*
X132513663Y-61761231D01*
X132524269Y-61745887D01*
X132605727Y-61644932D01*
X132980139Y-61180901D01*
X133020926Y-61130351D01*
X133023878Y-61126826D01*
X133566534Y-60502354D01*
X133569613Y-60498939D01*
X134134689Y-59894690D01*
X134137891Y-59891389D01*
X134724635Y-59308166D01*
X134727955Y-59304984D01*
X135267795Y-58806197D01*
X135335614Y-58743536D01*
X135339041Y-58740484D01*
X135349849Y-58731206D01*
X135966754Y-58201606D01*
X135970296Y-58198676D01*
X136581073Y-57711899D01*
X136599956Y-57699446D01*
X136606901Y-57695714D01*
X136606906Y-57695711D01*
X136614333Y-57691719D01*
X136615635Y-57690438D01*
X136617242Y-57689559D01*
X136623216Y-57683594D01*
X136623221Y-57683590D01*
X136667309Y-57639566D01*
X136667939Y-57638941D01*
X136712089Y-57595472D01*
X136712089Y-57595471D01*
X136718126Y-57589528D01*
X136719016Y-57587932D01*
X136720312Y-57586638D01*
X136754329Y-57524608D01*
X136754645Y-57524037D01*
X136789065Y-57462312D01*
X136789471Y-57460531D01*
X136790352Y-57458925D01*
X136805557Y-57390009D01*
X136805751Y-57389144D01*
X136819569Y-57328548D01*
X136819569Y-57328543D01*
X136821449Y-57320300D01*
X136821339Y-57318474D01*
X136821733Y-57316687D01*
X136816983Y-57246261D01*
X136816926Y-57245375D01*
X136813183Y-57183369D01*
X136813183Y-57183368D01*
X136812672Y-57174907D01*
X136812054Y-57173187D01*
X136811931Y-57171360D01*
X136787553Y-57104954D01*
X136787250Y-57104119D01*
X136766303Y-57045792D01*
X136763441Y-57037822D01*
X136762367Y-57036347D01*
X136761735Y-57034625D01*
X136719717Y-56977756D01*
X136719207Y-56977060D01*
X136699858Y-56950481D01*
X136699854Y-56950476D01*
X136697571Y-56947340D01*
X136696539Y-56946305D01*
X136695696Y-56945244D01*
X136680513Y-56924694D01*
X136680511Y-56924692D01*
X136675178Y-56917474D01*
X136651641Y-56899582D01*
X136638649Y-56888222D01*
X136612820Y-56862306D01*
X136502279Y-56751396D01*
X136470994Y-56720006D01*
X136437073Y-56657637D01*
X136442256Y-56586829D01*
X136486177Y-56529123D01*
X136933378Y-56204212D01*
X136937712Y-56201200D01*
X137590564Y-55767446D01*
X137731931Y-55673522D01*
X137736365Y-55670708D01*
X138551983Y-55176752D01*
X138556553Y-55174113D01*
X139392148Y-54714742D01*
X139396825Y-54712297D01*
X140250908Y-54288326D01*
X140255683Y-54286079D01*
X141126777Y-53898243D01*
X141131642Y-53896198D01*
X141147949Y-53889741D01*
X142018236Y-53545170D01*
X142023160Y-53543339D01*
X142362897Y-53425031D01*
X142923640Y-53229760D01*
X142928659Y-53228129D01*
X143841500Y-52952526D01*
X143846583Y-52951107D01*
X144770129Y-52713981D01*
X144775267Y-52712775D01*
X145241634Y-52613645D01*
X145708017Y-52514512D01*
X145713122Y-52513538D01*
X146653395Y-52354502D01*
X146658545Y-52353743D01*
X147141026Y-52292792D01*
X147604561Y-52234234D01*
X147609810Y-52233682D01*
X148311799Y-52174734D01*
X148560014Y-52153891D01*
X148565272Y-52153560D01*
X149517948Y-52113631D01*
X149523225Y-52113520D01*
X150476775Y-52113520D01*
X150482052Y-52113631D01*
G37*
%TD.AperFunction*%
%TA.AperFunction,Conductor*%
G36*
X153769897Y-78498502D02*
G01*
X153816390Y-78552158D01*
X153826494Y-78622432D01*
X153810231Y-78668636D01*
X153790855Y-78701399D01*
X153788644Y-78709010D01*
X153788643Y-78709012D01*
X153783739Y-78725891D01*
X153744438Y-78861169D01*
X153741500Y-78898498D01*
X153741500Y-79331502D01*
X153741693Y-79333950D01*
X153741693Y-79333958D01*
X153743435Y-79356081D01*
X153744438Y-79368831D01*
X153769114Y-79453767D01*
X153783301Y-79502598D01*
X153790855Y-79528601D01*
X153875547Y-79671807D01*
X153878229Y-79674489D01*
X153903502Y-79738861D01*
X153889600Y-79808484D01*
X153879428Y-79824312D01*
X153875547Y-79828193D01*
X153790855Y-79971399D01*
X153788644Y-79979010D01*
X153788643Y-79979012D01*
X153785946Y-79988297D01*
X153744438Y-80131169D01*
X153741500Y-80168498D01*
X153741500Y-80601502D01*
X153744438Y-80638831D01*
X153746233Y-80645008D01*
X153776795Y-80750204D01*
X153790855Y-80798601D01*
X153875547Y-80941807D01*
X153878229Y-80944489D01*
X153903502Y-81008861D01*
X153889600Y-81078484D01*
X153879428Y-81094312D01*
X153875547Y-81098193D01*
X153790855Y-81241399D01*
X153788644Y-81249010D01*
X153788643Y-81249012D01*
X153787916Y-81251514D01*
X153744438Y-81401169D01*
X153743934Y-81407574D01*
X153743933Y-81407579D01*
X153741693Y-81436042D01*
X153741500Y-81438498D01*
X153741500Y-81871502D01*
X153741693Y-81873950D01*
X153741693Y-81873958D01*
X153743204Y-81893146D01*
X153744438Y-81908831D01*
X153763912Y-81975860D01*
X153788586Y-82060790D01*
X153790855Y-82068601D01*
X153794892Y-82075427D01*
X153871509Y-82204980D01*
X153871511Y-82204983D01*
X153875547Y-82211807D01*
X153990145Y-82326405D01*
X154024171Y-82388717D01*
X154019106Y-82459532D01*
X153976559Y-82516368D01*
X153910039Y-82541179D01*
X153901050Y-82541500D01*
X153349600Y-82541500D01*
X153346354Y-82541837D01*
X153346350Y-82541837D01*
X153250692Y-82551762D01*
X153250688Y-82551763D01*
X153243834Y-82552474D01*
X153237298Y-82554655D01*
X153237296Y-82554655D01*
X153105194Y-82598728D01*
X153076054Y-82608450D01*
X152925652Y-82701522D01*
X152920479Y-82706704D01*
X152838862Y-82788463D01*
X152776579Y-82822542D01*
X152705759Y-82817539D01*
X152660671Y-82788618D01*
X152578171Y-82706261D01*
X152566760Y-82697249D01*
X152428757Y-82612184D01*
X152415576Y-82606037D01*
X152261290Y-82554862D01*
X152247914Y-82551995D01*
X152153562Y-82542328D01*
X152147145Y-82542000D01*
X152022115Y-82542000D01*
X152006876Y-82546475D01*
X152005671Y-82547865D01*
X152004000Y-82555548D01*
X152004000Y-83878000D01*
X151983998Y-83946121D01*
X151930342Y-83992614D01*
X151878000Y-84004000D01*
X150660116Y-84004000D01*
X150644877Y-84008475D01*
X150643672Y-84009865D01*
X150642001Y-84017548D01*
X150642001Y-84127500D01*
X150621999Y-84195621D01*
X150568343Y-84242114D01*
X150516001Y-84253500D01*
X150483295Y-84253500D01*
X150415174Y-84233498D01*
X150394200Y-84216595D01*
X149752770Y-83575164D01*
X149085353Y-82907747D01*
X149077813Y-82899461D01*
X149073701Y-82892982D01*
X149024049Y-82846356D01*
X149021208Y-82843602D01*
X149016754Y-82839148D01*
X148982728Y-82776836D01*
X148980505Y-82737209D01*
X148982672Y-82716057D01*
X148983000Y-82709646D01*
X148983000Y-82514175D01*
X149003002Y-82446054D01*
X149056658Y-82399561D01*
X149126932Y-82389457D01*
X149173140Y-82405722D01*
X149179777Y-82409647D01*
X149194210Y-82415893D01*
X149340065Y-82458269D01*
X149352667Y-82460570D01*
X149381084Y-82462807D01*
X149386014Y-82463000D01*
X150002885Y-82463000D01*
X150018124Y-82458525D01*
X150019329Y-82457135D01*
X150021000Y-82449452D01*
X150021000Y-82444884D01*
X150529000Y-82444884D01*
X150533475Y-82460123D01*
X150534865Y-82461328D01*
X150542548Y-82462999D01*
X150868993Y-82462999D01*
X150937114Y-82483001D01*
X150983607Y-82536657D01*
X150993711Y-82606931D01*
X150964217Y-82671511D01*
X150935294Y-82696144D01*
X150932194Y-82698063D01*
X150920792Y-82707099D01*
X150806261Y-82821829D01*
X150797249Y-82833240D01*
X150712184Y-82971243D01*
X150706037Y-82984424D01*
X150654862Y-83138710D01*
X150651995Y-83152086D01*
X150642328Y-83246438D01*
X150642000Y-83252855D01*
X150642000Y-83477885D01*
X150646475Y-83493124D01*
X150647865Y-83494329D01*
X150655548Y-83496000D01*
X151477885Y-83496000D01*
X151493124Y-83491525D01*
X151494329Y-83490135D01*
X151496000Y-83482452D01*
X151496000Y-82560116D01*
X151491525Y-82544877D01*
X151481817Y-82536465D01*
X151443433Y-82476739D01*
X151443433Y-82405742D01*
X151481816Y-82346016D01*
X151498490Y-82334010D01*
X151512104Y-82323449D01*
X151618449Y-82217104D01*
X151628089Y-82204678D01*
X151704648Y-82075221D01*
X151710893Y-82060790D01*
X151749939Y-81926395D01*
X151749899Y-81912294D01*
X151742630Y-81909000D01*
X150547115Y-81909000D01*
X150531876Y-81913475D01*
X150530671Y-81914865D01*
X150529000Y-81922548D01*
X150529000Y-82444884D01*
X150021000Y-82444884D01*
X150021000Y-81527000D01*
X150041002Y-81458879D01*
X150094658Y-81412386D01*
X150147000Y-81401000D01*
X151736878Y-81401000D01*
X151750409Y-81397027D01*
X151751544Y-81389129D01*
X151710893Y-81249210D01*
X151704648Y-81234779D01*
X151628089Y-81105323D01*
X151622129Y-81097640D01*
X151596180Y-81031556D01*
X151610078Y-80961933D01*
X151620421Y-80945839D01*
X151624453Y-80941807D01*
X151709145Y-80798601D01*
X151723206Y-80750204D01*
X151753767Y-80645008D01*
X151755562Y-80638831D01*
X151758500Y-80601502D01*
X151758500Y-80168498D01*
X151755562Y-80131169D01*
X151714054Y-79988297D01*
X151711357Y-79979012D01*
X151711356Y-79979010D01*
X151709145Y-79971399D01*
X151624453Y-79828193D01*
X151621771Y-79825511D01*
X151596498Y-79761139D01*
X151610400Y-79691516D01*
X151620572Y-79675688D01*
X151624453Y-79671807D01*
X151709145Y-79528601D01*
X151716700Y-79502598D01*
X151730886Y-79453767D01*
X151755562Y-79368831D01*
X151756566Y-79356081D01*
X151758307Y-79333958D01*
X151758307Y-79333950D01*
X151758500Y-79331502D01*
X151758500Y-78898498D01*
X151755562Y-78861169D01*
X151716261Y-78725891D01*
X151711357Y-78709012D01*
X151711356Y-78709010D01*
X151709145Y-78701399D01*
X151689769Y-78668637D01*
X151672311Y-78599822D01*
X151694828Y-78532491D01*
X151750173Y-78488022D01*
X151798224Y-78478500D01*
X153701776Y-78478500D01*
X153769897Y-78498502D01*
G37*
%TD.AperFunction*%
%TD*%
M02*
