%TF.GenerationSoftware,KiCad,Pcbnew,(6.0.9)*%
%TF.CreationDate,2024-03-26T20:23:00+01:00*%
%TF.ProjectId,HMW-IO-12-FM,484d572d-494f-42d3-9132-2d464d2e6b69,rev?*%
%TF.SameCoordinates,Original*%
%TF.FileFunction,Copper,L2,Bot*%
%TF.FilePolarity,Positive*%
%FSLAX46Y46*%
G04 Gerber Fmt 4.6, Leading zero omitted, Abs format (unit mm)*
G04 Created by KiCad (PCBNEW (6.0.9)) date 2024-03-26 20:23:00*
%MOMM*%
%LPD*%
G01*
G04 APERTURE LIST*
G04 Aperture macros list*
%AMRoundRect*
0 Rectangle with rounded corners*
0 $1 Rounding radius*
0 $2 $3 $4 $5 $6 $7 $8 $9 X,Y pos of 4 corners*
0 Add a 4 corners polygon primitive as box body*
4,1,4,$2,$3,$4,$5,$6,$7,$8,$9,$2,$3,0*
0 Add four circle primitives for the rounded corners*
1,1,$1+$1,$2,$3*
1,1,$1+$1,$4,$5*
1,1,$1+$1,$6,$7*
1,1,$1+$1,$8,$9*
0 Add four rect primitives between the rounded corners*
20,1,$1+$1,$2,$3,$4,$5,0*
20,1,$1+$1,$4,$5,$6,$7,0*
20,1,$1+$1,$6,$7,$8,$9,0*
20,1,$1+$1,$8,$9,$2,$3,0*%
G04 Aperture macros list end*
%TA.AperFunction,NonConductor*%
%ADD10C,0.200000*%
%TD*%
%TA.AperFunction,ComponentPad*%
%ADD11O,1.500000X1.500000*%
%TD*%
%TA.AperFunction,ComponentPad*%
%ADD12C,1.500000*%
%TD*%
%TA.AperFunction,ComponentPad*%
%ADD13R,1.700000X1.700000*%
%TD*%
%TA.AperFunction,ComponentPad*%
%ADD14O,1.700000X1.700000*%
%TD*%
%TA.AperFunction,ComponentPad*%
%ADD15O,2.300000X2.300000*%
%TD*%
%TA.AperFunction,ComponentPad*%
%ADD16C,2.300000*%
%TD*%
%TA.AperFunction,SMDPad,CuDef*%
%ADD17RoundRect,0.250000X-0.337500X-0.475000X0.337500X-0.475000X0.337500X0.475000X-0.337500X0.475000X0*%
%TD*%
%TA.AperFunction,SMDPad,CuDef*%
%ADD18RoundRect,0.250000X0.450000X-0.350000X0.450000X0.350000X-0.450000X0.350000X-0.450000X-0.350000X0*%
%TD*%
%TA.AperFunction,SMDPad,CuDef*%
%ADD19R,0.400000X3.200000*%
%TD*%
%TA.AperFunction,SMDPad,CuDef*%
%ADD20RoundRect,0.250000X-0.350000X-0.450000X0.350000X-0.450000X0.350000X0.450000X-0.350000X0.450000X0*%
%TD*%
%TA.AperFunction,SMDPad,CuDef*%
%ADD21RoundRect,0.250000X0.337500X0.475000X-0.337500X0.475000X-0.337500X-0.475000X0.337500X-0.475000X0*%
%TD*%
%TA.AperFunction,SMDPad,CuDef*%
%ADD22RoundRect,0.250000X-0.475000X0.337500X-0.475000X-0.337500X0.475000X-0.337500X0.475000X0.337500X0*%
%TD*%
%TA.AperFunction,SMDPad,CuDef*%
%ADD23C,2.000000*%
%TD*%
%TA.AperFunction,SMDPad,CuDef*%
%ADD24R,0.550000X1.500000*%
%TD*%
%TA.AperFunction,SMDPad,CuDef*%
%ADD25R,1.500000X0.550000*%
%TD*%
%TA.AperFunction,SMDPad,CuDef*%
%ADD26RoundRect,0.250000X0.475000X-0.337500X0.475000X0.337500X-0.475000X0.337500X-0.475000X-0.337500X0*%
%TD*%
%TA.AperFunction,SMDPad,CuDef*%
%ADD27RoundRect,0.250000X0.350000X0.450000X-0.350000X0.450000X-0.350000X-0.450000X0.350000X-0.450000X0*%
%TD*%
%TA.AperFunction,SMDPad,CuDef*%
%ADD28RoundRect,0.062500X-0.062500X0.475000X-0.062500X-0.475000X0.062500X-0.475000X0.062500X0.475000X0*%
%TD*%
%TA.AperFunction,SMDPad,CuDef*%
%ADD29RoundRect,0.062500X-0.475000X0.062500X-0.475000X-0.062500X0.475000X-0.062500X0.475000X0.062500X0*%
%TD*%
%TA.AperFunction,SMDPad,CuDef*%
%ADD30R,5.200000X5.200000*%
%TD*%
%TA.AperFunction,SMDPad,CuDef*%
%ADD31RoundRect,0.150000X-0.825000X-0.150000X0.825000X-0.150000X0.825000X0.150000X-0.825000X0.150000X0*%
%TD*%
%TA.AperFunction,ViaPad*%
%ADD32C,0.800000*%
%TD*%
%TA.AperFunction,Conductor*%
%ADD33C,0.250000*%
%TD*%
%TA.AperFunction,Conductor*%
%ADD34C,1.000000*%
%TD*%
G04 APERTURE END LIST*
D10*
X173500000Y-75000000D02*
G75*
G03*
X173500000Y-75000000I-23500000J0D01*
G01*
D11*
%TO.P,J4,01,01*%
%TO.N,Net-(C15-Pad1)*%
X168600000Y-70687500D03*
D12*
%TO.P,J4,02,02*%
%TO.N,Net-(C14-Pad1)*%
X168600000Y-74187500D03*
%TO.P,J4,03,03*%
%TO.N,/GND*%
X168600000Y-77687500D03*
%TO.P,J4,04,04*%
%TO.N,/+24V*%
X168600000Y-81187500D03*
%TD*%
D13*
%TO.P,J1,1,Pin_1*%
%TO.N,Net-(J1-Pad1)*%
X154300000Y-94000000D03*
%TO.P,J1,2,Pin_2*%
%TO.N,Net-(J1-Pad2)*%
X151760000Y-94000000D03*
%TO.P,J1,3,Pin_3*%
%TO.N,Net-(J1-Pad3)*%
X149220000Y-94000000D03*
%TO.P,J1,4,Pin_4*%
%TO.N,Net-(J1-Pad4)*%
X146680000Y-94000000D03*
%TD*%
%TO.P,J2,1,Pin_1*%
%TO.N,Net-(J2-Pad1)*%
X153090000Y-91000000D03*
%TO.P,J2,2,Pin_2*%
%TO.N,Net-(J2-Pad2)*%
X150550000Y-91000000D03*
%TO.P,J2,3,Pin_3*%
%TO.N,Net-(J2-Pad3)*%
X148010000Y-91000000D03*
D14*
%TO.P,J2,4,Pin_4*%
%TO.N,/GND*%
X145470000Y-91000000D03*
%TD*%
D15*
%TO.P,J3,1,Pin_1*%
%TO.N,Net-(J3-Pad1)*%
X132050000Y-83750000D03*
D16*
%TO.P,J3,2,Pin_2*%
%TO.N,Net-(J3-Pad2)*%
X132050000Y-80250000D03*
%TO.P,J3,3,Pin_3*%
%TO.N,Net-(J3-Pad3)*%
X132050000Y-76750000D03*
%TO.P,J3,4,Pin_4*%
%TO.N,Net-(J3-Pad4)*%
X132050000Y-73250000D03*
%TO.P,J3,5,Pin_5*%
%TO.N,Net-(J3-Pad5)*%
X132050000Y-69750000D03*
%TO.P,J3,6,Pin_6*%
%TO.N,/GND*%
X132050000Y-66250000D03*
%TD*%
D17*
%TO.P,C2,1*%
%TO.N,/GND*%
X138762500Y-89500000D03*
%TO.P,C2,2*%
%TO.N,/SO2*%
X140837500Y-89500000D03*
%TD*%
D18*
%TO.P,R4,1*%
%TO.N,Net-(J2-Pad2)*%
X149800000Y-88500000D03*
%TO.P,R4,2*%
%TO.N,/SO4*%
X149800000Y-86500000D03*
%TD*%
D19*
%TO.P,Q1,1,1*%
%TO.N,/XTAL1*%
X152450000Y-61600000D03*
%TO.P,Q1,2,2*%
%TO.N,/GND*%
X151250000Y-61600000D03*
%TO.P,Q1,3,3*%
%TO.N,/XTAL2*%
X150050000Y-61600000D03*
%TD*%
D17*
%TO.P,C4,1*%
%TO.N,/GND*%
X138762500Y-85300000D03*
%TO.P,C4,2*%
%TO.N,/SO4*%
X140837500Y-85300000D03*
%TD*%
%TO.P,C3,1*%
%TO.N,/GND*%
X138762500Y-87400000D03*
%TO.P,C3,2*%
%TO.N,/SO3*%
X140837500Y-87400000D03*
%TD*%
D20*
%TO.P,R12,1*%
%TO.N,Net-(J3-Pad5)*%
X135000000Y-66250000D03*
%TO.P,R12,2*%
%TO.N,/SO12*%
X137000000Y-66250000D03*
%TD*%
D21*
%TO.P,C1,1*%
%TO.N,/GND*%
X160937500Y-84100000D03*
%TO.P,C1,2*%
%TO.N,/SO1*%
X158862500Y-84100000D03*
%TD*%
D22*
%TO.P,C23,1*%
%TO.N,/VCC*%
X157200000Y-72125000D03*
%TO.P,C23,2*%
%TO.N,/GND*%
X157200000Y-74200000D03*
%TD*%
D23*
%TO.P,TP6,1,1*%
%TO.N,/SCK*%
X150500000Y-56500000D03*
%TD*%
D17*
%TO.P,C9,1*%
%TO.N,/GND*%
X134962500Y-76600000D03*
%TO.P,C9,2*%
%TO.N,/SO9*%
X137037500Y-76600000D03*
%TD*%
D24*
%TO.P,IC1,1,PB5*%
%TO.N,/MOSI*%
X145250000Y-67050000D03*
%TO.P,IC1,2,PB6*%
%TO.N,/MISO*%
X146050000Y-67050000D03*
%TO.P,IC1,3,PB7*%
%TO.N,/SCK*%
X146850000Y-67050000D03*
%TO.P,IC1,4,~{RESET}*%
%TO.N,/RST*%
X147650000Y-67050000D03*
%TO.P,IC1,5,VCC*%
%TO.N,/VCC*%
X148450000Y-67050000D03*
%TO.P,IC1,6,GND*%
%TO.N,/GND*%
X149250000Y-67050000D03*
%TO.P,IC1,7,XTAL2*%
%TO.N,/XTAL2*%
X150050000Y-67050000D03*
%TO.P,IC1,8,XTAL1*%
%TO.N,/XTAL1*%
X150850000Y-67050000D03*
%TO.P,IC1,9,PD0*%
%TO.N,/RXD*%
X151650000Y-67050000D03*
%TO.P,IC1,10,PD1*%
%TO.N,/TXD*%
X152450000Y-67050000D03*
%TO.P,IC1,11,PD2*%
%TO.N,/LED*%
X153250000Y-67050000D03*
D25*
%TO.P,IC1,12,PD3*%
%TO.N,/PD3*%
X154950000Y-68750000D03*
%TO.P,IC1,13,PD4*%
%TO.N,/TXEN*%
X154950000Y-69550000D03*
%TO.P,IC1,14,PD5*%
%TO.N,/PD5*%
X154950000Y-70350000D03*
%TO.P,IC1,15,PD6*%
%TO.N,/PD6*%
X154950000Y-71150000D03*
%TO.P,IC1,16,PD7*%
%TO.N,/PD7*%
X154950000Y-71950000D03*
%TO.P,IC1,17,VCC*%
%TO.N,/VCC*%
X154950000Y-72750000D03*
%TO.P,IC1,18,GND*%
%TO.N,/GND*%
X154950000Y-73550000D03*
%TO.P,IC1,19,PC0*%
%TO.N,/PC0*%
X154950000Y-74350000D03*
%TO.P,IC1,20,PC1*%
%TO.N,/PC1*%
X154950000Y-75150000D03*
%TO.P,IC1,21,PC2*%
%TO.N,/PC2*%
X154950000Y-75950000D03*
%TO.P,IC1,22,PC3*%
%TO.N,/PC3*%
X154950000Y-76750000D03*
D24*
%TO.P,IC1,23,PC4*%
%TO.N,/PC4*%
X153250000Y-78450000D03*
%TO.P,IC1,24,PC5*%
%TO.N,/PC5*%
X152450000Y-78450000D03*
%TO.P,IC1,25,PC6*%
%TO.N,/PC6*%
X151650000Y-78450000D03*
%TO.P,IC1,26,PC7*%
%TO.N,/PC7*%
X150850000Y-78450000D03*
%TO.P,IC1,27,AVCC*%
%TO.N,/VCC*%
X150050000Y-78450000D03*
%TO.P,IC1,28,GND*%
%TO.N,/GND*%
X149250000Y-78450000D03*
%TO.P,IC1,29,AREF*%
%TO.N,/AREF*%
X148450000Y-78450000D03*
%TO.P,IC1,30,PA7*%
%TO.N,/SO1*%
X147650000Y-78450000D03*
%TO.P,IC1,31,PA6*%
%TO.N,/SO2*%
X146850000Y-78450000D03*
%TO.P,IC1,32,PA5*%
%TO.N,/SO3*%
X146050000Y-78450000D03*
%TO.P,IC1,33,PA4*%
%TO.N,/SO4*%
X145250000Y-78450000D03*
D25*
%TO.P,IC1,34,PA3*%
%TO.N,/SO5*%
X143550000Y-76750000D03*
%TO.P,IC1,35,PA2*%
%TO.N,/SO6*%
X143550000Y-75950000D03*
%TO.P,IC1,36,PA1*%
%TO.N,/SO7*%
X143550000Y-75150000D03*
%TO.P,IC1,37,PA0*%
%TO.N,/SO8*%
X143550000Y-74350000D03*
%TO.P,IC1,38,VCC*%
%TO.N,/VCC*%
X143550000Y-73550000D03*
%TO.P,IC1,39,GND*%
%TO.N,/GND*%
X143550000Y-72750000D03*
%TO.P,IC1,40,PB0*%
%TO.N,/SO9*%
X143550000Y-71950000D03*
%TO.P,IC1,41,PB1*%
%TO.N,/SO10*%
X143550000Y-71150000D03*
%TO.P,IC1,42,PB2*%
%TO.N,/SO11*%
X143550000Y-70350000D03*
%TO.P,IC1,43,PB3*%
%TO.N,/SO12*%
X143550000Y-69550000D03*
%TO.P,IC1,44,PB4*%
%TO.N,/Button*%
X143550000Y-68750000D03*
%TD*%
D21*
%TO.P,C27,1*%
%TO.N,/GND*%
X161500000Y-65250000D03*
%TO.P,C27,2*%
%TO.N,/VCC*%
X159425000Y-65250000D03*
%TD*%
D18*
%TO.P,R5,1*%
%TO.N,Net-(J1-Pad3)*%
X147800000Y-88500000D03*
%TO.P,R5,2*%
%TO.N,/SO5*%
X147800000Y-86500000D03*
%TD*%
D26*
%TO.P,C13,1*%
%TO.N,/GND*%
X148500000Y-83075000D03*
%TO.P,C13,2*%
%TO.N,/AREF*%
X148500000Y-81000000D03*
%TD*%
D17*
%TO.P,C11,1*%
%TO.N,/GND*%
X134962500Y-68200000D03*
%TO.P,C11,2*%
%TO.N,/SO11*%
X137037500Y-68200000D03*
%TD*%
%TO.P,C12,1*%
%TO.N,/GND*%
X134962500Y-64200000D03*
%TO.P,C12,2*%
%TO.N,/SO12*%
X137037500Y-64200000D03*
%TD*%
D23*
%TO.P,TP2,1,1*%
%TO.N,/GND*%
X146250000Y-54750000D03*
%TD*%
D17*
%TO.P,C8,1*%
%TO.N,/GND*%
X134962500Y-80800000D03*
%TO.P,C8,2*%
%TO.N,/SO8*%
X137037500Y-80800000D03*
%TD*%
D20*
%TO.P,R8,1*%
%TO.N,Net-(J3-Pad1)*%
X135000000Y-82900000D03*
%TO.P,R8,2*%
%TO.N,/SO8*%
X137000000Y-82900000D03*
%TD*%
D27*
%TO.P,R13,1*%
%TO.N,/RST*%
X151500000Y-53900000D03*
%TO.P,R13,2*%
%TO.N,/VCC*%
X149500000Y-53900000D03*
%TD*%
D21*
%TO.P,C7,1*%
%TO.N,/GND*%
X160937500Y-90600000D03*
%TO.P,C7,2*%
%TO.N,/SO7*%
X158862500Y-90600000D03*
%TD*%
D23*
%TO.P,TP4,1,1*%
%TO.N,/MOSI*%
X142750000Y-54750000D03*
%TD*%
D26*
%TO.P,C25,1*%
%TO.N,/VCC*%
X139700000Y-75237500D03*
%TO.P,C25,2*%
%TO.N,/GND*%
X139700000Y-73162500D03*
%TD*%
D28*
%TO.P,IC2,1,PB5*%
%TO.N,/MOSI*%
X146750000Y-69412500D03*
%TO.P,IC2,2,PB6*%
%TO.N,/MISO*%
X147250000Y-69412500D03*
%TO.P,IC2,3,PB7*%
%TO.N,/SCK*%
X147750000Y-69412500D03*
%TO.P,IC2,4,~{RESET}*%
%TO.N,/RST*%
X148250000Y-69412500D03*
%TO.P,IC2,5,VCC*%
%TO.N,/VCC*%
X148750000Y-69412500D03*
%TO.P,IC2,6,GND*%
%TO.N,/GND*%
X149250000Y-69412500D03*
%TO.P,IC2,7,XTAL2*%
%TO.N,/XTAL2*%
X149750000Y-69412500D03*
%TO.P,IC2,8,XTAL1*%
%TO.N,/XTAL1*%
X150250000Y-69412500D03*
%TO.P,IC2,9,PD0*%
%TO.N,/RXD*%
X150750000Y-69412500D03*
%TO.P,IC2,10,PD1*%
%TO.N,/TXD*%
X151250000Y-69412500D03*
%TO.P,IC2,11,PD2*%
%TO.N,/LED*%
X151750000Y-69412500D03*
D29*
%TO.P,IC2,12,PD3*%
%TO.N,/PD3*%
X152587500Y-70250000D03*
%TO.P,IC2,13,PD4*%
%TO.N,/TXEN*%
X152587500Y-70750000D03*
%TO.P,IC2,14,PD5*%
%TO.N,/PD5*%
X152587500Y-71250000D03*
%TO.P,IC2,15,PD6*%
%TO.N,/PD6*%
X152587500Y-71750000D03*
%TO.P,IC2,16,PD7*%
%TO.N,/PD7*%
X152587500Y-72250000D03*
%TO.P,IC2,17,VCC*%
%TO.N,/VCC*%
X152587500Y-72750000D03*
%TO.P,IC2,18,GND*%
%TO.N,/GND*%
X152587500Y-73250000D03*
%TO.P,IC2,19,PC0*%
%TO.N,/PC0*%
X152587500Y-73750000D03*
%TO.P,IC2,20,PC1*%
%TO.N,/PC1*%
X152587500Y-74250000D03*
%TO.P,IC2,21,PC2*%
%TO.N,/PC2*%
X152587500Y-74750000D03*
%TO.P,IC2,22,PC3*%
%TO.N,/PC3*%
X152587500Y-75250000D03*
D28*
%TO.P,IC2,23,PC4*%
%TO.N,/PC4*%
X151750000Y-76087500D03*
%TO.P,IC2,24,PC5*%
%TO.N,/PC5*%
X151250000Y-76087500D03*
%TO.P,IC2,25,PC6*%
%TO.N,/PC6*%
X150750000Y-76087500D03*
%TO.P,IC2,26,PC7*%
%TO.N,/PC7*%
X150250000Y-76087500D03*
%TO.P,IC2,27,AVCC*%
%TO.N,/VCC*%
X149750000Y-76087500D03*
%TO.P,IC2,28,GND*%
%TO.N,/GND*%
X149250000Y-76087500D03*
%TO.P,IC2,29,AREF*%
%TO.N,/AREF*%
X148750000Y-76087500D03*
%TO.P,IC2,30,PA7*%
%TO.N,/SO1*%
X148250000Y-76087500D03*
%TO.P,IC2,31,PA6*%
%TO.N,/SO2*%
X147750000Y-76087500D03*
%TO.P,IC2,32,PA5*%
%TO.N,/SO3*%
X147250000Y-76087500D03*
%TO.P,IC2,33,PA4*%
%TO.N,/SO4*%
X146750000Y-76087500D03*
D29*
%TO.P,IC2,34,PA3*%
%TO.N,/SO5*%
X145912500Y-75250000D03*
%TO.P,IC2,35,PA2*%
%TO.N,/SO6*%
X145912500Y-74750000D03*
%TO.P,IC2,36,PA1*%
%TO.N,/SO7*%
X145912500Y-74250000D03*
%TO.P,IC2,37,PA0*%
%TO.N,/SO8*%
X145912500Y-73750000D03*
%TO.P,IC2,38,VCC*%
%TO.N,/VCC*%
X145912500Y-73250000D03*
%TO.P,IC2,39,GND*%
%TO.N,/GND*%
X145912500Y-72750000D03*
%TO.P,IC2,40,PB0*%
%TO.N,/SO9*%
X145912500Y-72250000D03*
%TO.P,IC2,41,PB1*%
%TO.N,/SO10*%
X145912500Y-71750000D03*
%TO.P,IC2,42,PB2*%
%TO.N,/SO11*%
X145912500Y-71250000D03*
%TO.P,IC2,43,PB3*%
%TO.N,/SO12*%
X145912500Y-70750000D03*
%TO.P,IC2,44,PB4*%
%TO.N,/Button*%
X145912500Y-70250000D03*
D30*
%TO.P,IC2,45,GND*%
%TO.N,/GND*%
X149250000Y-72750000D03*
%TD*%
D17*
%TO.P,C10,1*%
%TO.N,/GND*%
X134962500Y-72400000D03*
%TO.P,C10,2*%
%TO.N,/SO10*%
X137037500Y-72400000D03*
%TD*%
D26*
%TO.P,C15,1*%
%TO.N,Net-(C15-Pad1)*%
X163500000Y-61307500D03*
%TO.P,C15,2*%
%TO.N,/GND*%
X163500000Y-59232500D03*
%TD*%
%TO.P,C26,1*%
%TO.N,/VCC*%
X148300000Y-63437500D03*
%TO.P,C26,2*%
%TO.N,/GND*%
X148300000Y-61362500D03*
%TD*%
D20*
%TO.P,R10,1*%
%TO.N,Net-(J3-Pad3)*%
X135000000Y-74500000D03*
%TO.P,R10,2*%
%TO.N,/SO10*%
X137000000Y-74500000D03*
%TD*%
D22*
%TO.P,C14,1*%
%TO.N,Net-(C14-Pad1)*%
X163500000Y-63172500D03*
%TO.P,C14,2*%
%TO.N,/GND*%
X163500000Y-65247500D03*
%TD*%
D20*
%TO.P,R15,1*%
%TO.N,/GND*%
X157250000Y-57750000D03*
%TO.P,R15,2*%
%TO.N,/TXEN*%
X159250000Y-57750000D03*
%TD*%
D18*
%TO.P,R1,1*%
%TO.N,Net-(J1-Pad1)*%
X155800000Y-88500000D03*
%TO.P,R1,2*%
%TO.N,/SO1*%
X155800000Y-86500000D03*
%TD*%
%TO.P,R3,1*%
%TO.N,Net-(J1-Pad2)*%
X151800000Y-88500000D03*
%TO.P,R3,2*%
%TO.N,/SO3*%
X151800000Y-86500000D03*
%TD*%
D21*
%TO.P,C5,1*%
%TO.N,/GND*%
X160937500Y-86300000D03*
%TO.P,C5,2*%
%TO.N,/SO5*%
X158862500Y-86300000D03*
%TD*%
D23*
%TO.P,TP5,1,1*%
%TO.N,/RST*%
X154500000Y-56500000D03*
%TD*%
%TO.P,TP1,1,1*%
%TO.N,/VCC*%
X146250000Y-58250000D03*
%TD*%
D31*
%TO.P,IC3,1,RO*%
%TO.N,/RXD*%
X156025000Y-63405000D03*
%TO.P,IC3,2,~{RE}*%
%TO.N,/GND*%
X156025000Y-62135000D03*
%TO.P,IC3,3,DE*%
%TO.N,/TXEN*%
X156025000Y-60865000D03*
%TO.P,IC3,4,DI*%
%TO.N,/TXD*%
X156025000Y-59595000D03*
%TO.P,IC3,5,GND*%
%TO.N,/GND*%
X160975000Y-59595000D03*
%TO.P,IC3,6,A*%
%TO.N,Net-(C15-Pad1)*%
X160975000Y-60865000D03*
%TO.P,IC3,7,B*%
%TO.N,Net-(C14-Pad1)*%
X160975000Y-62135000D03*
%TO.P,IC3,8,VCC*%
%TO.N,/VCC*%
X160975000Y-63405000D03*
%TD*%
D18*
%TO.P,R7,1*%
%TO.N,Net-(J1-Pad4)*%
X143800000Y-88500000D03*
%TO.P,R7,2*%
%TO.N,/SO7*%
X143800000Y-86500000D03*
%TD*%
D23*
%TO.P,TP3,1,1*%
%TO.N,/MISO*%
X142750000Y-58250000D03*
%TD*%
D22*
%TO.P,C24,1*%
%TO.N,/VCC*%
X151000000Y-81000000D03*
%TO.P,C24,2*%
%TO.N,/GND*%
X151000000Y-83075000D03*
%TD*%
D20*
%TO.P,R11,1*%
%TO.N,Net-(J3-Pad4)*%
X135000000Y-70300000D03*
%TO.P,R11,2*%
%TO.N,/SO11*%
X137000000Y-70300000D03*
%TD*%
%TO.P,R9,1*%
%TO.N,Net-(J3-Pad2)*%
X135000000Y-78700000D03*
%TO.P,R9,2*%
%TO.N,/SO9*%
X137000000Y-78700000D03*
%TD*%
D18*
%TO.P,R2,1*%
%TO.N,Net-(J2-Pad1)*%
X153800000Y-88500000D03*
%TO.P,R2,2*%
%TO.N,/SO2*%
X153800000Y-86500000D03*
%TD*%
D21*
%TO.P,C6,1*%
%TO.N,/GND*%
X160937500Y-88400000D03*
%TO.P,C6,2*%
%TO.N,/SO6*%
X158862500Y-88400000D03*
%TD*%
D18*
%TO.P,R6,1*%
%TO.N,Net-(J2-Pad3)*%
X145800000Y-88500000D03*
%TO.P,R6,2*%
%TO.N,/SO6*%
X145800000Y-86500000D03*
%TD*%
D32*
%TO.N,/Button*%
X140300000Y-63600000D03*
%TO.N,/GND*%
X133000000Y-63000000D03*
X137000000Y-61500000D03*
X140000000Y-92000000D03*
X133700000Y-75300000D03*
X134000000Y-89000000D03*
X171000000Y-80000000D03*
X128250000Y-75500000D03*
X165000000Y-66000000D03*
X142000000Y-94000000D03*
X139000000Y-63000000D03*
X171000000Y-73000000D03*
X166000000Y-80000000D03*
X166000000Y-76000000D03*
X144250000Y-94000000D03*
X150750000Y-74250000D03*
X135000000Y-60750000D03*
X142000000Y-92000000D03*
X139000000Y-60750000D03*
X157000000Y-95000000D03*
X133600000Y-68000000D03*
X136250000Y-89000000D03*
X138000000Y-92000000D03*
X149750000Y-83000000D03*
X136250000Y-87000000D03*
X171000000Y-70000000D03*
X134000000Y-87000000D03*
X171000000Y-76000000D03*
X166000000Y-70000000D03*
X128250000Y-72750000D03*
X133500000Y-81900000D03*
X166000000Y-73000000D03*
X149500000Y-73000000D03*
X139000000Y-58000000D03*
X133600000Y-71600000D03*
X137000000Y-59250000D03*
X140000000Y-94000000D03*
%TO.N,/VCC*%
X146250000Y-58250000D03*
X157250000Y-65250000D03*
X157400000Y-82300000D03*
X141387500Y-73700000D03*
X148400000Y-65250000D03*
%TO.N,/LED*%
X154790000Y-66349500D03*
%TO.N,/TXD*%
X154400000Y-59600000D03*
X154100000Y-63900000D03*
%TO.N,/SO7*%
X157400000Y-90600000D03*
X144300000Y-85100000D03*
%TO.N,/SO6*%
X157200000Y-88400000D03*
X145800000Y-85100000D03*
%TO.N,/SO5*%
X157300000Y-85813173D03*
X147000000Y-85100000D03*
%TO.N,/SO4*%
X150443701Y-85162000D03*
X145200000Y-82100000D03*
X141900000Y-85300000D03*
%TO.N,/SO3*%
X151800000Y-85100000D03*
X141900000Y-87400000D03*
%TO.N,/SO2*%
X153700000Y-85100000D03*
X141900000Y-89500000D03*
%TD*%
D33*
%TO.N,/Button*%
X143550000Y-66850000D02*
X143550000Y-68750000D01*
X140300000Y-63600000D02*
X143550000Y-66850000D01*
%TO.N,/GND*%
X134962500Y-68200000D02*
X133800000Y-68200000D01*
X133700000Y-75300000D02*
X133700000Y-75337500D01*
X153950000Y-73250000D02*
X152587500Y-73250000D01*
X133600000Y-71600000D02*
X134162500Y-71600000D01*
X149350000Y-62412500D02*
X148300000Y-61362500D01*
X149250000Y-76087500D02*
X149250000Y-78450000D01*
X154250000Y-73550000D02*
X153950000Y-73250000D01*
X145912500Y-72750000D02*
X149250000Y-72750000D01*
X133800000Y-68200000D02*
X133600000Y-68000000D01*
X154950000Y-73550000D02*
X155950000Y-73550000D01*
X133700000Y-75337500D02*
X134962500Y-76600000D01*
X155950000Y-73550000D02*
X156600000Y-74200000D01*
X134162500Y-71600000D02*
X134962500Y-72400000D01*
X149250000Y-69412500D02*
X149250000Y-67050000D01*
X143550000Y-72750000D02*
X140112500Y-72750000D01*
X149250000Y-76087500D02*
X149250000Y-72750000D01*
X151000000Y-83075000D02*
X148500000Y-83075000D01*
X149250000Y-69412500D02*
X149250000Y-72750000D01*
X149350000Y-66950000D02*
X149350000Y-62412500D01*
X154950000Y-73550000D02*
X154250000Y-73550000D01*
X145912500Y-72750000D02*
X143550000Y-72750000D01*
X152587500Y-73250000D02*
X149750000Y-73250000D01*
%TO.N,/AREF*%
X148450000Y-78450000D02*
X148450000Y-80950000D01*
X148750000Y-77450000D02*
X148750000Y-76087500D01*
X148450000Y-78450000D02*
X148450000Y-77750000D01*
X148450000Y-77750000D02*
X148750000Y-77450000D01*
%TO.N,Net-(C14-Pad1)*%
X164247500Y-63172500D02*
X167150000Y-66075000D01*
X162462500Y-62135000D02*
X163500000Y-63172500D01*
X163500000Y-63172500D02*
X164247500Y-63172500D01*
X160975000Y-62135000D02*
X162462500Y-62135000D01*
X167150000Y-72737500D02*
X168600000Y-74187500D01*
X167150000Y-66075000D02*
X167150000Y-72737500D01*
%TO.N,Net-(C15-Pad1)*%
X162865000Y-60865000D02*
X168600000Y-66600000D01*
X168600000Y-66600000D02*
X168600000Y-70687500D01*
X160975000Y-60865000D02*
X162865000Y-60865000D01*
D34*
%TO.N,/VCC*%
X154800000Y-81000000D02*
X151000000Y-81000000D01*
D33*
X155950000Y-72750000D02*
X156575000Y-72125000D01*
D34*
X157250000Y-72093997D02*
X158625000Y-73468997D01*
D33*
X144250000Y-73550000D02*
X143550000Y-73550000D01*
X160975000Y-63405000D02*
X160975000Y-63700000D01*
X141237500Y-73700000D02*
X141387500Y-73700000D01*
X148400000Y-65250000D02*
X148450000Y-65300000D01*
X149500000Y-55000000D02*
X146250000Y-58250000D01*
X152587500Y-72750000D02*
X154950000Y-72750000D01*
X144550000Y-73250000D02*
X144250000Y-73550000D01*
X150050000Y-77700000D02*
X150050000Y-78450000D01*
D34*
X158625000Y-77175000D02*
X154800000Y-81000000D01*
D33*
X148300000Y-65150000D02*
X148300000Y-63437500D01*
X149750000Y-76087500D02*
X149750000Y-77400000D01*
D34*
X158625000Y-73468997D02*
X158625000Y-77175000D01*
D33*
X145912500Y-73250000D02*
X144550000Y-73250000D01*
X151000000Y-80500000D02*
X151000000Y-81000000D01*
X148450000Y-67050000D02*
X148450000Y-67750000D01*
X149750000Y-77400000D02*
X150050000Y-77700000D01*
X148750000Y-68050000D02*
X148750000Y-69412500D01*
X156575000Y-72125000D02*
X157200000Y-72125000D01*
X160975000Y-63700000D02*
X159425000Y-65250000D01*
D34*
X159425000Y-65250000D02*
X157250000Y-65250000D01*
D33*
X148400000Y-65250000D02*
X148300000Y-65150000D01*
X154950000Y-72750000D02*
X155950000Y-72750000D01*
X156100000Y-81000000D02*
X154800000Y-81000000D01*
D34*
X157250000Y-65250000D02*
X157250000Y-72093997D01*
D33*
X149500000Y-53900000D02*
X149500000Y-55000000D01*
X148450000Y-65300000D02*
X148450000Y-67050000D01*
X141537500Y-73550000D02*
X143550000Y-73550000D01*
X148450000Y-67750000D02*
X148750000Y-68050000D01*
X157400000Y-82300000D02*
X156100000Y-81000000D01*
X139700000Y-75237500D02*
X141237500Y-73700000D01*
X141387500Y-73700000D02*
X141537500Y-73550000D01*
X150050000Y-79550000D02*
X151000000Y-80500000D01*
X150050000Y-78450000D02*
X150050000Y-79550000D01*
%TO.N,/LED*%
X153250000Y-67912500D02*
X153250000Y-67050000D01*
X154790000Y-66349500D02*
X154089500Y-67050000D01*
X154089500Y-67050000D02*
X153250000Y-67050000D01*
X151750000Y-69412500D02*
X153250000Y-67912500D01*
%TO.N,/MOSI*%
X146737500Y-69412500D02*
X145250000Y-67925000D01*
X141200000Y-56300000D02*
X142750000Y-54750000D01*
X145250000Y-67050000D02*
X141200000Y-63000000D01*
X141200000Y-63000000D02*
X141200000Y-56300000D01*
X145250000Y-67925000D02*
X145250000Y-67050000D01*
X146750000Y-69412500D02*
X146737500Y-69412500D01*
%TO.N,/MISO*%
X146050000Y-67800000D02*
X146550000Y-68300000D01*
X142750000Y-63050000D02*
X142750000Y-58250000D01*
X146550000Y-68300000D02*
X146763604Y-68300000D01*
X146050000Y-67050000D02*
X146050000Y-66350000D01*
X147250000Y-68786396D02*
X147250000Y-69412500D01*
X146763604Y-68300000D02*
X147250000Y-68786396D01*
X146050000Y-67050000D02*
X146050000Y-67800000D01*
X146050000Y-66350000D02*
X142750000Y-63050000D01*
%TO.N,/SCK*%
X146850000Y-67050000D02*
X146850000Y-67750000D01*
X145600000Y-60886916D02*
X149986916Y-56500000D01*
X146850000Y-67050000D02*
X146850000Y-66200000D01*
X147750000Y-68650000D02*
X147750000Y-69412500D01*
X146850000Y-66200000D02*
X145600000Y-64950000D01*
X145600000Y-64950000D02*
X145600000Y-60886916D01*
X146850000Y-67750000D02*
X147750000Y-68650000D01*
%TO.N,/RST*%
X151900000Y-53900000D02*
X154500000Y-56500000D01*
X148250000Y-68400000D02*
X148250000Y-69412500D01*
X147650000Y-67050000D02*
X147650000Y-66250000D01*
X146200000Y-60923312D02*
X149298312Y-57825000D01*
X147650000Y-67800000D02*
X148250000Y-68400000D01*
X147650000Y-67050000D02*
X147650000Y-67800000D01*
X146200000Y-64800000D02*
X146200000Y-60923312D01*
X153175000Y-57825000D02*
X154500000Y-56500000D01*
X147650000Y-66250000D02*
X146200000Y-64800000D01*
X149298312Y-57825000D02*
X153175000Y-57825000D01*
%TO.N,/XTAL2*%
X150050000Y-67050000D02*
X150050000Y-67750000D01*
X150050000Y-67750000D02*
X149750000Y-68050000D01*
X150050000Y-67050000D02*
X150050000Y-62350000D01*
X149750000Y-68050000D02*
X149750000Y-69412500D01*
%TO.N,/XTAL1*%
X152450000Y-64300000D02*
X152450000Y-62350000D01*
X150850000Y-67750000D02*
X150250000Y-68350000D01*
X150850000Y-67050000D02*
X150850000Y-65900000D01*
X150850000Y-67050000D02*
X150850000Y-67750000D01*
X150850000Y-65900000D02*
X152450000Y-64300000D01*
X150250000Y-68350000D02*
X150250000Y-69412500D01*
%TO.N,/RXD*%
X153900000Y-63000000D02*
X155620000Y-63000000D01*
X151650000Y-65736396D02*
X152900000Y-64486396D01*
X152900000Y-64000000D02*
X153900000Y-63000000D01*
X151650000Y-67050000D02*
X151650000Y-67750000D01*
X151650000Y-67750000D02*
X150750000Y-68650000D01*
X151650000Y-67050000D02*
X151650000Y-65736396D01*
X152900000Y-64486396D02*
X152900000Y-64000000D01*
X150750000Y-68650000D02*
X150750000Y-69412500D01*
X155620000Y-63000000D02*
X156025000Y-63405000D01*
%TO.N,/TXD*%
X154405000Y-59595000D02*
X154400000Y-59600000D01*
X151786396Y-68250000D02*
X151950000Y-68250000D01*
X154100000Y-63900000D02*
X154100000Y-63922792D01*
X151250000Y-69412500D02*
X151250000Y-68786396D01*
X152450000Y-67750000D02*
X152450000Y-67050000D01*
X152450000Y-65572792D02*
X152450000Y-67050000D01*
X151950000Y-68250000D02*
X152450000Y-67750000D01*
X156025000Y-59595000D02*
X154405000Y-59595000D01*
X151250000Y-68786396D02*
X151786396Y-68250000D01*
X154100000Y-63922792D02*
X152450000Y-65572792D01*
%TO.N,/TXEN*%
X153173008Y-70750000D02*
X153640000Y-70283008D01*
X159250000Y-58016751D02*
X157600000Y-59666751D01*
X153640000Y-70283008D02*
X153640000Y-69980000D01*
X157600000Y-60865000D02*
X156025000Y-60865000D01*
X157600000Y-63591852D02*
X157600000Y-61400000D01*
X152587500Y-70750000D02*
X153173008Y-70750000D01*
X156325000Y-64866852D02*
X157600000Y-63591852D01*
X157600000Y-61400000D02*
X157600000Y-60865000D01*
X157600000Y-59666751D02*
X157600000Y-61400000D01*
X154070000Y-69550000D02*
X154950000Y-69550000D01*
X154950000Y-69550000D02*
X155950000Y-69550000D01*
X155950000Y-69550000D02*
X156325000Y-69175000D01*
X156325000Y-69175000D02*
X156325000Y-64866852D01*
X153640000Y-69980000D02*
X154070000Y-69550000D01*
%TO.N,/SO8*%
X140300000Y-76600000D02*
X140300000Y-80400000D01*
X144250000Y-74350000D02*
X143550000Y-74350000D01*
X142550000Y-74350000D02*
X140300000Y-76600000D01*
X144850000Y-73750000D02*
X144250000Y-74350000D01*
X137000000Y-80800000D02*
X137000000Y-82862500D01*
X145912500Y-73750000D02*
X144850000Y-73750000D01*
X143550000Y-74350000D02*
X142550000Y-74350000D01*
X137800000Y-82900000D02*
X137000000Y-82900000D01*
X140300000Y-80400000D02*
X137800000Y-82900000D01*
%TO.N,/SO7*%
X145150000Y-74250000D02*
X145912500Y-74250000D01*
X143800000Y-85600000D02*
X143800000Y-86500000D01*
X143800000Y-85100000D02*
X141600000Y-82900000D01*
X144300000Y-85100000D02*
X143800000Y-85100000D01*
X141600000Y-82900000D02*
X141600000Y-76100000D01*
X158862500Y-90600000D02*
X157400000Y-90600000D01*
X141600000Y-76100000D02*
X142550000Y-75150000D01*
X142550000Y-75150000D02*
X143550000Y-75150000D01*
X143550000Y-75150000D02*
X144250000Y-75150000D01*
X144300000Y-85100000D02*
X143800000Y-85600000D01*
X144250000Y-75150000D02*
X145150000Y-74250000D01*
%TO.N,/SO6*%
X144820000Y-75256992D02*
X144820000Y-75680000D01*
X144900000Y-84100000D02*
X145800000Y-85000000D01*
X142100000Y-82500000D02*
X143700000Y-84100000D01*
X143550000Y-75950000D02*
X142650000Y-75950000D01*
X142650000Y-75950000D02*
X142100000Y-76500000D01*
X144820000Y-75680000D02*
X144550000Y-75950000D01*
X142100000Y-76500000D02*
X142100000Y-82500000D01*
X145912500Y-74750000D02*
X145326992Y-74750000D01*
X145800000Y-85000000D02*
X145800000Y-85100000D01*
X145800000Y-86500000D02*
X145800000Y-85100000D01*
X145326992Y-74750000D02*
X144820000Y-75256992D01*
X144550000Y-75950000D02*
X143550000Y-75950000D01*
X158862500Y-88400000D02*
X157200000Y-88400000D01*
X143700000Y-84100000D02*
X144900000Y-84100000D01*
%TO.N,/SO5*%
X143550000Y-76750000D02*
X143550000Y-81650000D01*
X147800000Y-86500000D02*
X147800000Y-85900000D01*
X157300000Y-85813173D02*
X157786827Y-86300000D01*
X144400000Y-76750000D02*
X143550000Y-76750000D01*
X143550000Y-81650000D02*
X147000000Y-85100000D01*
X145900000Y-75250000D02*
X144400000Y-76750000D01*
X147800000Y-85900000D02*
X147000000Y-85100000D01*
X157786827Y-86300000D02*
X158862500Y-86300000D01*
%TO.N,/SO4*%
X149800000Y-85805701D02*
X149800000Y-86500000D01*
X145250000Y-77587500D02*
X145250000Y-78450000D01*
X145250000Y-78450000D02*
X145250000Y-82050000D01*
X141900000Y-85300000D02*
X140837500Y-85300000D01*
X145250000Y-82050000D02*
X145200000Y-82100000D01*
X150443701Y-85162000D02*
X149800000Y-85805701D01*
X146750000Y-76087500D02*
X145250000Y-77587500D01*
%TO.N,/SO3*%
X147250000Y-76087500D02*
X147250000Y-76700000D01*
X146050000Y-82887069D02*
X146050000Y-78450000D01*
X151800000Y-85100000D02*
X151137500Y-84437500D01*
X146050000Y-77550000D02*
X146050000Y-78450000D01*
X151137500Y-84437500D02*
X147600431Y-84437500D01*
X146780000Y-77170000D02*
X146430000Y-77170000D01*
X146430000Y-77170000D02*
X146050000Y-77550000D01*
X147600431Y-84437500D02*
X146050000Y-82887069D01*
X151800000Y-86500000D02*
X151800000Y-85100000D01*
X141900000Y-87400000D02*
X140837500Y-87400000D01*
X147250000Y-76700000D02*
X146780000Y-77170000D01*
%TO.N,/SO2*%
X152587500Y-83987500D02*
X147786827Y-83987500D01*
X146850000Y-83050673D02*
X146850000Y-78450000D01*
X147750000Y-76087500D02*
X147750000Y-76850000D01*
X153800000Y-86500000D02*
X153800000Y-85200000D01*
X141900000Y-89500000D02*
X140837500Y-89500000D01*
X153700000Y-85100000D02*
X152587500Y-83987500D01*
X147786827Y-83987500D02*
X146850000Y-83050673D01*
X153800000Y-85200000D02*
X153700000Y-85100000D01*
X147750000Y-76850000D02*
X146850000Y-77750000D01*
X146850000Y-77750000D02*
X146850000Y-78450000D01*
%TO.N,/SO1*%
X147300000Y-81700000D02*
X147600000Y-82000000D01*
X152000000Y-82000000D02*
X155800000Y-85800000D01*
X148250000Y-76087500D02*
X148250000Y-77100000D01*
X148250000Y-77100000D02*
X147650000Y-77700000D01*
X157474695Y-84100000D02*
X155800000Y-85774695D01*
X155800000Y-85774695D02*
X155800000Y-86500000D01*
X155800000Y-85800000D02*
X155800000Y-86500000D01*
X147300000Y-80100000D02*
X147300000Y-81700000D01*
X147600000Y-82000000D02*
X152000000Y-82000000D01*
X147650000Y-78450000D02*
X147650000Y-79750000D01*
X147650000Y-79750000D02*
X147300000Y-80100000D01*
X147650000Y-77700000D02*
X147650000Y-78450000D01*
X158862500Y-84100000D02*
X157474695Y-84100000D01*
%TO.N,/SO9*%
X138300000Y-77700000D02*
X137300000Y-78700000D01*
X138850000Y-71950000D02*
X138300000Y-72500000D01*
X143550000Y-71950000D02*
X138850000Y-71950000D01*
X144550000Y-72250000D02*
X144250000Y-71950000D01*
X138300000Y-72500000D02*
X138300000Y-77700000D01*
X137037500Y-78700000D02*
X137037500Y-76637500D01*
X145912500Y-72250000D02*
X144550000Y-72250000D01*
X144250000Y-71950000D02*
X143550000Y-71950000D01*
%TO.N,/SO10*%
X138250000Y-71150000D02*
X137000000Y-72400000D01*
X143550000Y-71150000D02*
X138250000Y-71150000D01*
X145912500Y-71750000D02*
X144850000Y-71750000D01*
X137000000Y-72400000D02*
X137000000Y-74462500D01*
X144850000Y-71750000D02*
X144250000Y-71150000D01*
X144250000Y-71150000D02*
X143550000Y-71150000D01*
%TO.N,/SO11*%
X145150000Y-71250000D02*
X144250000Y-70350000D01*
X143550000Y-70350000D02*
X137050000Y-70350000D01*
X144250000Y-70350000D02*
X143550000Y-70350000D01*
X145912500Y-71250000D02*
X145150000Y-71250000D01*
X137000000Y-70300000D02*
X137000000Y-68237500D01*
%TO.N,/SO12*%
X139375000Y-66250000D02*
X137000000Y-66250000D01*
X144820000Y-69840000D02*
X144530000Y-69550000D01*
X143550000Y-69550000D02*
X142675000Y-69550000D01*
X144530000Y-69550000D02*
X143550000Y-69550000D01*
X142675000Y-69550000D02*
X139375000Y-66250000D01*
X145326992Y-70750000D02*
X144820000Y-70243008D01*
X137000000Y-66250000D02*
X137000000Y-64237500D01*
X145912500Y-70750000D02*
X145326992Y-70750000D01*
X144820000Y-70243008D02*
X144820000Y-69840000D01*
%TO.N,/Button*%
X145912500Y-70250000D02*
X145912500Y-70026104D01*
X144636396Y-68750000D02*
X143550000Y-68750000D01*
X145912500Y-70026104D02*
X144636396Y-68750000D01*
%TO.N,Net-(J1-Pad1)*%
X155800000Y-92500000D02*
X155800000Y-88500000D01*
X154300000Y-94000000D02*
X155800000Y-92500000D01*
%TO.N,Net-(J1-Pad2)*%
X151760000Y-88540000D02*
X151760000Y-94000000D01*
%TO.N,Net-(J1-Pad3)*%
X149220000Y-94000000D02*
X149220000Y-89920000D01*
X149220000Y-89920000D02*
X147800000Y-88500000D01*
%TO.N,Net-(J1-Pad4)*%
X144725000Y-89425000D02*
X143800000Y-88500000D01*
X145556701Y-89425000D02*
X144725000Y-89425000D01*
X146680000Y-90548299D02*
X145556701Y-89425000D01*
X146680000Y-94000000D02*
X146680000Y-90548299D01*
%TO.N,Net-(J2-Pad1)*%
X153800000Y-90100000D02*
X153090000Y-90810000D01*
X153800000Y-88500000D02*
X153800000Y-90100000D01*
%TO.N,Net-(J2-Pad2)*%
X150550000Y-91000000D02*
X150550000Y-89250000D01*
X150550000Y-89250000D02*
X149800000Y-88500000D01*
%TO.N,Net-(J2-Pad3)*%
X148010000Y-91000000D02*
X145800000Y-88790000D01*
%TO.N,Net-(J3-Pad1)*%
X134150000Y-83750000D02*
X132050000Y-83750000D01*
X135000000Y-82900000D02*
X134150000Y-83750000D01*
%TO.N,Net-(J3-Pad2)*%
X133600000Y-78700000D02*
X132050000Y-80250000D01*
X135000000Y-78700000D02*
X133600000Y-78700000D01*
%TO.N,Net-(J3-Pad3)*%
X133400000Y-74500000D02*
X132050000Y-75850000D01*
X134900000Y-74500000D02*
X133400000Y-74500000D01*
%TO.N,Net-(J3-Pad4)*%
X133700000Y-70300000D02*
X132050000Y-71950000D01*
X132050000Y-71950000D02*
X132050000Y-73250000D01*
X135000000Y-70300000D02*
X133700000Y-70300000D01*
%TO.N,Net-(J3-Pad5)*%
X134150000Y-66250000D02*
X132050000Y-68350000D01*
X135000000Y-66250000D02*
X134150000Y-66250000D01*
X132050000Y-68350000D02*
X132050000Y-69750000D01*
%TO.N,/PD3*%
X152587500Y-70250000D02*
X154087500Y-68750000D01*
X154087500Y-68750000D02*
X154950000Y-68750000D01*
%TO.N,/PD5*%
X154950000Y-70350000D02*
X154209404Y-70350000D01*
X154209404Y-70350000D02*
X153309404Y-71250000D01*
X153309404Y-71250000D02*
X152587500Y-71250000D01*
%TO.N,/PD6*%
X153613604Y-71750000D02*
X154213604Y-71150000D01*
X152587500Y-71750000D02*
X153613604Y-71750000D01*
X154213604Y-71150000D02*
X154950000Y-71150000D01*
%TO.N,/PD7*%
X153750000Y-72250000D02*
X154050000Y-71950000D01*
X152587500Y-72250000D02*
X153750000Y-72250000D01*
X154050000Y-71950000D02*
X154950000Y-71950000D01*
%TO.N,/PC0*%
X153550000Y-73750000D02*
X154150000Y-74350000D01*
X154150000Y-74350000D02*
X154950000Y-74350000D01*
X152587500Y-73750000D02*
X153550000Y-73750000D01*
%TO.N,/PC1*%
X154150000Y-75090596D02*
X153309404Y-74250000D01*
X153309404Y-74250000D02*
X152587500Y-74250000D01*
X154150000Y-75150000D02*
X154150000Y-75090596D01*
X154950000Y-75150000D02*
X154150000Y-75150000D01*
%TO.N,/PC2*%
X152587500Y-74750000D02*
X153173008Y-74750000D01*
X154000000Y-75950000D02*
X154950000Y-75950000D01*
X153640000Y-75590000D02*
X154000000Y-75950000D01*
X153640000Y-75216992D02*
X153640000Y-75590000D01*
X153173008Y-74750000D02*
X153640000Y-75216992D01*
%TO.N,/PC3*%
X153750000Y-76750000D02*
X154950000Y-76750000D01*
X152587500Y-75587500D02*
X153750000Y-76750000D01*
X152587500Y-75250000D02*
X152587500Y-75587500D01*
%TO.N,/PC4*%
X151762500Y-76087500D02*
X153250000Y-77575000D01*
X153250000Y-77575000D02*
X153250000Y-78450000D01*
X151750000Y-76087500D02*
X151762500Y-76087500D01*
%TO.N,/PC5*%
X151250000Y-76703604D02*
X151726396Y-77180000D01*
X151250000Y-76087500D02*
X151250000Y-76703604D01*
X152450000Y-77560000D02*
X152450000Y-78450000D01*
X151726396Y-77180000D02*
X152070000Y-77180000D01*
X152070000Y-77180000D02*
X152450000Y-77560000D01*
%TO.N,/PC6*%
X150750000Y-76087500D02*
X150750000Y-76840000D01*
X151650000Y-77740000D02*
X151650000Y-78450000D01*
X150750000Y-76840000D02*
X151650000Y-77740000D01*
%TO.N,/PC7*%
X150250000Y-76087500D02*
X150250000Y-77050000D01*
X150250000Y-77050000D02*
X150850000Y-77650000D01*
X150850000Y-77650000D02*
X150850000Y-78450000D01*
%TD*%
%TA.AperFunction,Conductor*%
%TO.N,/GND*%
G36*
X150482052Y-52113631D02*
G01*
X151434728Y-52153560D01*
X151439986Y-52153891D01*
X151688201Y-52174734D01*
X152390190Y-52233682D01*
X152395439Y-52234234D01*
X152858974Y-52292792D01*
X153341455Y-52353743D01*
X153346605Y-52354502D01*
X154286878Y-52513538D01*
X154291983Y-52514512D01*
X154758366Y-52613645D01*
X155224733Y-52712775D01*
X155229871Y-52713981D01*
X156153417Y-52951107D01*
X156158500Y-52952526D01*
X157071341Y-53228129D01*
X157076360Y-53229760D01*
X157564076Y-53399600D01*
X157976840Y-53543339D01*
X157981764Y-53545170D01*
X158789051Y-53864798D01*
X158868358Y-53896198D01*
X158873223Y-53898243D01*
X159744317Y-54286079D01*
X159749092Y-54288326D01*
X160603175Y-54712297D01*
X160607852Y-54714742D01*
X161443447Y-55174113D01*
X161448017Y-55176752D01*
X162263635Y-55670708D01*
X162268069Y-55673522D01*
X162942864Y-56121855D01*
X163062288Y-56201200D01*
X163066622Y-56204212D01*
X163290235Y-56366676D01*
X163392987Y-56441330D01*
X163436341Y-56497552D01*
X163442416Y-56568288D01*
X163414385Y-56625507D01*
X163360960Y-56687519D01*
X163312484Y-56743786D01*
X163303995Y-56752717D01*
X163303756Y-56752945D01*
X163296441Y-56758162D01*
X163290886Y-56765220D01*
X163290882Y-56765224D01*
X163259539Y-56805048D01*
X163255988Y-56809361D01*
X163254667Y-56810895D01*
X163241944Y-56825663D01*
X163239527Y-56829443D01*
X163239327Y-56829756D01*
X163232190Y-56839800D01*
X163206358Y-56872623D01*
X163203010Y-56880950D01*
X163201343Y-56885097D01*
X163190596Y-56905965D01*
X163183347Y-56917302D01*
X163180829Y-56925916D01*
X163171629Y-56957384D01*
X163167596Y-56969028D01*
X163155372Y-56999432D01*
X163155371Y-56999437D01*
X163152022Y-57007766D01*
X163151146Y-57016701D01*
X163151145Y-57016703D01*
X163150710Y-57021141D01*
X163146249Y-57044202D01*
X163142476Y-57057108D01*
X163142479Y-57098862D01*
X163141877Y-57111165D01*
X163137800Y-57152728D01*
X163140297Y-57165946D01*
X163142485Y-57189317D01*
X163142486Y-57202765D01*
X163145003Y-57211371D01*
X163145004Y-57211377D01*
X163154210Y-57242850D01*
X163157082Y-57254813D01*
X163164835Y-57295854D01*
X163168911Y-57303854D01*
X163170937Y-57307831D01*
X163179600Y-57329656D01*
X163183376Y-57342566D01*
X163205882Y-57377752D01*
X163212002Y-57388438D01*
X163230954Y-57425640D01*
X163237108Y-57432172D01*
X163237110Y-57432174D01*
X163240177Y-57435429D01*
X163254618Y-57453946D01*
X163261861Y-57465270D01*
X163268628Y-57471172D01*
X163268630Y-57471175D01*
X163293319Y-57492710D01*
X163302201Y-57501257D01*
X163324684Y-57525119D01*
X163324690Y-57525124D01*
X163330842Y-57531653D01*
X163338584Y-57536196D01*
X163342441Y-57538459D01*
X163361494Y-57552175D01*
X163371630Y-57561015D01*
X163379016Y-57564427D01*
X163387755Y-57570758D01*
X163817519Y-57917521D01*
X163857974Y-57975864D01*
X163860464Y-58046817D01*
X163824199Y-58107853D01*
X163773896Y-58136477D01*
X163756876Y-58141475D01*
X163755671Y-58142865D01*
X163754000Y-58150548D01*
X163754000Y-58960385D01*
X163758475Y-58975624D01*
X163759865Y-58976829D01*
X163767548Y-58978500D01*
X164714884Y-58978500D01*
X164730123Y-58974025D01*
X164731329Y-58972633D01*
X164731855Y-58970216D01*
X164765880Y-58907904D01*
X164828192Y-58873879D01*
X164899008Y-58878944D01*
X164941033Y-58904968D01*
X165220307Y-59166136D01*
X165223586Y-59169318D01*
X165373333Y-59319969D01*
X165804059Y-59753295D01*
X165806810Y-59756063D01*
X165809986Y-59759377D01*
X166338174Y-60331037D01*
X166371434Y-60367035D01*
X166374486Y-60370462D01*
X166840140Y-60912881D01*
X166913368Y-60998181D01*
X166916298Y-61001723D01*
X167245653Y-61414976D01*
X167275008Y-61451809D01*
X167301823Y-61517547D01*
X167302469Y-61531442D01*
X167301585Y-61631857D01*
X167302423Y-61637081D01*
X167302423Y-61637084D01*
X167334419Y-61836585D01*
X167335354Y-61842416D01*
X167337052Y-61847423D01*
X167337052Y-61847425D01*
X167380743Y-61976298D01*
X167403822Y-62044375D01*
X167505064Y-62232059D01*
X167508316Y-62236227D01*
X167632982Y-62396024D01*
X167632985Y-62396028D01*
X167636235Y-62400193D01*
X167793649Y-62544054D01*
X167972883Y-62659598D01*
X167977740Y-62661679D01*
X167977742Y-62661680D01*
X168056678Y-62695499D01*
X168168899Y-62743579D01*
X168174034Y-62744819D01*
X168174040Y-62744821D01*
X168371046Y-62792394D01*
X168371048Y-62792394D01*
X168376190Y-62793636D01*
X168535496Y-62804664D01*
X168583656Y-62807998D01*
X168583657Y-62807998D01*
X168588930Y-62808363D01*
X168681922Y-62799153D01*
X168795885Y-62787866D01*
X168795890Y-62787865D01*
X168801141Y-62787345D01*
X168991364Y-62735405D01*
X169001747Y-62732570D01*
X169001749Y-62732569D01*
X169006859Y-62731174D01*
X169038696Y-62716404D01*
X169148648Y-62665393D01*
X169218860Y-62654868D01*
X169283616Y-62683975D01*
X169308060Y-62712177D01*
X169579154Y-63139353D01*
X169581888Y-63143867D01*
X170058650Y-63969643D01*
X170061193Y-63974268D01*
X170502968Y-64819305D01*
X170505314Y-64824032D01*
X170911297Y-65686789D01*
X170913444Y-65691610D01*
X171282962Y-66570661D01*
X171284904Y-66575568D01*
X171617269Y-67469267D01*
X171619004Y-67474249D01*
X171632398Y-67515472D01*
X171913665Y-68381125D01*
X171915190Y-68386177D01*
X172171608Y-69304562D01*
X172172921Y-69309674D01*
X172390664Y-70238025D01*
X172391761Y-70243187D01*
X172469379Y-70650075D01*
X172564760Y-71150076D01*
X172570434Y-71179821D01*
X172571312Y-71185011D01*
X172658742Y-71777086D01*
X172710607Y-72128314D01*
X172711269Y-72133548D01*
X172713006Y-72150075D01*
X172810941Y-73081877D01*
X172811382Y-73087135D01*
X172871254Y-74038769D01*
X172871475Y-74044042D01*
X172879187Y-74412181D01*
X172890995Y-74975860D01*
X172891445Y-74997361D01*
X172891445Y-75002626D01*
X172885433Y-75289635D01*
X172871475Y-75955958D01*
X172871254Y-75961231D01*
X172811382Y-76912865D01*
X172810941Y-76918123D01*
X172711269Y-77866450D01*
X172710607Y-77871686D01*
X172679189Y-78084445D01*
X172575970Y-78783447D01*
X172571314Y-78814975D01*
X172570438Y-78820158D01*
X172502254Y-79177590D01*
X172391761Y-79756813D01*
X172390664Y-79761975D01*
X172172921Y-80690326D01*
X172171608Y-80695438D01*
X171915190Y-81613823D01*
X171913665Y-81618875D01*
X171619005Y-82525749D01*
X171617269Y-82530733D01*
X171284904Y-83424432D01*
X171282962Y-83429339D01*
X170913444Y-84308390D01*
X170911297Y-84313211D01*
X170505314Y-85175968D01*
X170502968Y-85180695D01*
X170061193Y-86025732D01*
X170058650Y-86030357D01*
X169581888Y-86856133D01*
X169579154Y-86860647D01*
X169381096Y-87172738D01*
X169071569Y-87660476D01*
X169068239Y-87665723D01*
X169065329Y-87670104D01*
X168535703Y-88432136D01*
X168480402Y-88476657D01*
X168409808Y-88484212D01*
X168356162Y-88460665D01*
X168155182Y-88308436D01*
X168153373Y-88307040D01*
X168099017Y-88264261D01*
X168077411Y-88255574D01*
X168067908Y-88251753D01*
X168053838Y-88245058D01*
X168032367Y-88233160D01*
X168032364Y-88233159D01*
X168024514Y-88228809D01*
X168003327Y-88224038D01*
X167984014Y-88218023D01*
X167981035Y-88216825D01*
X167963873Y-88209925D01*
X167954938Y-88209048D01*
X167954936Y-88209048D01*
X167939094Y-88207494D01*
X167930506Y-88206652D01*
X167915131Y-88204176D01*
X167882415Y-88196808D01*
X167872027Y-88197463D01*
X167860744Y-88198174D01*
X167840517Y-88197822D01*
X167832936Y-88197079D01*
X167818912Y-88195703D01*
X167810092Y-88197369D01*
X167810089Y-88197369D01*
X167785964Y-88201926D01*
X167770512Y-88203865D01*
X167754795Y-88204857D01*
X167737047Y-88205976D01*
X167728606Y-88209033D01*
X167716632Y-88213369D01*
X167697117Y-88218708D01*
X167684613Y-88221070D01*
X167684609Y-88221071D01*
X167675785Y-88222738D01*
X167645906Y-88237960D01*
X167631633Y-88244152D01*
X167600093Y-88255574D01*
X167592850Y-88260877D01*
X167592848Y-88260878D01*
X167582576Y-88268399D01*
X167565339Y-88279005D01*
X167546000Y-88288857D01*
X167539469Y-88295010D01*
X167539467Y-88295012D01*
X167521598Y-88311849D01*
X167509625Y-88321808D01*
X167482566Y-88341619D01*
X167472909Y-88354208D01*
X167469354Y-88358843D01*
X167455786Y-88373860D01*
X167439987Y-88388746D01*
X167435446Y-88396485D01*
X167426553Y-88411640D01*
X167415941Y-88426992D01*
X166919286Y-89042527D01*
X166916334Y-89046053D01*
X166764842Y-89220386D01*
X166373657Y-89670551D01*
X166370622Y-89673917D01*
X165937001Y-90137600D01*
X165805525Y-90278190D01*
X165802323Y-90281491D01*
X165714493Y-90368794D01*
X165221858Y-90858475D01*
X165215579Y-90864716D01*
X165212265Y-90867892D01*
X164623077Y-91412275D01*
X164604607Y-91429340D01*
X164601180Y-91432392D01*
X164133948Y-91833500D01*
X163973461Y-91971275D01*
X163969919Y-91974205D01*
X163357424Y-92462353D01*
X163339325Y-92474381D01*
X163330847Y-92479014D01*
X163330843Y-92479017D01*
X163322970Y-92483320D01*
X163316619Y-92489662D01*
X163299011Y-92507244D01*
X163287435Y-92517465D01*
X163267805Y-92532763D01*
X163267798Y-92532770D01*
X163260718Y-92538288D01*
X163248225Y-92555631D01*
X163235024Y-92571139D01*
X163219900Y-92586241D01*
X163215585Y-92594110D01*
X163215583Y-92594112D01*
X163203617Y-92615932D01*
X163195374Y-92628994D01*
X163175579Y-92656472D01*
X163172586Y-92664939D01*
X163168456Y-92676622D01*
X163160136Y-92695217D01*
X163149860Y-92713954D01*
X163147927Y-92722717D01*
X163147926Y-92722719D01*
X163142565Y-92747020D01*
X163138319Y-92761870D01*
X163130025Y-92785331D01*
X163130024Y-92785336D01*
X163127031Y-92793802D01*
X163126535Y-92802767D01*
X163126534Y-92802771D01*
X163125850Y-92815136D01*
X163123084Y-92835319D01*
X163118479Y-92856191D01*
X163119083Y-92865148D01*
X163119083Y-92865151D01*
X163120758Y-92889978D01*
X163120851Y-92905423D01*
X163119902Y-92922572D01*
X163118979Y-92939236D01*
X163123236Y-92957482D01*
X163123836Y-92960056D01*
X163126844Y-92980199D01*
X163128282Y-93001518D01*
X163131376Y-93009946D01*
X163139951Y-93033305D01*
X163144375Y-93048102D01*
X163152069Y-93081085D01*
X163157567Y-93090829D01*
X163162570Y-93099697D01*
X163171111Y-93118187D01*
X163178477Y-93138253D01*
X163183809Y-93145469D01*
X163198607Y-93165498D01*
X163201782Y-93170402D01*
X163201961Y-93170282D01*
X163204671Y-93174322D01*
X163207063Y-93178561D01*
X163224552Y-93200721D01*
X163226980Y-93203899D01*
X163265034Y-93255404D01*
X163270325Y-93259426D01*
X163275572Y-93265369D01*
X163384251Y-93403073D01*
X163410752Y-93468938D01*
X163397437Y-93538675D01*
X163359405Y-93583069D01*
X163066622Y-93795788D01*
X163062288Y-93798800D01*
X162268069Y-94326478D01*
X162263635Y-94329292D01*
X161927351Y-94532953D01*
X161448017Y-94823248D01*
X161443447Y-94825887D01*
X160607852Y-95285258D01*
X160603175Y-95287703D01*
X159749092Y-95711674D01*
X159744317Y-95713921D01*
X158873223Y-96101757D01*
X158868358Y-96103802D01*
X157981764Y-96454830D01*
X157976840Y-96456661D01*
X157730842Y-96542326D01*
X157076360Y-96770240D01*
X157071341Y-96771871D01*
X156158500Y-97047474D01*
X156153417Y-97048893D01*
X155229871Y-97286019D01*
X155224733Y-97287225D01*
X154967679Y-97341864D01*
X154291983Y-97485488D01*
X154286878Y-97486462D01*
X153346605Y-97645498D01*
X153341455Y-97646257D01*
X152858974Y-97707208D01*
X152395439Y-97765766D01*
X152390190Y-97766318D01*
X151688201Y-97825266D01*
X151439986Y-97846109D01*
X151434728Y-97846440D01*
X150607650Y-97881105D01*
X150482051Y-97886369D01*
X150476775Y-97886480D01*
X149523225Y-97886480D01*
X149517949Y-97886369D01*
X149392350Y-97881105D01*
X148565272Y-97846440D01*
X148560014Y-97846109D01*
X148311799Y-97825266D01*
X147609810Y-97766318D01*
X147604561Y-97765766D01*
X147141026Y-97707208D01*
X146658545Y-97646257D01*
X146653395Y-97645498D01*
X145713122Y-97486462D01*
X145708017Y-97485488D01*
X145032321Y-97341864D01*
X144775267Y-97287225D01*
X144770129Y-97286019D01*
X143846583Y-97048893D01*
X143841500Y-97047474D01*
X142928659Y-96771871D01*
X142923640Y-96770240D01*
X142269158Y-96542326D01*
X142023160Y-96456661D01*
X142018236Y-96454830D01*
X141131642Y-96103802D01*
X141126777Y-96101757D01*
X140255683Y-95713921D01*
X140250908Y-95711674D01*
X139396825Y-95287703D01*
X139392148Y-95285258D01*
X138556553Y-94825887D01*
X138551983Y-94823248D01*
X138072649Y-94532953D01*
X137736365Y-94329292D01*
X137731931Y-94326478D01*
X136937712Y-93798800D01*
X136933378Y-93795788D01*
X136605042Y-93557238D01*
X136561688Y-93501016D01*
X136555613Y-93430280D01*
X136578658Y-93379232D01*
X136698101Y-93221526D01*
X136699509Y-93219703D01*
X136736731Y-93172407D01*
X136736734Y-93172403D01*
X136742284Y-93165350D01*
X136754799Y-93134223D01*
X136761484Y-93120174D01*
X136771628Y-93101866D01*
X136773392Y-93098682D01*
X136773392Y-93098681D01*
X136777743Y-93090829D01*
X136782509Y-93069662D01*
X136788527Y-93050337D01*
X136793272Y-93038535D01*
X136793273Y-93038533D01*
X136796620Y-93030207D01*
X136799896Y-92996822D01*
X136802368Y-92981463D01*
X136809738Y-92948729D01*
X136809173Y-92939768D01*
X136808372Y-92927073D01*
X136808724Y-92906839D01*
X136809965Y-92894183D01*
X136810842Y-92885245D01*
X136809176Y-92876426D01*
X136809176Y-92876420D01*
X136804618Y-92852289D01*
X136802679Y-92836842D01*
X136801131Y-92812320D01*
X136800566Y-92803361D01*
X136793176Y-92782957D01*
X136787832Y-92763429D01*
X136785474Y-92750944D01*
X136785474Y-92750943D01*
X136783807Y-92742119D01*
X136768587Y-92712243D01*
X136762391Y-92697961D01*
X136754021Y-92674852D01*
X136754018Y-92674846D01*
X136750962Y-92666409D01*
X136738141Y-92648899D01*
X136727533Y-92631658D01*
X136721764Y-92620334D01*
X136717688Y-92612333D01*
X136694690Y-92587925D01*
X136684733Y-92575954D01*
X136670220Y-92556132D01*
X136670214Y-92556126D01*
X136664913Y-92548886D01*
X136647697Y-92535681D01*
X136632676Y-92522110D01*
X136630742Y-92520057D01*
X136617799Y-92506320D01*
X136594870Y-92492866D01*
X136579533Y-92482267D01*
X136571821Y-92476046D01*
X136459081Y-92385109D01*
X135966671Y-91987927D01*
X135963175Y-91985001D01*
X135341090Y-91444933D01*
X135337702Y-91441882D01*
X135151436Y-91267966D01*
X144138257Y-91267966D01*
X144168565Y-91402446D01*
X144171645Y-91412275D01*
X144251770Y-91609603D01*
X144256413Y-91618794D01*
X144367694Y-91800388D01*
X144373777Y-91808699D01*
X144513213Y-91969667D01*
X144520580Y-91976883D01*
X144684434Y-92112916D01*
X144692881Y-92118831D01*
X144876756Y-92226279D01*
X144886042Y-92230729D01*
X145085001Y-92306703D01*
X145094899Y-92309579D01*
X145198250Y-92330606D01*
X145212299Y-92329410D01*
X145216000Y-92319065D01*
X145216000Y-91272115D01*
X145211525Y-91256876D01*
X145210135Y-91255671D01*
X145202452Y-91254000D01*
X144153225Y-91254000D01*
X144139694Y-91257973D01*
X144138257Y-91267966D01*
X135151436Y-91267966D01*
X134735568Y-90879671D01*
X134732293Y-90876500D01*
X134715722Y-90859865D01*
X134425264Y-90568296D01*
X134150906Y-90292888D01*
X134147747Y-90289601D01*
X133899882Y-90022095D01*
X137667001Y-90022095D01*
X137667338Y-90028614D01*
X137677257Y-90124206D01*
X137680149Y-90137600D01*
X137731588Y-90291784D01*
X137737761Y-90304962D01*
X137823063Y-90442807D01*
X137832099Y-90454208D01*
X137946829Y-90568739D01*
X137958240Y-90577751D01*
X138096243Y-90662816D01*
X138109424Y-90668963D01*
X138263710Y-90720138D01*
X138277086Y-90723005D01*
X138371438Y-90732672D01*
X138377854Y-90733000D01*
X138490385Y-90733000D01*
X138505624Y-90728525D01*
X138506829Y-90727135D01*
X138508500Y-90719452D01*
X138508500Y-89772115D01*
X138504025Y-89756876D01*
X138502635Y-89755671D01*
X138494952Y-89754000D01*
X137685116Y-89754000D01*
X137669877Y-89758475D01*
X137668672Y-89759865D01*
X137667001Y-89767548D01*
X137667001Y-90022095D01*
X133899882Y-90022095D01*
X133793470Y-89907251D01*
X133587806Y-89685289D01*
X133584774Y-89681895D01*
X133557859Y-89650652D01*
X133193653Y-89227885D01*
X137667000Y-89227885D01*
X137671475Y-89243124D01*
X137672865Y-89244329D01*
X137680548Y-89246000D01*
X138490385Y-89246000D01*
X138505624Y-89241525D01*
X138506829Y-89240135D01*
X138508500Y-89232452D01*
X138508500Y-87672115D01*
X138504025Y-87656876D01*
X138502635Y-87655671D01*
X138494952Y-87654000D01*
X137685116Y-87654000D01*
X137669877Y-87658475D01*
X137668672Y-87659865D01*
X137667001Y-87667548D01*
X137667001Y-87922095D01*
X137667338Y-87928614D01*
X137677257Y-88024206D01*
X137680149Y-88037600D01*
X137731588Y-88191784D01*
X137737761Y-88204962D01*
X137823063Y-88342807D01*
X137832099Y-88354208D01*
X137838816Y-88360913D01*
X137872896Y-88423195D01*
X137867894Y-88494015D01*
X137838970Y-88539106D01*
X137831264Y-88546825D01*
X137822249Y-88558240D01*
X137737184Y-88696243D01*
X137731037Y-88709424D01*
X137679862Y-88863710D01*
X137676995Y-88877086D01*
X137667328Y-88971438D01*
X137667000Y-88977855D01*
X137667000Y-89227885D01*
X133193653Y-89227885D01*
X133047104Y-89057773D01*
X133044198Y-89054274D01*
X132977903Y-88971438D01*
X132857611Y-88821134D01*
X132687098Y-88608079D01*
X132660149Y-88542396D01*
X132659477Y-88528230D01*
X132660124Y-88455286D01*
X132660359Y-88428827D01*
X132658898Y-88419710D01*
X132630326Y-88241498D01*
X132626602Y-88218267D01*
X132624903Y-88213254D01*
X132559842Y-88021312D01*
X132559840Y-88021307D01*
X132558144Y-88016304D01*
X132456910Y-87828615D01*
X132331261Y-87667548D01*
X132328999Y-87664648D01*
X132328996Y-87664645D01*
X132325744Y-87660476D01*
X132276323Y-87615308D01*
X132172243Y-87520184D01*
X132172239Y-87520181D01*
X132168333Y-87516611D01*
X132073439Y-87455435D01*
X131993543Y-87403928D01*
X131993540Y-87403927D01*
X131989100Y-87401064D01*
X131972655Y-87394018D01*
X131869759Y-87349933D01*
X131793084Y-87317082D01*
X131787949Y-87315842D01*
X131787943Y-87315840D01*
X131590946Y-87268269D01*
X131590942Y-87268268D01*
X131585793Y-87267025D01*
X131580507Y-87266659D01*
X131580506Y-87266659D01*
X131378331Y-87252666D01*
X131378327Y-87252666D01*
X131373052Y-87252301D01*
X131229453Y-87266525D01*
X131166109Y-87272800D01*
X131166107Y-87272800D01*
X131160841Y-87273322D01*
X131155739Y-87274715D01*
X131155735Y-87274716D01*
X130978198Y-87323198D01*
X130955124Y-87329499D01*
X130950331Y-87331723D01*
X130950328Y-87331724D01*
X130872458Y-87367855D01*
X130802246Y-87378382D01*
X130737489Y-87349279D01*
X130713041Y-87321073D01*
X130590440Y-87127885D01*
X137667000Y-87127885D01*
X137671475Y-87143124D01*
X137672865Y-87144329D01*
X137680548Y-87146000D01*
X138490385Y-87146000D01*
X138505624Y-87141525D01*
X138506829Y-87140135D01*
X138508500Y-87132452D01*
X138508500Y-85572115D01*
X138504025Y-85556876D01*
X138502635Y-85555671D01*
X138494952Y-85554000D01*
X137685116Y-85554000D01*
X137669877Y-85558475D01*
X137668672Y-85559865D01*
X137667001Y-85567548D01*
X137667001Y-85822095D01*
X137667338Y-85828614D01*
X137677257Y-85924206D01*
X137680149Y-85937600D01*
X137731588Y-86091784D01*
X137737761Y-86104962D01*
X137823063Y-86242807D01*
X137832099Y-86254208D01*
X137838816Y-86260913D01*
X137872896Y-86323195D01*
X137867894Y-86394015D01*
X137838970Y-86439106D01*
X137831264Y-86446825D01*
X137822249Y-86458240D01*
X137737184Y-86596243D01*
X137731037Y-86609424D01*
X137679862Y-86763710D01*
X137676995Y-86777086D01*
X137667328Y-86871438D01*
X137667000Y-86877855D01*
X137667000Y-87127885D01*
X130590440Y-87127885D01*
X130420846Y-86860647D01*
X130418112Y-86856133D01*
X129941350Y-86030357D01*
X129938807Y-86025732D01*
X129497032Y-85180695D01*
X129494686Y-85175968D01*
X129088703Y-84313211D01*
X129086556Y-84308390D01*
X128717038Y-83429339D01*
X128715096Y-83424432D01*
X128382731Y-82530733D01*
X128380995Y-82525749D01*
X128086335Y-81618875D01*
X128084810Y-81613823D01*
X127828392Y-80695438D01*
X127827079Y-80690326D01*
X127609336Y-79761975D01*
X127608239Y-79756813D01*
X127497746Y-79177590D01*
X127429562Y-78820158D01*
X127428686Y-78814975D01*
X127424031Y-78783447D01*
X127320811Y-78084445D01*
X127289393Y-77871686D01*
X127288731Y-77866450D01*
X127189059Y-76918123D01*
X127188618Y-76912865D01*
X127128746Y-75961231D01*
X127128525Y-75955958D01*
X127114567Y-75289635D01*
X127108555Y-75002626D01*
X127108555Y-74997361D01*
X127109006Y-74975860D01*
X127120813Y-74412181D01*
X127128525Y-74044042D01*
X127128746Y-74038769D01*
X127188618Y-73087135D01*
X127189059Y-73081877D01*
X127286994Y-72150075D01*
X127288731Y-72133548D01*
X127289393Y-72128314D01*
X127341258Y-71777086D01*
X127428688Y-71185011D01*
X127429566Y-71179821D01*
X127435241Y-71150076D01*
X127530621Y-70650075D01*
X127608239Y-70243187D01*
X127609336Y-70238025D01*
X127827079Y-69309674D01*
X127828392Y-69304562D01*
X128084810Y-68386177D01*
X128086335Y-68381125D01*
X128367602Y-67515472D01*
X128380996Y-67474249D01*
X128382731Y-67469267D01*
X128715096Y-66575568D01*
X128717038Y-66570661D01*
X128849759Y-66254930D01*
X130387261Y-66254930D01*
X130406961Y-66505236D01*
X130408504Y-66514983D01*
X130467117Y-66759123D01*
X130470166Y-66768508D01*
X130566248Y-67000470D01*
X130570729Y-67009264D01*
X130700404Y-67220875D01*
X130709670Y-67226922D01*
X130719875Y-67220915D01*
X131677978Y-66262812D01*
X131685592Y-66248868D01*
X131685461Y-66247035D01*
X131681210Y-66240420D01*
X130721334Y-65280544D01*
X130707796Y-65273151D01*
X130701265Y-65277720D01*
X130570729Y-65490736D01*
X130566248Y-65499530D01*
X130470166Y-65731492D01*
X130467117Y-65740877D01*
X130408504Y-65985017D01*
X130406961Y-65994764D01*
X130387261Y-66245070D01*
X130387261Y-66254930D01*
X128849759Y-66254930D01*
X129086556Y-65691610D01*
X129088703Y-65686789D01*
X129454388Y-64909670D01*
X131073078Y-64909670D01*
X131079085Y-64919875D01*
X132037188Y-65877978D01*
X132051132Y-65885592D01*
X132052965Y-65885461D01*
X132059580Y-65881210D01*
X133019456Y-64921334D01*
X133026849Y-64907796D01*
X133022280Y-64901265D01*
X132809264Y-64770729D01*
X132800470Y-64766248D01*
X132568508Y-64670166D01*
X132559123Y-64667117D01*
X132314983Y-64608504D01*
X132305236Y-64606961D01*
X132054930Y-64587261D01*
X132045070Y-64587261D01*
X131794764Y-64606961D01*
X131785017Y-64608504D01*
X131540877Y-64667117D01*
X131531492Y-64670166D01*
X131299530Y-64766248D01*
X131290736Y-64770729D01*
X131079125Y-64900404D01*
X131073078Y-64909670D01*
X129454388Y-64909670D01*
X129494686Y-64824032D01*
X129497032Y-64819305D01*
X129938807Y-63974268D01*
X129941350Y-63969643D01*
X129965459Y-63927885D01*
X133867000Y-63927885D01*
X133871475Y-63943124D01*
X133872865Y-63944329D01*
X133880548Y-63946000D01*
X134690385Y-63946000D01*
X134705624Y-63941525D01*
X134706829Y-63940135D01*
X134708500Y-63932452D01*
X134708500Y-62985116D01*
X134704025Y-62969877D01*
X134702635Y-62968672D01*
X134694952Y-62967001D01*
X134577905Y-62967001D01*
X134571386Y-62967338D01*
X134475794Y-62977257D01*
X134462400Y-62980149D01*
X134308216Y-63031588D01*
X134295038Y-63037761D01*
X134157193Y-63123063D01*
X134145792Y-63132099D01*
X134031261Y-63246829D01*
X134022249Y-63258240D01*
X133937184Y-63396243D01*
X133931037Y-63409424D01*
X133879862Y-63563710D01*
X133876995Y-63577086D01*
X133867328Y-63671438D01*
X133867000Y-63677855D01*
X133867000Y-63927885D01*
X129965459Y-63927885D01*
X130418112Y-63143867D01*
X130420846Y-63139353D01*
X130722179Y-62664527D01*
X130931771Y-62334262D01*
X130934681Y-62329881D01*
X130959802Y-62293738D01*
X131185148Y-61969507D01*
X131364973Y-61710774D01*
X131420275Y-61666252D01*
X131490869Y-61658697D01*
X131544521Y-61682248D01*
X131785016Y-61864430D01*
X131786859Y-61865853D01*
X131806320Y-61881169D01*
X131841195Y-61908617D01*
X131849519Y-61911964D01*
X131849523Y-61911966D01*
X131872282Y-61921116D01*
X131886347Y-61927809D01*
X131915667Y-61944058D01*
X131924425Y-61946031D01*
X131936872Y-61948835D01*
X131956183Y-61954850D01*
X131976338Y-61962953D01*
X132001113Y-61965384D01*
X132009687Y-61966225D01*
X132025071Y-61968703D01*
X132049004Y-61974094D01*
X132049006Y-61974094D01*
X132057764Y-61976067D01*
X132066721Y-61975503D01*
X132066724Y-61975503D01*
X132079455Y-61974701D01*
X132099675Y-61975054D01*
X132109066Y-61975975D01*
X132121300Y-61977175D01*
X132154228Y-61970955D01*
X132169687Y-61969016D01*
X132203133Y-61966909D01*
X132211567Y-61963855D01*
X132211573Y-61963854D01*
X132223563Y-61959512D01*
X132243074Y-61954173D01*
X132264426Y-61950140D01*
X132294284Y-61934929D01*
X132308576Y-61928730D01*
X132331649Y-61920376D01*
X132331653Y-61920374D01*
X132340090Y-61917319D01*
X132357626Y-61904482D01*
X132374855Y-61893883D01*
X132386212Y-61888097D01*
X132386215Y-61888095D01*
X132394212Y-61884021D01*
X132400745Y-61877866D01*
X132400747Y-61877864D01*
X132418604Y-61861039D01*
X132430586Y-61851074D01*
X132450379Y-61836585D01*
X132450383Y-61836581D01*
X132457622Y-61831282D01*
X132470845Y-61814047D01*
X132484404Y-61799041D01*
X132500225Y-61784133D01*
X132513663Y-61761231D01*
X132524269Y-61745887D01*
X132565006Y-61695400D01*
X132761551Y-61451809D01*
X133020926Y-61130351D01*
X133023878Y-61126826D01*
X133566534Y-60502354D01*
X133569613Y-60498939D01*
X134134689Y-59894690D01*
X134137891Y-59891389D01*
X134724635Y-59308166D01*
X134727955Y-59304984D01*
X135237588Y-58834107D01*
X135335614Y-58743536D01*
X135339041Y-58740484D01*
X135349849Y-58731206D01*
X135966754Y-58201606D01*
X135970296Y-58198676D01*
X136581073Y-57711899D01*
X136599956Y-57699446D01*
X136606901Y-57695714D01*
X136606906Y-57695711D01*
X136614333Y-57691719D01*
X136615635Y-57690438D01*
X136617242Y-57689559D01*
X136623216Y-57683594D01*
X136623221Y-57683590D01*
X136667309Y-57639566D01*
X136667939Y-57638941D01*
X136712089Y-57595472D01*
X136712089Y-57595471D01*
X136718126Y-57589528D01*
X136719016Y-57587932D01*
X136720312Y-57586638D01*
X136754329Y-57524608D01*
X136754645Y-57524037D01*
X136789065Y-57462312D01*
X136789471Y-57460531D01*
X136790352Y-57458925D01*
X136805557Y-57390009D01*
X136805751Y-57389144D01*
X136819569Y-57328548D01*
X136819569Y-57328543D01*
X136821449Y-57320300D01*
X136821339Y-57318474D01*
X136821733Y-57316687D01*
X136816983Y-57246261D01*
X136816926Y-57245375D01*
X136813183Y-57183369D01*
X136813183Y-57183368D01*
X136812672Y-57174907D01*
X136812054Y-57173187D01*
X136811931Y-57171360D01*
X136787553Y-57104954D01*
X136787250Y-57104119D01*
X136767439Y-57048956D01*
X136763441Y-57037822D01*
X136762367Y-57036347D01*
X136761735Y-57034625D01*
X136719717Y-56977756D01*
X136719207Y-56977060D01*
X136699858Y-56950481D01*
X136699854Y-56950476D01*
X136697571Y-56947340D01*
X136696539Y-56946305D01*
X136695696Y-56945244D01*
X136680513Y-56924694D01*
X136680511Y-56924692D01*
X136675178Y-56917474D01*
X136651641Y-56899582D01*
X136638649Y-56888222D01*
X136635535Y-56885097D01*
X136502279Y-56751396D01*
X136470994Y-56720006D01*
X136437073Y-56657637D01*
X136442256Y-56586829D01*
X136486177Y-56529123D01*
X136933378Y-56204212D01*
X136937712Y-56201200D01*
X137057136Y-56121855D01*
X137731931Y-55673522D01*
X137736365Y-55670708D01*
X138551983Y-55176752D01*
X138556553Y-55174113D01*
X139392148Y-54714742D01*
X139396825Y-54712297D01*
X140250908Y-54288326D01*
X140255683Y-54286079D01*
X141126777Y-53898243D01*
X141131642Y-53896198D01*
X141272135Y-53840573D01*
X141342836Y-53834094D01*
X141405816Y-53866866D01*
X141441080Y-53928486D01*
X141437431Y-53999389D01*
X141425951Y-54023561D01*
X141401760Y-54063037D01*
X141399867Y-54067607D01*
X141399865Y-54067611D01*
X141361889Y-54159295D01*
X141310895Y-54282406D01*
X141309740Y-54287218D01*
X141258822Y-54499308D01*
X141255465Y-54513289D01*
X141236835Y-54750000D01*
X141255465Y-54986711D01*
X141256619Y-54991518D01*
X141256620Y-54991524D01*
X141309060Y-55209950D01*
X141305513Y-55280858D01*
X141275636Y-55328459D01*
X140807747Y-55796348D01*
X140799461Y-55803888D01*
X140792982Y-55808000D01*
X140787557Y-55813777D01*
X140746357Y-55857651D01*
X140743602Y-55860493D01*
X140723865Y-55880230D01*
X140721385Y-55883427D01*
X140713682Y-55892447D01*
X140683414Y-55924679D01*
X140679595Y-55931625D01*
X140679593Y-55931628D01*
X140673652Y-55942434D01*
X140662801Y-55958953D01*
X140650386Y-55974959D01*
X140647241Y-55982228D01*
X140647238Y-55982232D01*
X140632826Y-56015537D01*
X140627609Y-56026187D01*
X140606305Y-56064940D01*
X140604334Y-56072615D01*
X140604334Y-56072616D01*
X140601267Y-56084562D01*
X140594863Y-56103266D01*
X140586819Y-56121855D01*
X140585580Y-56129678D01*
X140585577Y-56129688D01*
X140579901Y-56165524D01*
X140577495Y-56177144D01*
X140570546Y-56204212D01*
X140566500Y-56219970D01*
X140566500Y-56240224D01*
X140564949Y-56259934D01*
X140561780Y-56279943D01*
X140562526Y-56287835D01*
X140565941Y-56323961D01*
X140566500Y-56335819D01*
X140566500Y-62572252D01*
X140546498Y-62640373D01*
X140492842Y-62686866D01*
X140422568Y-62696970D01*
X140414306Y-62695499D01*
X140401951Y-62692873D01*
X140401942Y-62692872D01*
X140395487Y-62691500D01*
X140204513Y-62691500D01*
X140198061Y-62692872D01*
X140198056Y-62692872D01*
X140111112Y-62711353D01*
X140017712Y-62731206D01*
X140011682Y-62733891D01*
X140011681Y-62733891D01*
X139849278Y-62806197D01*
X139849276Y-62806198D01*
X139843248Y-62808882D01*
X139837907Y-62812762D01*
X139837906Y-62812763D01*
X139798874Y-62841122D01*
X139688747Y-62921134D01*
X139684326Y-62926044D01*
X139684325Y-62926045D01*
X139584669Y-63036725D01*
X139560960Y-63063056D01*
X139465473Y-63228444D01*
X139406458Y-63410072D01*
X139405768Y-63416633D01*
X139405768Y-63416635D01*
X139391117Y-63556033D01*
X139386496Y-63600000D01*
X139387186Y-63606565D01*
X139397228Y-63702105D01*
X139406458Y-63789928D01*
X139465473Y-63971556D01*
X139468776Y-63977278D01*
X139468777Y-63977279D01*
X139486764Y-64008433D01*
X139560960Y-64136944D01*
X139565378Y-64141851D01*
X139565379Y-64141852D01*
X139656561Y-64243120D01*
X139688747Y-64278866D01*
X139700160Y-64287158D01*
X139825394Y-64378146D01*
X139843248Y-64391118D01*
X139849276Y-64393802D01*
X139849278Y-64393803D01*
X139997657Y-64459865D01*
X140017712Y-64468794D01*
X140097493Y-64485752D01*
X140198056Y-64507128D01*
X140198061Y-64507128D01*
X140204513Y-64508500D01*
X140260406Y-64508500D01*
X140328527Y-64528502D01*
X140349501Y-64545405D01*
X142879595Y-67075500D01*
X142913621Y-67137812D01*
X142916500Y-67164595D01*
X142916500Y-67840500D01*
X142896498Y-67908621D01*
X142842842Y-67955114D01*
X142790500Y-67966500D01*
X142751866Y-67966500D01*
X142689684Y-67973255D01*
X142553295Y-68024385D01*
X142436739Y-68111739D01*
X142393623Y-68169269D01*
X142336763Y-68211783D01*
X142265945Y-68216808D01*
X142203702Y-68182798D01*
X141096405Y-67075500D01*
X139878652Y-65857747D01*
X139871112Y-65849461D01*
X139867000Y-65842982D01*
X139817348Y-65796356D01*
X139814507Y-65793602D01*
X139794770Y-65773865D01*
X139791573Y-65771385D01*
X139782551Y-65763680D01*
X139765258Y-65747441D01*
X139750321Y-65733414D01*
X139743375Y-65729595D01*
X139743372Y-65729593D01*
X139732566Y-65723652D01*
X139716047Y-65712801D01*
X139715583Y-65712441D01*
X139700041Y-65700386D01*
X139692772Y-65697241D01*
X139692768Y-65697238D01*
X139659463Y-65682826D01*
X139648813Y-65677609D01*
X139610060Y-65656305D01*
X139590437Y-65651267D01*
X139571734Y-65644863D01*
X139560420Y-65639967D01*
X139560419Y-65639967D01*
X139553145Y-65636819D01*
X139545322Y-65635580D01*
X139545312Y-65635577D01*
X139509476Y-65629901D01*
X139497856Y-65627495D01*
X139462711Y-65618472D01*
X139462710Y-65618472D01*
X139455030Y-65616500D01*
X139434776Y-65616500D01*
X139415065Y-65614949D01*
X139402886Y-65613020D01*
X139395057Y-65611780D01*
X139387165Y-65612526D01*
X139351039Y-65615941D01*
X139339181Y-65616500D01*
X138179197Y-65616500D01*
X138111076Y-65596498D01*
X138064583Y-65542842D01*
X138059674Y-65530377D01*
X138043867Y-65482998D01*
X138043866Y-65482996D01*
X138041550Y-65476054D01*
X137948478Y-65325652D01*
X137948875Y-65325407D01*
X137923983Y-65263911D01*
X137937153Y-65194147D01*
X137960190Y-65162442D01*
X137974305Y-65148303D01*
X138067115Y-64997738D01*
X138098647Y-64902671D01*
X138120632Y-64836389D01*
X138120632Y-64836387D01*
X138122797Y-64829861D01*
X138124116Y-64816994D01*
X138131364Y-64746243D01*
X138133500Y-64725400D01*
X138133500Y-63674600D01*
X138132505Y-63665008D01*
X138123238Y-63575692D01*
X138123237Y-63575688D01*
X138122526Y-63568834D01*
X138120239Y-63561977D01*
X138068868Y-63408002D01*
X138066550Y-63401054D01*
X137973478Y-63250652D01*
X137848303Y-63125695D01*
X137842072Y-63121854D01*
X137703968Y-63036725D01*
X137703966Y-63036724D01*
X137697738Y-63032885D01*
X137617995Y-63006436D01*
X137536389Y-62979368D01*
X137536387Y-62979368D01*
X137529861Y-62977203D01*
X137523025Y-62976503D01*
X137523022Y-62976502D01*
X137479969Y-62972091D01*
X137425400Y-62966500D01*
X136649600Y-62966500D01*
X136646354Y-62966837D01*
X136646350Y-62966837D01*
X136550692Y-62976762D01*
X136550688Y-62976763D01*
X136543834Y-62977474D01*
X136537298Y-62979655D01*
X136537296Y-62979655D01*
X136418413Y-63019318D01*
X136376054Y-63033450D01*
X136225652Y-63126522D01*
X136100695Y-63251697D01*
X136097898Y-63256235D01*
X136040647Y-63296824D01*
X135969724Y-63300054D01*
X135908313Y-63264428D01*
X135900938Y-63255932D01*
X135892902Y-63245793D01*
X135778171Y-63131261D01*
X135766760Y-63122249D01*
X135628757Y-63037184D01*
X135615576Y-63031037D01*
X135461290Y-62979862D01*
X135447914Y-62976995D01*
X135353562Y-62967328D01*
X135347145Y-62967000D01*
X135234615Y-62967000D01*
X135219376Y-62971475D01*
X135218171Y-62972865D01*
X135216500Y-62980548D01*
X135216500Y-64328000D01*
X135196498Y-64396121D01*
X135142842Y-64442614D01*
X135090500Y-64454000D01*
X133885116Y-64454000D01*
X133869877Y-64458475D01*
X133868672Y-64459865D01*
X133867001Y-64467548D01*
X133867001Y-64722095D01*
X133867338Y-64728614D01*
X133877257Y-64824206D01*
X133880149Y-64837600D01*
X133931588Y-64991784D01*
X133937761Y-65004962D01*
X134023063Y-65142807D01*
X134032102Y-65154212D01*
X134039891Y-65161987D01*
X134073972Y-65224269D01*
X134068970Y-65295089D01*
X134051837Y-65325553D01*
X134050695Y-65326697D01*
X134046853Y-65332929D01*
X134046852Y-65332931D01*
X133962467Y-65469829D01*
X133957885Y-65477262D01*
X133930979Y-65558382D01*
X133912269Y-65614790D01*
X133871838Y-65673150D01*
X133853378Y-65685537D01*
X133849752Y-65687530D01*
X133842383Y-65690448D01*
X133835969Y-65695108D01*
X133806625Y-65716428D01*
X133796703Y-65722946D01*
X133793360Y-65724923D01*
X133784804Y-65729983D01*
X133715988Y-65747441D01*
X133648657Y-65724923D01*
X133604258Y-65669746D01*
X133533752Y-65499531D01*
X133529271Y-65490736D01*
X133399596Y-65279125D01*
X133390330Y-65273078D01*
X133380125Y-65279085D01*
X131080544Y-67578666D01*
X131073151Y-67592204D01*
X131077720Y-67598735D01*
X131290736Y-67729271D01*
X131299530Y-67733752D01*
X131467949Y-67803513D01*
X131523230Y-67848061D01*
X131545651Y-67915425D01*
X131530144Y-67980627D01*
X131523652Y-67992435D01*
X131512801Y-68008953D01*
X131500386Y-68024959D01*
X131497241Y-68032228D01*
X131497238Y-68032232D01*
X131482826Y-68065537D01*
X131477609Y-68076187D01*
X131456305Y-68114940D01*
X131454334Y-68122615D01*
X131454334Y-68122616D01*
X131451267Y-68134562D01*
X131444863Y-68153266D01*
X131437587Y-68170080D01*
X131392176Y-68224655D01*
X131370168Y-68236449D01*
X131299303Y-68265802D01*
X131299299Y-68265804D01*
X131294729Y-68267697D01*
X131072144Y-68404097D01*
X130873637Y-68573637D01*
X130704097Y-68772144D01*
X130567697Y-68994729D01*
X130565804Y-68999299D01*
X130565802Y-68999303D01*
X130469690Y-69231338D01*
X130467796Y-69235911D01*
X130451972Y-69301824D01*
X130408009Y-69484938D01*
X130408009Y-69484940D01*
X130406854Y-69489751D01*
X130386372Y-69750000D01*
X130406854Y-70010249D01*
X130408008Y-70015056D01*
X130408009Y-70015062D01*
X130433361Y-70120659D01*
X130467796Y-70264089D01*
X130469689Y-70268660D01*
X130469690Y-70268662D01*
X130565514Y-70500000D01*
X130567697Y-70505271D01*
X130704097Y-70727856D01*
X130873637Y-70926363D01*
X131072144Y-71095903D01*
X131294729Y-71232303D01*
X131299299Y-71234196D01*
X131299303Y-71234198D01*
X131528941Y-71329317D01*
X131584222Y-71373865D01*
X131606643Y-71441229D01*
X131589085Y-71510020D01*
X131575748Y-71528347D01*
X131573865Y-71530230D01*
X131571385Y-71533427D01*
X131563682Y-71542447D01*
X131533414Y-71574679D01*
X131529595Y-71581625D01*
X131529593Y-71581628D01*
X131523652Y-71592434D01*
X131512801Y-71608953D01*
X131500386Y-71624959D01*
X131497240Y-71632230D01*
X131490310Y-71648243D01*
X131444899Y-71702817D01*
X131422894Y-71714610D01*
X131376443Y-71733850D01*
X131299303Y-71765802D01*
X131299299Y-71765804D01*
X131294729Y-71767697D01*
X131072144Y-71904097D01*
X130873637Y-72073637D01*
X130704097Y-72272144D01*
X130567697Y-72494729D01*
X130565804Y-72499299D01*
X130565802Y-72499303D01*
X130469690Y-72731338D01*
X130467796Y-72735911D01*
X130458798Y-72773392D01*
X130408009Y-72984938D01*
X130408008Y-72984944D01*
X130406854Y-72989751D01*
X130386372Y-73250000D01*
X130406854Y-73510249D01*
X130408008Y-73515056D01*
X130408009Y-73515062D01*
X130422556Y-73575652D01*
X130467796Y-73764089D01*
X130469689Y-73768660D01*
X130469690Y-73768662D01*
X130565514Y-74000000D01*
X130567697Y-74005271D01*
X130704097Y-74227856D01*
X130873637Y-74426363D01*
X131072144Y-74595903D01*
X131294729Y-74732303D01*
X131299299Y-74734196D01*
X131299303Y-74734198D01*
X131531338Y-74830310D01*
X131535911Y-74832204D01*
X131609720Y-74849924D01*
X131724502Y-74877481D01*
X131786071Y-74912833D01*
X131818754Y-74975860D01*
X131812173Y-75046551D01*
X131768419Y-75102462D01*
X131724502Y-75122519D01*
X131535911Y-75167796D01*
X131531340Y-75169689D01*
X131531338Y-75169690D01*
X131299303Y-75265802D01*
X131299299Y-75265804D01*
X131294729Y-75267697D01*
X131072144Y-75404097D01*
X130873637Y-75573637D01*
X130704097Y-75772144D01*
X130567697Y-75994729D01*
X130467796Y-76235911D01*
X130458044Y-76276531D01*
X130408009Y-76484938D01*
X130408008Y-76484944D01*
X130406854Y-76489751D01*
X130386372Y-76750000D01*
X130406854Y-77010249D01*
X130408008Y-77015056D01*
X130408009Y-77015062D01*
X130419058Y-77061083D01*
X130467796Y-77264089D01*
X130469689Y-77268660D01*
X130469690Y-77268662D01*
X130561993Y-77491500D01*
X130567697Y-77505271D01*
X130704097Y-77727856D01*
X130873637Y-77926363D01*
X131072144Y-78095903D01*
X131294729Y-78232303D01*
X131299299Y-78234196D01*
X131299303Y-78234198D01*
X131491762Y-78313917D01*
X131535911Y-78332204D01*
X131676493Y-78365955D01*
X131724502Y-78377481D01*
X131786071Y-78412833D01*
X131818754Y-78475860D01*
X131812173Y-78546551D01*
X131768419Y-78602462D01*
X131724502Y-78622519D01*
X131535911Y-78667796D01*
X131531340Y-78669689D01*
X131531338Y-78669690D01*
X131299303Y-78765802D01*
X131299299Y-78765804D01*
X131294729Y-78767697D01*
X131072144Y-78904097D01*
X130873637Y-79073637D01*
X130704097Y-79272144D01*
X130567697Y-79494729D01*
X130565804Y-79499299D01*
X130565802Y-79499303D01*
X130469690Y-79731338D01*
X130467796Y-79735911D01*
X130449023Y-79814107D01*
X130408009Y-79984938D01*
X130408008Y-79984944D01*
X130406854Y-79989751D01*
X130386372Y-80250000D01*
X130406854Y-80510249D01*
X130408008Y-80515056D01*
X130408009Y-80515062D01*
X130417801Y-80555847D01*
X130467796Y-80764089D01*
X130469689Y-80768660D01*
X130469690Y-80768662D01*
X130550113Y-80962819D01*
X130567697Y-81005271D01*
X130704097Y-81227856D01*
X130873637Y-81426363D01*
X131072144Y-81595903D01*
X131294729Y-81732303D01*
X131299299Y-81734196D01*
X131299303Y-81734198D01*
X131531338Y-81830310D01*
X131535911Y-81832204D01*
X131712956Y-81874709D01*
X131724502Y-81877481D01*
X131786071Y-81912833D01*
X131818754Y-81975860D01*
X131812173Y-82046551D01*
X131768419Y-82102462D01*
X131724502Y-82122519D01*
X131535911Y-82167796D01*
X131531340Y-82169689D01*
X131531338Y-82169690D01*
X131299303Y-82265802D01*
X131299299Y-82265804D01*
X131294729Y-82267697D01*
X131072144Y-82404097D01*
X130873637Y-82573637D01*
X130704097Y-82772144D01*
X130567697Y-82994729D01*
X130565804Y-82999299D01*
X130565802Y-82999303D01*
X130491136Y-83179563D01*
X130467796Y-83235911D01*
X130451866Y-83302262D01*
X130408009Y-83484938D01*
X130408008Y-83484944D01*
X130406854Y-83489751D01*
X130386372Y-83750000D01*
X130406854Y-84010249D01*
X130408008Y-84015056D01*
X130408009Y-84015062D01*
X130437358Y-84137306D01*
X130467796Y-84264089D01*
X130469689Y-84268660D01*
X130469690Y-84268662D01*
X130524115Y-84400054D01*
X130567697Y-84505271D01*
X130704097Y-84727856D01*
X130873637Y-84926363D01*
X131072144Y-85095903D01*
X131294729Y-85232303D01*
X131299299Y-85234196D01*
X131299303Y-85234198D01*
X131531338Y-85330310D01*
X131535911Y-85332204D01*
X131591205Y-85345479D01*
X131784938Y-85391991D01*
X131784944Y-85391992D01*
X131789751Y-85393146D01*
X132050000Y-85413628D01*
X132310249Y-85393146D01*
X132315056Y-85391992D01*
X132315062Y-85391991D01*
X132508795Y-85345479D01*
X132564089Y-85332204D01*
X132568662Y-85330310D01*
X132800697Y-85234198D01*
X132800701Y-85234196D01*
X132805271Y-85232303D01*
X133027856Y-85095903D01*
X133107495Y-85027885D01*
X137667000Y-85027885D01*
X137671475Y-85043124D01*
X137672865Y-85044329D01*
X137680548Y-85046000D01*
X138490385Y-85046000D01*
X138505624Y-85041525D01*
X138506829Y-85040135D01*
X138508500Y-85032452D01*
X138508500Y-84085116D01*
X138504025Y-84069877D01*
X138502635Y-84068672D01*
X138494952Y-84067001D01*
X138377905Y-84067001D01*
X138371386Y-84067338D01*
X138275794Y-84077257D01*
X138262400Y-84080149D01*
X138108216Y-84131588D01*
X138095038Y-84137761D01*
X137957193Y-84223063D01*
X137945792Y-84232099D01*
X137831261Y-84346829D01*
X137822249Y-84358240D01*
X137737184Y-84496243D01*
X137731037Y-84509424D01*
X137679862Y-84663710D01*
X137676995Y-84677086D01*
X137667328Y-84771438D01*
X137667000Y-84777855D01*
X137667000Y-85027885D01*
X133107495Y-85027885D01*
X133226363Y-84926363D01*
X133395903Y-84727856D01*
X133532303Y-84505271D01*
X133550524Y-84461282D01*
X133595073Y-84406001D01*
X133666933Y-84383500D01*
X134071233Y-84383500D01*
X134082416Y-84384027D01*
X134089909Y-84385702D01*
X134097835Y-84385453D01*
X134097836Y-84385453D01*
X134157986Y-84383562D01*
X134161945Y-84383500D01*
X134189856Y-84383500D01*
X134193791Y-84383003D01*
X134193856Y-84382995D01*
X134205693Y-84382062D01*
X134237951Y-84381048D01*
X134241970Y-84380922D01*
X134249889Y-84380673D01*
X134269343Y-84375021D01*
X134288700Y-84371013D01*
X134300930Y-84369468D01*
X134300931Y-84369468D01*
X134308797Y-84368474D01*
X134316168Y-84365555D01*
X134316170Y-84365555D01*
X134349912Y-84352196D01*
X134361142Y-84348351D01*
X134395983Y-84338229D01*
X134395984Y-84338229D01*
X134403593Y-84336018D01*
X134410412Y-84331985D01*
X134410417Y-84331983D01*
X134421028Y-84325707D01*
X134438776Y-84317012D01*
X134457617Y-84309552D01*
X134493387Y-84283564D01*
X134503307Y-84277048D01*
X134534535Y-84258580D01*
X134534538Y-84258578D01*
X134541362Y-84254542D01*
X134555683Y-84240221D01*
X134570717Y-84227380D01*
X134576659Y-84223063D01*
X134587107Y-84215472D01*
X134615298Y-84181395D01*
X134623288Y-84172616D01*
X134650499Y-84145405D01*
X134712811Y-84111379D01*
X134739594Y-84108500D01*
X135400400Y-84108500D01*
X135403646Y-84108163D01*
X135403650Y-84108163D01*
X135499308Y-84098238D01*
X135499312Y-84098237D01*
X135506166Y-84097526D01*
X135512702Y-84095345D01*
X135512704Y-84095345D01*
X135644806Y-84051272D01*
X135673946Y-84041550D01*
X135824348Y-83948478D01*
X135910784Y-83861891D01*
X135973066Y-83827812D01*
X136043886Y-83832815D01*
X136088976Y-83861736D01*
X136176697Y-83949305D01*
X136182927Y-83953145D01*
X136182928Y-83953146D01*
X136320090Y-84037694D01*
X136327262Y-84042115D01*
X136400781Y-84066500D01*
X136488611Y-84095632D01*
X136488613Y-84095632D01*
X136495139Y-84097797D01*
X136501975Y-84098497D01*
X136501978Y-84098498D01*
X136545031Y-84102909D01*
X136599600Y-84108500D01*
X137400400Y-84108500D01*
X137403646Y-84108163D01*
X137403650Y-84108163D01*
X137499308Y-84098238D01*
X137499312Y-84098237D01*
X137506166Y-84097526D01*
X137512702Y-84095345D01*
X137512704Y-84095345D01*
X137644806Y-84051272D01*
X137673946Y-84041550D01*
X137824348Y-83948478D01*
X137949305Y-83823303D01*
X138042115Y-83672738D01*
X138097797Y-83504861D01*
X138097969Y-83504918D01*
X138130235Y-83445402D01*
X138155458Y-83425776D01*
X138184534Y-83408580D01*
X138191362Y-83404542D01*
X138205683Y-83390221D01*
X138220717Y-83377380D01*
X138230694Y-83370131D01*
X138237107Y-83365472D01*
X138265298Y-83331395D01*
X138273288Y-83322616D01*
X140692253Y-80903652D01*
X140700539Y-80896112D01*
X140707018Y-80892000D01*
X140712447Y-80886219D01*
X140748650Y-80847667D01*
X140809862Y-80811701D01*
X140880802Y-80814538D01*
X140938946Y-80855278D01*
X140965835Y-80920986D01*
X140966500Y-80933919D01*
X140966500Y-82821233D01*
X140965973Y-82832416D01*
X140964298Y-82839909D01*
X140964547Y-82847835D01*
X140964547Y-82847836D01*
X140966438Y-82907986D01*
X140966500Y-82911945D01*
X140966500Y-82939856D01*
X140966997Y-82943790D01*
X140966997Y-82943791D01*
X140967005Y-82943856D01*
X140967938Y-82955693D01*
X140969327Y-82999889D01*
X140974978Y-83019339D01*
X140978987Y-83038700D01*
X140981526Y-83058797D01*
X140984445Y-83066168D01*
X140984445Y-83066170D01*
X140997804Y-83099912D01*
X141001649Y-83111142D01*
X141013982Y-83153593D01*
X141018015Y-83160412D01*
X141018017Y-83160417D01*
X141024293Y-83171028D01*
X141032988Y-83188776D01*
X141040448Y-83207617D01*
X141045110Y-83214033D01*
X141045110Y-83214034D01*
X141066436Y-83243387D01*
X141072952Y-83253307D01*
X141074156Y-83255342D01*
X141095458Y-83291362D01*
X141109779Y-83305683D01*
X141122619Y-83320716D01*
X141134528Y-83337107D01*
X141168605Y-83365298D01*
X141177384Y-83373288D01*
X141980501Y-84176405D01*
X142014527Y-84238717D01*
X142009462Y-84309532D01*
X141966915Y-84366368D01*
X141900395Y-84391179D01*
X141891406Y-84391500D01*
X141865683Y-84391500D01*
X141797562Y-84371498D01*
X141773984Y-84350145D01*
X141773478Y-84350652D01*
X141653483Y-84230866D01*
X141648303Y-84225695D01*
X141639277Y-84220131D01*
X141503968Y-84136725D01*
X141503966Y-84136724D01*
X141497738Y-84132885D01*
X141393280Y-84098238D01*
X141336389Y-84079368D01*
X141336387Y-84079368D01*
X141329861Y-84077203D01*
X141323025Y-84076503D01*
X141323022Y-84076502D01*
X141279969Y-84072091D01*
X141225400Y-84066500D01*
X140449600Y-84066500D01*
X140446354Y-84066837D01*
X140446350Y-84066837D01*
X140350692Y-84076762D01*
X140350688Y-84076763D01*
X140343834Y-84077474D01*
X140337298Y-84079655D01*
X140337296Y-84079655D01*
X140205194Y-84123728D01*
X140176054Y-84133450D01*
X140025652Y-84226522D01*
X139900695Y-84351697D01*
X139897898Y-84356235D01*
X139840647Y-84396824D01*
X139769724Y-84400054D01*
X139708313Y-84364428D01*
X139700938Y-84355932D01*
X139692902Y-84345793D01*
X139578171Y-84231261D01*
X139566760Y-84222249D01*
X139428757Y-84137184D01*
X139415576Y-84131037D01*
X139261290Y-84079862D01*
X139247914Y-84076995D01*
X139153562Y-84067328D01*
X139147145Y-84067000D01*
X139034615Y-84067000D01*
X139019376Y-84071475D01*
X139018171Y-84072865D01*
X139016500Y-84080548D01*
X139016500Y-90714884D01*
X139020975Y-90730123D01*
X139022365Y-90731328D01*
X139030048Y-90732999D01*
X139147095Y-90732999D01*
X139153614Y-90732662D01*
X139249206Y-90722743D01*
X139262600Y-90719851D01*
X139416784Y-90668412D01*
X139429962Y-90662239D01*
X139567807Y-90576937D01*
X139579208Y-90567901D01*
X139693738Y-90453172D01*
X139700794Y-90444238D01*
X139758712Y-90403177D01*
X139829635Y-90399947D01*
X139891046Y-90435574D01*
X139897846Y-90443407D01*
X139901522Y-90449348D01*
X140026697Y-90574305D01*
X140032927Y-90578145D01*
X140032928Y-90578146D01*
X140170288Y-90662816D01*
X140177262Y-90667115D01*
X140257005Y-90693564D01*
X140338611Y-90720632D01*
X140338613Y-90720632D01*
X140345139Y-90722797D01*
X140351975Y-90723497D01*
X140351978Y-90723498D01*
X140395031Y-90727909D01*
X140449600Y-90733500D01*
X141225400Y-90733500D01*
X141228646Y-90733163D01*
X141228650Y-90733163D01*
X141324308Y-90723238D01*
X141324312Y-90723237D01*
X141331166Y-90722526D01*
X141337702Y-90720345D01*
X141337704Y-90720345D01*
X141469806Y-90676272D01*
X141498946Y-90666550D01*
X141649348Y-90573478D01*
X141774305Y-90448303D01*
X141775945Y-90449941D01*
X141824744Y-90415344D01*
X141865706Y-90408500D01*
X141995487Y-90408500D01*
X142001939Y-90407128D01*
X142001944Y-90407128D01*
X142088887Y-90388647D01*
X142182288Y-90368794D01*
X142188319Y-90366109D01*
X142350722Y-90293803D01*
X142350724Y-90293802D01*
X142356752Y-90291118D01*
X142370003Y-90281491D01*
X142443015Y-90228444D01*
X142511253Y-90178866D01*
X142542951Y-90143662D01*
X142634621Y-90041852D01*
X142634622Y-90041851D01*
X142639040Y-90036944D01*
X142711571Y-89911317D01*
X142731223Y-89877279D01*
X142731224Y-89877278D01*
X142734527Y-89871556D01*
X142793542Y-89689928D01*
X142801418Y-89614989D01*
X142828431Y-89549333D01*
X142886652Y-89508703D01*
X142957597Y-89506000D01*
X142992843Y-89520899D01*
X143002561Y-89526889D01*
X143027262Y-89542115D01*
X143049024Y-89549333D01*
X143188611Y-89595632D01*
X143188613Y-89595632D01*
X143195139Y-89597797D01*
X143201975Y-89598497D01*
X143201978Y-89598498D01*
X143245031Y-89602909D01*
X143299600Y-89608500D01*
X143960406Y-89608500D01*
X144028527Y-89628502D01*
X144049501Y-89645405D01*
X144221343Y-89817247D01*
X144228887Y-89825537D01*
X144233000Y-89832018D01*
X144238777Y-89837443D01*
X144282667Y-89878658D01*
X144285509Y-89881413D01*
X144305231Y-89901135D01*
X144308355Y-89903558D01*
X144308359Y-89903562D01*
X144308424Y-89903612D01*
X144317445Y-89911317D01*
X144349679Y-89941586D01*
X144356627Y-89945405D01*
X144356629Y-89945407D01*
X144367432Y-89951346D01*
X144383963Y-89962205D01*
X144388904Y-89966038D01*
X144430468Y-90023596D01*
X144434315Y-90094489D01*
X144410845Y-90142336D01*
X144411019Y-90142454D01*
X144410195Y-90143662D01*
X144409594Y-90144887D01*
X144408105Y-90146726D01*
X144288098Y-90322649D01*
X144283000Y-90331623D01*
X144193338Y-90524783D01*
X144189775Y-90534470D01*
X144134389Y-90734183D01*
X144135912Y-90742607D01*
X144148292Y-90746000D01*
X145598000Y-90746000D01*
X145666121Y-90766002D01*
X145712614Y-90819658D01*
X145724000Y-90872000D01*
X145724000Y-92318517D01*
X145728064Y-92332359D01*
X145741478Y-92334393D01*
X145748184Y-92333534D01*
X145758262Y-92331392D01*
X145884292Y-92293581D01*
X145955288Y-92293165D01*
X146015238Y-92331197D01*
X146045110Y-92395603D01*
X146046500Y-92414267D01*
X146046500Y-92515500D01*
X146026498Y-92583621D01*
X145972842Y-92630114D01*
X145920500Y-92641500D01*
X145781866Y-92641500D01*
X145719684Y-92648255D01*
X145583295Y-92699385D01*
X145466739Y-92786739D01*
X145379385Y-92903295D01*
X145328255Y-93039684D01*
X145321500Y-93101866D01*
X145321500Y-94898134D01*
X145328255Y-94960316D01*
X145379385Y-95096705D01*
X145466739Y-95213261D01*
X145583295Y-95300615D01*
X145719684Y-95351745D01*
X145781866Y-95358500D01*
X147578134Y-95358500D01*
X147640316Y-95351745D01*
X147776705Y-95300615D01*
X147874436Y-95227370D01*
X147940941Y-95202522D01*
X148010324Y-95217575D01*
X148025562Y-95227368D01*
X148123295Y-95300615D01*
X148259684Y-95351745D01*
X148321866Y-95358500D01*
X150118134Y-95358500D01*
X150180316Y-95351745D01*
X150316705Y-95300615D01*
X150414436Y-95227370D01*
X150480941Y-95202522D01*
X150550324Y-95217575D01*
X150565562Y-95227368D01*
X150663295Y-95300615D01*
X150799684Y-95351745D01*
X150861866Y-95358500D01*
X152658134Y-95358500D01*
X152720316Y-95351745D01*
X152856705Y-95300615D01*
X152954436Y-95227370D01*
X153020941Y-95202522D01*
X153090324Y-95217575D01*
X153105562Y-95227368D01*
X153203295Y-95300615D01*
X153339684Y-95351745D01*
X153401866Y-95358500D01*
X155198134Y-95358500D01*
X155260316Y-95351745D01*
X155396705Y-95300615D01*
X155513261Y-95213261D01*
X155600615Y-95096705D01*
X155651745Y-94960316D01*
X155658500Y-94898134D01*
X155658500Y-93589594D01*
X155678502Y-93521473D01*
X155695405Y-93500499D01*
X156192247Y-93003657D01*
X156200537Y-92996113D01*
X156207018Y-92992000D01*
X156253659Y-92942332D01*
X156256413Y-92939491D01*
X156276134Y-92919770D01*
X156278612Y-92916575D01*
X156286318Y-92907553D01*
X156311158Y-92881101D01*
X156316586Y-92875321D01*
X156326346Y-92857568D01*
X156337199Y-92841045D01*
X156340459Y-92836842D01*
X156349613Y-92825041D01*
X156367176Y-92784457D01*
X156372383Y-92773827D01*
X156393695Y-92735060D01*
X156395666Y-92727383D01*
X156395668Y-92727378D01*
X156398732Y-92715442D01*
X156405138Y-92696730D01*
X156406836Y-92692808D01*
X156413181Y-92678145D01*
X156418051Y-92647402D01*
X156420097Y-92634481D01*
X156422504Y-92622860D01*
X156431528Y-92587711D01*
X156431528Y-92587710D01*
X156433500Y-92580030D01*
X156433500Y-92559769D01*
X156435051Y-92540058D01*
X156435332Y-92538288D01*
X156438219Y-92520057D01*
X156434059Y-92476046D01*
X156433500Y-92464189D01*
X156433500Y-91210485D01*
X156453502Y-91142364D01*
X156507158Y-91095871D01*
X156577432Y-91085767D01*
X156642012Y-91115261D01*
X156659343Y-91134144D01*
X156660960Y-91136944D01*
X156788747Y-91278866D01*
X156943248Y-91391118D01*
X156949276Y-91393802D01*
X156949278Y-91393803D01*
X157064119Y-91444933D01*
X157117712Y-91468794D01*
X157211113Y-91488647D01*
X157298056Y-91507128D01*
X157298061Y-91507128D01*
X157304513Y-91508500D01*
X157495487Y-91508500D01*
X157501939Y-91507128D01*
X157501944Y-91507128D01*
X157647756Y-91476134D01*
X157682288Y-91468794D01*
X157688321Y-91466108D01*
X157688324Y-91466107D01*
X157734184Y-91445689D01*
X157804551Y-91436255D01*
X157868848Y-91466362D01*
X157892576Y-91494492D01*
X157926522Y-91549348D01*
X158051697Y-91674305D01*
X158057927Y-91678145D01*
X158057928Y-91678146D01*
X158195288Y-91762816D01*
X158202262Y-91767115D01*
X158282005Y-91793564D01*
X158363611Y-91820632D01*
X158363613Y-91820632D01*
X158370139Y-91822797D01*
X158376975Y-91823497D01*
X158376978Y-91823498D01*
X158420031Y-91827909D01*
X158474600Y-91833500D01*
X159250400Y-91833500D01*
X159253646Y-91833163D01*
X159253650Y-91833163D01*
X159349308Y-91823238D01*
X159349312Y-91823237D01*
X159356166Y-91822526D01*
X159362702Y-91820345D01*
X159362704Y-91820345D01*
X159494806Y-91776272D01*
X159523946Y-91766550D01*
X159674348Y-91673478D01*
X159799305Y-91548303D01*
X159802102Y-91543765D01*
X159859353Y-91503176D01*
X159930276Y-91499946D01*
X159991687Y-91535572D01*
X159999062Y-91544068D01*
X160007098Y-91554207D01*
X160121829Y-91668739D01*
X160133240Y-91677751D01*
X160271243Y-91762816D01*
X160284424Y-91768963D01*
X160438710Y-91820138D01*
X160452086Y-91823005D01*
X160546438Y-91832672D01*
X160552854Y-91833000D01*
X160665385Y-91833000D01*
X160680624Y-91828525D01*
X160681829Y-91827135D01*
X160683500Y-91819452D01*
X160683500Y-91814884D01*
X161191500Y-91814884D01*
X161195975Y-91830123D01*
X161197365Y-91831328D01*
X161205048Y-91832999D01*
X161322095Y-91832999D01*
X161328614Y-91832662D01*
X161424206Y-91822743D01*
X161437600Y-91819851D01*
X161591784Y-91768412D01*
X161604962Y-91762239D01*
X161742807Y-91676937D01*
X161754208Y-91667901D01*
X161868739Y-91553171D01*
X161877751Y-91541760D01*
X161962816Y-91403757D01*
X161968963Y-91390576D01*
X162020138Y-91236290D01*
X162023005Y-91222914D01*
X162032672Y-91128562D01*
X162033000Y-91122146D01*
X162033000Y-90872115D01*
X162028525Y-90856876D01*
X162027135Y-90855671D01*
X162019452Y-90854000D01*
X161209615Y-90854000D01*
X161194376Y-90858475D01*
X161193171Y-90859865D01*
X161191500Y-90867548D01*
X161191500Y-91814884D01*
X160683500Y-91814884D01*
X160683500Y-90327885D01*
X161191500Y-90327885D01*
X161195975Y-90343124D01*
X161197365Y-90344329D01*
X161205048Y-90346000D01*
X162014884Y-90346000D01*
X162030123Y-90341525D01*
X162031328Y-90340135D01*
X162032999Y-90332452D01*
X162032999Y-90077905D01*
X162032662Y-90071386D01*
X162022743Y-89975794D01*
X162019851Y-89962400D01*
X161968412Y-89808216D01*
X161962239Y-89795038D01*
X161876937Y-89657193D01*
X161867901Y-89645792D01*
X161811183Y-89589173D01*
X161777104Y-89526891D01*
X161782107Y-89456071D01*
X161811028Y-89410982D01*
X161868739Y-89353171D01*
X161877751Y-89341760D01*
X161962816Y-89203757D01*
X161968963Y-89190576D01*
X162020138Y-89036290D01*
X162023005Y-89022914D01*
X162032672Y-88928562D01*
X162033000Y-88922146D01*
X162033000Y-88672115D01*
X162028525Y-88656876D01*
X162027135Y-88655671D01*
X162019452Y-88654000D01*
X161209615Y-88654000D01*
X161194376Y-88658475D01*
X161193171Y-88659865D01*
X161191500Y-88667548D01*
X161191500Y-90327885D01*
X160683500Y-90327885D01*
X160683500Y-88127885D01*
X161191500Y-88127885D01*
X161195975Y-88143124D01*
X161197365Y-88144329D01*
X161205048Y-88146000D01*
X162014884Y-88146000D01*
X162030123Y-88141525D01*
X162031328Y-88140135D01*
X162032999Y-88132452D01*
X162032999Y-87877905D01*
X162032662Y-87871386D01*
X162022743Y-87775794D01*
X162019851Y-87762400D01*
X161968412Y-87608216D01*
X161962239Y-87595038D01*
X161876937Y-87457193D01*
X161867901Y-87445792D01*
X161861184Y-87439087D01*
X161827104Y-87376805D01*
X161832106Y-87305985D01*
X161861030Y-87260894D01*
X161868736Y-87253175D01*
X161877751Y-87241760D01*
X161962816Y-87103757D01*
X161968963Y-87090576D01*
X162020138Y-86936290D01*
X162023005Y-86922914D01*
X162032672Y-86828562D01*
X162033000Y-86822146D01*
X162033000Y-86572115D01*
X162028525Y-86556876D01*
X162027135Y-86555671D01*
X162019452Y-86554000D01*
X161209615Y-86554000D01*
X161194376Y-86558475D01*
X161193171Y-86559865D01*
X161191500Y-86567548D01*
X161191500Y-88127885D01*
X160683500Y-88127885D01*
X160683500Y-86027885D01*
X161191500Y-86027885D01*
X161195975Y-86043124D01*
X161197365Y-86044329D01*
X161205048Y-86046000D01*
X162014884Y-86046000D01*
X162030123Y-86041525D01*
X162031328Y-86040135D01*
X162032999Y-86032452D01*
X162032999Y-85777905D01*
X162032662Y-85771386D01*
X162022743Y-85675794D01*
X162019851Y-85662400D01*
X161968412Y-85508216D01*
X161962239Y-85495038D01*
X161876937Y-85357193D01*
X161867901Y-85345792D01*
X161811183Y-85289173D01*
X161777104Y-85226891D01*
X161782107Y-85156071D01*
X161811028Y-85110982D01*
X161868739Y-85053171D01*
X161877751Y-85041760D01*
X161962816Y-84903757D01*
X161968963Y-84890576D01*
X162020138Y-84736290D01*
X162023005Y-84722914D01*
X162032672Y-84628562D01*
X162033000Y-84622146D01*
X162033000Y-84372115D01*
X162028525Y-84356876D01*
X162027135Y-84355671D01*
X162019452Y-84354000D01*
X161209615Y-84354000D01*
X161194376Y-84358475D01*
X161193171Y-84359865D01*
X161191500Y-84367548D01*
X161191500Y-86027885D01*
X160683500Y-86027885D01*
X160683500Y-83827885D01*
X161191500Y-83827885D01*
X161195975Y-83843124D01*
X161197365Y-83844329D01*
X161205048Y-83846000D01*
X162014884Y-83846000D01*
X162030123Y-83841525D01*
X162031328Y-83840135D01*
X162032999Y-83832452D01*
X162032999Y-83577905D01*
X162032662Y-83571386D01*
X162022743Y-83475794D01*
X162019851Y-83462400D01*
X161968412Y-83308216D01*
X161962239Y-83295038D01*
X161876937Y-83157193D01*
X161867901Y-83145792D01*
X161753171Y-83031261D01*
X161741760Y-83022249D01*
X161603757Y-82937184D01*
X161590576Y-82931037D01*
X161436290Y-82879862D01*
X161422914Y-82876995D01*
X161328562Y-82867328D01*
X161322145Y-82867000D01*
X161209615Y-82867000D01*
X161194376Y-82871475D01*
X161193171Y-82872865D01*
X161191500Y-82880548D01*
X161191500Y-83827885D01*
X160683500Y-83827885D01*
X160683500Y-82885116D01*
X160679025Y-82869877D01*
X160677635Y-82868672D01*
X160669952Y-82867001D01*
X160552905Y-82867001D01*
X160546386Y-82867338D01*
X160450794Y-82877257D01*
X160437400Y-82880149D01*
X160283216Y-82931588D01*
X160270038Y-82937761D01*
X160132193Y-83023063D01*
X160120792Y-83032099D01*
X160006262Y-83146828D01*
X159999206Y-83155762D01*
X159941288Y-83196823D01*
X159870365Y-83200053D01*
X159808954Y-83164426D01*
X159802154Y-83156593D01*
X159798478Y-83150652D01*
X159673303Y-83025695D01*
X159630489Y-82999304D01*
X159528968Y-82936725D01*
X159528966Y-82936724D01*
X159522738Y-82932885D01*
X159442995Y-82906436D01*
X159361389Y-82879368D01*
X159361387Y-82879368D01*
X159354861Y-82877203D01*
X159348025Y-82876503D01*
X159348022Y-82876502D01*
X159304969Y-82872091D01*
X159250400Y-82866500D01*
X158474600Y-82866500D01*
X158471354Y-82866837D01*
X158471350Y-82866837D01*
X158415837Y-82872597D01*
X158368834Y-82877474D01*
X158362297Y-82879655D01*
X158356907Y-82880819D01*
X158286099Y-82875649D01*
X158229327Y-82833017D01*
X158204616Y-82766460D01*
X158221188Y-82694661D01*
X158231222Y-82677281D01*
X158231223Y-82677278D01*
X158234527Y-82671556D01*
X158293542Y-82489928D01*
X158299821Y-82430192D01*
X158312814Y-82306565D01*
X158313504Y-82300000D01*
X158299488Y-82166641D01*
X158294232Y-82116635D01*
X158294232Y-82116633D01*
X158293542Y-82110072D01*
X158234527Y-81928444D01*
X158228869Y-81918643D01*
X158190116Y-81851522D01*
X158139040Y-81763056D01*
X158132203Y-81755462D01*
X158015675Y-81626045D01*
X158015674Y-81626044D01*
X158011253Y-81621134D01*
X157856752Y-81508882D01*
X157850724Y-81506198D01*
X157850722Y-81506197D01*
X157688319Y-81433891D01*
X157688318Y-81433891D01*
X157682288Y-81431206D01*
X157582833Y-81410066D01*
X157501944Y-81392872D01*
X157501939Y-81392872D01*
X157495487Y-81391500D01*
X157439595Y-81391500D01*
X157371474Y-81371498D01*
X157350500Y-81354595D01*
X157183405Y-81187500D01*
X167336693Y-81187500D01*
X167355885Y-81406871D01*
X167412880Y-81619576D01*
X167451536Y-81702474D01*
X167503618Y-81814166D01*
X167503621Y-81814171D01*
X167505944Y-81819153D01*
X167509100Y-81823660D01*
X167509101Y-81823662D01*
X167627863Y-81993271D01*
X167632251Y-81999538D01*
X167787962Y-82155249D01*
X167792471Y-82158406D01*
X167792473Y-82158408D01*
X167810105Y-82170754D01*
X167968346Y-82281556D01*
X168167924Y-82374620D01*
X168380629Y-82431615D01*
X168600000Y-82450807D01*
X168819371Y-82431615D01*
X169032076Y-82374620D01*
X169231654Y-82281556D01*
X169389895Y-82170754D01*
X169407527Y-82158408D01*
X169407529Y-82158406D01*
X169412038Y-82155249D01*
X169567749Y-81999538D01*
X169572138Y-81993271D01*
X169690899Y-81823662D01*
X169690900Y-81823660D01*
X169694056Y-81819153D01*
X169696379Y-81814171D01*
X169696382Y-81814166D01*
X169748464Y-81702474D01*
X169787120Y-81619576D01*
X169844115Y-81406871D01*
X169863307Y-81187500D01*
X169844115Y-80968129D01*
X169787120Y-80755424D01*
X169743585Y-80662062D01*
X169696382Y-80560834D01*
X169696379Y-80560829D01*
X169694056Y-80555847D01*
X169690899Y-80551338D01*
X169570908Y-80379973D01*
X169570906Y-80379970D01*
X169567749Y-80375462D01*
X169412038Y-80219751D01*
X169231654Y-80093444D01*
X169032076Y-80000380D01*
X168819371Y-79943385D01*
X168600000Y-79924193D01*
X168380629Y-79943385D01*
X168167924Y-80000380D01*
X168074562Y-80043915D01*
X167973334Y-80091118D01*
X167973329Y-80091121D01*
X167968347Y-80093444D01*
X167963840Y-80096600D01*
X167963838Y-80096601D01*
X167792473Y-80216592D01*
X167792470Y-80216594D01*
X167787962Y-80219751D01*
X167632251Y-80375462D01*
X167629094Y-80379970D01*
X167629092Y-80379973D01*
X167509101Y-80551338D01*
X167505944Y-80555847D01*
X167503621Y-80560829D01*
X167503618Y-80560834D01*
X167456415Y-80662062D01*
X167412880Y-80755424D01*
X167355885Y-80968129D01*
X167336693Y-81187500D01*
X157183405Y-81187500D01*
X156700165Y-80704260D01*
X156666139Y-80641948D01*
X156671204Y-80571133D01*
X156700165Y-80526070D01*
X157662974Y-79563261D01*
X158626405Y-78599829D01*
X158688717Y-78565804D01*
X158759532Y-78570868D01*
X158816368Y-78613415D01*
X158841179Y-78679935D01*
X158841500Y-78688924D01*
X158841500Y-79241377D01*
X158841498Y-79242147D01*
X158841024Y-79319721D01*
X158843491Y-79328352D01*
X158849150Y-79348153D01*
X158852728Y-79364915D01*
X158856920Y-79394187D01*
X158860634Y-79402355D01*
X158860634Y-79402356D01*
X158867548Y-79417562D01*
X158873996Y-79435086D01*
X158881051Y-79459771D01*
X158885843Y-79467365D01*
X158885844Y-79467368D01*
X158896830Y-79484780D01*
X158904969Y-79499863D01*
X158917208Y-79526782D01*
X158923069Y-79533584D01*
X158933970Y-79546235D01*
X158945073Y-79561239D01*
X158958776Y-79582958D01*
X158965501Y-79588897D01*
X158965504Y-79588901D01*
X158980938Y-79602532D01*
X158992982Y-79614724D01*
X159006427Y-79630327D01*
X159006430Y-79630329D01*
X159012287Y-79637127D01*
X159019816Y-79642007D01*
X159019817Y-79642008D01*
X159033835Y-79651094D01*
X159048709Y-79662385D01*
X159061217Y-79673431D01*
X159067951Y-79679378D01*
X159087806Y-79688700D01*
X159094711Y-79691942D01*
X159109691Y-79700263D01*
X159126983Y-79711471D01*
X159126988Y-79711473D01*
X159134515Y-79716352D01*
X159143108Y-79718922D01*
X159143113Y-79718924D01*
X159159120Y-79723711D01*
X159176564Y-79730372D01*
X159191676Y-79737467D01*
X159191678Y-79737468D01*
X159199800Y-79741281D01*
X159208667Y-79742662D01*
X159208668Y-79742662D01*
X159211353Y-79743080D01*
X159229017Y-79745830D01*
X159245732Y-79749613D01*
X159265466Y-79755515D01*
X159265472Y-79755516D01*
X159274066Y-79758086D01*
X159283037Y-79758141D01*
X159283038Y-79758141D01*
X159293097Y-79758202D01*
X159308506Y-79758296D01*
X159309289Y-79758329D01*
X159310386Y-79758500D01*
X159341377Y-79758500D01*
X159342147Y-79758502D01*
X159415785Y-79758952D01*
X159415786Y-79758952D01*
X159419721Y-79758976D01*
X159421065Y-79758592D01*
X159422410Y-79758500D01*
X164816377Y-79758500D01*
X164817148Y-79758502D01*
X164894721Y-79758976D01*
X164923152Y-79750850D01*
X164939915Y-79747272D01*
X164940753Y-79747152D01*
X164969187Y-79743080D01*
X164992564Y-79732451D01*
X165010087Y-79726004D01*
X165011168Y-79725695D01*
X165034771Y-79718949D01*
X165042365Y-79714157D01*
X165042368Y-79714156D01*
X165059780Y-79703170D01*
X165074865Y-79695030D01*
X165101782Y-79682792D01*
X165121235Y-79666030D01*
X165136239Y-79654927D01*
X165157958Y-79641224D01*
X165163897Y-79634499D01*
X165163901Y-79634496D01*
X165177532Y-79619062D01*
X165189724Y-79607018D01*
X165205327Y-79593573D01*
X165205329Y-79593570D01*
X165212127Y-79587713D01*
X165226094Y-79566165D01*
X165237385Y-79551291D01*
X165248431Y-79538783D01*
X165248432Y-79538782D01*
X165254378Y-79532049D01*
X165266943Y-79505287D01*
X165275263Y-79490309D01*
X165286471Y-79473017D01*
X165286473Y-79473012D01*
X165291352Y-79465485D01*
X165293922Y-79456892D01*
X165293924Y-79456887D01*
X165298711Y-79440880D01*
X165305372Y-79423436D01*
X165312467Y-79408324D01*
X165312468Y-79408322D01*
X165316281Y-79400200D01*
X165320830Y-79370983D01*
X165324613Y-79354268D01*
X165330515Y-79334534D01*
X165330516Y-79334528D01*
X165333086Y-79325934D01*
X165333296Y-79291494D01*
X165333329Y-79290711D01*
X165333500Y-79289614D01*
X165333500Y-79258623D01*
X165333502Y-79257853D01*
X165333952Y-79184215D01*
X165333952Y-79184214D01*
X165333976Y-79180279D01*
X165333592Y-79178935D01*
X165333500Y-79177590D01*
X165333500Y-78737661D01*
X167914393Y-78737661D01*
X167923687Y-78749675D01*
X167964088Y-78777964D01*
X167973584Y-78783447D01*
X168163113Y-78871826D01*
X168173405Y-78875572D01*
X168375401Y-78929696D01*
X168386196Y-78931599D01*
X168594525Y-78949826D01*
X168605475Y-78949826D01*
X168813804Y-78931599D01*
X168824599Y-78929696D01*
X169026595Y-78875572D01*
X169036887Y-78871826D01*
X169226416Y-78783447D01*
X169235912Y-78777964D01*
X169277148Y-78749090D01*
X169285523Y-78738612D01*
X169278457Y-78725168D01*
X168612811Y-78059521D01*
X168598868Y-78051908D01*
X168597034Y-78052039D01*
X168590420Y-78056290D01*
X167920820Y-78725891D01*
X167914393Y-78737661D01*
X165333500Y-78737661D01*
X165333500Y-77692975D01*
X167337674Y-77692975D01*
X167355901Y-77901304D01*
X167357804Y-77912099D01*
X167411928Y-78114095D01*
X167415674Y-78124387D01*
X167504054Y-78313917D01*
X167509534Y-78323407D01*
X167538411Y-78364649D01*
X167548887Y-78373023D01*
X167562334Y-78365955D01*
X168227979Y-77700311D01*
X168234356Y-77688632D01*
X168964408Y-77688632D01*
X168964539Y-77690466D01*
X168968790Y-77697080D01*
X169638391Y-78366680D01*
X169650161Y-78373107D01*
X169662176Y-78363811D01*
X169690466Y-78323407D01*
X169695946Y-78313917D01*
X169784326Y-78124387D01*
X169788072Y-78114095D01*
X169842196Y-77912099D01*
X169844099Y-77901304D01*
X169862326Y-77692975D01*
X169862326Y-77682025D01*
X169844099Y-77473696D01*
X169842196Y-77462901D01*
X169788072Y-77260905D01*
X169784326Y-77250613D01*
X169695946Y-77061083D01*
X169690466Y-77051593D01*
X169661589Y-77010351D01*
X169651113Y-77001977D01*
X169637666Y-77009045D01*
X168972021Y-77674689D01*
X168964408Y-77688632D01*
X168234356Y-77688632D01*
X168235592Y-77686368D01*
X168235461Y-77684534D01*
X168231210Y-77677920D01*
X167561609Y-77008320D01*
X167549839Y-77001893D01*
X167537824Y-77011189D01*
X167509534Y-77051593D01*
X167504054Y-77061083D01*
X167415674Y-77250613D01*
X167411928Y-77260905D01*
X167357804Y-77462901D01*
X167355901Y-77473696D01*
X167337674Y-77682025D01*
X167337674Y-77692975D01*
X165333500Y-77692975D01*
X165333500Y-76636387D01*
X167914477Y-76636387D01*
X167921545Y-76649834D01*
X168587189Y-77315479D01*
X168601132Y-77323092D01*
X168602966Y-77322961D01*
X168609580Y-77318710D01*
X169279180Y-76649109D01*
X169285607Y-76637339D01*
X169276313Y-76625325D01*
X169235912Y-76597036D01*
X169226416Y-76591553D01*
X169036887Y-76503174D01*
X169026595Y-76499428D01*
X168824599Y-76445304D01*
X168813804Y-76443401D01*
X168605475Y-76425174D01*
X168594525Y-76425174D01*
X168386196Y-76443401D01*
X168375401Y-76445304D01*
X168173405Y-76499428D01*
X168163113Y-76503174D01*
X167973583Y-76591554D01*
X167964093Y-76597034D01*
X167922851Y-76625911D01*
X167914477Y-76636387D01*
X165333500Y-76636387D01*
X165333500Y-66808623D01*
X165333502Y-66807853D01*
X165333800Y-66759102D01*
X165333976Y-66730279D01*
X165325850Y-66701847D01*
X165322272Y-66685085D01*
X165318080Y-66655813D01*
X165307451Y-66632436D01*
X165301004Y-66614913D01*
X165296416Y-66598862D01*
X165293949Y-66590229D01*
X165289156Y-66582632D01*
X165278170Y-66565220D01*
X165270030Y-66550135D01*
X165267382Y-66544311D01*
X165257792Y-66523218D01*
X165241030Y-66503765D01*
X165229927Y-66488761D01*
X165216224Y-66467042D01*
X165209499Y-66461103D01*
X165209496Y-66461099D01*
X165194062Y-66447468D01*
X165182018Y-66435276D01*
X165168573Y-66419673D01*
X165168570Y-66419671D01*
X165162713Y-66412873D01*
X165141165Y-66398906D01*
X165126291Y-66387615D01*
X165113783Y-66376569D01*
X165113782Y-66376568D01*
X165107049Y-66370622D01*
X165080287Y-66358057D01*
X165065309Y-66349737D01*
X165048017Y-66338529D01*
X165048012Y-66338527D01*
X165040485Y-66333648D01*
X165031892Y-66331078D01*
X165031887Y-66331076D01*
X165015880Y-66326289D01*
X164998436Y-66319628D01*
X164983324Y-66312533D01*
X164983322Y-66312532D01*
X164975200Y-66308719D01*
X164966333Y-66307338D01*
X164966332Y-66307338D01*
X164956690Y-66305837D01*
X164945983Y-66304170D01*
X164929268Y-66300387D01*
X164909534Y-66294485D01*
X164909528Y-66294484D01*
X164900934Y-66291914D01*
X164891963Y-66291859D01*
X164891962Y-66291859D01*
X164881903Y-66291798D01*
X164866494Y-66291704D01*
X164865711Y-66291671D01*
X164864614Y-66291500D01*
X164833623Y-66291500D01*
X164832853Y-66291498D01*
X164759215Y-66291048D01*
X164759214Y-66291048D01*
X164755279Y-66291024D01*
X164753935Y-66291408D01*
X164752590Y-66291500D01*
X164644624Y-66291500D01*
X164576503Y-66271498D01*
X164530010Y-66217842D01*
X164519906Y-66147568D01*
X164549400Y-66082988D01*
X164555451Y-66076482D01*
X164568739Y-66063171D01*
X164577751Y-66051760D01*
X164662816Y-65913757D01*
X164668963Y-65900576D01*
X164720138Y-65746290D01*
X164723005Y-65732914D01*
X164732672Y-65638562D01*
X164733000Y-65632146D01*
X164733000Y-65519615D01*
X164728525Y-65504376D01*
X164727135Y-65503171D01*
X164719452Y-65501500D01*
X162644374Y-65501500D01*
X162626986Y-65504000D01*
X161372000Y-65504000D01*
X161303879Y-65483998D01*
X161257386Y-65430342D01*
X161246000Y-65378000D01*
X161246000Y-65122000D01*
X161266002Y-65053879D01*
X161319658Y-65007386D01*
X161372000Y-64996000D01*
X162218126Y-64996000D01*
X162235514Y-64993500D01*
X164714884Y-64993500D01*
X164730123Y-64989025D01*
X164731328Y-64987635D01*
X164732999Y-64979952D01*
X164732999Y-64859638D01*
X164734241Y-64859638D01*
X164749550Y-64795437D01*
X164800740Y-64746243D01*
X164870400Y-64732534D01*
X164936414Y-64758662D01*
X164948008Y-64768912D01*
X165721937Y-65542842D01*
X166479595Y-66300500D01*
X166513621Y-66362812D01*
X166516500Y-66389595D01*
X166516500Y-72658733D01*
X166515973Y-72669916D01*
X166514298Y-72677409D01*
X166514547Y-72685335D01*
X166514547Y-72685336D01*
X166516438Y-72745486D01*
X166516500Y-72749445D01*
X166516500Y-72777356D01*
X166516997Y-72781290D01*
X166516997Y-72781291D01*
X166517005Y-72781356D01*
X166517938Y-72793193D01*
X166519327Y-72837389D01*
X166522969Y-72849924D01*
X166524978Y-72856839D01*
X166528987Y-72876200D01*
X166531526Y-72896297D01*
X166534445Y-72903668D01*
X166534445Y-72903670D01*
X166547804Y-72937412D01*
X166551649Y-72948642D01*
X166563982Y-72991093D01*
X166568015Y-72997912D01*
X166568017Y-72997917D01*
X166574293Y-73008528D01*
X166582988Y-73026276D01*
X166590448Y-73045117D01*
X166595110Y-73051533D01*
X166595110Y-73051534D01*
X166616436Y-73080887D01*
X166622952Y-73090807D01*
X166645458Y-73128862D01*
X166659779Y-73143183D01*
X166672619Y-73158216D01*
X166684528Y-73174607D01*
X166690634Y-73179658D01*
X166718605Y-73202798D01*
X166727384Y-73210788D01*
X167331672Y-73815076D01*
X167365698Y-73877388D01*
X167364284Y-73936781D01*
X167357309Y-73962812D01*
X167357308Y-73962819D01*
X167355885Y-73968129D01*
X167336693Y-74187500D01*
X167355885Y-74406871D01*
X167412880Y-74619576D01*
X167456415Y-74712938D01*
X167503618Y-74814166D01*
X167503621Y-74814171D01*
X167505944Y-74819153D01*
X167509100Y-74823660D01*
X167509101Y-74823662D01*
X167569676Y-74910171D01*
X167632251Y-74999538D01*
X167787962Y-75155249D01*
X167792471Y-75158406D01*
X167792473Y-75158408D01*
X167809607Y-75170405D01*
X167968346Y-75281556D01*
X168167924Y-75374620D01*
X168380629Y-75431615D01*
X168600000Y-75450807D01*
X168819371Y-75431615D01*
X169032076Y-75374620D01*
X169231654Y-75281556D01*
X169390393Y-75170405D01*
X169407527Y-75158408D01*
X169407529Y-75158406D01*
X169412038Y-75155249D01*
X169567749Y-74999538D01*
X169630325Y-74910171D01*
X169690899Y-74823662D01*
X169690900Y-74823660D01*
X169694056Y-74819153D01*
X169696379Y-74814171D01*
X169696382Y-74814166D01*
X169743585Y-74712938D01*
X169787120Y-74619576D01*
X169844115Y-74406871D01*
X169863307Y-74187500D01*
X169844115Y-73968129D01*
X169787120Y-73755424D01*
X169706684Y-73582928D01*
X169696382Y-73560834D01*
X169696379Y-73560829D01*
X169694056Y-73555847D01*
X169681867Y-73538439D01*
X169570908Y-73379973D01*
X169570906Y-73379970D01*
X169567749Y-73375462D01*
X169412038Y-73219751D01*
X169406739Y-73216040D01*
X169272486Y-73122035D01*
X169231654Y-73093444D01*
X169032076Y-73000380D01*
X168819371Y-72943385D01*
X168600000Y-72924193D01*
X168380629Y-72943385D01*
X168375314Y-72944809D01*
X168375315Y-72944809D01*
X168349283Y-72951784D01*
X168278306Y-72950094D01*
X168227577Y-72919172D01*
X167820405Y-72512000D01*
X167786379Y-72449688D01*
X167783500Y-72422905D01*
X167783500Y-71892520D01*
X167803502Y-71824399D01*
X167857158Y-71777906D01*
X167927432Y-71767802D01*
X167968182Y-71781907D01*
X167968346Y-71781556D01*
X168167924Y-71874620D01*
X168380629Y-71931615D01*
X168600000Y-71950807D01*
X168819371Y-71931615D01*
X169032076Y-71874620D01*
X169231654Y-71781556D01*
X169344104Y-71702817D01*
X169407527Y-71658408D01*
X169407529Y-71658406D01*
X169412038Y-71655249D01*
X169567749Y-71499538D01*
X169588081Y-71470502D01*
X169690899Y-71323662D01*
X169690900Y-71323660D01*
X169694056Y-71319153D01*
X169696379Y-71314171D01*
X169696382Y-71314166D01*
X169759027Y-71179821D01*
X169787120Y-71119576D01*
X169844115Y-70906871D01*
X169863307Y-70687500D01*
X169844115Y-70468129D01*
X169787120Y-70255424D01*
X169724278Y-70120659D01*
X169696382Y-70060834D01*
X169696379Y-70060829D01*
X169694056Y-70055847D01*
X169658673Y-70005315D01*
X169570908Y-69879973D01*
X169570906Y-69879970D01*
X169567749Y-69875462D01*
X169412038Y-69719751D01*
X169407530Y-69716594D01*
X169407527Y-69716592D01*
X169335227Y-69665967D01*
X169287228Y-69632358D01*
X169242901Y-69576902D01*
X169233500Y-69529146D01*
X169233500Y-66678768D01*
X169234027Y-66667585D01*
X169235702Y-66660092D01*
X169233562Y-66592001D01*
X169233500Y-66588044D01*
X169233500Y-66560144D01*
X169232996Y-66556153D01*
X169232063Y-66544311D01*
X169231187Y-66516416D01*
X169230674Y-66500111D01*
X169228462Y-66492497D01*
X169228461Y-66492492D01*
X169225023Y-66480659D01*
X169221012Y-66461295D01*
X169219467Y-66449064D01*
X169218474Y-66441203D01*
X169215557Y-66433836D01*
X169215556Y-66433831D01*
X169202198Y-66400092D01*
X169198354Y-66388865D01*
X169188230Y-66354022D01*
X169186018Y-66346407D01*
X169175707Y-66328972D01*
X169167012Y-66311224D01*
X169159552Y-66292383D01*
X169133564Y-66256613D01*
X169127048Y-66246693D01*
X169108580Y-66215465D01*
X169108578Y-66215462D01*
X169104542Y-66208638D01*
X169090221Y-66194317D01*
X169077380Y-66179283D01*
X169070131Y-66169306D01*
X169065472Y-66162893D01*
X169031395Y-66134702D01*
X169022616Y-66126712D01*
X164762639Y-61866735D01*
X164728613Y-61804423D01*
X164726390Y-61764798D01*
X164733172Y-61698601D01*
X164733500Y-61695400D01*
X164733500Y-60919600D01*
X164733163Y-60916350D01*
X164723238Y-60820692D01*
X164723237Y-60820688D01*
X164722526Y-60813834D01*
X164717646Y-60799205D01*
X164668868Y-60653002D01*
X164666550Y-60646054D01*
X164573478Y-60495652D01*
X164448303Y-60370695D01*
X164443765Y-60367898D01*
X164403176Y-60310647D01*
X164399946Y-60239724D01*
X164435572Y-60178313D01*
X164444068Y-60170938D01*
X164454207Y-60162902D01*
X164568739Y-60048171D01*
X164577751Y-60036760D01*
X164662816Y-59898757D01*
X164668963Y-59885576D01*
X164720138Y-59731290D01*
X164723005Y-59717914D01*
X164732672Y-59623562D01*
X164733000Y-59617146D01*
X164733000Y-59504615D01*
X164728525Y-59489376D01*
X164727135Y-59488171D01*
X164719452Y-59486500D01*
X163372000Y-59486500D01*
X163303879Y-59466498D01*
X163257386Y-59412842D01*
X163246000Y-59360500D01*
X163246000Y-58155116D01*
X163241525Y-58139877D01*
X163240135Y-58138672D01*
X163232452Y-58137001D01*
X162977905Y-58137001D01*
X162971386Y-58137338D01*
X162875794Y-58147257D01*
X162862400Y-58150149D01*
X162708216Y-58201588D01*
X162695038Y-58207761D01*
X162557193Y-58293063D01*
X162545792Y-58302099D01*
X162431261Y-58416829D01*
X162422249Y-58428240D01*
X162337184Y-58566243D01*
X162331037Y-58579424D01*
X162279862Y-58733710D01*
X162276994Y-58747088D01*
X162276234Y-58754511D01*
X162249395Y-58820239D01*
X162191282Y-58861023D01*
X162120344Y-58863914D01*
X162086753Y-58850128D01*
X162070224Y-58840353D01*
X162055790Y-58834107D01*
X161909935Y-58791731D01*
X161897333Y-58789430D01*
X161868916Y-58787193D01*
X161863986Y-58787000D01*
X161247115Y-58787000D01*
X161231876Y-58791475D01*
X161230671Y-58792865D01*
X161229000Y-58800548D01*
X161229000Y-59723000D01*
X161208998Y-59791121D01*
X161155342Y-59837614D01*
X161103000Y-59849000D01*
X159513122Y-59849000D01*
X159499591Y-59852973D01*
X159498456Y-59860871D01*
X159539107Y-60000790D01*
X159545352Y-60015221D01*
X159621911Y-60144677D01*
X159627871Y-60152360D01*
X159653820Y-60218444D01*
X159639922Y-60288067D01*
X159629579Y-60304161D01*
X159625547Y-60308193D01*
X159540855Y-60451399D01*
X159538644Y-60459010D01*
X159538643Y-60459012D01*
X159526189Y-60501880D01*
X159494438Y-60611169D01*
X159493934Y-60617574D01*
X159493933Y-60617579D01*
X159491782Y-60644915D01*
X159491500Y-60648498D01*
X159491500Y-61081502D01*
X159494438Y-61118831D01*
X159540855Y-61278601D01*
X159625547Y-61421807D01*
X159628229Y-61424489D01*
X159653502Y-61488861D01*
X159639600Y-61558484D01*
X159629428Y-61574312D01*
X159625547Y-61578193D01*
X159540855Y-61721399D01*
X159538644Y-61729010D01*
X159538643Y-61729012D01*
X159527971Y-61765745D01*
X159494438Y-61881169D01*
X159493934Y-61887574D01*
X159493933Y-61887579D01*
X159492014Y-61911966D01*
X159491500Y-61918498D01*
X159491500Y-62351502D01*
X159491693Y-62353950D01*
X159491693Y-62353958D01*
X159493785Y-62380533D01*
X159494438Y-62388831D01*
X159521917Y-62483414D01*
X159533669Y-62523865D01*
X159540855Y-62548601D01*
X159625547Y-62691807D01*
X159628229Y-62694489D01*
X159653502Y-62758861D01*
X159639600Y-62828484D01*
X159629428Y-62844312D01*
X159625547Y-62848193D01*
X159540855Y-62991399D01*
X159494438Y-63151169D01*
X159491500Y-63188498D01*
X159491500Y-63621502D01*
X159491693Y-63623950D01*
X159491693Y-63623958D01*
X159492320Y-63631917D01*
X159494438Y-63658831D01*
X159540855Y-63818601D01*
X159545446Y-63826365D01*
X159545657Y-63827196D01*
X159548038Y-63832697D01*
X159547150Y-63833081D01*
X159562904Y-63895180D01*
X159540386Y-63962511D01*
X159485040Y-64006979D01*
X159436991Y-64016500D01*
X159037100Y-64016500D01*
X159033854Y-64016837D01*
X159033850Y-64016837D01*
X158938192Y-64026762D01*
X158938188Y-64026763D01*
X158931334Y-64027474D01*
X158924798Y-64029655D01*
X158924796Y-64029655D01*
X158853244Y-64053527D01*
X158763554Y-64083450D01*
X158613152Y-64176522D01*
X158607979Y-64181704D01*
X158607974Y-64181708D01*
X158585205Y-64204517D01*
X158522923Y-64238597D01*
X158496032Y-64241500D01*
X158150446Y-64241500D01*
X158082325Y-64221498D01*
X158035832Y-64167842D01*
X158025728Y-64097568D01*
X158055222Y-64032988D01*
X158061351Y-64026405D01*
X158076134Y-64011622D01*
X158078612Y-64008427D01*
X158086318Y-63999405D01*
X158099464Y-63985406D01*
X158116586Y-63967173D01*
X158126346Y-63949420D01*
X158137199Y-63932897D01*
X158144753Y-63923158D01*
X158149613Y-63916893D01*
X158167176Y-63876309D01*
X158172383Y-63865679D01*
X158193695Y-63826912D01*
X158195666Y-63819235D01*
X158195668Y-63819230D01*
X158198732Y-63807294D01*
X158205138Y-63788582D01*
X158210033Y-63777271D01*
X158213181Y-63769997D01*
X158214421Y-63762169D01*
X158214423Y-63762162D01*
X158220099Y-63726328D01*
X158222505Y-63714708D01*
X158231528Y-63679563D01*
X158231528Y-63679562D01*
X158233500Y-63671882D01*
X158233500Y-63651628D01*
X158235051Y-63631917D01*
X158236980Y-63619738D01*
X158238220Y-63611909D01*
X158234059Y-63567890D01*
X158233500Y-63556033D01*
X158233500Y-60936793D01*
X158235732Y-60913184D01*
X158235790Y-60912881D01*
X158235790Y-60912877D01*
X158237275Y-60905094D01*
X158233749Y-60849049D01*
X158233500Y-60841138D01*
X158233500Y-59981345D01*
X158253502Y-59913224D01*
X158270405Y-59892250D01*
X159167250Y-58995405D01*
X159229562Y-58961379D01*
X159256345Y-58958500D01*
X159452357Y-58958500D01*
X159520478Y-58978502D01*
X159566971Y-59032158D01*
X159577075Y-59102432D01*
X159560811Y-59148639D01*
X159545352Y-59174779D01*
X159539107Y-59189210D01*
X159500061Y-59323605D01*
X159500101Y-59337706D01*
X159507370Y-59341000D01*
X160702885Y-59341000D01*
X160718124Y-59336525D01*
X160719329Y-59335135D01*
X160721000Y-59327452D01*
X160721000Y-58805116D01*
X160716525Y-58789877D01*
X160715135Y-58788672D01*
X160707452Y-58787001D01*
X160354903Y-58787001D01*
X160286782Y-58766999D01*
X160240289Y-58713343D01*
X160230185Y-58643069D01*
X160247643Y-58594885D01*
X160288275Y-58528968D01*
X160288276Y-58528966D01*
X160292115Y-58522738D01*
X160335477Y-58392006D01*
X160345632Y-58361389D01*
X160345632Y-58361387D01*
X160347797Y-58354861D01*
X160349978Y-58333580D01*
X160355020Y-58284366D01*
X160358500Y-58250400D01*
X160358500Y-57249600D01*
X160352439Y-57191183D01*
X160348238Y-57150692D01*
X160348237Y-57150688D01*
X160347526Y-57143834D01*
X160338855Y-57117842D01*
X160293868Y-56983002D01*
X160291550Y-56976054D01*
X160198478Y-56825652D01*
X160073303Y-56700695D01*
X160067072Y-56696854D01*
X159928968Y-56611725D01*
X159928966Y-56611724D01*
X159922738Y-56607885D01*
X159803356Y-56568288D01*
X159761389Y-56554368D01*
X159761387Y-56554368D01*
X159754861Y-56552203D01*
X159748025Y-56551503D01*
X159748022Y-56551502D01*
X159704969Y-56547091D01*
X159650400Y-56541500D01*
X158849600Y-56541500D01*
X158846354Y-56541837D01*
X158846350Y-56541837D01*
X158750692Y-56551762D01*
X158750688Y-56551763D01*
X158743834Y-56552474D01*
X158737298Y-56554655D01*
X158737296Y-56554655D01*
X158640860Y-56586829D01*
X158576054Y-56608450D01*
X158425652Y-56701522D01*
X158420479Y-56706704D01*
X158338862Y-56788463D01*
X158276579Y-56822542D01*
X158205759Y-56817539D01*
X158160671Y-56788618D01*
X158078171Y-56706261D01*
X158066760Y-56697249D01*
X157928757Y-56612184D01*
X157915576Y-56606037D01*
X157761290Y-56554862D01*
X157747914Y-56551995D01*
X157653562Y-56542328D01*
X157647145Y-56542000D01*
X157522115Y-56542000D01*
X157506876Y-56546475D01*
X157505671Y-56547865D01*
X157504000Y-56555548D01*
X157504000Y-57878000D01*
X157483998Y-57946121D01*
X157430342Y-57992614D01*
X157378000Y-58004000D01*
X156160116Y-58004000D01*
X156144877Y-58008475D01*
X156143672Y-58009865D01*
X156142001Y-58017548D01*
X156142001Y-58247095D01*
X156142338Y-58253614D01*
X156152257Y-58349206D01*
X156155149Y-58362600D01*
X156206588Y-58516784D01*
X156212762Y-58529963D01*
X156252511Y-58594197D01*
X156271349Y-58662649D01*
X156250188Y-58730419D01*
X156195747Y-58775990D01*
X156145367Y-58786500D01*
X155133498Y-58786500D01*
X155131050Y-58786693D01*
X155131042Y-58786693D01*
X155102579Y-58788933D01*
X155102574Y-58788934D01*
X155096169Y-58789438D01*
X154965185Y-58827492D01*
X154894188Y-58827289D01*
X154867031Y-58815613D01*
X154862090Y-58812760D01*
X154856752Y-58808882D01*
X154850726Y-58806199D01*
X154688319Y-58733891D01*
X154688318Y-58733891D01*
X154682288Y-58731206D01*
X154588888Y-58711353D01*
X154501944Y-58692872D01*
X154501939Y-58692872D01*
X154495487Y-58691500D01*
X154304513Y-58691500D01*
X154298061Y-58692872D01*
X154298056Y-58692872D01*
X154211112Y-58711353D01*
X154117712Y-58731206D01*
X154111682Y-58733891D01*
X154111681Y-58733891D01*
X153949278Y-58806197D01*
X153949276Y-58806198D01*
X153943248Y-58808882D01*
X153937907Y-58812762D01*
X153937906Y-58812763D01*
X153908529Y-58834107D01*
X153788747Y-58921134D01*
X153784326Y-58926044D01*
X153784325Y-58926045D01*
X153688781Y-59032158D01*
X153660960Y-59063056D01*
X153565473Y-59228444D01*
X153506458Y-59410072D01*
X153505768Y-59416633D01*
X153505768Y-59416635D01*
X153491816Y-59549385D01*
X153486496Y-59600000D01*
X153487186Y-59606565D01*
X153503718Y-59763855D01*
X153506458Y-59789928D01*
X153565473Y-59971556D01*
X153660960Y-60136944D01*
X153665378Y-60141851D01*
X153665379Y-60141852D01*
X153746508Y-60231955D01*
X153788747Y-60278866D01*
X153853854Y-60326169D01*
X153931753Y-60382766D01*
X153943248Y-60391118D01*
X153949276Y-60393802D01*
X153949278Y-60393803D01*
X154111681Y-60466109D01*
X154117712Y-60468794D01*
X154211112Y-60488647D01*
X154298056Y-60507128D01*
X154298061Y-60507128D01*
X154304513Y-60508500D01*
X154416212Y-60508500D01*
X154484333Y-60528502D01*
X154530826Y-60582158D01*
X154541673Y-60643548D01*
X154541791Y-60643553D01*
X154541770Y-60644095D01*
X154541823Y-60644396D01*
X154541500Y-60648498D01*
X154541500Y-61081502D01*
X154544438Y-61118831D01*
X154590855Y-61278601D01*
X154675547Y-61421807D01*
X154678487Y-61424747D01*
X154703820Y-61489266D01*
X154689921Y-61558889D01*
X154677874Y-61577636D01*
X154671910Y-61585324D01*
X154595352Y-61714779D01*
X154589107Y-61729210D01*
X154550061Y-61863605D01*
X154550101Y-61877706D01*
X154557370Y-61881000D01*
X156153000Y-61881000D01*
X156221121Y-61901002D01*
X156267614Y-61954658D01*
X156279000Y-62007000D01*
X156279000Y-62263000D01*
X156258998Y-62331121D01*
X156205342Y-62377614D01*
X156153000Y-62389000D01*
X155820025Y-62389000D01*
X155798288Y-62385906D01*
X155798144Y-62386818D01*
X155754476Y-62379901D01*
X155742856Y-62377495D01*
X155707711Y-62368472D01*
X155707710Y-62368472D01*
X155700030Y-62366500D01*
X155679776Y-62366500D01*
X155660065Y-62364949D01*
X155647886Y-62363020D01*
X155640057Y-62361780D01*
X155610786Y-62364547D01*
X155596039Y-62365941D01*
X155584181Y-62366500D01*
X153978768Y-62366500D01*
X153967585Y-62365973D01*
X153960092Y-62364298D01*
X153952166Y-62364547D01*
X153952165Y-62364547D01*
X153892002Y-62366438D01*
X153888044Y-62366500D01*
X153860144Y-62366500D01*
X153856154Y-62367004D01*
X153844320Y-62367936D01*
X153800111Y-62369326D01*
X153792495Y-62371539D01*
X153792493Y-62371539D01*
X153780652Y-62374979D01*
X153761293Y-62378988D01*
X153759983Y-62379154D01*
X153741203Y-62381526D01*
X153733837Y-62384442D01*
X153733831Y-62384444D01*
X153700098Y-62397800D01*
X153688868Y-62401645D01*
X153665445Y-62408450D01*
X153646407Y-62413981D01*
X153639584Y-62418016D01*
X153628966Y-62424295D01*
X153611213Y-62432992D01*
X153603568Y-62436019D01*
X153592383Y-62440448D01*
X153585968Y-62445109D01*
X153556612Y-62466437D01*
X153546695Y-62472951D01*
X153508638Y-62495458D01*
X153494317Y-62509779D01*
X153479284Y-62522619D01*
X153462893Y-62534528D01*
X153451251Y-62548601D01*
X153434702Y-62568605D01*
X153426712Y-62577384D01*
X153373595Y-62630501D01*
X153311283Y-62664527D01*
X153240468Y-62659462D01*
X153183632Y-62616915D01*
X153158821Y-62550395D01*
X153158500Y-62541406D01*
X153158500Y-59951866D01*
X153151745Y-59889684D01*
X153100615Y-59753295D01*
X153013261Y-59636739D01*
X152896705Y-59549385D01*
X152760316Y-59498255D01*
X152698134Y-59491500D01*
X152201866Y-59491500D01*
X152139684Y-59498255D01*
X152003295Y-59549385D01*
X151944519Y-59593435D01*
X151925148Y-59607953D01*
X151858642Y-59632801D01*
X151789259Y-59617748D01*
X151774018Y-59607953D01*
X151703648Y-59555214D01*
X151688054Y-59546676D01*
X151567606Y-59501522D01*
X151552351Y-59497895D01*
X151501486Y-59492369D01*
X151494672Y-59492000D01*
X151468115Y-59492000D01*
X151452876Y-59496475D01*
X151451671Y-59497865D01*
X151450000Y-59505548D01*
X151450000Y-63689884D01*
X151454475Y-63705123D01*
X151455865Y-63706328D01*
X151463548Y-63707999D01*
X151494669Y-63707999D01*
X151501490Y-63707629D01*
X151552352Y-63702105D01*
X151567603Y-63698479D01*
X151646270Y-63668988D01*
X151717077Y-63663805D01*
X151779446Y-63697726D01*
X151813576Y-63759981D01*
X151816500Y-63786970D01*
X151816500Y-63985406D01*
X151796498Y-64053527D01*
X151779599Y-64074497D01*
X150898593Y-64955502D01*
X150836283Y-64989526D01*
X150765467Y-64984461D01*
X150708632Y-64941914D01*
X150683821Y-64875394D01*
X150683500Y-64866405D01*
X150683500Y-63786970D01*
X150703502Y-63718849D01*
X150757158Y-63672356D01*
X150827432Y-63662252D01*
X150853730Y-63668988D01*
X150932394Y-63698478D01*
X150947649Y-63702105D01*
X150998514Y-63707631D01*
X151005328Y-63708000D01*
X151031885Y-63708000D01*
X151047124Y-63703525D01*
X151048329Y-63702135D01*
X151050000Y-63694452D01*
X151050000Y-59510116D01*
X151045525Y-59494877D01*
X151044135Y-59493672D01*
X151036452Y-59492001D01*
X151005331Y-59492001D01*
X150998510Y-59492371D01*
X150947648Y-59497895D01*
X150932396Y-59501521D01*
X150811946Y-59546676D01*
X150796352Y-59555214D01*
X150725982Y-59607953D01*
X150659476Y-59632801D01*
X150590093Y-59617748D01*
X150574852Y-59607953D01*
X150555481Y-59593435D01*
X150496705Y-59549385D01*
X150360316Y-59498255D01*
X150298134Y-59491500D01*
X149801866Y-59491500D01*
X149739684Y-59498255D01*
X149603295Y-59549385D01*
X149486739Y-59636739D01*
X149399385Y-59753295D01*
X149348255Y-59889684D01*
X149341500Y-59951866D01*
X149341500Y-60258048D01*
X149321498Y-60326169D01*
X149267842Y-60372662D01*
X149197568Y-60382766D01*
X149149385Y-60365308D01*
X149103762Y-60337186D01*
X149090576Y-60331037D01*
X148936290Y-60279862D01*
X148922914Y-60276995D01*
X148828562Y-60267328D01*
X148822145Y-60267000D01*
X148572115Y-60267000D01*
X148556876Y-60271475D01*
X148555671Y-60272865D01*
X148554000Y-60280548D01*
X148554000Y-61490500D01*
X148533998Y-61558621D01*
X148480342Y-61605114D01*
X148428000Y-61616500D01*
X148172000Y-61616500D01*
X148103879Y-61596498D01*
X148057386Y-61542842D01*
X148046000Y-61490500D01*
X148046000Y-60285116D01*
X148041525Y-60269877D01*
X148040135Y-60268672D01*
X148027764Y-60265981D01*
X147965452Y-60231955D01*
X147931427Y-60169643D01*
X147936491Y-60098828D01*
X147965452Y-60053765D01*
X149523812Y-58495405D01*
X149586124Y-58461379D01*
X149612907Y-58458500D01*
X153096233Y-58458500D01*
X153107416Y-58459027D01*
X153114909Y-58460702D01*
X153122835Y-58460453D01*
X153122836Y-58460453D01*
X153182986Y-58458562D01*
X153186945Y-58458500D01*
X153214856Y-58458500D01*
X153218791Y-58458003D01*
X153218856Y-58457995D01*
X153230693Y-58457062D01*
X153262951Y-58456048D01*
X153266970Y-58455922D01*
X153274889Y-58455673D01*
X153294343Y-58450021D01*
X153313700Y-58446013D01*
X153325930Y-58444468D01*
X153325931Y-58444468D01*
X153333797Y-58443474D01*
X153341168Y-58440555D01*
X153341170Y-58440555D01*
X153374912Y-58427196D01*
X153386142Y-58423351D01*
X153420983Y-58413229D01*
X153420984Y-58413229D01*
X153428593Y-58411018D01*
X153435412Y-58406985D01*
X153435417Y-58406983D01*
X153446028Y-58400707D01*
X153463776Y-58392012D01*
X153482617Y-58384552D01*
X153518387Y-58358564D01*
X153528307Y-58352048D01*
X153559535Y-58333580D01*
X153559538Y-58333578D01*
X153566362Y-58329542D01*
X153580683Y-58315221D01*
X153595717Y-58302380D01*
X153605694Y-58295131D01*
X153612107Y-58290472D01*
X153640298Y-58256395D01*
X153648288Y-58247616D01*
X153921540Y-57974364D01*
X153983852Y-57940338D01*
X154040049Y-57940940D01*
X154258476Y-57993380D01*
X154258482Y-57993381D01*
X154263289Y-57994535D01*
X154500000Y-58013165D01*
X154736711Y-57994535D01*
X154741518Y-57993381D01*
X154741524Y-57993380D01*
X154887391Y-57958360D01*
X154967594Y-57939105D01*
X155019703Y-57917521D01*
X155182389Y-57850135D01*
X155182393Y-57850133D01*
X155186963Y-57848240D01*
X155191183Y-57845654D01*
X155385202Y-57726759D01*
X155385208Y-57726755D01*
X155389416Y-57724176D01*
X155569969Y-57569969D01*
X155575890Y-57563037D01*
X155602694Y-57531653D01*
X155648616Y-57477885D01*
X156142000Y-57477885D01*
X156146475Y-57493124D01*
X156147865Y-57494329D01*
X156155548Y-57496000D01*
X156977885Y-57496000D01*
X156993124Y-57491525D01*
X156994329Y-57490135D01*
X156996000Y-57482452D01*
X156996000Y-56560116D01*
X156991525Y-56544877D01*
X156990135Y-56543672D01*
X156982452Y-56542001D01*
X156852905Y-56542001D01*
X156846386Y-56542338D01*
X156750794Y-56552257D01*
X156737400Y-56555149D01*
X156583216Y-56606588D01*
X156570038Y-56612761D01*
X156432193Y-56698063D01*
X156420792Y-56707099D01*
X156306261Y-56821829D01*
X156297249Y-56833240D01*
X156212184Y-56971243D01*
X156206037Y-56984424D01*
X156154862Y-57138710D01*
X156151995Y-57152086D01*
X156142328Y-57246438D01*
X156142000Y-57252855D01*
X156142000Y-57477885D01*
X155648616Y-57477885D01*
X155724176Y-57389416D01*
X155726755Y-57385208D01*
X155726759Y-57385202D01*
X155845654Y-57191183D01*
X155848240Y-57186963D01*
X155851112Y-57180031D01*
X155937211Y-56972167D01*
X155937212Y-56972165D01*
X155939105Y-56967594D01*
X155959906Y-56880950D01*
X155993380Y-56741524D01*
X155993381Y-56741518D01*
X155994535Y-56736711D01*
X156013165Y-56500000D01*
X155994535Y-56263289D01*
X155989756Y-56243380D01*
X155953932Y-56094166D01*
X155939105Y-56032406D01*
X155921673Y-55990320D01*
X155850135Y-55817611D01*
X155850133Y-55817607D01*
X155848240Y-55813037D01*
X155744148Y-55643175D01*
X155726759Y-55614798D01*
X155726755Y-55614792D01*
X155724176Y-55610584D01*
X155579302Y-55440958D01*
X155573177Y-55433787D01*
X155569969Y-55430031D01*
X155389416Y-55275824D01*
X155385208Y-55273245D01*
X155385202Y-55273241D01*
X155191183Y-55154346D01*
X155186963Y-55151760D01*
X155182393Y-55149867D01*
X155182389Y-55149865D01*
X154972167Y-55062789D01*
X154972165Y-55062788D01*
X154967594Y-55060895D01*
X154887391Y-55041640D01*
X154741524Y-55006620D01*
X154741518Y-55006619D01*
X154736711Y-55005465D01*
X154500000Y-54986835D01*
X154263289Y-55005465D01*
X154258482Y-55006619D01*
X154258476Y-55006620D01*
X154092896Y-55046373D01*
X154040049Y-55059060D01*
X153969142Y-55055513D01*
X153921541Y-55025636D01*
X152645405Y-53749500D01*
X152611379Y-53687188D01*
X152608500Y-53660405D01*
X152608500Y-53399600D01*
X152603105Y-53347605D01*
X152598238Y-53300692D01*
X152598237Y-53300688D01*
X152597526Y-53293834D01*
X152581794Y-53246678D01*
X152543868Y-53133002D01*
X152541550Y-53126054D01*
X152448478Y-52975652D01*
X152323303Y-52850695D01*
X152317072Y-52846854D01*
X152178968Y-52761725D01*
X152178966Y-52761724D01*
X152172738Y-52757885D01*
X152012254Y-52704655D01*
X152011389Y-52704368D01*
X152011387Y-52704368D01*
X152004861Y-52702203D01*
X151998025Y-52701503D01*
X151998022Y-52701502D01*
X151954969Y-52697091D01*
X151900400Y-52691500D01*
X151099600Y-52691500D01*
X151096354Y-52691837D01*
X151096350Y-52691837D01*
X151000692Y-52701762D01*
X151000688Y-52701763D01*
X150993834Y-52702474D01*
X150987298Y-52704655D01*
X150987296Y-52704655D01*
X150959343Y-52713981D01*
X150826054Y-52758450D01*
X150675652Y-52851522D01*
X150670479Y-52856704D01*
X150589216Y-52938109D01*
X150526934Y-52972188D01*
X150456114Y-52967185D01*
X150411025Y-52938264D01*
X150328483Y-52855866D01*
X150323303Y-52850695D01*
X150317072Y-52846854D01*
X150178968Y-52761725D01*
X150178966Y-52761724D01*
X150172738Y-52757885D01*
X150012254Y-52704655D01*
X150011389Y-52704368D01*
X150011387Y-52704368D01*
X150004861Y-52702203D01*
X149998025Y-52701503D01*
X149998022Y-52701502D01*
X149954969Y-52697091D01*
X149900400Y-52691500D01*
X149099600Y-52691500D01*
X149096354Y-52691837D01*
X149096350Y-52691837D01*
X149000692Y-52701762D01*
X149000688Y-52701763D01*
X148993834Y-52702474D01*
X148987298Y-52704655D01*
X148987296Y-52704655D01*
X148959343Y-52713981D01*
X148826054Y-52758450D01*
X148675652Y-52851522D01*
X148550695Y-52976697D01*
X148546855Y-52982927D01*
X148546854Y-52982928D01*
X148468172Y-53110574D01*
X148457885Y-53127262D01*
X148455581Y-53134209D01*
X148415966Y-53253646D01*
X148402203Y-53295139D01*
X148401503Y-53301975D01*
X148401502Y-53301978D01*
X148400346Y-53313266D01*
X148391500Y-53399600D01*
X148391500Y-54400400D01*
X148402474Y-54506166D01*
X148404655Y-54512702D01*
X148404655Y-54512704D01*
X148409861Y-54528307D01*
X148458450Y-54673946D01*
X148551522Y-54824348D01*
X148576484Y-54849266D01*
X148610563Y-54911547D01*
X148605560Y-54982367D01*
X148576561Y-55027534D01*
X146828459Y-56775636D01*
X146766147Y-56809662D01*
X146709951Y-56809060D01*
X146657104Y-56796373D01*
X146491524Y-56756620D01*
X146491518Y-56756619D01*
X146486711Y-56755465D01*
X146250000Y-56736835D01*
X146013289Y-56755465D01*
X146008482Y-56756619D01*
X146008476Y-56756620D01*
X145862609Y-56791640D01*
X145782406Y-56810895D01*
X145777835Y-56812788D01*
X145777833Y-56812789D01*
X145567611Y-56899865D01*
X145567607Y-56899867D01*
X145563037Y-56901760D01*
X145558817Y-56904346D01*
X145364798Y-57023241D01*
X145364792Y-57023245D01*
X145360584Y-57025824D01*
X145180031Y-57180031D01*
X145176823Y-57183787D01*
X145168276Y-57193794D01*
X145025824Y-57360584D01*
X145023245Y-57364792D01*
X145023241Y-57364798D01*
X144942370Y-57496768D01*
X144901760Y-57563037D01*
X144899867Y-57567607D01*
X144899865Y-57567611D01*
X144812789Y-57777833D01*
X144810895Y-57782406D01*
X144809740Y-57787218D01*
X144756621Y-58008475D01*
X144755465Y-58013289D01*
X144736835Y-58250000D01*
X144755465Y-58486711D01*
X144756619Y-58491518D01*
X144756620Y-58491524D01*
X144764114Y-58522738D01*
X144810895Y-58717594D01*
X144812788Y-58722165D01*
X144812789Y-58722167D01*
X144897238Y-58926045D01*
X144901760Y-58936963D01*
X144904346Y-58941183D01*
X145023241Y-59135202D01*
X145023245Y-59135208D01*
X145025824Y-59139416D01*
X145180031Y-59319969D01*
X145360584Y-59474176D01*
X145364792Y-59476755D01*
X145364798Y-59476759D01*
X145555196Y-59593435D01*
X145563037Y-59598240D01*
X145567607Y-59600133D01*
X145567611Y-59600135D01*
X145692687Y-59651943D01*
X145747968Y-59696491D01*
X145770389Y-59763855D01*
X145752831Y-59832646D01*
X145733564Y-59857447D01*
X145207747Y-60383264D01*
X145199461Y-60390804D01*
X145192982Y-60394916D01*
X145187557Y-60400693D01*
X145146357Y-60444567D01*
X145143602Y-60447409D01*
X145123865Y-60467146D01*
X145121385Y-60470343D01*
X145113682Y-60479363D01*
X145083414Y-60511595D01*
X145079595Y-60518541D01*
X145079593Y-60518544D01*
X145073652Y-60529350D01*
X145062801Y-60545869D01*
X145050386Y-60561875D01*
X145047241Y-60569144D01*
X145047238Y-60569148D01*
X145032826Y-60602453D01*
X145027609Y-60613103D01*
X145006305Y-60651856D01*
X145004334Y-60659531D01*
X145004334Y-60659532D01*
X145001267Y-60671478D01*
X144994863Y-60690182D01*
X144986819Y-60708771D01*
X144985580Y-60716594D01*
X144985577Y-60716604D01*
X144979901Y-60752440D01*
X144977495Y-60764060D01*
X144966500Y-60806886D01*
X144966500Y-60827140D01*
X144964949Y-60846850D01*
X144961780Y-60866859D01*
X144964647Y-60897183D01*
X144965941Y-60910877D01*
X144966500Y-60922735D01*
X144966500Y-64066406D01*
X144946498Y-64134527D01*
X144892842Y-64181020D01*
X144822568Y-64191124D01*
X144757988Y-64161630D01*
X144751405Y-64155501D01*
X144172991Y-63577086D01*
X143420405Y-62824500D01*
X143386379Y-62762188D01*
X143383500Y-62735405D01*
X143383500Y-59701566D01*
X143403502Y-59633445D01*
X143443665Y-59594133D01*
X143635202Y-59476759D01*
X143635208Y-59476755D01*
X143639416Y-59474176D01*
X143819969Y-59319969D01*
X143974176Y-59139416D01*
X143976755Y-59135208D01*
X143976759Y-59135202D01*
X144095654Y-58941183D01*
X144098240Y-58936963D01*
X144102763Y-58926045D01*
X144187211Y-58722167D01*
X144187212Y-58722165D01*
X144189105Y-58717594D01*
X144235886Y-58522738D01*
X144243380Y-58491524D01*
X144243381Y-58491518D01*
X144244535Y-58486711D01*
X144263165Y-58250000D01*
X144244535Y-58013289D01*
X144243380Y-58008475D01*
X144190260Y-57787218D01*
X144189105Y-57782406D01*
X144187211Y-57777833D01*
X144100135Y-57567611D01*
X144100133Y-57567607D01*
X144098240Y-57563037D01*
X144057630Y-57496768D01*
X143976759Y-57364798D01*
X143976755Y-57364792D01*
X143974176Y-57360584D01*
X143831724Y-57193794D01*
X143823177Y-57183787D01*
X143819969Y-57180031D01*
X143639416Y-57025824D01*
X143635208Y-57023245D01*
X143635202Y-57023241D01*
X143441183Y-56904346D01*
X143436963Y-56901760D01*
X143432393Y-56899867D01*
X143432389Y-56899865D01*
X143222167Y-56812789D01*
X143222165Y-56812788D01*
X143217594Y-56810895D01*
X143137391Y-56791640D01*
X142991524Y-56756620D01*
X142991518Y-56756619D01*
X142986711Y-56755465D01*
X142750000Y-56736835D01*
X142513289Y-56755465D01*
X142508482Y-56756619D01*
X142508476Y-56756620D01*
X142362609Y-56791640D01*
X142282406Y-56810895D01*
X142277835Y-56812788D01*
X142277833Y-56812789D01*
X142067611Y-56899865D01*
X142067607Y-56899867D01*
X142063037Y-56901760D01*
X142058818Y-56904345D01*
X142058807Y-56904351D01*
X142025335Y-56924863D01*
X141956802Y-56943402D01*
X141889125Y-56921946D01*
X141843792Y-56867307D01*
X141833500Y-56817431D01*
X141833500Y-56614594D01*
X141853502Y-56546473D01*
X141870405Y-56525499D01*
X142171540Y-56224364D01*
X142233852Y-56190338D01*
X142290049Y-56190940D01*
X142508476Y-56243380D01*
X142508482Y-56243381D01*
X142513289Y-56244535D01*
X142750000Y-56263165D01*
X142986711Y-56244535D01*
X142991518Y-56243381D01*
X142991524Y-56243380D01*
X143141302Y-56207421D01*
X143217594Y-56189105D01*
X143222167Y-56187211D01*
X143432389Y-56100135D01*
X143432393Y-56100133D01*
X143436963Y-56098240D01*
X143459283Y-56084562D01*
X143625556Y-55982670D01*
X145382160Y-55982670D01*
X145387887Y-55990320D01*
X145559042Y-56095205D01*
X145567837Y-56099687D01*
X145777988Y-56186734D01*
X145787373Y-56189783D01*
X146008554Y-56242885D01*
X146018301Y-56244428D01*
X146245070Y-56262275D01*
X146254930Y-56262275D01*
X146481699Y-56244428D01*
X146491446Y-56242885D01*
X146712627Y-56189783D01*
X146722012Y-56186734D01*
X146932163Y-56099687D01*
X146940958Y-56095205D01*
X147108445Y-55992568D01*
X147117907Y-55982110D01*
X147114124Y-55973334D01*
X146262812Y-55122022D01*
X146248868Y-55114408D01*
X146247035Y-55114539D01*
X146240420Y-55118790D01*
X145388920Y-55970290D01*
X145382160Y-55982670D01*
X143625556Y-55982670D01*
X143635202Y-55976759D01*
X143635208Y-55976755D01*
X143639416Y-55974176D01*
X143819969Y-55819969D01*
X143825258Y-55813777D01*
X143864828Y-55767446D01*
X143974176Y-55639416D01*
X143976755Y-55635208D01*
X143976759Y-55635202D01*
X144095654Y-55441183D01*
X144098240Y-55436963D01*
X144100229Y-55432163D01*
X144187211Y-55222167D01*
X144187212Y-55222165D01*
X144189105Y-55217594D01*
X144224372Y-55070698D01*
X144243380Y-54991524D01*
X144243381Y-54991518D01*
X144244535Y-54986711D01*
X144262777Y-54754930D01*
X144737725Y-54754930D01*
X144755572Y-54981699D01*
X144757115Y-54991446D01*
X144810217Y-55212627D01*
X144813266Y-55222012D01*
X144900313Y-55432163D01*
X144904795Y-55440958D01*
X145007432Y-55608445D01*
X145017890Y-55617907D01*
X145026666Y-55614124D01*
X145877978Y-54762812D01*
X145884356Y-54751132D01*
X146614408Y-54751132D01*
X146614539Y-54752965D01*
X146618790Y-54759580D01*
X147470290Y-55611080D01*
X147482670Y-55617840D01*
X147490320Y-55612113D01*
X147595205Y-55440958D01*
X147599687Y-55432163D01*
X147686734Y-55222012D01*
X147689783Y-55212627D01*
X147742885Y-54991446D01*
X147744428Y-54981699D01*
X147762275Y-54754930D01*
X147762275Y-54745070D01*
X147744428Y-54518301D01*
X147742885Y-54508554D01*
X147689783Y-54287373D01*
X147686734Y-54277988D01*
X147599687Y-54067837D01*
X147595205Y-54059042D01*
X147492568Y-53891555D01*
X147482110Y-53882093D01*
X147473334Y-53885876D01*
X146622022Y-54737188D01*
X146614408Y-54751132D01*
X145884356Y-54751132D01*
X145885592Y-54748868D01*
X145885461Y-54747035D01*
X145881210Y-54740420D01*
X145029710Y-53888920D01*
X145017330Y-53882160D01*
X145009680Y-53887887D01*
X144904795Y-54059042D01*
X144900313Y-54067837D01*
X144813266Y-54277988D01*
X144810217Y-54287373D01*
X144757115Y-54508554D01*
X144755572Y-54518301D01*
X144737725Y-54745070D01*
X144737725Y-54754930D01*
X144262777Y-54754930D01*
X144263165Y-54750000D01*
X144244535Y-54513289D01*
X144241179Y-54499308D01*
X144190260Y-54287218D01*
X144189105Y-54282406D01*
X144138111Y-54159295D01*
X144100135Y-54067611D01*
X144100133Y-54067607D01*
X144098240Y-54063037D01*
X143997254Y-53898243D01*
X143976759Y-53864798D01*
X143976755Y-53864792D01*
X143974176Y-53860584D01*
X143819969Y-53680031D01*
X143639416Y-53525824D01*
X143635208Y-53523245D01*
X143635202Y-53523241D01*
X143626470Y-53517890D01*
X145382093Y-53517890D01*
X145385876Y-53526666D01*
X146237188Y-54377978D01*
X146251132Y-54385592D01*
X146252965Y-54385461D01*
X146259580Y-54381210D01*
X147111080Y-53529710D01*
X147117840Y-53517330D01*
X147112113Y-53509680D01*
X146940958Y-53404795D01*
X146932163Y-53400313D01*
X146722012Y-53313266D01*
X146712627Y-53310217D01*
X146491446Y-53257115D01*
X146481699Y-53255572D01*
X146254930Y-53237725D01*
X146245070Y-53237725D01*
X146018301Y-53255572D01*
X146008554Y-53257115D01*
X145787373Y-53310217D01*
X145777988Y-53313266D01*
X145567837Y-53400313D01*
X145559042Y-53404795D01*
X145391555Y-53507432D01*
X145382093Y-53517890D01*
X143626470Y-53517890D01*
X143441183Y-53404346D01*
X143436963Y-53401760D01*
X143432393Y-53399867D01*
X143432385Y-53399863D01*
X143306220Y-53347605D01*
X143250938Y-53303057D01*
X143228517Y-53235694D01*
X143246075Y-53166903D01*
X143298037Y-53118524D01*
X143318019Y-53110574D01*
X143841500Y-52952526D01*
X143846583Y-52951107D01*
X144770129Y-52713981D01*
X144775267Y-52712775D01*
X145241634Y-52613645D01*
X145708017Y-52514512D01*
X145713122Y-52513538D01*
X146653395Y-52354502D01*
X146658545Y-52353743D01*
X147141026Y-52292792D01*
X147604561Y-52234234D01*
X147609810Y-52233682D01*
X148311799Y-52174734D01*
X148560014Y-52153891D01*
X148565272Y-52153560D01*
X149517948Y-52113631D01*
X149523225Y-52113520D01*
X150476775Y-52113520D01*
X150482052Y-52113631D01*
G37*
%TD.AperFunction*%
%TA.AperFunction,Conductor*%
G36*
X149780547Y-82821000D02*
G01*
X151128000Y-82821000D01*
X151196121Y-82841002D01*
X151242614Y-82894658D01*
X151254000Y-82947000D01*
X151254000Y-83203000D01*
X151233998Y-83271121D01*
X151180342Y-83317614D01*
X151128000Y-83329000D01*
X149767001Y-83329000D01*
X149767001Y-83328896D01*
X149725746Y-83330369D01*
X149719453Y-83329000D01*
X148372000Y-83329000D01*
X148303879Y-83308998D01*
X148257386Y-83255342D01*
X148246000Y-83203000D01*
X148246000Y-82947000D01*
X148266002Y-82878879D01*
X148319658Y-82832386D01*
X148372000Y-82821000D01*
X149732999Y-82821000D01*
X149732999Y-82821104D01*
X149774254Y-82819631D01*
X149780547Y-82821000D01*
G37*
%TD.AperFunction*%
%TA.AperFunction,Conductor*%
G36*
X133838005Y-80523423D02*
G01*
X133872135Y-80544170D01*
X133880548Y-80546000D01*
X135090500Y-80546000D01*
X135158621Y-80566002D01*
X135205114Y-80619658D01*
X135216500Y-80672000D01*
X135216500Y-80928000D01*
X135196498Y-80996121D01*
X135142842Y-81042614D01*
X135090500Y-81054000D01*
X133885116Y-81054000D01*
X133869877Y-81058475D01*
X133868672Y-81059865D01*
X133867001Y-81067548D01*
X133867001Y-81322095D01*
X133867338Y-81328614D01*
X133877257Y-81424206D01*
X133880149Y-81437600D01*
X133931588Y-81591784D01*
X133937761Y-81604962D01*
X134023063Y-81742807D01*
X134032099Y-81754209D01*
X134063485Y-81785540D01*
X134097563Y-81847823D01*
X134092560Y-81918643D01*
X134063641Y-81963728D01*
X134056277Y-81971105D01*
X134050695Y-81976697D01*
X134046855Y-81982927D01*
X134046854Y-81982928D01*
X133964436Y-82116635D01*
X133957885Y-82127262D01*
X133938600Y-82185405D01*
X133909049Y-82274500D01*
X133902203Y-82295139D01*
X133891500Y-82399600D01*
X133891500Y-82990500D01*
X133871498Y-83058621D01*
X133817842Y-83105114D01*
X133765500Y-83116500D01*
X133666933Y-83116500D01*
X133598812Y-83096498D01*
X133550524Y-83038718D01*
X133534198Y-82999304D01*
X133532303Y-82994729D01*
X133395903Y-82772144D01*
X133226363Y-82573637D01*
X133027856Y-82404097D01*
X132805271Y-82267697D01*
X132800701Y-82265804D01*
X132800697Y-82265802D01*
X132568662Y-82169690D01*
X132568660Y-82169689D01*
X132564089Y-82167796D01*
X132375498Y-82122519D01*
X132313929Y-82087167D01*
X132281246Y-82024140D01*
X132287827Y-81953449D01*
X132331581Y-81897538D01*
X132375498Y-81877481D01*
X132387044Y-81874709D01*
X132564089Y-81832204D01*
X132568662Y-81830310D01*
X132800697Y-81734198D01*
X132800701Y-81734196D01*
X132805271Y-81732303D01*
X133027856Y-81595903D01*
X133226363Y-81426363D01*
X133395903Y-81227856D01*
X133532303Y-81005271D01*
X133549888Y-80962819D01*
X133630310Y-80768662D01*
X133630311Y-80768660D01*
X133632204Y-80764089D01*
X133668935Y-80611094D01*
X133704287Y-80549525D01*
X133767314Y-80516842D01*
X133838005Y-80523423D01*
G37*
%TD.AperFunction*%
%TA.AperFunction,Conductor*%
G36*
X157396121Y-73966002D02*
G01*
X157442614Y-74019658D01*
X157454000Y-74072000D01*
X157454000Y-75277384D01*
X157458475Y-75292623D01*
X157459865Y-75293828D01*
X157467548Y-75295499D01*
X157490500Y-75295499D01*
X157558621Y-75315501D01*
X157605114Y-75369157D01*
X157616500Y-75421499D01*
X157616500Y-76705075D01*
X157596498Y-76773196D01*
X157579595Y-76794170D01*
X154419171Y-79954595D01*
X154356859Y-79988621D01*
X154330076Y-79991500D01*
X151867707Y-79991500D01*
X151811431Y-79975549D01*
X151810605Y-79977320D01*
X151803969Y-79974226D01*
X151797738Y-79970385D01*
X151748619Y-79954093D01*
X151690259Y-79913662D01*
X151663022Y-79848098D01*
X151675555Y-79778217D01*
X151723880Y-79726205D01*
X151788286Y-79708500D01*
X151973134Y-79708500D01*
X152035316Y-79701745D01*
X152035580Y-79704174D01*
X152064420Y-79704174D01*
X152064684Y-79701745D01*
X152126866Y-79708500D01*
X152773134Y-79708500D01*
X152835316Y-79701745D01*
X152835580Y-79704174D01*
X152864420Y-79704174D01*
X152864684Y-79701745D01*
X152926866Y-79708500D01*
X153573134Y-79708500D01*
X153635316Y-79701745D01*
X153771705Y-79650615D01*
X153888261Y-79563261D01*
X153975615Y-79446705D01*
X154026745Y-79310316D01*
X154033500Y-79248134D01*
X154033500Y-77659500D01*
X154053502Y-77591379D01*
X154107158Y-77544886D01*
X154159500Y-77533500D01*
X155748134Y-77533500D01*
X155810316Y-77526745D01*
X155946705Y-77475615D01*
X156063261Y-77388261D01*
X156150615Y-77271705D01*
X156201745Y-77135316D01*
X156208500Y-77073134D01*
X156208500Y-76426866D01*
X156201745Y-76364684D01*
X156204174Y-76364420D01*
X156204174Y-76335580D01*
X156201745Y-76335316D01*
X156208131Y-76276531D01*
X156208500Y-76273134D01*
X156208500Y-75626866D01*
X156201745Y-75564684D01*
X156204174Y-75564420D01*
X156204174Y-75535580D01*
X156201745Y-75535316D01*
X156208131Y-75476531D01*
X156208500Y-75473134D01*
X156208500Y-75335272D01*
X156228502Y-75267151D01*
X156282158Y-75220658D01*
X156352432Y-75210554D01*
X156388890Y-75223765D01*
X156389609Y-75222223D01*
X156409424Y-75231463D01*
X156563710Y-75282638D01*
X156577086Y-75285505D01*
X156671438Y-75295172D01*
X156677854Y-75295500D01*
X156927885Y-75295500D01*
X156943124Y-75291025D01*
X156944329Y-75289635D01*
X156946000Y-75281952D01*
X156946000Y-74072000D01*
X156966002Y-74003879D01*
X157019658Y-73957386D01*
X157072000Y-73946000D01*
X157328000Y-73946000D01*
X157396121Y-73966002D01*
G37*
%TD.AperFunction*%
%TA.AperFunction,Conductor*%
G36*
X133888924Y-75153502D02*
G01*
X133935417Y-75207158D01*
X133940326Y-75219623D01*
X133948690Y-75244691D01*
X133958450Y-75273946D01*
X134051522Y-75424348D01*
X134056701Y-75429518D01*
X134056705Y-75429523D01*
X134063444Y-75436250D01*
X134097521Y-75498533D01*
X134092516Y-75569353D01*
X134063596Y-75614438D01*
X134031261Y-75646829D01*
X134022249Y-75658240D01*
X133937184Y-75796243D01*
X133931037Y-75809424D01*
X133879862Y-75963710D01*
X133876995Y-75977086D01*
X133867328Y-76071438D01*
X133867000Y-76077855D01*
X133867000Y-76169314D01*
X133846998Y-76237435D01*
X133793342Y-76283928D01*
X133723068Y-76294032D01*
X133658488Y-76264538D01*
X133624591Y-76217532D01*
X133534198Y-75999303D01*
X133534196Y-75999299D01*
X133532303Y-75994729D01*
X133395903Y-75772144D01*
X133300118Y-75659993D01*
X133271088Y-75595204D01*
X133281693Y-75525004D01*
X133306835Y-75489069D01*
X133625499Y-75170405D01*
X133687811Y-75136379D01*
X133714594Y-75133500D01*
X133820803Y-75133500D01*
X133888924Y-75153502D01*
G37*
%TD.AperFunction*%
%TA.AperFunction,Conductor*%
G36*
X133926890Y-71073180D02*
G01*
X133983726Y-71115727D01*
X133990000Y-71124931D01*
X134051522Y-71224348D01*
X134056701Y-71229518D01*
X134056705Y-71229523D01*
X134063444Y-71236250D01*
X134097521Y-71298533D01*
X134092516Y-71369353D01*
X134063596Y-71414438D01*
X134031261Y-71446829D01*
X134022249Y-71458240D01*
X133937184Y-71596243D01*
X133931037Y-71609424D01*
X133879862Y-71763710D01*
X133876995Y-71777086D01*
X133867328Y-71871438D01*
X133867000Y-71877855D01*
X133867000Y-72127885D01*
X133871475Y-72143124D01*
X133872865Y-72144329D01*
X133880548Y-72146000D01*
X135090500Y-72146000D01*
X135158621Y-72166002D01*
X135205114Y-72219658D01*
X135216500Y-72272000D01*
X135216500Y-72528000D01*
X135196498Y-72596121D01*
X135142842Y-72642614D01*
X135090500Y-72654000D01*
X133885116Y-72654000D01*
X133869877Y-72658475D01*
X133868672Y-72659865D01*
X133867001Y-72667548D01*
X133867001Y-72669316D01*
X133865517Y-72674370D01*
X133864122Y-72680783D01*
X133863663Y-72680683D01*
X133846999Y-72737437D01*
X133793343Y-72783930D01*
X133723069Y-72794034D01*
X133658489Y-72764540D01*
X133624592Y-72717534D01*
X133534198Y-72499303D01*
X133534196Y-72499299D01*
X133532303Y-72494729D01*
X133395903Y-72272144D01*
X133226363Y-72073637D01*
X133185151Y-72038439D01*
X133112061Y-71976014D01*
X133073251Y-71916564D01*
X133072744Y-71845569D01*
X133104796Y-71791108D01*
X133793763Y-71102141D01*
X133856075Y-71068115D01*
X133926890Y-71073180D01*
G37*
%TD.AperFunction*%
%TA.AperFunction,Conductor*%
G36*
X133785032Y-67615038D02*
G01*
X133841868Y-67657585D01*
X133866679Y-67724105D01*
X133867000Y-67733094D01*
X133867000Y-67927885D01*
X133871475Y-67943124D01*
X133872865Y-67944329D01*
X133880548Y-67946000D01*
X135090500Y-67946000D01*
X135158621Y-67966002D01*
X135205114Y-68019658D01*
X135216500Y-68072000D01*
X135216500Y-68328000D01*
X135196498Y-68396121D01*
X135142842Y-68442614D01*
X135090500Y-68454000D01*
X133885116Y-68454000D01*
X133869877Y-68458475D01*
X133868672Y-68459865D01*
X133867001Y-68467548D01*
X133867001Y-68722095D01*
X133867338Y-68728614D01*
X133877257Y-68824206D01*
X133880149Y-68837600D01*
X133931588Y-68991784D01*
X133937761Y-69004962D01*
X134023063Y-69142807D01*
X134032099Y-69154209D01*
X134063485Y-69185540D01*
X134097563Y-69247823D01*
X134092560Y-69318643D01*
X134063641Y-69363728D01*
X134050695Y-69376697D01*
X134046855Y-69382927D01*
X134046854Y-69382928D01*
X133973824Y-69501405D01*
X133957885Y-69527262D01*
X133955580Y-69534212D01*
X133942589Y-69573378D01*
X133902159Y-69631739D01*
X133836595Y-69658976D01*
X133766713Y-69646443D01*
X133714701Y-69598119D01*
X133697384Y-69543598D01*
X133693534Y-69494684D01*
X133693146Y-69489751D01*
X133691991Y-69484938D01*
X133649913Y-69309674D01*
X133632204Y-69235911D01*
X133630310Y-69231338D01*
X133534198Y-68999303D01*
X133534196Y-68999299D01*
X133532303Y-68994729D01*
X133395903Y-68772144D01*
X133226363Y-68573637D01*
X133216649Y-68565341D01*
X133058126Y-68429949D01*
X133019316Y-68370499D01*
X133018810Y-68299504D01*
X133050861Y-68245043D01*
X133651905Y-67643999D01*
X133714217Y-67609973D01*
X133785032Y-67615038D01*
G37*
%TD.AperFunction*%
%TD*%
M02*
