M48
; DRILL file {KiCad (6.0.9)} date Wed Mar 13 22:45:19 2024
; FORMAT={-:-/ absolute / inch / decimal}
; #@! TF.CreationDate,2024-03-13T22:45:19+01:00
; #@! TF.GenerationSoftware,Kicad,Pcbnew,(6.0.9)
; #@! TF.FileFunction,Plated,1,2,PTH
FMAT,2
INCH
; #@! TA.AperFunction,Plated,PTH,ViaDrill
T1C0.0157
; #@! TA.AperFunction,Plated,PTH,ComponentDrill
T2C0.0394
; #@! TA.AperFunction,Plated,PTH,ComponentDrill
T3C0.0472
%
G90
G05
T1
X5.0492Y-2.8642
X5.0492Y-2.9724
X5.2362Y-2.4803
X5.2559Y-3.2244
X5.2598Y-2.6772
X5.2598Y-2.8189
X5.2638Y-2.9646
X5.2756Y-3.4252
X5.2756Y-3.5039
X5.315Y-2.3917
X5.3642Y-3.4252
X5.3642Y-3.5039
X5.3937Y-2.3327
X5.3937Y-2.4213
X5.4331Y-3.622
X5.4724Y-2.2835
X5.4724Y-2.3917
X5.4724Y-2.4803
X5.5118Y-3.622
X5.5118Y-3.7008
X5.5664Y-2.9016
X5.5866Y-3.3583
X5.5866Y-3.4409
X5.5866Y-3.5236
X5.5906Y-3.622
X5.5906Y-3.7008
X5.6791Y-3.7008
X5.6811Y-3.3504
X5.7165Y-3.2323
X5.7402Y-3.3504
X5.7579Y-2.2933
X5.7874Y-3.3504
X5.8425Y-2.5689
X5.8858Y-2.874
X5.8957Y-3.2677
X5.923Y-3.3528
X5.935Y-2.9232
X5.9764Y-3.3504
X6.0512Y-3.3504
X6.0669Y-2.5157
X6.0787Y-2.3465
X6.0941Y-2.6122
X6.1811Y-3.7402
X6.189Y-3.4803
X6.1909Y-2.5689
X6.1929Y-3.3785
X6.1969Y-3.2402
X6.1969Y-3.5669
X6.4961Y-2.5984
X6.5354Y-2.7559
X6.5354Y-2.874
X6.5354Y-2.9921
X6.5354Y-3.1496
X6.7323Y-2.7559
X6.7323Y-2.874
X6.7323Y-2.9921
X6.7323Y-3.1496
T2
X5.7272Y-3.5827
X5.7748Y-3.7008
X5.8272Y-3.5827
X5.8748Y-3.7008
X5.9272Y-3.5827
X5.9748Y-3.7008
X6.0272Y-3.5827
X6.0748Y-3.7008
X6.6378Y-2.783
X6.6378Y-2.9208
X6.6378Y-3.0586
X6.6378Y-3.1964
T3
X5.1988Y-2.6083
X5.1988Y-2.7461
X5.1988Y-2.8839
X5.1988Y-3.0217
X5.1988Y-3.1594
X5.1988Y-3.2972
T0
M30
