%TF.GenerationSoftware,KiCad,Pcbnew,(6.0.9)*%
%TF.CreationDate,2024-02-23T16:04:20+01:00*%
%TF.ProjectId,HMW-IO-12-FM,484d572d-494f-42d3-9132-2d464d2e6b69,rev?*%
%TF.SameCoordinates,Original*%
%TF.FileFunction,Legend,Bot*%
%TF.FilePolarity,Positive*%
%FSLAX46Y46*%
G04 Gerber Fmt 4.6, Leading zero omitted, Abs format (unit mm)*
G04 Created by KiCad (PCBNEW (6.0.9)) date 2024-02-23 16:04:20*
%MOMM*%
%LPD*%
G01*
G04 APERTURE LIST*
%ADD10C,0.150000*%
%ADD11C,0.120000*%
G04 APERTURE END LIST*
D10*
%TO.C,C11*%
X139942857Y-68557142D02*
X139990476Y-68604761D01*
X140133333Y-68652380D01*
X140228571Y-68652380D01*
X140371428Y-68604761D01*
X140466666Y-68509523D01*
X140514285Y-68414285D01*
X140561904Y-68223809D01*
X140561904Y-68080952D01*
X140514285Y-67890476D01*
X140466666Y-67795238D01*
X140371428Y-67700000D01*
X140228571Y-67652380D01*
X140133333Y-67652380D01*
X139990476Y-67700000D01*
X139942857Y-67747619D01*
X138990476Y-68652380D02*
X139561904Y-68652380D01*
X139276190Y-68652380D02*
X139276190Y-67652380D01*
X139371428Y-67795238D01*
X139466666Y-67890476D01*
X139561904Y-67938095D01*
X138038095Y-68652380D02*
X138609523Y-68652380D01*
X138323809Y-68652380D02*
X138323809Y-67652380D01*
X138419047Y-67795238D01*
X138514285Y-67890476D01*
X138609523Y-67938095D01*
%TO.C,R15*%
X158892857Y-56452380D02*
X159226190Y-55976190D01*
X159464285Y-56452380D02*
X159464285Y-55452380D01*
X159083333Y-55452380D01*
X158988095Y-55500000D01*
X158940476Y-55547619D01*
X158892857Y-55642857D01*
X158892857Y-55785714D01*
X158940476Y-55880952D01*
X158988095Y-55928571D01*
X159083333Y-55976190D01*
X159464285Y-55976190D01*
X157940476Y-56452380D02*
X158511904Y-56452380D01*
X158226190Y-56452380D02*
X158226190Y-55452380D01*
X158321428Y-55595238D01*
X158416666Y-55690476D01*
X158511904Y-55738095D01*
X157035714Y-55452380D02*
X157511904Y-55452380D01*
X157559523Y-55928571D01*
X157511904Y-55880952D01*
X157416666Y-55833333D01*
X157178571Y-55833333D01*
X157083333Y-55880952D01*
X157035714Y-55928571D01*
X156988095Y-56023809D01*
X156988095Y-56261904D01*
X157035714Y-56357142D01*
X157083333Y-56404761D01*
X157178571Y-56452380D01*
X157416666Y-56452380D01*
X157511904Y-56404761D01*
X157559523Y-56357142D01*
%TO.C,R13*%
X154642857Y-54202380D02*
X154976190Y-53726190D01*
X155214285Y-54202380D02*
X155214285Y-53202380D01*
X154833333Y-53202380D01*
X154738095Y-53250000D01*
X154690476Y-53297619D01*
X154642857Y-53392857D01*
X154642857Y-53535714D01*
X154690476Y-53630952D01*
X154738095Y-53678571D01*
X154833333Y-53726190D01*
X155214285Y-53726190D01*
X153690476Y-54202380D02*
X154261904Y-54202380D01*
X153976190Y-54202380D02*
X153976190Y-53202380D01*
X154071428Y-53345238D01*
X154166666Y-53440476D01*
X154261904Y-53488095D01*
X153357142Y-53202380D02*
X152738095Y-53202380D01*
X153071428Y-53583333D01*
X152928571Y-53583333D01*
X152833333Y-53630952D01*
X152785714Y-53678571D01*
X152738095Y-53773809D01*
X152738095Y-54011904D01*
X152785714Y-54107142D01*
X152833333Y-54154761D01*
X152928571Y-54202380D01*
X153214285Y-54202380D01*
X153309523Y-54154761D01*
X153357142Y-54107142D01*
%TO.C,R12*%
X139942857Y-66752380D02*
X140276190Y-66276190D01*
X140514285Y-66752380D02*
X140514285Y-65752380D01*
X140133333Y-65752380D01*
X140038095Y-65800000D01*
X139990476Y-65847619D01*
X139942857Y-65942857D01*
X139942857Y-66085714D01*
X139990476Y-66180952D01*
X140038095Y-66228571D01*
X140133333Y-66276190D01*
X140514285Y-66276190D01*
X138990476Y-66752380D02*
X139561904Y-66752380D01*
X139276190Y-66752380D02*
X139276190Y-65752380D01*
X139371428Y-65895238D01*
X139466666Y-65990476D01*
X139561904Y-66038095D01*
X138609523Y-65847619D02*
X138561904Y-65800000D01*
X138466666Y-65752380D01*
X138228571Y-65752380D01*
X138133333Y-65800000D01*
X138085714Y-65847619D01*
X138038095Y-65942857D01*
X138038095Y-66038095D01*
X138085714Y-66180952D01*
X138657142Y-66752380D01*
X138038095Y-66752380D01*
%TO.C,R11*%
X139942857Y-70752380D02*
X140276190Y-70276190D01*
X140514285Y-70752380D02*
X140514285Y-69752380D01*
X140133333Y-69752380D01*
X140038095Y-69800000D01*
X139990476Y-69847619D01*
X139942857Y-69942857D01*
X139942857Y-70085714D01*
X139990476Y-70180952D01*
X140038095Y-70228571D01*
X140133333Y-70276190D01*
X140514285Y-70276190D01*
X138990476Y-70752380D02*
X139561904Y-70752380D01*
X139276190Y-70752380D02*
X139276190Y-69752380D01*
X139371428Y-69895238D01*
X139466666Y-69990476D01*
X139561904Y-70038095D01*
X138038095Y-70752380D02*
X138609523Y-70752380D01*
X138323809Y-70752380D02*
X138323809Y-69752380D01*
X138419047Y-69895238D01*
X138514285Y-69990476D01*
X138609523Y-70038095D01*
%TO.C,R10*%
X138722380Y-73867142D02*
X138246190Y-73533809D01*
X138722380Y-73295714D02*
X137722380Y-73295714D01*
X137722380Y-73676666D01*
X137770000Y-73771904D01*
X137817619Y-73819523D01*
X137912857Y-73867142D01*
X138055714Y-73867142D01*
X138150952Y-73819523D01*
X138198571Y-73771904D01*
X138246190Y-73676666D01*
X138246190Y-73295714D01*
X138722380Y-74819523D02*
X138722380Y-74248095D01*
X138722380Y-74533809D02*
X137722380Y-74533809D01*
X137865238Y-74438571D01*
X137960476Y-74343333D01*
X138008095Y-74248095D01*
X137722380Y-75438571D02*
X137722380Y-75533809D01*
X137770000Y-75629047D01*
X137817619Y-75676666D01*
X137912857Y-75724285D01*
X138103333Y-75771904D01*
X138341428Y-75771904D01*
X138531904Y-75724285D01*
X138627142Y-75676666D01*
X138674761Y-75629047D01*
X138722380Y-75533809D01*
X138722380Y-75438571D01*
X138674761Y-75343333D01*
X138627142Y-75295714D01*
X138531904Y-75248095D01*
X138341428Y-75200476D01*
X138103333Y-75200476D01*
X137912857Y-75248095D01*
X137817619Y-75295714D01*
X137770000Y-75343333D01*
X137722380Y-75438571D01*
%TO.C,R9*%
X139066666Y-79152380D02*
X139400000Y-78676190D01*
X139638095Y-79152380D02*
X139638095Y-78152380D01*
X139257142Y-78152380D01*
X139161904Y-78200000D01*
X139114285Y-78247619D01*
X139066666Y-78342857D01*
X139066666Y-78485714D01*
X139114285Y-78580952D01*
X139161904Y-78628571D01*
X139257142Y-78676190D01*
X139638095Y-78676190D01*
X138590476Y-79152380D02*
X138400000Y-79152380D01*
X138304761Y-79104761D01*
X138257142Y-79057142D01*
X138161904Y-78914285D01*
X138114285Y-78723809D01*
X138114285Y-78342857D01*
X138161904Y-78247619D01*
X138209523Y-78200000D01*
X138304761Y-78152380D01*
X138495238Y-78152380D01*
X138590476Y-78200000D01*
X138638095Y-78247619D01*
X138685714Y-78342857D01*
X138685714Y-78580952D01*
X138638095Y-78676190D01*
X138590476Y-78723809D01*
X138495238Y-78771428D01*
X138304761Y-78771428D01*
X138209523Y-78723809D01*
X138161904Y-78676190D01*
X138114285Y-78580952D01*
%TO.C,R8*%
X139066666Y-83352380D02*
X139400000Y-82876190D01*
X139638095Y-83352380D02*
X139638095Y-82352380D01*
X139257142Y-82352380D01*
X139161904Y-82400000D01*
X139114285Y-82447619D01*
X139066666Y-82542857D01*
X139066666Y-82685714D01*
X139114285Y-82780952D01*
X139161904Y-82828571D01*
X139257142Y-82876190D01*
X139638095Y-82876190D01*
X138495238Y-82780952D02*
X138590476Y-82733333D01*
X138638095Y-82685714D01*
X138685714Y-82590476D01*
X138685714Y-82542857D01*
X138638095Y-82447619D01*
X138590476Y-82400000D01*
X138495238Y-82352380D01*
X138304761Y-82352380D01*
X138209523Y-82400000D01*
X138161904Y-82447619D01*
X138114285Y-82542857D01*
X138114285Y-82590476D01*
X138161904Y-82685714D01*
X138209523Y-82733333D01*
X138304761Y-82780952D01*
X138495238Y-82780952D01*
X138590476Y-82828571D01*
X138638095Y-82876190D01*
X138685714Y-82971428D01*
X138685714Y-83161904D01*
X138638095Y-83257142D01*
X138590476Y-83304761D01*
X138495238Y-83352380D01*
X138304761Y-83352380D01*
X138209523Y-83304761D01*
X138161904Y-83257142D01*
X138114285Y-83161904D01*
X138114285Y-82971428D01*
X138161904Y-82876190D01*
X138209523Y-82828571D01*
X138304761Y-82780952D01*
%TO.C,R6*%
X146252380Y-84533333D02*
X145776190Y-84200000D01*
X146252380Y-83961904D02*
X145252380Y-83961904D01*
X145252380Y-84342857D01*
X145300000Y-84438095D01*
X145347619Y-84485714D01*
X145442857Y-84533333D01*
X145585714Y-84533333D01*
X145680952Y-84485714D01*
X145728571Y-84438095D01*
X145776190Y-84342857D01*
X145776190Y-83961904D01*
X145252380Y-85390476D02*
X145252380Y-85200000D01*
X145300000Y-85104761D01*
X145347619Y-85057142D01*
X145490476Y-84961904D01*
X145680952Y-84914285D01*
X146061904Y-84914285D01*
X146157142Y-84961904D01*
X146204761Y-85009523D01*
X146252380Y-85104761D01*
X146252380Y-85295238D01*
X146204761Y-85390476D01*
X146157142Y-85438095D01*
X146061904Y-85485714D01*
X145823809Y-85485714D01*
X145728571Y-85438095D01*
X145680952Y-85390476D01*
X145633333Y-85295238D01*
X145633333Y-85104761D01*
X145680952Y-85009523D01*
X145728571Y-84961904D01*
X145823809Y-84914285D01*
%TO.C,R4*%
X150252380Y-84533333D02*
X149776190Y-84200000D01*
X150252380Y-83961904D02*
X149252380Y-83961904D01*
X149252380Y-84342857D01*
X149300000Y-84438095D01*
X149347619Y-84485714D01*
X149442857Y-84533333D01*
X149585714Y-84533333D01*
X149680952Y-84485714D01*
X149728571Y-84438095D01*
X149776190Y-84342857D01*
X149776190Y-83961904D01*
X149585714Y-85390476D02*
X150252380Y-85390476D01*
X149204761Y-85152380D02*
X149919047Y-84914285D01*
X149919047Y-85533333D01*
%TO.C,R2*%
X154252380Y-84533333D02*
X153776190Y-84200000D01*
X154252380Y-83961904D02*
X153252380Y-83961904D01*
X153252380Y-84342857D01*
X153300000Y-84438095D01*
X153347619Y-84485714D01*
X153442857Y-84533333D01*
X153585714Y-84533333D01*
X153680952Y-84485714D01*
X153728571Y-84438095D01*
X153776190Y-84342857D01*
X153776190Y-83961904D01*
X153347619Y-84914285D02*
X153300000Y-84961904D01*
X153252380Y-85057142D01*
X153252380Y-85295238D01*
X153300000Y-85390476D01*
X153347619Y-85438095D01*
X153442857Y-85485714D01*
X153538095Y-85485714D01*
X153680952Y-85438095D01*
X154252380Y-84866666D01*
X154252380Y-85485714D01*
%TO.C,R7*%
X144252380Y-84533333D02*
X143776190Y-84200000D01*
X144252380Y-83961904D02*
X143252380Y-83961904D01*
X143252380Y-84342857D01*
X143300000Y-84438095D01*
X143347619Y-84485714D01*
X143442857Y-84533333D01*
X143585714Y-84533333D01*
X143680952Y-84485714D01*
X143728571Y-84438095D01*
X143776190Y-84342857D01*
X143776190Y-83961904D01*
X143252380Y-84866666D02*
X143252380Y-85533333D01*
X144252380Y-85104761D01*
%TO.C,R5*%
X148252380Y-84533333D02*
X147776190Y-84200000D01*
X148252380Y-83961904D02*
X147252380Y-83961904D01*
X147252380Y-84342857D01*
X147300000Y-84438095D01*
X147347619Y-84485714D01*
X147442857Y-84533333D01*
X147585714Y-84533333D01*
X147680952Y-84485714D01*
X147728571Y-84438095D01*
X147776190Y-84342857D01*
X147776190Y-83961904D01*
X147252380Y-85438095D02*
X147252380Y-84961904D01*
X147728571Y-84914285D01*
X147680952Y-84961904D01*
X147633333Y-85057142D01*
X147633333Y-85295238D01*
X147680952Y-85390476D01*
X147728571Y-85438095D01*
X147823809Y-85485714D01*
X148061904Y-85485714D01*
X148157142Y-85438095D01*
X148204761Y-85390476D01*
X148252380Y-85295238D01*
X148252380Y-85057142D01*
X148204761Y-84961904D01*
X148157142Y-84914285D01*
%TO.C,R3*%
X152252380Y-84533333D02*
X151776190Y-84200000D01*
X152252380Y-83961904D02*
X151252380Y-83961904D01*
X151252380Y-84342857D01*
X151300000Y-84438095D01*
X151347619Y-84485714D01*
X151442857Y-84533333D01*
X151585714Y-84533333D01*
X151680952Y-84485714D01*
X151728571Y-84438095D01*
X151776190Y-84342857D01*
X151776190Y-83961904D01*
X151252380Y-84866666D02*
X151252380Y-85485714D01*
X151633333Y-85152380D01*
X151633333Y-85295238D01*
X151680952Y-85390476D01*
X151728571Y-85438095D01*
X151823809Y-85485714D01*
X152061904Y-85485714D01*
X152157142Y-85438095D01*
X152204761Y-85390476D01*
X152252380Y-85295238D01*
X152252380Y-85009523D01*
X152204761Y-84914285D01*
X152157142Y-84866666D01*
%TO.C,R1*%
X156252380Y-84533333D02*
X155776190Y-84200000D01*
X156252380Y-83961904D02*
X155252380Y-83961904D01*
X155252380Y-84342857D01*
X155300000Y-84438095D01*
X155347619Y-84485714D01*
X155442857Y-84533333D01*
X155585714Y-84533333D01*
X155680952Y-84485714D01*
X155728571Y-84438095D01*
X155776190Y-84342857D01*
X155776190Y-83961904D01*
X156252380Y-85485714D02*
X156252380Y-84914285D01*
X156252380Y-85200000D02*
X155252380Y-85200000D01*
X155395238Y-85104761D01*
X155490476Y-85009523D01*
X155538095Y-84914285D01*
%TO.C,Q1*%
X151345238Y-59697619D02*
X151440476Y-59650000D01*
X151535714Y-59554761D01*
X151678571Y-59411904D01*
X151773809Y-59364285D01*
X151869047Y-59364285D01*
X151821428Y-59602380D02*
X151916666Y-59554761D01*
X152011904Y-59459523D01*
X152059523Y-59269047D01*
X152059523Y-58935714D01*
X152011904Y-58745238D01*
X151916666Y-58650000D01*
X151821428Y-58602380D01*
X151630952Y-58602380D01*
X151535714Y-58650000D01*
X151440476Y-58745238D01*
X151392857Y-58935714D01*
X151392857Y-59269047D01*
X151440476Y-59459523D01*
X151535714Y-59554761D01*
X151630952Y-59602380D01*
X151821428Y-59602380D01*
X150440476Y-59602380D02*
X151011904Y-59602380D01*
X150726190Y-59602380D02*
X150726190Y-58602380D01*
X150821428Y-58745238D01*
X150916666Y-58840476D01*
X151011904Y-58888095D01*
%TO.C,IC3*%
X159476190Y-61952380D02*
X159476190Y-60952380D01*
X158428571Y-61857142D02*
X158476190Y-61904761D01*
X158619047Y-61952380D01*
X158714285Y-61952380D01*
X158857142Y-61904761D01*
X158952380Y-61809523D01*
X159000000Y-61714285D01*
X159047619Y-61523809D01*
X159047619Y-61380952D01*
X159000000Y-61190476D01*
X158952380Y-61095238D01*
X158857142Y-61000000D01*
X158714285Y-60952380D01*
X158619047Y-60952380D01*
X158476190Y-61000000D01*
X158428571Y-61047619D01*
X158095238Y-60952380D02*
X157476190Y-60952380D01*
X157809523Y-61333333D01*
X157666666Y-61333333D01*
X157571428Y-61380952D01*
X157523809Y-61428571D01*
X157476190Y-61523809D01*
X157476190Y-61761904D01*
X157523809Y-61857142D01*
X157571428Y-61904761D01*
X157666666Y-61952380D01*
X157952380Y-61952380D01*
X158047619Y-61904761D01*
X158095238Y-61857142D01*
%TO.C,IC1*%
X143202380Y-63773809D02*
X142202380Y-63773809D01*
X143107142Y-64821428D02*
X143154761Y-64773809D01*
X143202380Y-64630952D01*
X143202380Y-64535714D01*
X143154761Y-64392857D01*
X143059523Y-64297619D01*
X142964285Y-64250000D01*
X142773809Y-64202380D01*
X142630952Y-64202380D01*
X142440476Y-64250000D01*
X142345238Y-64297619D01*
X142250000Y-64392857D01*
X142202380Y-64535714D01*
X142202380Y-64630952D01*
X142250000Y-64773809D01*
X142297619Y-64821428D01*
X143202380Y-65773809D02*
X143202380Y-65202380D01*
X143202380Y-65488095D02*
X142202380Y-65488095D01*
X142345238Y-65392857D01*
X142440476Y-65297619D01*
X142488095Y-65202380D01*
%TO.C,C27*%
X157642857Y-65607142D02*
X157690476Y-65654761D01*
X157833333Y-65702380D01*
X157928571Y-65702380D01*
X158071428Y-65654761D01*
X158166666Y-65559523D01*
X158214285Y-65464285D01*
X158261904Y-65273809D01*
X158261904Y-65130952D01*
X158214285Y-64940476D01*
X158166666Y-64845238D01*
X158071428Y-64750000D01*
X157928571Y-64702380D01*
X157833333Y-64702380D01*
X157690476Y-64750000D01*
X157642857Y-64797619D01*
X157261904Y-64797619D02*
X157214285Y-64750000D01*
X157119047Y-64702380D01*
X156880952Y-64702380D01*
X156785714Y-64750000D01*
X156738095Y-64797619D01*
X156690476Y-64892857D01*
X156690476Y-64988095D01*
X156738095Y-65130952D01*
X157309523Y-65702380D01*
X156690476Y-65702380D01*
X156357142Y-64702380D02*
X155690476Y-64702380D01*
X156119047Y-65702380D01*
%TO.C,C26*%
X146907142Y-61757142D02*
X146954761Y-61709523D01*
X147002380Y-61566666D01*
X147002380Y-61471428D01*
X146954761Y-61328571D01*
X146859523Y-61233333D01*
X146764285Y-61185714D01*
X146573809Y-61138095D01*
X146430952Y-61138095D01*
X146240476Y-61185714D01*
X146145238Y-61233333D01*
X146050000Y-61328571D01*
X146002380Y-61471428D01*
X146002380Y-61566666D01*
X146050000Y-61709523D01*
X146097619Y-61757142D01*
X146097619Y-62138095D02*
X146050000Y-62185714D01*
X146002380Y-62280952D01*
X146002380Y-62519047D01*
X146050000Y-62614285D01*
X146097619Y-62661904D01*
X146192857Y-62709523D01*
X146288095Y-62709523D01*
X146430952Y-62661904D01*
X147002380Y-62090476D01*
X147002380Y-62709523D01*
X146002380Y-63566666D02*
X146002380Y-63376190D01*
X146050000Y-63280952D01*
X146097619Y-63233333D01*
X146240476Y-63138095D01*
X146430952Y-63090476D01*
X146811904Y-63090476D01*
X146907142Y-63138095D01*
X146954761Y-63185714D01*
X147002380Y-63280952D01*
X147002380Y-63471428D01*
X146954761Y-63566666D01*
X146907142Y-63614285D01*
X146811904Y-63661904D01*
X146573809Y-63661904D01*
X146478571Y-63614285D01*
X146430952Y-63566666D01*
X146383333Y-63471428D01*
X146383333Y-63280952D01*
X146430952Y-63185714D01*
X146478571Y-63138095D01*
X146573809Y-63090476D01*
%TO.C,C25*%
X141757142Y-73557142D02*
X141804761Y-73509523D01*
X141852380Y-73366666D01*
X141852380Y-73271428D01*
X141804761Y-73128571D01*
X141709523Y-73033333D01*
X141614285Y-72985714D01*
X141423809Y-72938095D01*
X141280952Y-72938095D01*
X141090476Y-72985714D01*
X140995238Y-73033333D01*
X140900000Y-73128571D01*
X140852380Y-73271428D01*
X140852380Y-73366666D01*
X140900000Y-73509523D01*
X140947619Y-73557142D01*
X140947619Y-73938095D02*
X140900000Y-73985714D01*
X140852380Y-74080952D01*
X140852380Y-74319047D01*
X140900000Y-74414285D01*
X140947619Y-74461904D01*
X141042857Y-74509523D01*
X141138095Y-74509523D01*
X141280952Y-74461904D01*
X141852380Y-73890476D01*
X141852380Y-74509523D01*
X140852380Y-75414285D02*
X140852380Y-74938095D01*
X141328571Y-74890476D01*
X141280952Y-74938095D01*
X141233333Y-75033333D01*
X141233333Y-75271428D01*
X141280952Y-75366666D01*
X141328571Y-75414285D01*
X141423809Y-75461904D01*
X141661904Y-75461904D01*
X141757142Y-75414285D01*
X141804761Y-75366666D01*
X141852380Y-75271428D01*
X141852380Y-75033333D01*
X141804761Y-74938095D01*
X141757142Y-74890476D01*
%TO.C,C24*%
X153107142Y-81394642D02*
X153154761Y-81347023D01*
X153202380Y-81204166D01*
X153202380Y-81108928D01*
X153154761Y-80966071D01*
X153059523Y-80870833D01*
X152964285Y-80823214D01*
X152773809Y-80775595D01*
X152630952Y-80775595D01*
X152440476Y-80823214D01*
X152345238Y-80870833D01*
X152250000Y-80966071D01*
X152202380Y-81108928D01*
X152202380Y-81204166D01*
X152250000Y-81347023D01*
X152297619Y-81394642D01*
X152297619Y-81775595D02*
X152250000Y-81823214D01*
X152202380Y-81918452D01*
X152202380Y-82156547D01*
X152250000Y-82251785D01*
X152297619Y-82299404D01*
X152392857Y-82347023D01*
X152488095Y-82347023D01*
X152630952Y-82299404D01*
X153202380Y-81727976D01*
X153202380Y-82347023D01*
X152535714Y-83204166D02*
X153202380Y-83204166D01*
X152154761Y-82966071D02*
X152869047Y-82727976D01*
X152869047Y-83347023D01*
%TO.C,C23*%
X157557142Y-76057142D02*
X157604761Y-76009523D01*
X157652380Y-75866666D01*
X157652380Y-75771428D01*
X157604761Y-75628571D01*
X157509523Y-75533333D01*
X157414285Y-75485714D01*
X157223809Y-75438095D01*
X157080952Y-75438095D01*
X156890476Y-75485714D01*
X156795238Y-75533333D01*
X156700000Y-75628571D01*
X156652380Y-75771428D01*
X156652380Y-75866666D01*
X156700000Y-76009523D01*
X156747619Y-76057142D01*
X156747619Y-76438095D02*
X156700000Y-76485714D01*
X156652380Y-76580952D01*
X156652380Y-76819047D01*
X156700000Y-76914285D01*
X156747619Y-76961904D01*
X156842857Y-77009523D01*
X156938095Y-77009523D01*
X157080952Y-76961904D01*
X157652380Y-76390476D01*
X157652380Y-77009523D01*
X156652380Y-77342857D02*
X156652380Y-77961904D01*
X157033333Y-77628571D01*
X157033333Y-77771428D01*
X157080952Y-77866666D01*
X157128571Y-77914285D01*
X157223809Y-77961904D01*
X157461904Y-77961904D01*
X157557142Y-77914285D01*
X157604761Y-77866666D01*
X157652380Y-77771428D01*
X157652380Y-77485714D01*
X157604761Y-77390476D01*
X157557142Y-77342857D01*
%TO.C,C15*%
X165537142Y-59457142D02*
X165584761Y-59409523D01*
X165632380Y-59266666D01*
X165632380Y-59171428D01*
X165584761Y-59028571D01*
X165489523Y-58933333D01*
X165394285Y-58885714D01*
X165203809Y-58838095D01*
X165060952Y-58838095D01*
X164870476Y-58885714D01*
X164775238Y-58933333D01*
X164680000Y-59028571D01*
X164632380Y-59171428D01*
X164632380Y-59266666D01*
X164680000Y-59409523D01*
X164727619Y-59457142D01*
X165632380Y-60409523D02*
X165632380Y-59838095D01*
X165632380Y-60123809D02*
X164632380Y-60123809D01*
X164775238Y-60028571D01*
X164870476Y-59933333D01*
X164918095Y-59838095D01*
X164632380Y-61314285D02*
X164632380Y-60838095D01*
X165108571Y-60790476D01*
X165060952Y-60838095D01*
X165013333Y-60933333D01*
X165013333Y-61171428D01*
X165060952Y-61266666D01*
X165108571Y-61314285D01*
X165203809Y-61361904D01*
X165441904Y-61361904D01*
X165537142Y-61314285D01*
X165584761Y-61266666D01*
X165632380Y-61171428D01*
X165632380Y-60933333D01*
X165584761Y-60838095D01*
X165537142Y-60790476D01*
%TO.C,C14*%
X165607142Y-62819642D02*
X165654761Y-62772023D01*
X165702380Y-62629166D01*
X165702380Y-62533928D01*
X165654761Y-62391071D01*
X165559523Y-62295833D01*
X165464285Y-62248214D01*
X165273809Y-62200595D01*
X165130952Y-62200595D01*
X164940476Y-62248214D01*
X164845238Y-62295833D01*
X164750000Y-62391071D01*
X164702380Y-62533928D01*
X164702380Y-62629166D01*
X164750000Y-62772023D01*
X164797619Y-62819642D01*
X165702380Y-63772023D02*
X165702380Y-63200595D01*
X165702380Y-63486309D02*
X164702380Y-63486309D01*
X164845238Y-63391071D01*
X164940476Y-63295833D01*
X164988095Y-63200595D01*
X165035714Y-64629166D02*
X165702380Y-64629166D01*
X164654761Y-64391071D02*
X165369047Y-64152976D01*
X165369047Y-64772023D01*
%TO.C,C13*%
X147107142Y-81394642D02*
X147154761Y-81347023D01*
X147202380Y-81204166D01*
X147202380Y-81108928D01*
X147154761Y-80966071D01*
X147059523Y-80870833D01*
X146964285Y-80823214D01*
X146773809Y-80775595D01*
X146630952Y-80775595D01*
X146440476Y-80823214D01*
X146345238Y-80870833D01*
X146250000Y-80966071D01*
X146202380Y-81108928D01*
X146202380Y-81204166D01*
X146250000Y-81347023D01*
X146297619Y-81394642D01*
X147202380Y-82347023D02*
X147202380Y-81775595D01*
X147202380Y-82061309D02*
X146202380Y-82061309D01*
X146345238Y-81966071D01*
X146440476Y-81870833D01*
X146488095Y-81775595D01*
X146202380Y-82680357D02*
X146202380Y-83299404D01*
X146583333Y-82966071D01*
X146583333Y-83108928D01*
X146630952Y-83204166D01*
X146678571Y-83251785D01*
X146773809Y-83299404D01*
X147011904Y-83299404D01*
X147107142Y-83251785D01*
X147154761Y-83204166D01*
X147202380Y-83108928D01*
X147202380Y-82823214D01*
X147154761Y-82727976D01*
X147107142Y-82680357D01*
%TO.C,C12*%
X136605357Y-62807142D02*
X136652976Y-62854761D01*
X136795833Y-62902380D01*
X136891071Y-62902380D01*
X137033928Y-62854761D01*
X137129166Y-62759523D01*
X137176785Y-62664285D01*
X137224404Y-62473809D01*
X137224404Y-62330952D01*
X137176785Y-62140476D01*
X137129166Y-62045238D01*
X137033928Y-61950000D01*
X136891071Y-61902380D01*
X136795833Y-61902380D01*
X136652976Y-61950000D01*
X136605357Y-61997619D01*
X135652976Y-62902380D02*
X136224404Y-62902380D01*
X135938690Y-62902380D02*
X135938690Y-61902380D01*
X136033928Y-62045238D01*
X136129166Y-62140476D01*
X136224404Y-62188095D01*
X135272023Y-61997619D02*
X135224404Y-61950000D01*
X135129166Y-61902380D01*
X134891071Y-61902380D01*
X134795833Y-61950000D01*
X134748214Y-61997619D01*
X134700595Y-62092857D01*
X134700595Y-62188095D01*
X134748214Y-62330952D01*
X135319642Y-62902380D01*
X134700595Y-62902380D01*
%TO.C,C10*%
X139942857Y-72257142D02*
X139990476Y-72304761D01*
X140133333Y-72352380D01*
X140228571Y-72352380D01*
X140371428Y-72304761D01*
X140466666Y-72209523D01*
X140514285Y-72114285D01*
X140561904Y-71923809D01*
X140561904Y-71780952D01*
X140514285Y-71590476D01*
X140466666Y-71495238D01*
X140371428Y-71400000D01*
X140228571Y-71352380D01*
X140133333Y-71352380D01*
X139990476Y-71400000D01*
X139942857Y-71447619D01*
X138990476Y-72352380D02*
X139561904Y-72352380D01*
X139276190Y-72352380D02*
X139276190Y-71352380D01*
X139371428Y-71495238D01*
X139466666Y-71590476D01*
X139561904Y-71638095D01*
X138371428Y-71352380D02*
X138276190Y-71352380D01*
X138180952Y-71400000D01*
X138133333Y-71447619D01*
X138085714Y-71542857D01*
X138038095Y-71733333D01*
X138038095Y-71971428D01*
X138085714Y-72161904D01*
X138133333Y-72257142D01*
X138180952Y-72304761D01*
X138276190Y-72352380D01*
X138371428Y-72352380D01*
X138466666Y-72304761D01*
X138514285Y-72257142D01*
X138561904Y-72161904D01*
X138609523Y-71971428D01*
X138609523Y-71733333D01*
X138561904Y-71542857D01*
X138514285Y-71447619D01*
X138466666Y-71400000D01*
X138371428Y-71352380D01*
%TO.C,C9*%
X139066666Y-76957142D02*
X139114285Y-77004761D01*
X139257142Y-77052380D01*
X139352380Y-77052380D01*
X139495238Y-77004761D01*
X139590476Y-76909523D01*
X139638095Y-76814285D01*
X139685714Y-76623809D01*
X139685714Y-76480952D01*
X139638095Y-76290476D01*
X139590476Y-76195238D01*
X139495238Y-76100000D01*
X139352380Y-76052380D01*
X139257142Y-76052380D01*
X139114285Y-76100000D01*
X139066666Y-76147619D01*
X138590476Y-77052380D02*
X138400000Y-77052380D01*
X138304761Y-77004761D01*
X138257142Y-76957142D01*
X138161904Y-76814285D01*
X138114285Y-76623809D01*
X138114285Y-76242857D01*
X138161904Y-76147619D01*
X138209523Y-76100000D01*
X138304761Y-76052380D01*
X138495238Y-76052380D01*
X138590476Y-76100000D01*
X138638095Y-76147619D01*
X138685714Y-76242857D01*
X138685714Y-76480952D01*
X138638095Y-76576190D01*
X138590476Y-76623809D01*
X138495238Y-76671428D01*
X138304761Y-76671428D01*
X138209523Y-76623809D01*
X138161904Y-76576190D01*
X138114285Y-76480952D01*
%TO.C,C8*%
X139066666Y-81157142D02*
X139114285Y-81204761D01*
X139257142Y-81252380D01*
X139352380Y-81252380D01*
X139495238Y-81204761D01*
X139590476Y-81109523D01*
X139638095Y-81014285D01*
X139685714Y-80823809D01*
X139685714Y-80680952D01*
X139638095Y-80490476D01*
X139590476Y-80395238D01*
X139495238Y-80300000D01*
X139352380Y-80252380D01*
X139257142Y-80252380D01*
X139114285Y-80300000D01*
X139066666Y-80347619D01*
X138495238Y-80680952D02*
X138590476Y-80633333D01*
X138638095Y-80585714D01*
X138685714Y-80490476D01*
X138685714Y-80442857D01*
X138638095Y-80347619D01*
X138590476Y-80300000D01*
X138495238Y-80252380D01*
X138304761Y-80252380D01*
X138209523Y-80300000D01*
X138161904Y-80347619D01*
X138114285Y-80442857D01*
X138114285Y-80490476D01*
X138161904Y-80585714D01*
X138209523Y-80633333D01*
X138304761Y-80680952D01*
X138495238Y-80680952D01*
X138590476Y-80728571D01*
X138638095Y-80776190D01*
X138685714Y-80871428D01*
X138685714Y-81061904D01*
X138638095Y-81157142D01*
X138590476Y-81204761D01*
X138495238Y-81252380D01*
X138304761Y-81252380D01*
X138209523Y-81204761D01*
X138161904Y-81157142D01*
X138114285Y-81061904D01*
X138114285Y-80871428D01*
X138161904Y-80776190D01*
X138209523Y-80728571D01*
X138304761Y-80680952D01*
%TO.C,C6*%
X162966666Y-88757142D02*
X163014285Y-88804761D01*
X163157142Y-88852380D01*
X163252380Y-88852380D01*
X163395238Y-88804761D01*
X163490476Y-88709523D01*
X163538095Y-88614285D01*
X163585714Y-88423809D01*
X163585714Y-88280952D01*
X163538095Y-88090476D01*
X163490476Y-87995238D01*
X163395238Y-87900000D01*
X163252380Y-87852380D01*
X163157142Y-87852380D01*
X163014285Y-87900000D01*
X162966666Y-87947619D01*
X162109523Y-87852380D02*
X162300000Y-87852380D01*
X162395238Y-87900000D01*
X162442857Y-87947619D01*
X162538095Y-88090476D01*
X162585714Y-88280952D01*
X162585714Y-88661904D01*
X162538095Y-88757142D01*
X162490476Y-88804761D01*
X162395238Y-88852380D01*
X162204761Y-88852380D01*
X162109523Y-88804761D01*
X162061904Y-88757142D01*
X162014285Y-88661904D01*
X162014285Y-88423809D01*
X162061904Y-88328571D01*
X162109523Y-88280952D01*
X162204761Y-88233333D01*
X162395238Y-88233333D01*
X162490476Y-88280952D01*
X162538095Y-88328571D01*
X162585714Y-88423809D01*
%TO.C,C4*%
X137066666Y-85657142D02*
X137114285Y-85704761D01*
X137257142Y-85752380D01*
X137352380Y-85752380D01*
X137495238Y-85704761D01*
X137590476Y-85609523D01*
X137638095Y-85514285D01*
X137685714Y-85323809D01*
X137685714Y-85180952D01*
X137638095Y-84990476D01*
X137590476Y-84895238D01*
X137495238Y-84800000D01*
X137352380Y-84752380D01*
X137257142Y-84752380D01*
X137114285Y-84800000D01*
X137066666Y-84847619D01*
X136209523Y-85085714D02*
X136209523Y-85752380D01*
X136447619Y-84704761D02*
X136685714Y-85419047D01*
X136066666Y-85419047D01*
%TO.C,C2*%
X137066666Y-89857142D02*
X137114285Y-89904761D01*
X137257142Y-89952380D01*
X137352380Y-89952380D01*
X137495238Y-89904761D01*
X137590476Y-89809523D01*
X137638095Y-89714285D01*
X137685714Y-89523809D01*
X137685714Y-89380952D01*
X137638095Y-89190476D01*
X137590476Y-89095238D01*
X137495238Y-89000000D01*
X137352380Y-88952380D01*
X137257142Y-88952380D01*
X137114285Y-89000000D01*
X137066666Y-89047619D01*
X136685714Y-89047619D02*
X136638095Y-89000000D01*
X136542857Y-88952380D01*
X136304761Y-88952380D01*
X136209523Y-89000000D01*
X136161904Y-89047619D01*
X136114285Y-89142857D01*
X136114285Y-89238095D01*
X136161904Y-89380952D01*
X136733333Y-89952380D01*
X136114285Y-89952380D01*
%TO.C,C7*%
X162966666Y-90957142D02*
X163014285Y-91004761D01*
X163157142Y-91052380D01*
X163252380Y-91052380D01*
X163395238Y-91004761D01*
X163490476Y-90909523D01*
X163538095Y-90814285D01*
X163585714Y-90623809D01*
X163585714Y-90480952D01*
X163538095Y-90290476D01*
X163490476Y-90195238D01*
X163395238Y-90100000D01*
X163252380Y-90052380D01*
X163157142Y-90052380D01*
X163014285Y-90100000D01*
X162966666Y-90147619D01*
X162633333Y-90052380D02*
X161966666Y-90052380D01*
X162395238Y-91052380D01*
%TO.C,C5*%
X162966666Y-86657142D02*
X163014285Y-86704761D01*
X163157142Y-86752380D01*
X163252380Y-86752380D01*
X163395238Y-86704761D01*
X163490476Y-86609523D01*
X163538095Y-86514285D01*
X163585714Y-86323809D01*
X163585714Y-86180952D01*
X163538095Y-85990476D01*
X163490476Y-85895238D01*
X163395238Y-85800000D01*
X163252380Y-85752380D01*
X163157142Y-85752380D01*
X163014285Y-85800000D01*
X162966666Y-85847619D01*
X162061904Y-85752380D02*
X162538095Y-85752380D01*
X162585714Y-86228571D01*
X162538095Y-86180952D01*
X162442857Y-86133333D01*
X162204761Y-86133333D01*
X162109523Y-86180952D01*
X162061904Y-86228571D01*
X162014285Y-86323809D01*
X162014285Y-86561904D01*
X162061904Y-86657142D01*
X162109523Y-86704761D01*
X162204761Y-86752380D01*
X162442857Y-86752380D01*
X162538095Y-86704761D01*
X162585714Y-86657142D01*
%TO.C,C3*%
X137066666Y-87757142D02*
X137114285Y-87804761D01*
X137257142Y-87852380D01*
X137352380Y-87852380D01*
X137495238Y-87804761D01*
X137590476Y-87709523D01*
X137638095Y-87614285D01*
X137685714Y-87423809D01*
X137685714Y-87280952D01*
X137638095Y-87090476D01*
X137590476Y-86995238D01*
X137495238Y-86900000D01*
X137352380Y-86852380D01*
X137257142Y-86852380D01*
X137114285Y-86900000D01*
X137066666Y-86947619D01*
X136733333Y-86852380D02*
X136114285Y-86852380D01*
X136447619Y-87233333D01*
X136304761Y-87233333D01*
X136209523Y-87280952D01*
X136161904Y-87328571D01*
X136114285Y-87423809D01*
X136114285Y-87661904D01*
X136161904Y-87757142D01*
X136209523Y-87804761D01*
X136304761Y-87852380D01*
X136590476Y-87852380D01*
X136685714Y-87804761D01*
X136733333Y-87757142D01*
%TO.C,C1*%
X162966666Y-84457142D02*
X163014285Y-84504761D01*
X163157142Y-84552380D01*
X163252380Y-84552380D01*
X163395238Y-84504761D01*
X163490476Y-84409523D01*
X163538095Y-84314285D01*
X163585714Y-84123809D01*
X163585714Y-83980952D01*
X163538095Y-83790476D01*
X163490476Y-83695238D01*
X163395238Y-83600000D01*
X163252380Y-83552380D01*
X163157142Y-83552380D01*
X163014285Y-83600000D01*
X162966666Y-83647619D01*
X162014285Y-84552380D02*
X162585714Y-84552380D01*
X162300000Y-84552380D02*
X162300000Y-83552380D01*
X162395238Y-83695238D01*
X162490476Y-83790476D01*
X162585714Y-83838095D01*
D11*
%TO.C,C11*%
X135738748Y-68935000D02*
X136261252Y-68935000D01*
X135738748Y-67465000D02*
X136261252Y-67465000D01*
%TO.C,TP6*%
X151700000Y-56500000D02*
G75*
G03*
X151700000Y-56500000I-1200000J0D01*
G01*
%TO.C,TP5*%
X155700000Y-56500000D02*
G75*
G03*
X155700000Y-56500000I-1200000J0D01*
G01*
%TO.C,TP4*%
X143950000Y-54750000D02*
G75*
G03*
X143950000Y-54750000I-1200000J0D01*
G01*
%TO.C,TP3*%
X143950000Y-58250000D02*
G75*
G03*
X143950000Y-58250000I-1200000J0D01*
G01*
%TO.C,TP2*%
X147450000Y-54750000D02*
G75*
G03*
X147450000Y-54750000I-1200000J0D01*
G01*
%TO.C,TP1*%
X147450000Y-58250000D02*
G75*
G03*
X147450000Y-58250000I-1200000J0D01*
G01*
%TO.C,R15*%
X158022936Y-58485000D02*
X158477064Y-58485000D01*
X158022936Y-57015000D02*
X158477064Y-57015000D01*
%TO.C,R13*%
X150727064Y-53015000D02*
X150272936Y-53015000D01*
X150727064Y-54485000D02*
X150272936Y-54485000D01*
%TO.C,R12*%
X135772936Y-66985000D02*
X136227064Y-66985000D01*
X135772936Y-65515000D02*
X136227064Y-65515000D01*
%TO.C,R11*%
X135772936Y-71035000D02*
X136227064Y-71035000D01*
X135772936Y-69565000D02*
X136227064Y-69565000D01*
%TO.C,R10*%
X135772936Y-73765000D02*
X136227064Y-73765000D01*
X135772936Y-75235000D02*
X136227064Y-75235000D01*
%TO.C,R9*%
X135772936Y-79435000D02*
X136227064Y-79435000D01*
X135772936Y-77965000D02*
X136227064Y-77965000D01*
%TO.C,R8*%
X135772936Y-83635000D02*
X136227064Y-83635000D01*
X135772936Y-82165000D02*
X136227064Y-82165000D01*
%TO.C,R6*%
X146535000Y-87727064D02*
X146535000Y-87272936D01*
X145065000Y-87727064D02*
X145065000Y-87272936D01*
%TO.C,R4*%
X150535000Y-87727064D02*
X150535000Y-87272936D01*
X149065000Y-87727064D02*
X149065000Y-87272936D01*
%TO.C,R2*%
X154535000Y-87727064D02*
X154535000Y-87272936D01*
X153065000Y-87727064D02*
X153065000Y-87272936D01*
%TO.C,R7*%
X144535000Y-87727064D02*
X144535000Y-87272936D01*
X143065000Y-87727064D02*
X143065000Y-87272936D01*
%TO.C,R5*%
X148535000Y-87727064D02*
X148535000Y-87272936D01*
X147065000Y-87727064D02*
X147065000Y-87272936D01*
%TO.C,R3*%
X152535000Y-87727064D02*
X152535000Y-87272936D01*
X151065000Y-87727064D02*
X151065000Y-87272936D01*
%TO.C,R1*%
X155065000Y-87727064D02*
X155065000Y-87272936D01*
X156535000Y-87727064D02*
X156535000Y-87272936D01*
%TO.C,Q1*%
X149450000Y-60400000D02*
X149450000Y-62400000D01*
X153050000Y-62400000D02*
X153050000Y-62800000D01*
X153050000Y-62400000D02*
X153050000Y-60400000D01*
X149450000Y-62800000D02*
X149600000Y-62800000D01*
X152000000Y-62800000D02*
X152050000Y-62800000D01*
X149450000Y-60400000D02*
X149600000Y-60400000D01*
X153250000Y-60400000D02*
X153250000Y-62400000D01*
X153050000Y-60400000D02*
X152900000Y-60400000D01*
X153050000Y-62800000D02*
X152900000Y-62800000D01*
X152000000Y-62800000D02*
X152000000Y-63200000D01*
X149450000Y-62400000D02*
X149450000Y-62800000D01*
X153250000Y-62400000D02*
X153250000Y-62800000D01*
%TO.C,IC3*%
X158500000Y-64060000D02*
X160450000Y-64060000D01*
X158500000Y-58940000D02*
X160450000Y-58940000D01*
X158500000Y-64060000D02*
X155050000Y-64060000D01*
X158500000Y-58940000D02*
X156550000Y-58940000D01*
%TO.C,IC2*%
X145640000Y-76360000D02*
X146365000Y-76360000D01*
X152860000Y-76360000D02*
X152135000Y-76360000D01*
X152860000Y-69865000D02*
X152860000Y-69140000D01*
X145640000Y-75635000D02*
X145640000Y-76360000D01*
X152860000Y-75635000D02*
X152860000Y-76360000D01*
X152860000Y-69140000D02*
X152135000Y-69140000D01*
X145640000Y-69865000D02*
X145640000Y-69140000D01*
D10*
%TO.C,IC1*%
X154425000Y-67575000D02*
X153750000Y-67575000D01*
X154425000Y-67575000D02*
X154425000Y-68250000D01*
X154425000Y-77925000D02*
X153750000Y-77925000D01*
X144075000Y-77925000D02*
X144750000Y-77925000D01*
X144075000Y-67575000D02*
X144075000Y-68250000D01*
X154425000Y-77925000D02*
X154425000Y-77250000D01*
X144650000Y-67575000D02*
X144650000Y-66300000D01*
X144075000Y-77925000D02*
X144075000Y-77250000D01*
X144075000Y-67575000D02*
X144650000Y-67575000D01*
D11*
%TO.C,C27*%
X160723752Y-64515000D02*
X160201248Y-64515000D01*
X160723752Y-65985000D02*
X160201248Y-65985000D01*
%TO.C,C26*%
X149035000Y-62661252D02*
X149035000Y-62138748D01*
X147565000Y-62661252D02*
X147565000Y-62138748D01*
%TO.C,C25*%
X140435000Y-74461252D02*
X140435000Y-73938748D01*
X138965000Y-74461252D02*
X138965000Y-73938748D01*
%TO.C,C24*%
X150265000Y-81776248D02*
X150265000Y-82298752D01*
X151735000Y-81776248D02*
X151735000Y-82298752D01*
%TO.C,C23*%
X156465000Y-72901248D02*
X156465000Y-73423752D01*
X157935000Y-72901248D02*
X157935000Y-73423752D01*
%TO.C,C15*%
X164235000Y-59798752D02*
X164235000Y-59276248D01*
X162765000Y-59798752D02*
X162765000Y-59276248D01*
%TO.C,C14*%
X162765000Y-63201248D02*
X162765000Y-63723752D01*
X164235000Y-63201248D02*
X164235000Y-63723752D01*
%TO.C,C13*%
X149235000Y-82298752D02*
X149235000Y-81776248D01*
X147765000Y-82298752D02*
X147765000Y-81776248D01*
%TO.C,C12*%
X135738748Y-64935000D02*
X136261252Y-64935000D01*
X135738748Y-63465000D02*
X136261252Y-63465000D01*
%TO.C,C10*%
X135738748Y-73135000D02*
X136261252Y-73135000D01*
X135738748Y-71665000D02*
X136261252Y-71665000D01*
%TO.C,C9*%
X135738748Y-77335000D02*
X136261252Y-77335000D01*
X135738748Y-75865000D02*
X136261252Y-75865000D01*
%TO.C,C8*%
X135738748Y-81535000D02*
X136261252Y-81535000D01*
X135738748Y-80065000D02*
X136261252Y-80065000D01*
%TO.C,C6*%
X160161252Y-87665000D02*
X159638748Y-87665000D01*
X160161252Y-89135000D02*
X159638748Y-89135000D01*
%TO.C,C4*%
X139538748Y-86035000D02*
X140061252Y-86035000D01*
X139538748Y-84565000D02*
X140061252Y-84565000D01*
%TO.C,C2*%
X139538748Y-90235000D02*
X140061252Y-90235000D01*
X139538748Y-88765000D02*
X140061252Y-88765000D01*
%TO.C,C7*%
X160161252Y-89865000D02*
X159638748Y-89865000D01*
X160161252Y-91335000D02*
X159638748Y-91335000D01*
%TO.C,C5*%
X160161252Y-85565000D02*
X159638748Y-85565000D01*
X160161252Y-87035000D02*
X159638748Y-87035000D01*
%TO.C,C3*%
X139538748Y-88135000D02*
X140061252Y-88135000D01*
X139538748Y-86665000D02*
X140061252Y-86665000D01*
%TO.C,C1*%
X160161252Y-83365000D02*
X159638748Y-83365000D01*
X160161252Y-84835000D02*
X159638748Y-84835000D01*
%TD*%
M02*
